<?xml version="1.0" encoding="UTF-8"?>
<svg width="120px" height="32px" viewBox="0 0 120 32" version="1.1" xmlns="http://www.w3.org/2000/svg" xmlns:xlink="http://www.w3.org/1999/xlink">
    <!-- Generator: Sketch 43.1 (39012) - http://www.bohemiancoding.com/sketch -->
    <title>logo</title>
    <desc>Created with Sketch.</desc>
    <defs></defs>
    <g id="_Client" stroke="none" stroke-width="1" fill="none" fill-rule="evenodd">
        <g id="5xRuby-Copy" transform="translate(-73.000000, -34.000000)">
            <g id="logo" transform="translate(73.000000, 34.000000)">
                <path d="M0,24.074955 L0,22.0972973 C1.08,22.5412613 2.12,22.7632432 3.12,22.7632432 C4.2,22.7632432 5.06,22.4403604 5.68,21.7945946 C6.3,21.1488288 6.6,20.2609009 6.6,19.1308108 C6.6,16.6486486 4.9,15.3974775 1.5,15.3974775 C1.12,15.3974775 0.72,15.4176577 0.28,15.4781982 L0.28,7.40612613 L8.6,7.40612613 L8.6,9.34342342 L2.2,9.34342342 L2.2,13.7225225 C4.32,13.7225225 5.96,14.2068468 7.14,15.1956757 C8.32,16.1845045 8.92,17.5365766 8.92,19.2720721 C8.92,20.8864865 8.38,22.1578378 7.3,23.0659459 C6.22,23.9740541 4.72,24.4381982 2.82,24.4381982 C2,24.418018 1.06,24.2969369 0,24.074955 L0,24.074955 Z" id="Shape" fill="#D7233B"></path>
                <polygon id="Shape" fill="#CF282A" points="18.46 15.8010811 21 12.1888288 18.66 12.1888288 17.3 14.1261261 15.94 12.1888288 13.64 12.1888288 16.14 15.7809009 13.58 19.4536937 15.92 19.4536937 17.32 17.4558559 18.7 19.4536937 21.02 19.4536937"></polygon>
                <path d="M27.94,15.7001802 C28.44,16.2046847 28.76,16.6688288 28.92,17.1127928 C29.1,17.5567568 29.18,18.1823423 29.18,18.9895495 L29.18,24.1556757 L29.2,24.7610811 C29.2,25.5481081 29.28,26.0324324 29.46,26.2544144 C29.64,26.4763964 30.06,26.5772973 30.68,26.5772973 L30.9,26.5772973 L31.38,26.5772973 L31.38,28.9181982 L30.48,28.9181982 C29.16,28.9383784 28.2,28.554955 27.58,27.8082883 C26.96,27.0414414 26.66,25.8508108 26.66,24.2363964 L26.66,19.0904505 C26.66,18.3841441 26.56,17.8796396 26.38,17.5769369 C26.2,17.2540541 25.88,17.0522523 25.42,16.9311712 C25.38,16.910991 25.34,16.910991 25.3,16.8908108 C25.26,16.8908108 25.24,16.8706306 25.2,16.8706306 L25.06,16.8302703 L25.06,14.4288288 C25.14,14.3279279 25.26,14.2673874 25.42,14.227027 C26.24,14.0655856 26.66,13.3996396 26.66,12.209009 L26.66,6.69981982 C26.66,3.81405405 27.88,2.36108108 30.34,2.36108108 L30.92,2.38126126 C31.12,2.38126126 31.28,2.42162162 31.38,2.50234234 L31.38,4.84324324 L30.66,4.84324324 C30,4.84324324 29.6,4.9845045 29.42,5.24684685 C29.26,5.50918919 29.18,6.15495495 29.18,7.18414414 L29.18,12.430991 C29.18,12.8345946 29.16,13.1978378 29.12,13.5207207 C29.08,13.8436036 29,14.1261261 28.9,14.3884685 C28.8,14.6508108 28.68,14.892973 28.52,15.0947748 C28.36,15.3167568 28.16,15.5185586 27.94,15.7001802 L27.94,15.7001802 Z" id="Shape" fill="#D7233B"></path>
                <polygon id="Shape" fill="#D7233B" points="88.62 16.910991 88.62 14.4086486 90.86 14.4086486 90.86 16.910991"></polygon>
                <path d="M99.9,22.8237838 C98.78,22.8237838 97.92,22.5009009 97.3,21.8551351 C96.68,21.2093694 96.36,20.3214414 96.36,19.1711712 L96.36,12.0072072 L94.84,12.0072072 L94.84,10.3524324 L96.36,10.3524324 L96.36,8.13261261 L98.56,7.91063063 L98.56,10.3322523 L101.72,10.3322523 L101.72,11.987027 L98.56,11.987027 L98.56,18.7675676 C98.56,20.3618018 99.24,21.1488288 100.6,21.1488288 C100.88,21.1488288 101.24,21.1084685 101.66,21.0075676 L101.66,22.5412613 C101,22.7228829 100.4,22.8237838 99.9,22.8237838 L99.9,22.8237838 Z" id="Shape" fill="#D7233B"></path>
                <polygon id="Shape" fill="#D7233B" points="106.2 22.5412613 102.74 10.3524324 104.88 10.3524324 107.52 19.7967568 110.38 10.3524324 112.58 10.3524324 115.08 19.7967568 118.12 10.3524324 120 10.3524324 116.06 22.5412613 113.86 22.5412613 111.3 13.1171171 108.4 22.5614414 106.2 22.5614414"></polygon>
                <path d="M81.46,15.6396396 C80.98,15.1351351 80.64,14.6508108 80.46,14.2068468 C80.3,13.7023423 80.22,13.0767568 80.22,12.3300901 L80.22,7.14378378 L80.2,6.53837838 C80.2,5.77153153 80.1,5.26702703 79.92,5.06522523 C79.74,4.84324324 79.34,4.72216216 78.7,4.72216216 L78.48,4.72216216 L78,4.72216216 L78,2.38126126 L78.9,2.38126126 C80.22,2.36108108 81.18,2.7445045 81.8,3.49117117 C82.42,4.25801802 82.72,5.44864865 82.72,7.06306306 L82.72,12.2291892 C82.72,12.9354955 82.8,13.44 82.98,13.7427027 C83.16,14.0454054 83.48,14.2673874 83.96,14.3884685 C84,14.4086486 84.04,14.4086486 84.08,14.4288288 C84.12,14.4288288 84.14,14.449009 84.18,14.449009 L84.32,14.4893694 L84.32,16.8908108 C84.24,16.9917117 84.12,17.0522523 83.96,17.0926126 C83.14,17.2540541 82.72,17.92 82.72,19.1106306 L82.72,24.6198198 C82.72,27.5055856 81.48,28.9585586 79.02,28.9585586 L78.44,28.9383784 C78.26,28.9383784 78.1,28.898018 78,28.8172973 L78,26.4965766 L78.72,26.4965766 C79.38,26.4965766 79.78,26.3553153 79.96,26.092973 C80.14,25.8306306 80.22,25.1848649 80.22,24.1556757 L80.22,18.9088288 C80.22,18.0612613 80.32,17.3953153 80.5,16.9715315 C80.68,16.4872072 81,16.0432432 81.46,15.6396396 L81.46,15.6396396 Z" id="Shape" fill="#D7233B"></path>
                <polygon id="Shape" fill="#D7233B" points="55.28 16.6486486 55.28 31.7232432 65.24 15.1956757"></polygon>
                <polygon id="Shape" fill="#D7233B" points="55.52 15.5790991 65.3 14.1664865 59.02 5.71099099"></polygon>
                <polygon id="Shape" fill="#D7233B" points="68.22 2.62342342 66.82 13.8637838 75.18 11.765045"></polygon>
                <polygon id="Shape" fill="#D7233B" points="65.88 13.218018 67.26 2.09873874 59.68 4.8836036"></polygon>
                <polygon id="Shape" fill="#D7233B" points="42.98 14.9938739 35.14 13.0162162 52.14 30.1693694"></polygon>
                <polygon id="Shape" fill="#D7233B" points="54.26 16.6486486 44.3 15.1956757 54.26 31.7232432"></polygon>
                <polygon id="Shape" fill="#D7233B" points="66.56 14.9938739 57.4 30.1693694 74.4 13.0162162"></polygon>
                <path d="M43.42,1.43279279 L50.76,4.13693694 L58.76,4.13693694 L66.1,1.43279279 C63.9,0.948468468 59.68,0.181621622 54.74,0.181621622 C49.84,0.161441441 45.6,0.948468468 43.42,1.43279279 L43.42,1.43279279 Z" id="Shape" fill="#D7233B"></path>
                <polygon id="Shape" fill="#D7233B" points="54.78 14.670991 58.14 5.14594595 51.4 5.14594595"></polygon>
                <polygon id="Shape" fill="#D7233B" points="54.02 15.5790991 50.52 5.71099099 44.24 14.1664865"></polygon>
                <polygon id="Shape" fill="#D7233B" points="42.72 13.8637838 41.32 2.62342342 34.36 11.765045"></polygon>
                <polygon id="Shape" fill="#D7233B" points="43.66 13.218018 49.86 4.8836036 42.28 2.09873874"></polygon>
            </g>
        </g>
    </g>
</svg>