<?xml version="1.0" encoding="utf-8"?>
<!-- Generator: Adobe Illustrator 20.0.0, SVG Export Plug-In . SVG Version: 6.00 Build 0)  -->
<svg version="1.1" id="5xruby" xmlns="http://www.w3.org/2000/svg" xmlns:xlink="http://www.w3.org/1999/xlink" x="0px" y="0px" viewBox="0 0 240 100" style="enable-background:new 0 0 240 100;" xml:space="preserve">
    <style type="text/css">
	.st0{fill:#D7233B;}
	.st1{fill:#CF282A;}
</style>
    <title>5xruby</title>
    <g id="5xRuby" transform="translate(-73.000000, -34.000000)">
        <g id="5xruby" transform="translate(73.000000, 34.000000)">
            <path id="Shape" class="st0" d="M60,58.1v-2c1.1,0.4,2.1,0.7,3.1,0.7c1.1,0,1.9-0.3,2.6-1c0.6-0.6,0.9-1.5,0.9-2.7
				c0-2.5-1.7-3.7-5.1-3.7c-0.4,0-0.8,0-1.2,0.1v-8.1h8.3v1.9h-6.4v4.4c2.1,0,3.8,0.5,4.9,1.5c1.2,1,1.8,2.3,1.8,4.1
				c0,1.6-0.5,2.9-1.6,3.8c-1.1,0.9-2.6,1.4-4.5,1.4C62,58.5,61.1,58.3,60,58.1L60,58.1z"></path>
            <polygon id="Shape_1_" class="st1" points="78.5,49.8 81,46.2 78.7,46.2 77.3,48.2 75.9,46.2 73.6,46.2 76.1,49.8 73.6,53.5 
				75.9,53.5 77.3,51.5 78.7,53.5 81,53.5 			"></polygon>
            <path id="Shape_2_" class="st0" d="M87.9,49.7c0.5,0.5,0.8,1,1,1.4c0.2,0.4,0.3,1.1,0.3,1.9v5.2l0,0.6c0,0.8,0.1,1.3,0.3,1.5
				c0.2,0.2,0.6,0.3,1.2,0.3h0.2h0.5V63h-0.9c-1.3,0-2.3-0.4-2.9-1.1c-0.6-0.8-0.9-2-0.9-3.6v-5.1c0-0.7-0.1-1.2-0.3-1.5
				c-0.2-0.3-0.5-0.5-1-0.6c0,0-0.1,0-0.1,0c0,0-0.1,0-0.1,0l-0.1,0v-2.4c0.1-0.1,0.2-0.2,0.4-0.2c0.8-0.2,1.2-0.8,1.2-2v-5.5
				c0-2.9,1.2-4.3,3.7-4.3l0.6,0c0.2,0,0.4,0,0.5,0.1v2.3h-0.7c-0.7,0-1.1,0.1-1.2,0.4c-0.2,0.3-0.2,0.9-0.2,1.9v5.2
				c0,0.4,0,0.8-0.1,1.1s-0.1,0.6-0.2,0.9c-0.1,0.3-0.2,0.5-0.4,0.7C88.4,49.4,88.2,49.6,87.9,49.7L87.9,49.7z"></path>
            <polygon id="Shape_3_" class="st0" points="148.6,51 148.6,48.5 150.9,48.5 150.9,51 			"></polygon>
            <path id="Shape_4_" class="st0" d="M159.9,56.9c-1.1,0-2-0.3-2.6-1c-0.6-0.6-0.9-1.5-0.9-2.7v-7.2h-1.5v-1.7h1.5v-2.2l2.2-0.2
				v2.4h3.2V46h-3.2v6.8c0,1.6,0.7,2.4,2,2.4c0.3,0,0.6,0,1.1-0.1v1.5C161,56.8,160.4,56.9,159.9,56.9L159.9,56.9z"></path>
            <polygon id="Shape_5_" class="st0" points="166.2,56.6 162.7,44.4 164.9,44.4 167.5,53.8 170.4,44.4 172.6,44.4 175.1,53.8 
				178.1,44.4 180,44.4 176.1,56.6 173.9,56.6 171.3,47.2 168.4,56.6 166.2,56.6 			"></polygon>
            <path id="Shape_6_" class="st0" d="M141.5,49.7c-0.5-0.5-0.8-1-1-1.4c-0.2-0.5-0.2-1.1-0.2-1.9v-5.2l0-0.6c0-0.8-0.1-1.3-0.3-1.5
				c-0.2-0.2-0.6-0.3-1.2-0.3h-0.2H138v-2.3h0.9c1.3,0,2.3,0.4,2.9,1.1c0.6,0.8,0.9,2,0.9,3.6v5.2c0,0.7,0.1,1.2,0.3,1.5
				c0.2,0.3,0.5,0.5,1,0.6c0,0,0.1,0,0.1,0c0,0,0.1,0,0.1,0l0.1,0v2.4c-0.1,0.1-0.2,0.2-0.4,0.2c-0.8,0.2-1.2,0.8-1.2,2v5.5
				c0,2.9-1.2,4.3-3.7,4.3l-0.6,0c-0.2,0-0.3,0-0.4-0.1v-2.3h0.7c0.7,0,1.1-0.1,1.2-0.4c0.2-0.3,0.3-0.9,0.3-1.9V53
				c0-0.8,0.1-1.5,0.3-1.9C140.7,50.5,141,50.1,141.5,49.7L141.5,49.7z"></path>
            <polygon id="Shape_7_" class="st0" points="115.3,50.7 115.3,65.8 125.2,49.2 			"></polygon>
            <polygon id="Shape_8_" class="st0" points="115.5,49.6 125.3,48.2 119,39.8 			"></polygon>
            <polygon id="Shape_9_" class="st0" points="128.2,36.7 126.8,47.9 135.2,45.8 			"></polygon>
            <polygon id="Shape_10_" class="st0" points="125.9,47.3 127.3,36.1 119.7,38.9 			"></polygon>
            <polygon id="Shape_11_" class="st0" points="103,49 95.1,47.1 112.1,64.2 			"></polygon>
            <polygon id="Shape_12_" class="st0" points="114.3,50.7 104.3,49.2 114.3,65.8 			"></polygon>
            <polygon id="Shape_13_" class="st0" points="126.6,49 117.4,64.2 134.4,47.1 			"></polygon>
            <path id="Shape_14_" class="st0" d="M103.4,35.5l7.3,2.7h8l7.3-2.7c-2.2-0.5-6.4-1.3-11.4-1.3C109.8,34.2,105.6,35,103.4,35.5
				L103.4,35.5z"></path>
            <polygon id="Shape_15_" class="st0" points="114.8,48.7 118.1,39.2 111.4,39.2 			"></polygon>
            <polygon id="Shape_16_" class="st0" points="114,49.6 110.5,39.8 104.2,48.2 			"></polygon>
            <polygon id="Shape_17_" class="st0" points="102.7,47.9 101.3,36.7 94.4,45.8 			"></polygon>
            <polygon id="Shape_18_" class="st0" points="103.7,47.3 109.9,38.9 102.3,36.1 			"></polygon>
        </g>
    </g>
</svg>