<?xml version="1.0" encoding="UTF-8"?>
<svg width="74px" height="35px" viewBox="0 0 74 35" version="1.1" xmlns="http://www.w3.org/2000/svg" xmlns:xlink="http://www.w3.org/1999/xlink">
    <!-- Generator: Sketch 43.1 (39012) - http://www.bohemiancoding.com/sketch -->
    <title>logo</title>
    <desc>Created with Sketch.</desc>
    <defs></defs>
    <g id="_Client" stroke="none" stroke-width="1" fill="none" fill-rule="evenodd">
        <g id="Fable-Copy" transform="translate(-80.000000, -26.000000)">
            <g id="logo" transform="translate(80.000000, 26.000000)">
                <g id="Group">
                    <g id="Shape">
                        <path d="M6.84090909,0.048951049 L12.0297203,0.048951049 L12.0297203,3.08391608 L6.66958042,3.08391608 C6.36363636,3.08391608 6.06993007,3.10839161 5.76398601,3.16958042 C5.45804196,3.23076923 5.16433566,3.31643357 4.85839161,3.42657343 C4.72377622,3.5 4.58916084,3.57342657 4.45454545,3.65909091 C4.33216783,3.74475524 4.20979021,3.84265734 4.08741259,3.9527972 C3.98951049,4.07517483 3.90384615,4.19755245 3.80594406,4.33216783 C3.70804196,4.46678322 3.63461538,4.61363636 3.56118881,4.74825175 C3.42657343,4.95629371 3.31643357,5.18881119 3.24300699,5.43356643 C3.16958042,5.67832168 3.12062937,5.92307692 3.10839161,6.18006993 L3.10839161,10.4020979 L12.0297203,10.4020979 L12.0297203,13.4003497 L3.10839161,13.4003497 L3.10839161,23.5454545 L0,23.5454545 L0,7.0979021 L0.318181818,4.58916084 C0.440559441,4.23426573 0.575174825,3.89160839 0.734265734,3.56118881 C0.893356643,3.21853147 1.08916084,2.90034965 1.2972028,2.60664336 C1.50524476,2.34965035 1.72552448,2.12937063 1.95804196,1.92132867 C2.19055944,1.72552448 2.43531469,1.54195804 2.69230769,1.38286713 C3.02272727,1.15034965 3.36538462,0.954545455 3.74475524,0.795454545 C4.11188811,0.636363636 4.49125874,0.501748252 4.85839161,0.416083916 C5.06643357,0.342657343 5.28671329,0.293706294 5.50699301,0.244755245 C5.72727273,0.195804196 5.95979021,0.159090909 6.19230769,0.134615385 C6.30244755,0.11013986 6.42482517,0.0979020979 6.52272727,0.0979020979 L6.85314685,0.0979020979 L6.85314685,0.048951049 L6.84090909,0.048951049 Z" fill="#3AB1DC"></path>
                        <path d="M22.5541958,8.44405594 C22.6398601,8.46853147 22.7377622,8.48076923 22.8356643,8.48076923 L23.1048951,8.48076923 C23.6433566,8.50524476 24.1818182,8.59090909 24.708042,8.73776224 C25.2342657,8.88461538 25.736014,9.1048951 26.2132867,9.38636364 C26.4947552,9.4965035 26.7517483,9.63111888 26.9965035,9.79020979 C27.229021,9.9493007 27.4615385,10.1451049 27.6818182,10.3531469 C28.2447552,10.8671329 28.6975524,11.4667832 29.0402098,12.1520979 C29.3828671,12.8374126 29.6031469,13.5472028 29.6888112,14.3059441 L29.6888112,23.5454545 L27.0332168,23.5454545 L27.0332168,14.9545455 C27.0087413,14.6486014 26.9475524,14.3426573 26.8496503,14.0122378 C26.7517483,13.6940559 26.6171329,13.3881119 26.4458042,13.1066434 C26.1276224,12.5437063 25.6870629,12.0786713 25.1486014,11.7115385 C24.6101399,11.3444056 24.0104895,11.1118881 23.3618881,11.0017483 C23.215035,10.9527972 23.0437063,10.9283217 22.8601399,10.9160839 C22.6765734,10.9038462 22.493007,10.9038462 22.3216783,10.9038462 L22.1136364,10.9038462 C22.0402098,10.9038462 21.9667832,10.9160839 21.9055944,10.9405594 C21.8444056,10.9405594 21.770979,10.9405594 21.6975524,10.9527972 C21.6241259,10.965035 21.5506993,10.965035 21.4895105,10.965035 C20.8164336,10.9895105 20.1923077,11.1486014 19.6048951,11.4667832 C19.0174825,11.784965 18.5524476,12.2132867 18.1730769,12.7762238 C17.8916084,13.229021 17.6713287,13.7185315 17.5244755,14.2325175 C17.3776224,14.7465035 17.291958,15.2972028 17.291958,15.8479021 L17.291958,16.0559441 L17.291958,16.3006993 C17.291958,16.3863636 17.291958,16.472028 17.3041958,16.5454545 C17.3164336,16.6188811 17.3286713,16.6923077 17.3531469,16.7534965 C17.3776224,17.0716783 17.4265734,17.4020979 17.5122378,17.708042 C17.5979021,18.0262238 17.7202797,18.3321678 17.8671329,18.6258741 C18.013986,18.9073427 18.1853147,19.1765734 18.3811189,19.4213287 C18.5769231,19.6660839 18.784965,19.8986014 18.993007,20.1188811 C19.2255245,20.3391608 19.4947552,20.5227273 19.7762238,20.6695804 C20.0576923,20.8164336 20.3513986,20.9388112 20.6451049,21.0244755 C20.8776224,21.1101399 21.1346154,21.1713287 21.3916084,21.2202797 C21.6486014,21.2692308 21.9055944,21.2814685 22.1748252,21.2814685 L22.284965,21.2814685 C22.3216783,21.2814685 22.3461538,21.2692308 22.3706294,21.2447552 L22.4807692,21.2447552 L22.5664336,21.2447552 C22.8723776,21.2202797 23.1538462,21.1713287 23.4230769,21.0856643 C23.6923077,21 23.9615385,20.8776224 24.2185315,20.7307692 C24.5,20.5594406 24.7692308,20.3636364 25.013986,20.1311189 C25.2587413,19.8986014 25.479021,19.6660839 25.6503497,19.3968531 L25.6503497,22.5052448 C25.1486014,22.8723776 24.6101399,23.1538462 24.034965,23.3496503 C23.4475524,23.5454545 22.8479021,23.6678322 22.2237762,23.7045455 C22.0891608,23.729021 21.9667832,23.7412587 21.8566434,23.7412587 L21.4895105,23.7412587 C21.2325175,23.7167832 20.9755245,23.6923077 20.7307692,23.6555944 C20.486014,23.6188811 20.2412587,23.5699301 19.9965035,23.5087413 C19.5804196,23.4230769 19.1888112,23.2762238 18.8094406,23.0926573 C18.4300699,22.8968531 18.0751748,22.6765734 17.7202797,22.4073427 C17.4143357,22.1748252 17.1206294,21.9178322 16.8391608,21.6486014 C16.5576923,21.3793706 16.3006993,21.0979021 16.0559441,20.791958 C15.8234266,20.4737762 15.6031469,20.1311189 15.4073427,19.7762238 C15.2115385,19.4213287 15.0524476,19.0541958 14.9178322,18.6870629 C14.7832168,18.2587413 14.6853147,17.8181818 14.6241259,17.3776224 C14.5629371,16.9370629 14.5262238,16.4842657 14.5262238,16.0314685 C14.5262238,15.6153846 14.5629371,15.2115385 14.6241259,14.8199301 C14.6853147,14.4160839 14.770979,14.0244755 14.8811189,13.6328671 C15.0157343,13.2167832 15.1748252,12.8251748 15.3706294,12.4458042 C15.5664336,12.0664336 15.7867133,11.7115385 16.0192308,11.3566434 C16.2517483,11.0506993 16.5087413,10.7692308 16.777972,10.5122378 C17.0472028,10.2552448 17.3286713,10.0104895 17.6346154,9.80244755 C17.9405594,9.56993007 18.270979,9.36188811 18.6258741,9.19055944 C18.9807692,9.01923077 19.3479021,8.88461538 19.715035,8.79895105 C20.1678322,8.66433566 20.6328671,8.56643357 21.1101399,8.50524476 C21.5874126,8.44405594 22.0646853,8.41958042 22.541958,8.44405594 L22.541958,8.44405594 L22.5541958,8.44405594 Z" fill="#231815"></path>
                        <path d="M35.6241259,1.73776224 L35.6241259,16.4230769 C35.6486014,17.1206294 35.7832168,17.756993 36.0402098,18.3566434 C36.2972028,18.9562937 36.6520979,19.4825175 37.1048951,19.9597902 C37.3374126,20.1923077 37.5944056,20.4125874 37.8636364,20.5961538 C38.1328671,20.7797203 38.4143357,20.9265734 38.7202797,21.0367133 C39.0384615,21.1223776 39.3688811,21.1958042 39.7115385,21.2447552 C40.041958,21.2937063 40.3846154,21.3181818 40.7272727,21.2937063 C41.0454545,21.2937063 41.3758741,21.256993 41.6818182,21.1835664 C42,21.1101399 42.2937063,21 42.5751748,20.8409091 C42.8811189,20.6940559 43.1625874,20.5104895 43.4195804,20.3024476 C43.6765734,20.0944056 43.9213287,19.8618881 44.1293706,19.6048951 C44.3496503,19.3479021 44.5332168,19.0786713 44.6923077,18.7972028 C44.8513986,18.5157343 44.986014,18.2342657 45.0961538,17.9527972 C45.2062937,17.6346154 45.291958,17.3041958 45.3531469,16.9615385 C45.4143357,16.6311189 45.451049,16.2884615 45.451049,15.9458042 C45.451049,15.8356643 45.451049,15.7377622 45.4388112,15.6398601 C45.4265734,15.541958 45.4265734,15.4440559 45.4265734,15.3339161 C45.4020979,15.1136364 45.3653846,14.9055944 45.3164336,14.6975524 C45.2674825,14.4895105 45.2062937,14.2937063 45.1328671,14.0979021 C44.9615385,13.4493007 44.6433566,12.8741259 44.1783217,12.3846154 C43.7132867,11.8828671 43.1625874,11.527972 42.5384615,11.3199301 C42.2325175,11.1853147 41.9265734,11.0874126 41.5961538,11.0262238 C41.2657343,10.965035 40.9475524,10.9160839 40.6293706,10.8916084 C39.8951049,10.8426573 39.1853147,10.9405594 38.4877622,11.1486014 C37.7902098,11.3688811 37.1660839,11.6870629 36.6031469,12.1153846 L36.6031469,9.3986014 C36.9947552,9.17832168 37.3986014,9.00699301 37.8146853,8.86013986 C38.2307692,8.72552448 38.6713287,8.61538462 39.1241259,8.5541958 C39.3566434,8.50524476 39.6013986,8.48076923 39.8583916,8.46853147 C40.1031469,8.45629371 40.3479021,8.45629371 40.5926573,8.45629371 C40.8251748,8.45629371 41.0699301,8.45629371 41.3269231,8.46853147 C41.5716783,8.48076923 41.8164336,8.50524476 42.0611888,8.5541958 C42.9423077,8.70104895 43.7744755,9.01923077 44.5454545,9.47202797 C45.3164336,9.93706294 45.965035,10.548951 46.5034965,11.3076923 C46.8094406,11.6503497 47.0664336,12.0297203 47.2867133,12.4458042 C47.506993,12.8618881 47.6905594,13.277972 47.8374126,13.7062937 C47.8863636,13.8776224 47.9230769,14.0611888 47.9475524,14.2447552 C47.9842657,14.4283217 48.0087413,14.6118881 48.0332168,14.7832168 C48.0576923,14.979021 48.0699301,15.1625874 48.0821678,15.3461538 C48.0944056,15.5297203 48.0944056,15.7132867 48.0944056,15.8846154 C48.0944056,16.4230769 48.0454545,16.9493007 47.9597902,17.4755245 C47.8741259,17.9895105 47.7395105,18.5034965 47.5681818,18.993007 C47.2867133,19.8618881 46.8461538,20.6328671 46.2342657,21.3304196 C45.6346154,22.027972 44.9125874,22.5786713 44.0926573,23.0192308 C43.6765734,23.2395105 43.2604895,23.3986014 42.8321678,23.5087413 C42.4038462,23.6188811 41.951049,23.6923077 41.4982517,23.7412587 C41.4125874,23.7657343 41.3146853,23.777972 41.2167832,23.7902098 C41.1188811,23.8024476 41.0332168,23.8024476 40.9353147,23.8024476 L40.6660839,23.8024476 L40.3846154,23.8024476 C40.1031469,23.8024476 39.8339161,23.7902098 39.5769231,23.7657343 C39.3199301,23.7412587 39.0629371,23.7045455 38.7937063,23.6311189 C37.8881119,23.520979 37.0437063,23.2272727 36.2604895,22.7377622 C35.4772727,22.2482517 34.8286713,21.6363636 34.277972,20.9020979 C33.972028,20.5104895 33.715035,20.0944056 33.4825175,19.6416084 C33.25,19.1888112 33.0786713,18.7237762 32.9440559,18.2465035 L32.9440559,1.73776224 L35.6241259,1.73776224 L35.6241259,1.73776224 Z" fill="#231815"></path>
                        <polygon fill="#231815" points="54.5192308 1.73776224 54.5192308 23.5454545 51.8024476 23.5454545 51.8024476 1.73776224"></polygon>
                        <path d="M64.8723776,8.26048951 L65.3863636,8.26048951 C65.5576923,8.26048951 65.729021,8.27272727 65.9003497,8.2972028 C66.243007,8.32167832 66.5979021,8.35839161 66.9527972,8.40734266 C67.3076923,8.45629371 67.6503497,8.54195804 67.9685315,8.6520979 C68.4702797,8.79895105 68.9475524,9.00699301 69.4248252,9.25174825 C69.9020979,9.4965035 70.3426573,9.79020979 70.7587413,10.1083916 C71.2115385,10.5244755 71.6153846,10.965035 71.9702797,11.4423077 C72.3251748,11.9195804 72.6311189,12.4335664 72.8881119,12.9965035 L63.0244755,18.6258741 L61.763986,16.4230769 L68.9965035,12.2377622 C68.8006993,12.0174825 68.5926573,11.8216783 68.3601399,11.6258741 C68.1276224,11.4300699 67.8706294,11.2587413 67.5646853,11.1118881 C67.2587413,10.9772727 66.9405594,10.8793706 66.6101399,10.7937063 C66.2797203,10.708042 65.9370629,10.6590909 65.5944056,10.6346154 C65.2762238,10.6346154 64.9458042,10.6590909 64.6398601,10.7202797 C64.3216783,10.7692308 64.0157343,10.8548951 63.722028,10.965035 C63.048951,11.1853147 62.4737762,11.5524476 61.972028,12.0664336 C61.4702797,12.5804196 61.1153846,13.1923077 60.9073427,13.8776224 C60.8583916,14.0244755 60.8216783,14.1835664 60.7972028,14.3426573 C60.7604895,14.5017483 60.736014,14.6608392 60.7115385,14.8076923 C60.6870629,14.9545455 60.6748252,15.1136364 60.6748252,15.2727273 L60.6748252,15.7377622 C60.6993007,16.2395105 60.7727273,16.7167832 60.9195804,17.1818182 C61.0541958,17.6468531 61.2622378,18.0996503 61.5192308,18.527972 C61.7517483,18.9440559 62.0576923,19.3234266 62.4125874,19.6783217 C62.7674825,20.0332168 63.1468531,20.3391608 63.5629371,20.5961538 C63.9300699,20.791958 64.3094406,20.9265734 64.7132867,21.0122378 C65.1171329,21.0979021 65.520979,21.1468531 65.9248252,21.1468531 C66.1573427,21.1468531 66.3898601,21.1346154 66.6223776,21.1101399 C66.8548951,21.0856643 67.0751748,21.048951 67.2832168,20.9755245 C67.5891608,20.8653846 67.8828671,20.743007 68.1520979,20.5839161 C68.4335664,20.4370629 68.7027972,20.2657343 68.9597902,20.0944056 C69.2412587,19.8986014 69.486014,19.6783217 69.7062937,19.4335664 C69.9265734,19.1888112 70.1101399,18.9195804 70.256993,18.6381119 C70.3916084,18.3199301 70.4895105,17.9895105 70.5629371,17.6468531 C70.6363636,17.3164336 70.6853147,16.9737762 70.7097902,16.6311189 L73.4265734,17.1818182 C73.3776224,17.7447552 73.2797203,18.270979 73.1083916,18.7727273 C72.9370629,19.2744755 72.7045455,19.7395105 72.4230769,20.2045455 C72.1416084,20.6573427 71.8234266,21.0734266 71.4562937,21.4527972 C71.0891608,21.8321678 70.6853147,22.1748252 70.256993,22.4685315 C69.8041958,22.7744755 69.3391608,23.0192308 68.8496503,23.215035 C68.3601399,23.4108392 67.8583916,23.5454545 67.3444056,23.6066434 C67.2097902,23.6311189 67.0874126,23.6555944 66.9527972,23.6678322 C66.8181818,23.6923077 66.6958042,23.7167832 66.5611888,23.729021 L66.1451049,23.729021 L65.7534965,23.729021 C65.4965035,23.729021 65.2395105,23.7167832 64.9702797,23.6923077 C64.7132867,23.6678322 64.4562937,23.6433566 64.1870629,23.5944056 C63.6730769,23.5454545 63.1590909,23.4230769 62.6695804,23.2272727 C62.1678322,23.0192308 61.7027972,22.7744755 61.2744755,22.4685315 C60.479021,21.7954545 59.8059441,21.0122378 59.2797203,20.1188811 C58.7534965,19.2255245 58.3618881,18.270979 58.1293706,17.2552448 C58.1048951,17.0839161 58.0926573,16.9125874 58.0926573,16.7534965 L58.0926573,16.2884615 L58.0926573,15.9213287 C58.0926573,15.798951 58.1048951,15.6888112 58.1293706,15.5786713 C58.1293706,15.3461538 58.1416084,15.1013986 58.1783217,14.8444056 C58.215035,14.5996503 58.2517483,14.3671329 58.2884615,14.1468531 C58.3986014,13.6328671 58.5454545,13.1311189 58.7412587,12.6416084 C58.9370629,12.1520979 59.1695804,11.6870629 59.451049,11.2342657 C59.756993,10.8059441 60.0996503,10.4020979 60.5034965,10.0472028 C60.9073427,9.69230769 61.3356643,9.38636364 61.8129371,9.12937063 C62.2902098,8.87237762 62.7797203,8.66433566 63.2937063,8.52972028 C63.7954545,8.3951049 64.3216783,8.30944056 64.8601399,8.28496503 L64.8601399,8.26048951 L64.8723776,8.26048951 Z" fill="#231815"></path>
                    </g>
                    <g transform="translate(0.000000, 26.555944)" id="Shape" fill="#9F9E9F">
                        <polygon points="3.97727273 0.0856643357 3.97727273 0.93006993 2.43531469 0.93006993 2.43531469 6.40034965 1.5541958 6.40034965 1.5541958 0.93006993 0 0.93006993 0 0.0856643357"></polygon>
                        <path d="M6.4493007,1.98251748 L6.59615385,1.98251748 C6.6451049,1.98251748 6.69405594,1.98251748 6.74300699,1.99475524 C6.84090909,1.99475524 6.93881119,2.00699301 7.04895105,2.03146853 C7.14685315,2.04370629 7.24475524,2.06818182 7.34265734,2.1048951 C7.48951049,2.15384615 7.62412587,2.2027972 7.75874126,2.27622378 C7.89335664,2.34965035 8.02797203,2.43531469 8.13811189,2.52097902 C8.27272727,2.64335664 8.38286713,2.76573427 8.49300699,2.90034965 C8.59090909,3.03496503 8.68881119,3.18181818 8.76223776,3.35314685 L5.92307692,4.98076923 L5.55594406,4.34440559 L7.63636364,3.1451049 C7.57517483,3.08391608 7.52622378,3.02272727 7.4527972,2.97377622 C7.39160839,2.91258741 7.30594406,2.86363636 7.22027972,2.82692308 C7.13461538,2.79020979 7.03671329,2.7534965 6.93881119,2.72902098 C6.84090909,2.70454545 6.74300699,2.69230769 6.6451049,2.68006993 C6.5472028,2.68006993 6.46153846,2.69230769 6.36363636,2.70454545 C6.27797203,2.71678322 6.18006993,2.74125874 6.09440559,2.77797203 C5.8986014,2.83916084 5.73951049,2.9493007 5.59265734,3.09615385 C5.4458042,3.24300699 5.3479021,3.41433566 5.28671329,3.62237762 C5.27447552,3.67132867 5.26223776,3.70804196 5.25,3.75699301 C5.23776224,3.80594406 5.23776224,3.84265734 5.22552448,3.89160839 C5.21328671,3.94055944 5.21328671,3.97727273 5.21328671,4.02622378 L5.21328671,4.16083916 C5.22552448,4.30769231 5.25,4.44230769 5.28671329,4.57692308 C5.32342657,4.71153846 5.38461538,4.83391608 5.45804196,4.96853147 C5.53146853,5.09090909 5.61713287,5.20104895 5.71503497,5.29895105 C5.81293706,5.39685315 5.92307692,5.49475524 6.04545455,5.56818182 C6.15559441,5.62937063 6.26573427,5.66608392 6.37587413,5.69055944 C6.48601399,5.71503497 6.60839161,5.72727273 6.73076923,5.72727273 C6.8041958,5.72727273 6.86538462,5.72727273 6.92657343,5.71503497 C6.98776224,5.7027972 7.06118881,5.69055944 7.12237762,5.67832168 C7.20804196,5.64160839 7.29370629,5.6048951 7.37937063,5.56818182 C7.46503497,5.51923077 7.53846154,5.48251748 7.61188811,5.43356643 C7.69755245,5.37237762 7.77097902,5.31118881 7.83216783,5.23776224 C7.89335664,5.16433566 7.94230769,5.09090909 7.99125874,5.00524476 C8.02797203,4.90734266 8.06468531,4.82167832 8.07692308,4.72377622 C8.1013986,4.62587413 8.11363636,4.52797203 8.11363636,4.43006993 L8.89685315,4.58916084 C8.88461538,4.74825175 8.8479021,4.90734266 8.79895105,5.04195804 C8.75,5.18881119 8.68881119,5.32342657 8.60314685,5.45804196 C8.51748252,5.59265734 8.43181818,5.7027972 8.32167832,5.81293706 C8.21153846,5.92307692 8.1013986,6.02097902 7.97902098,6.10664336 C7.84440559,6.19230769 7.70979021,6.26573427 7.57517483,6.32692308 C7.44055944,6.38811189 7.29370629,6.42482517 7.13461538,6.43706294 C7.0979021,6.4493007 7.06118881,6.4493007 7.02447552,6.46153846 C6.98776224,6.47377622 6.95104895,6.47377622 6.91433566,6.48601399 L6.79195804,6.48601399 L6.68181818,6.48601399 C6.60839161,6.48601399 6.53496503,6.48601399 6.46153846,6.47377622 C6.38811189,6.46153846 6.31468531,6.46153846 6.24125874,6.4493007 C6.09440559,6.43706294 5.94755245,6.40034965 5.8006993,6.33916084 C5.65384615,6.27797203 5.51923077,6.20454545 5.39685315,6.11888112 C5.16433566,5.92307692 4.98076923,5.7027972 4.82167832,5.4458042 C4.67482517,5.18881119 4.55244755,4.90734266 4.49125874,4.61363636 C4.47902098,4.56468531 4.47902098,4.51573427 4.47902098,4.46678322 L4.47902098,4.33216783 L4.47902098,4.22202797 C4.47902098,4.18531469 4.47902098,4.16083916 4.49125874,4.12412587 C4.49125874,4.0506993 4.49125874,3.98951049 4.5034965,3.91608392 C4.51573427,3.84265734 4.52797203,3.78146853 4.54020979,3.72027972 C4.57692308,3.57342657 4.61363636,3.42657343 4.67482517,3.29195804 C4.72377622,3.15734266 4.7972028,3.01048951 4.88286713,2.88811189 C4.96853147,2.76573427 5.06643357,2.65559441 5.18881119,2.54545455 C5.29895105,2.44755245 5.43356643,2.34965035 5.56818182,2.27622378 C5.7027972,2.2027972 5.84965035,2.14160839 5.9965035,2.1048951 C6.14335664,2.01923077 6.29020979,1.99475524 6.4493007,1.98251748 L6.4493007,1.98251748 L6.4493007,1.98251748 Z"></path>
                        <path d="M11.6503497,2.04370629 L12.6783217,2.04370629 L12.6783217,2.81468531 L11.8706294,2.81468531 L11.6136364,2.81468531 C11.5157343,2.8513986 11.4300699,2.87587413 11.3444056,2.91258741 C11.2587413,2.9493007 11.1730769,2.99825175 11.0874126,3.0472028 C11.0017483,3.10839161 10.9405594,3.16958042 10.8671329,3.23076923 C10.8059441,3.29195804 10.7447552,3.36538462 10.6958042,3.45104895 C10.6468531,3.52447552 10.6101399,3.5979021 10.5856643,3.67132867 C10.548951,3.74475524 10.5244755,3.83041958 10.5122378,3.91608392 C10.5,3.97727273 10.5,4.02622378 10.4877622,4.08741259 C10.4755245,4.1486014 10.4755245,4.19755245 10.4755245,4.25874126 L10.4755245,4.34440559 C10.4755245,4.36888112 10.4755245,4.40559441 10.4877622,4.43006993 C10.5,4.52797203 10.5244755,4.61363636 10.548951,4.6993007 C10.5734266,4.78496503 10.6223776,4.87062937 10.6590909,4.95629371 C10.708042,5.02972028 10.7447552,5.09090909 10.7937063,5.1520979 C10.8426573,5.21328671 10.9038462,5.27447552 10.965035,5.32342657 C11.0384615,5.38461538 11.0996503,5.43356643 11.1853147,5.48251748 C11.2587413,5.53146853 11.3444056,5.56818182 11.4178322,5.6048951 C11.5646853,5.64160839 11.6993007,5.66608392 11.8461538,5.69055944 C11.993007,5.7027972 12.1276224,5.71503497 12.2744755,5.7027972 C12.3356643,5.71503497 12.3968531,5.71503497 12.4702797,5.7027972 C12.5314685,5.7027972 12.6048951,5.69055944 12.6660839,5.69055944 L12.6660839,6.38811189 L11.9073427,6.38811189 L11.4545455,6.36363636 C11.3199301,6.33916084 11.1853147,6.30244755 11.0629371,6.2534965 C10.9405594,6.20454545 10.8059441,6.14335664 10.6958042,6.08216783 C10.5979021,6.02097902 10.5122378,5.95979021 10.4265734,5.88636364 C10.3409091,5.81293706 10.2674825,5.73951049 10.1940559,5.65384615 C10.1328671,5.58041958 10.0716783,5.49475524 10.0104895,5.42132867 C9.96153846,5.33566434 9.90034965,5.25 9.86363636,5.16433566 C9.82692308,5.09090909 9.80244755,5.02972028 9.77797203,4.95629371 C9.7534965,4.88286713 9.72902098,4.80944056 9.71678322,4.73601399 C9.71678322,4.6993007 9.70454545,4.66258741 9.69230769,4.62587413 C9.69230769,4.58916084 9.68006993,4.55244755 9.68006993,4.51573427 C9.66783217,4.39335664 9.66783217,4.27097902 9.68006993,4.1486014 C9.68006993,4.02622378 9.70454545,3.91608392 9.72902098,3.79370629 C9.7534965,3.68356643 9.77797203,3.58566434 9.81468531,3.48776224 C9.8513986,3.38986014 9.90034965,3.29195804 9.9493007,3.20629371 C10.0227273,3.08391608 10.0961538,2.97377622 10.1818182,2.87587413 C10.2674825,2.76573427 10.3653846,2.66783217 10.4632867,2.58216783 C10.5367133,2.52097902 10.5979021,2.45979021 10.6713287,2.41083916 C10.7447552,2.36188811 10.8181818,2.31293706 10.9038462,2.26398601 C11.0262238,2.2027972 11.1608392,2.16608392 11.2832168,2.12937063 C11.3811189,2.08041958 11.5157343,2.05594406 11.6503497,2.04370629 L11.6503497,2.04370629 L11.6503497,2.04370629 Z"></path>
                        <path d="M14.1590909,0.159090909 L14.1590909,2.53321678 C14.3059441,2.3986014 14.465035,2.28846154 14.6363636,2.2027972 C14.8076923,2.11713287 15.0034965,2.05594406 15.1870629,2.01923077 C15.2115385,2.01923077 15.236014,2.00699301 15.2604895,2.00699301 L15.3339161,2.00699301 C15.3951049,2.00699301 15.4562937,2.00699301 15.5174825,2.01923077 C15.5786713,2.03146853 15.6398601,2.04370629 15.701049,2.05594406 C15.8846154,2.1048951 16.0437063,2.16608392 16.1905594,2.26398601 C16.3374126,2.36188811 16.472028,2.47202797 16.5944056,2.60664336 C16.7167832,2.76573427 16.8146853,2.9493007 16.8758741,3.13286713 C16.9370629,3.32867133 16.9737762,3.52447552 16.9615385,3.72027972 L16.9615385,6.37587413 L16.1660839,6.37587413 L16.1660839,3.51223776 C16.1660839,3.43881119 16.1416084,3.37762238 16.1171329,3.31643357 C16.0926573,3.25524476 16.0437063,3.18181818 16.006993,3.12062937 C15.9213287,2.99825175 15.8234266,2.90034965 15.6888112,2.82692308 C15.5664336,2.7534965 15.4195804,2.71678322 15.2727273,2.71678322 C15.1870629,2.71678322 15.1136364,2.72902098 15.0402098,2.74125874 C14.9667832,2.7534965 14.8933566,2.79020979 14.8199301,2.82692308 C14.7465035,2.8513986 14.6608392,2.88811189 14.5996503,2.93706294 C14.5384615,2.98601399 14.4772727,3.0472028 14.4283217,3.10839161 C14.3426573,3.24300699 14.2692308,3.37762238 14.2325175,3.52447552 C14.1835664,3.67132867 14.1713287,3.83041958 14.1590909,3.98951049 L14.1590909,6.36363636 L13.3636364,6.36363636 L13.3636364,0.134615385 L14.1590909,0.134615385 L14.1590909,0.159090909 Z"></path>
                        <path d="M19.5192308,2.04370629 C19.5437063,2.04370629 19.5681818,2.05594406 19.5926573,2.04370629 L19.6660839,2.04370629 C19.6905594,2.03146853 19.715035,2.03146853 19.7395105,2.03146853 L19.8129371,2.03146853 C19.8986014,2.03146853 19.9842657,2.03146853 20.0821678,2.04370629 C20.1678322,2.05594406 20.2657343,2.06818182 20.3513986,2.09265734 C20.4493007,2.11713287 20.5472028,2.14160839 20.6328671,2.17832168 C20.7185315,2.21503497 20.8041958,2.26398601 20.8898601,2.32517483 C21.0734266,2.44755245 21.2202797,2.60664336 21.3548951,2.77797203 C21.4895105,2.96153846 21.5751748,3.15734266 21.6241259,3.37762238 L21.6241259,6.37587413 L20.8286713,6.37587413 L20.8286713,3.74475524 C20.8286713,3.65909091 20.8041958,3.58566434 20.7797203,3.51223776 C20.7552448,3.43881119 20.7185315,3.35314685 20.6695804,3.27972028 C20.5961538,3.13286713 20.4982517,3.02272727 20.3758741,2.92482517 C20.2534965,2.82692308 20.1066434,2.77797203 19.9475524,2.7534965 L19.8986014,2.7534965 L19.8618881,2.7534965 C19.8496503,2.74125874 19.8374126,2.74125874 19.8129371,2.74125874 L19.763986,2.74125874 C19.715035,2.74125874 19.6660839,2.74125874 19.6048951,2.7534965 C19.5559441,2.76573427 19.506993,2.77797203 19.4458042,2.79020979 C19.298951,2.82692308 19.1643357,2.90034965 19.0541958,2.99825175 C18.9440559,3.09615385 18.8583916,3.21853147 18.8094406,3.36538462 C18.7972028,3.42657343 18.784965,3.48776224 18.7727273,3.54895105 C18.7604895,3.61013986 18.7482517,3.67132867 18.7482517,3.72027972 C18.7482517,3.78146853 18.736014,3.84265734 18.736014,3.90384615 L18.736014,4.08741259 L18.736014,6.36363636 L17.9283217,6.36363636 L17.9283217,3.83041958 C17.9283217,3.5979021 17.9772727,3.37762238 18.0629371,3.15734266 C18.1486014,2.93706294 18.270979,2.74125874 18.4300699,2.56993007 C18.5769231,2.42307692 18.7482517,2.31293706 18.9318182,2.21503497 C19.1153846,2.12937063 19.3111888,2.08041958 19.5192308,2.04370629 L19.5192308,2.04370629 L19.5192308,2.04370629 Z"></path>
                        <path d="M24.8059441,2.03146853 C24.9160839,2.03146853 25.013986,2.04370629 25.1241259,2.05594406 C25.2342657,2.08041958 25.3321678,2.1048951 25.4423077,2.14160839 C25.6013986,2.2027972 25.7482517,2.26398601 25.8828671,2.36188811 C26.0174825,2.44755245 26.1520979,2.55769231 26.2744755,2.66783217 C26.3968531,2.79020979 26.4947552,2.91258741 26.5804196,3.05944056 C26.6660839,3.20629371 26.7395105,3.35314685 26.7884615,3.51223776 C26.8374126,3.67132867 26.8741259,3.83041958 26.8863636,4.00174825 C26.8986014,4.17307692 26.8986014,4.33216783 26.8863636,4.5034965 C26.8741259,4.66258741 26.8374126,4.82167832 26.7884615,4.98076923 C26.7272727,5.13986014 26.6660839,5.28671329 26.5681818,5.43356643 C26.4825175,5.58041958 26.3846154,5.71503497 26.2622378,5.82517483 C26.1398601,5.94755245 26.0174825,6.05769231 25.8706294,6.14335664 C25.736014,6.22902098 25.5891608,6.29020979 25.4300699,6.33916084 C25.270979,6.38811189 25.1118881,6.42482517 24.9527972,6.43706294 C24.9283217,6.4493007 24.8916084,6.4493007 24.8671329,6.4493007 L24.7814685,6.4493007 C24.7447552,6.4493007 24.7202797,6.46153846 24.6958042,6.46153846 L24.6101399,6.46153846 C24.5,6.46153846 24.4020979,6.46153846 24.3041958,6.43706294 C24.2062937,6.42482517 24.0961538,6.40034965 23.986014,6.37587413 C23.8269231,6.32692308 23.6800699,6.2534965 23.5332168,6.18006993 C23.3863636,6.09440559 23.2517483,5.9965035 23.1293706,5.8986014 C23.006993,5.77622378 22.9090909,5.65384615 22.8111888,5.50699301 C22.7132867,5.37237762 22.6398601,5.21328671 22.5786713,5.06643357 C22.5297203,4.94405594 22.5052448,4.82167832 22.4807692,4.6993007 C22.4562937,4.57692308 22.4440559,4.44230769 22.4440559,4.31993007 L22.4440559,4.25874126 L22.4440559,4.19755245 C22.4440559,4.18531469 22.4440559,4.17307692 22.4562937,4.1486014 L22.4562937,4.08741259 C22.4685315,3.91608392 22.5052448,3.75699301 22.5541958,3.5979021 C22.6031469,3.43881119 22.6765734,3.27972028 22.75,3.1451049 C22.8356643,2.99825175 22.9335664,2.87587413 23.0437063,2.7534965 C23.1538462,2.63111888 23.2762238,2.52097902 23.4108392,2.42307692 C23.5576923,2.32517483 23.7045455,2.25174825 23.8513986,2.19055944 C24.0104895,2.12937063 24.1695804,2.09265734 24.3286713,2.06818182 C24.4143357,2.05594406 24.4877622,2.04370629 24.5734266,2.04370629 C24.6346154,2.03146853 24.7202797,2.03146853 24.8059441,2.03146853 L24.8059441,2.03146853 L24.8059441,2.03146853 Z M24.9160839,2.79020979 L24.8426573,2.79020979 L24.7814685,2.79020979 C24.756993,2.79020979 24.7325175,2.77797203 24.708042,2.77797203 L24.6346154,2.77797203 L24.5367133,2.77797203 L24.4388112,2.77797203 C24.4020979,2.79020979 24.3776224,2.79020979 24.3409091,2.80244755 C24.3041958,2.81468531 24.2797203,2.81468531 24.243007,2.82692308 C24.1206294,2.86363636 23.9982517,2.90034965 23.9003497,2.97377622 C23.7902098,3.03496503 23.6923077,3.12062937 23.6066434,3.21853147 C23.5332168,3.3041958 23.472028,3.38986014 23.4108392,3.47552448 C23.3496503,3.56118881 23.3129371,3.65909091 23.2762238,3.76923077 C23.2517483,3.87937063 23.2272727,3.97727273 23.215035,4.09965035 C23.2027972,4.20979021 23.2027972,4.31993007 23.2027972,4.43006993 C23.2027972,4.54020979 23.2272727,4.63811189 23.263986,4.74825175 C23.2884615,4.85839161 23.3374126,4.95629371 23.3863636,5.04195804 C23.4353147,5.13986014 23.4965035,5.22552448 23.5699301,5.31118881 C23.6433566,5.38461538 23.729021,5.45804196 23.8146853,5.53146853 C23.9125874,5.59265734 24.0104895,5.64160839 24.1083916,5.69055944 C24.2062937,5.72727273 24.3164336,5.75174825 24.4265734,5.77622378 C24.4632867,5.78846154 24.5,5.78846154 24.5367133,5.78846154 L24.6346154,5.78846154 C24.708042,5.78846154 24.7814685,5.78846154 24.8548951,5.77622378 C24.9283217,5.76398601 25.0017483,5.73951049 25.0751748,5.71503497 C25.1853147,5.67832168 25.2832168,5.64160839 25.3688811,5.58041958 C25.4545455,5.51923077 25.5402098,5.45804196 25.6258741,5.37237762 C25.7115385,5.29895105 25.7727273,5.22552448 25.8339161,5.12762238 C25.8951049,5.02972028 25.9440559,4.93181818 25.9807692,4.83391608 C26.0052448,4.76048951 26.0297203,4.68706294 26.041958,4.61363636 C26.0541958,4.54020979 26.0541958,4.46678322 26.0541958,4.38111888 L26.0541958,4.28321678 C26.0541958,4.2465035 26.0541958,4.20979021 26.041958,4.18531469 C26.041958,4.07517483 26.041958,3.96503497 26.0174825,3.8548951 C25.993007,3.74475524 25.9562937,3.64685315 25.9073427,3.54895105 C25.8583916,3.43881119 25.7972028,3.35314685 25.7237762,3.26748252 C25.6503497,3.18181818 25.5646853,3.10839161 25.479021,3.0472028 C25.3933566,2.97377622 25.2954545,2.92482517 25.1975524,2.88811189 C25.1363636,2.83916084 25.0262238,2.80244755 24.9160839,2.79020979 L24.9160839,2.79020979 L24.9160839,2.79020979 Z"></path>
                        <polygon points="28.6730769 0.11013986 28.6730769 6.38811189 27.8898601 6.38811189 27.8898601 0.11013986 28.6730769 0.11013986"></polygon>
                        <path d="M31.9772727,2.03146853 C32.0874126,2.03146853 32.1853147,2.04370629 32.2954545,2.05594406 C32.4055944,2.08041958 32.5034965,2.1048951 32.6136364,2.14160839 C32.7727273,2.2027972 32.9195804,2.26398601 33.0541958,2.36188811 C33.1888112,2.44755245 33.3234266,2.55769231 33.4458042,2.66783217 C33.5681818,2.79020979 33.6660839,2.91258741 33.7517483,3.05944056 C33.8374126,3.20629371 33.9108392,3.35314685 33.9597902,3.51223776 C34.0087413,3.67132867 34.0454545,3.83041958 34.0576923,4.00174825 C34.0699301,4.17307692 34.0699301,4.33216783 34.0699301,4.5034965 C34.0576923,4.66258741 34.020979,4.82167832 33.9597902,4.98076923 C33.8986014,5.13986014 33.8374126,5.28671329 33.7395105,5.43356643 C33.6538462,5.58041958 33.5559441,5.71503497 33.4335664,5.82517483 C33.3111888,5.94755245 33.1888112,6.05769231 33.041958,6.14335664 C32.9073427,6.22902098 32.7604895,6.29020979 32.6013986,6.33916084 C32.4423077,6.38811189 32.2832168,6.42482517 32.1241259,6.43706294 C32.0996503,6.4493007 32.0629371,6.4493007 32.0384615,6.4493007 L31.9527972,6.4493007 C31.9160839,6.4493007 31.8916084,6.46153846 31.8671329,6.46153846 L31.7814685,6.46153846 C31.6713287,6.46153846 31.5734266,6.46153846 31.4755245,6.43706294 C31.3776224,6.42482517 31.2674825,6.40034965 31.1573427,6.37587413 C30.9982517,6.32692308 30.8513986,6.2534965 30.7045455,6.18006993 C30.5576923,6.09440559 30.4230769,5.9965035 30.3006993,5.8986014 C30.1783217,5.77622378 30.0804196,5.65384615 29.9825175,5.50699301 C29.8846154,5.37237762 29.8111888,5.21328671 29.75,5.06643357 C29.7132867,4.94405594 29.6765734,4.82167832 29.6520979,4.6993007 C29.6276224,4.57692308 29.6153846,4.44230769 29.6153846,4.31993007 L29.6153846,4.25874126 L29.6153846,4.19755245 L29.6153846,4.1486014 L29.6153846,4.08741259 C29.6276224,3.91608392 29.6643357,3.75699301 29.7132867,3.5979021 C29.7622378,3.43881119 29.8356643,3.27972028 29.9090909,3.1451049 C29.9947552,2.99825175 30.0926573,2.87587413 30.2027972,2.7534965 C30.3129371,2.63111888 30.4353147,2.52097902 30.5699301,2.42307692 C30.7167832,2.32517483 30.8636364,2.25174825 31.0227273,2.19055944 C31.1818182,2.12937063 31.3409091,2.09265734 31.5,2.06818182 C31.5856643,2.05594406 31.6590909,2.04370629 31.7447552,2.04370629 C31.8181818,2.03146853 31.9038462,2.03146853 31.9772727,2.03146853 L31.9772727,2.03146853 L31.9772727,2.03146853 Z M32.0996503,2.79020979 L32.0262238,2.79020979 L31.965035,2.79020979 C31.9405594,2.79020979 31.9160839,2.77797203 31.8916084,2.77797203 L31.8181818,2.77797203 L31.7202797,2.77797203 L31.6223776,2.77797203 C31.5856643,2.79020979 31.5611888,2.79020979 31.5244755,2.80244755 C31.4877622,2.81468531 31.4632867,2.81468531 31.4265734,2.82692308 C31.3041958,2.86363636 31.1818182,2.90034965 31.0839161,2.97377622 C30.9737762,3.03496503 30.8758741,3.12062937 30.7902098,3.21853147 C30.7167832,3.3041958 30.6555944,3.38986014 30.5944056,3.47552448 C30.5332168,3.56118881 30.4965035,3.65909091 30.4597902,3.76923077 C30.4353147,3.87937063 30.4108392,3.97727273 30.3986014,4.09965035 C30.3863636,4.20979021 30.3863636,4.31993007 30.3863636,4.43006993 C30.3863636,4.54020979 30.4108392,4.63811189 30.4475524,4.74825175 C30.472028,4.85839161 30.520979,4.95629371 30.5699301,5.04195804 C30.6188811,5.13986014 30.6800699,5.22552448 30.7534965,5.31118881 C30.8269231,5.38461538 30.9125874,5.45804196 30.9982517,5.53146853 C31.0961538,5.59265734 31.1940559,5.64160839 31.291958,5.69055944 C31.3898601,5.72727273 31.5,5.75174825 31.5979021,5.77622378 C31.6346154,5.78846154 31.6713287,5.78846154 31.708042,5.78846154 L31.8059441,5.78846154 C31.8793706,5.78846154 31.9527972,5.78846154 32.0262238,5.77622378 C32.0996503,5.76398601 32.1730769,5.73951049 32.2342657,5.71503497 C32.3444056,5.67832168 32.4423077,5.64160839 32.527972,5.58041958 C32.6136364,5.51923077 32.6993007,5.45804196 32.784965,5.37237762 C32.8706294,5.29895105 32.9318182,5.22552448 32.993007,5.12762238 C33.0541958,5.02972028 33.1031469,4.93181818 33.1398601,4.83391608 C33.1765734,4.76048951 33.1888112,4.68706294 33.201049,4.61363636 C33.2132867,4.54020979 33.2132867,4.46678322 33.2132867,4.38111888 L33.2132867,4.28321678 C33.2132867,4.2465035 33.2132867,4.20979021 33.201049,4.18531469 C33.2132867,4.07517483 33.201049,3.96503497 33.1765734,3.8548951 C33.1520979,3.74475524 33.1153846,3.64685315 33.0664336,3.54895105 C33.0174825,3.43881119 32.9562937,3.35314685 32.8828671,3.26748252 C32.8094406,3.18181818 32.7237762,3.10839161 32.6381119,3.0472028 C32.5524476,2.97377622 32.4545455,2.92482517 32.3566434,2.88811189 C32.3199301,2.83916084 32.2097902,2.80244755 32.0996503,2.79020979 L32.0996503,2.79020979 L32.0996503,2.79020979 Z"></path>
                        <path d="M36.8723776,2.04370629 L37.0804196,2.04370629 C37.1538462,2.04370629 37.215035,2.05594406 37.2762238,2.06818182 C37.4353147,2.09265734 37.5944056,2.11713287 37.7534965,2.17832168 C37.9125874,2.22727273 38.0472028,2.3006993 38.1940559,2.38636364 C38.3164336,2.48426573 38.4265734,2.58216783 38.5367133,2.70454545 C38.6468531,2.81468531 38.7325175,2.9493007 38.8181818,3.08391608 C38.8916084,3.21853147 38.9527972,3.36538462 39.0017483,3.51223776 C39.0506993,3.65909091 39.0874126,3.80594406 39.0996503,3.97727273 L39.0996503,6.5472028 C39.0874126,6.65734266 39.0629371,6.76748252 39.0384615,6.87762238 C39.013986,6.98776224 38.9772727,7.08566434 38.9283217,7.1958042 C38.8793706,7.30594406 38.8181818,7.41608392 38.756993,7.51398601 C38.6958042,7.61188811 38.6223776,7.70979021 38.5367133,7.79545455 C38.451049,7.88111888 38.3409091,7.96678322 38.243007,8.02797203 C38.1328671,8.1013986 38.0227273,8.16258741 37.9125874,8.22377622 C37.7657343,8.27272727 37.6188811,8.32167832 37.472028,8.34615385 C37.3251748,8.38286713 37.1783217,8.3951049 37.0192308,8.40734266 C36.9090909,8.40734266 36.8111888,8.41958042 36.701049,8.40734266 C36.5909091,8.40734266 36.4807692,8.3951049 36.3828671,8.38286713 C36.2237762,8.35839161 36.0769231,8.32167832 35.9300699,8.28496503 C35.7832168,8.24825175 35.6363636,8.1993007 35.4895105,8.15034965 L35.6363636,7.46503497 C35.8076923,7.52622378 35.979021,7.56293706 36.1503497,7.59965035 C36.3216783,7.63636364 36.5052448,7.66083916 36.6765734,7.67307692 C36.7255245,7.67307692 36.7622378,7.68531469 36.798951,7.68531469 L36.9213287,7.68531469 C37.0681818,7.68531469 37.215035,7.66083916 37.3496503,7.62412587 C37.4842657,7.58741259 37.6188811,7.52622378 37.7534965,7.44055944 C37.8146853,7.39160839 37.8881119,7.3548951 37.9370629,7.29370629 C37.9982517,7.24475524 38.0472028,7.18356643 38.0961538,7.11013986 C38.1451049,7.03671329 38.1818182,6.96328671 38.2062937,6.87762238 C38.243007,6.8041958 38.2674825,6.71853147 38.291958,6.6451049 C38.3041958,6.57167832 38.3164336,6.51048951 38.3286713,6.4493007 C38.3409091,6.38811189 38.3409091,6.32692308 38.3409091,6.2534965 L38.3409091,4.23426573 C38.3531469,4.03846154 38.3286713,3.8548951 38.2674825,3.65909091 C38.2062937,3.47552448 38.1083916,3.3041958 37.9737762,3.15734266 C37.8391608,3.01048951 37.6800699,2.90034965 37.5087413,2.82692308 C37.3374126,2.7534965 37.1538462,2.71678322 36.958042,2.70454545 C36.8601399,2.71678322 36.7744755,2.72902098 36.6765734,2.74125874 C36.5786713,2.7534965 36.493007,2.79020979 36.4073427,2.81468531 C36.2482517,2.86363636 36.1013986,2.93706294 35.9667832,3.0472028 C35.8321678,3.15734266 35.7342657,3.29195804 35.6608392,3.46328671 C35.6241259,3.56118881 35.5996503,3.67132867 35.5751748,3.76923077 C35.5506993,3.87937063 35.5384615,3.97727273 35.5262238,4.08741259 L35.5262238,4.13636364 L35.5262238,4.17307692 L35.5262238,4.20979021 L35.5262238,4.25874126 C35.5262238,4.40559441 35.5506993,4.55244755 35.5996503,4.68706294 C35.6486014,4.82167832 35.7097902,4.95629371 35.8076923,5.07867133 C35.8811189,5.16433566 35.9423077,5.23776224 36.0157343,5.31118881 C36.0891608,5.38461538 36.1625874,5.45804196 36.2482517,5.51923077 C36.3094406,5.55594406 36.3706294,5.58041958 36.4440559,5.6048951 C36.5174825,5.62937063 36.5786713,5.64160839 36.6520979,5.65384615 L36.7255245,5.65384615 L36.798951,5.65384615 C36.8356643,5.66608392 36.8601399,5.66608392 36.8968531,5.66608392 L36.9947552,5.66608392 C37.0681818,5.66608392 37.1293706,5.66608392 37.1905594,5.65384615 C37.2517483,5.65384615 37.3129371,5.64160839 37.3741259,5.62937063 C37.4965035,5.59265734 37.6066434,5.55594406 37.7167832,5.51923077 C37.8269231,5.47027972 37.9370629,5.42132867 38.034965,5.36013986 L38.034965,6.06993007 C37.9615385,6.13111888 37.8758741,6.18006993 37.7902098,6.22902098 C37.7045455,6.27797203 37.6188811,6.30244755 37.5332168,6.32692308 C37.4353147,6.33916084 37.3496503,6.36363636 37.2517483,6.36363636 C37.1538462,6.37587413 37.0681818,6.37587413 36.9702797,6.37587413 L36.8601399,6.37587413 C36.8234266,6.37587413 36.7867133,6.37587413 36.75,6.36363636 C36.7132867,6.36363636 36.6765734,6.36363636 36.6398601,6.3513986 C36.6031469,6.3513986 36.5664336,6.33916084 36.5297203,6.32692308 C36.3706294,6.31468531 36.2237762,6.26573427 36.0769231,6.20454545 C35.9300699,6.14335664 35.7954545,6.06993007 35.6730769,5.97202797 C35.5384615,5.86188811 35.4160839,5.75174825 35.3181818,5.62937063 C35.208042,5.50699301 35.1101399,5.37237762 35.0367133,5.22552448 C34.9632867,5.07867133 34.9020979,4.93181818 34.8653846,4.77272727 C34.8286713,4.61363636 34.8041958,4.45454545 34.791958,4.28321678 C34.791958,4.12412587 34.791958,3.96503497 34.8164336,3.79370629 C34.8409091,3.63461538 34.8898601,3.47552448 34.951049,3.31643357 C35.0122378,3.16958042 35.0856643,3.02272727 35.1713287,2.88811189 C35.256993,2.7534965 35.3671329,2.63111888 35.4895105,2.52097902 C35.6853147,2.33741259 35.8933566,2.2027972 36.1381119,2.1048951 C36.3583916,2.1048951 36.6031469,2.05594406 36.8723776,2.04370629 L36.8723776,2.04370629 L36.8723776,2.04370629 Z"></path>
                        <path d="M40.8251748,2.06818182 L40.8251748,4.77272727 C40.8251748,4.88286713 40.8374126,4.98076923 40.8741259,5.07867133 C40.9108392,5.17657343 40.9597902,5.27447552 41.020979,5.36013986 C41.1311189,5.48251748 41.2534965,5.56818182 41.4125874,5.62937063 C41.5594406,5.69055944 41.7185315,5.71503497 41.8776224,5.71503497 C42.0244755,5.72727273 42.1590909,5.69055944 42.2814685,5.64160839 C42.4038462,5.58041958 42.513986,5.50699301 42.6118881,5.39685315 C42.6853147,5.31118881 42.7342657,5.21328671 42.770979,5.11538462 C42.8076923,5.01748252 42.8199301,4.90734266 42.8321678,4.7972028 L42.8321678,2.06818182 L43.6643357,2.06818182 L43.6643357,4.76048951 L43.6643357,4.85839161 C43.6643357,4.88286713 43.6520979,4.91958042 43.6520979,4.94405594 C43.6520979,5.00524476 43.6398601,5.06643357 43.6276224,5.12762238 C43.6153846,5.18881119 43.5909091,5.25 43.5664336,5.29895105 C43.541958,5.39685315 43.493007,5.48251748 43.4562937,5.56818182 C43.4073427,5.65384615 43.3583916,5.73951049 43.2972028,5.81293706 C43.2482517,5.88636364 43.1870629,5.94755245 43.1258741,6.00874126 C43.0646853,6.06993007 42.9912587,6.11888112 42.9300699,6.16783217 C42.8321678,6.22902098 42.722028,6.27797203 42.6241259,6.32692308 C42.513986,6.36363636 42.4038462,6.40034965 42.2937063,6.41258741 L42.2937063,8.28496503 L41.4493007,8.28496503 L41.4493007,6.41258741 C41.3146853,6.40034965 41.1800699,6.36363636 41.0576923,6.31468531 C40.9353147,6.26573427 40.8129371,6.20454545 40.715035,6.13111888 C40.6293706,6.08216783 40.5559441,6.02097902 40.4825175,5.95979021 C40.4090909,5.8986014 40.3479021,5.82517483 40.2867133,5.75174825 C40.2132867,5.65384615 40.1520979,5.55594406 40.1031469,5.4458042 C40.0541958,5.33566434 40.0174825,5.21328671 39.993007,5.10314685 L39.993007,2.06818182 L40.8251748,2.06818182 L40.8251748,2.06818182 Z"></path>
                        <path d="M51.4353147,0.0979020979 L51.4353147,0.93006993 L51.3374126,0.93006993 L51.2395105,0.93006993 L51.1293706,0.93006993 L51.0314685,0.93006993 C50.9335664,0.93006993 50.8356643,0.93006993 50.7377622,0.942307692 C50.6398601,0.954545455 50.541958,0.966783217 50.4440559,0.979020979 C50.284965,0.979020979 50.1381119,1.01573427 49.9912587,1.05244755 C49.8444056,1.1013986 49.6975524,1.16258741 49.5629371,1.22377622 C49.4527972,1.27272727 49.3426573,1.33391608 49.2447552,1.40734266 C49.1468531,1.48076923 49.048951,1.56643357 48.9632867,1.6520979 C48.8776224,1.73776224 48.791958,1.83566434 48.7307692,1.93356643 C48.6573427,2.03146853 48.5961538,2.14160839 48.5472028,2.25174825 C48.486014,2.37412587 48.4493007,2.4965035 48.4125874,2.61888112 C48.3758741,2.74125874 48.3513986,2.87587413 48.3391608,2.99825175 C48.3269231,3.05944056 48.3146853,3.12062937 48.3146853,3.19405594 C48.3024476,3.26748252 48.3024476,3.32867133 48.3024476,3.4020979 C48.3024476,3.46328671 48.3024476,3.52447552 48.3146853,3.58566434 C48.3269231,3.64685315 48.3269231,3.70804196 48.3391608,3.78146853 C48.3636364,3.91608392 48.4003497,4.03846154 48.4493007,4.16083916 C48.4982517,4.28321678 48.5594406,4.39335664 48.6328671,4.51573427 C48.7797203,4.71153846 48.9388112,4.88286713 49.1223776,5.04195804 C49.3059441,5.20104895 49.5017483,5.33566434 49.7097902,5.43356643 C49.9055944,5.49475524 50.1136364,5.54370629 50.3094406,5.56818182 C50.5174825,5.6048951 50.7255245,5.61713287 50.9213287,5.61713287 C51.006993,5.61713287 51.0926573,5.61713287 51.1905594,5.6048951 C51.2762238,5.6048951 51.3741259,5.59265734 51.4597902,5.58041958 L51.4597902,6.38811189 L50.7867133,6.38811189 L50.1503497,6.37587413 C49.9912587,6.36363636 49.8321678,6.33916084 49.6608392,6.29020979 C49.5017483,6.24125874 49.3426573,6.19230769 49.1958042,6.11888112 C49.0611888,6.05769231 48.9388112,5.9965035 48.8164336,5.92307692 C48.6940559,5.84965035 48.5839161,5.75174825 48.4737762,5.65384615 C48.3636364,5.56818182 48.2534965,5.47027972 48.1678322,5.36013986 C48.0699301,5.25 47.9842657,5.13986014 47.9108392,5.02972028 C47.8129371,4.87062937 47.7272727,4.6993007 47.6538462,4.51573427 C47.5804196,4.33216783 47.5192308,4.16083916 47.4702797,3.96503497 C47.4458042,3.76923077 47.4458042,3.58566434 47.4335664,3.38986014 C47.4335664,3.19405594 47.4335664,3.01048951 47.4458042,2.82692308 C47.4702797,2.65559441 47.506993,2.4965035 47.5681818,2.33741259 C47.6171329,2.17832168 47.6905594,2.03146853 47.763986,1.87237762 C47.8496503,1.72552448 47.9475524,1.57867133 48.0332168,1.43181818 C48.1311189,1.2972028 48.2412587,1.16258741 48.3513986,1.04020979 C48.4493007,0.93006993 48.5472028,0.844405594 48.6695804,0.758741259 C48.7797203,0.673076923 48.9020979,0.59965035 49.0244755,0.538461538 C49.208042,0.440559441 49.4038462,0.354895105 49.5874126,0.293706294 C49.7832168,0.232517483 49.979021,0.183566434 50.1870629,0.134615385 C50.3216783,0.11013986 50.4440559,0.0856643357 50.5786713,0.0734265734 C50.7132867,0.0611888112 50.8356643,0.048951049 50.9702797,0.048951049 L51.1905594,0.048951049 C51.2884615,0.0856643357 51.3618881,0.0979020979 51.4353147,0.0979020979 L51.4353147,0.0979020979 L51.4353147,0.0979020979 Z"></path>
                        <path d="M54.3968531,2.03146853 C54.506993,2.03146853 54.6048951,2.04370629 54.715035,2.05594406 C54.8251748,2.08041958 54.9230769,2.1048951 55.0332168,2.14160839 C55.1923077,2.2027972 55.3391608,2.26398601 55.4737762,2.36188811 C55.6083916,2.44755245 55.743007,2.55769231 55.8653846,2.66783217 C55.9877622,2.79020979 56.0856643,2.91258741 56.1835664,3.05944056 C56.2692308,3.20629371 56.3426573,3.35314685 56.3916084,3.51223776 C56.4405594,3.67132867 56.4772727,3.83041958 56.4895105,4.00174825 C56.5017483,4.17307692 56.5017483,4.33216783 56.4895105,4.5034965 C56.4772727,4.66258741 56.4405594,4.82167832 56.3916084,4.98076923 C56.3304196,5.13986014 56.2692308,5.28671329 56.1835664,5.43356643 C56.0979021,5.58041958 56,5.71503497 55.8776224,5.82517483 C55.7552448,5.94755245 55.6328671,6.05769231 55.486014,6.14335664 C55.3513986,6.22902098 55.2045455,6.29020979 55.0454545,6.33916084 C54.8863636,6.38811189 54.7272727,6.42482517 54.5681818,6.43706294 C54.5314685,6.4493007 54.506993,6.4493007 54.4825175,6.4493007 L54.3968531,6.4493007 C54.3601399,6.4493007 54.3356643,6.46153846 54.3111888,6.46153846 L54.2255245,6.46153846 C54.1153846,6.46153846 54.0174825,6.46153846 53.9073427,6.43706294 C53.8094406,6.42482517 53.6993007,6.40034965 53.6013986,6.37587413 C53.4423077,6.32692308 53.2954545,6.2534965 53.1486014,6.18006993 C53.0017483,6.09440559 52.8671329,5.9965035 52.7447552,5.8986014 C52.6223776,5.77622378 52.5122378,5.65384615 52.4265734,5.50699301 C52.3286713,5.37237762 52.2552448,5.21328671 52.1818182,5.06643357 C52.1328671,4.94405594 52.1083916,4.82167832 52.0839161,4.6993007 C52.0594406,4.57692308 52.0472028,4.44230769 52.0472028,4.31993007 L52.0472028,4.25874126 L52.0472028,4.19755245 L52.0472028,4.1486014 L52.0472028,4.08741259 C52.0594406,3.91608392 52.0961538,3.75699301 52.1451049,3.5979021 C52.1940559,3.43881119 52.2674825,3.27972028 52.3409091,3.1451049 C52.4265734,2.99825175 52.5244755,2.87587413 52.6346154,2.7534965 C52.7447552,2.63111888 52.8671329,2.52097902 53.0017483,2.42307692 C53.1486014,2.32517483 53.2954545,2.25174825 53.4545455,2.19055944 C53.6136364,2.12937063 53.7727273,2.09265734 53.9318182,2.06818182 C54.0174825,2.05594406 54.0909091,2.04370629 54.1765734,2.04370629 C54.2377622,2.03146853 54.3111888,2.03146853 54.3968531,2.03146853 L54.3968531,2.03146853 L54.3968531,2.03146853 Z M54.506993,2.79020979 L54.4335664,2.79020979 L54.3723776,2.79020979 C54.3479021,2.79020979 54.3234266,2.77797203 54.298951,2.77797203 L54.2255245,2.77797203 L54.1276224,2.77797203 L54.0297203,2.77797203 C53.993007,2.79020979 53.9685315,2.79020979 53.9318182,2.80244755 C53.9073427,2.81468531 53.8706294,2.81468531 53.8339161,2.82692308 C53.7115385,2.86363636 53.6013986,2.90034965 53.4912587,2.97377622 C53.3811189,3.03496503 53.2954545,3.12062937 53.1975524,3.21853147 C53.1241259,3.3041958 53.0629371,3.38986014 53.0017483,3.47552448 C52.9527972,3.56118881 52.9038462,3.65909091 52.8671329,3.76923077 C52.8426573,3.87937063 52.8181818,3.97727273 52.8181818,4.09965035 C52.8059441,4.20979021 52.8059441,4.31993007 52.8059441,4.43006993 C52.8181818,4.54020979 52.8304196,4.63811189 52.8671329,4.74825175 C52.8916084,4.85839161 52.9405594,4.95629371 52.9895105,5.04195804 C53.0384615,5.13986014 53.0996503,5.22552448 53.1730769,5.31118881 C53.2465035,5.38461538 53.3321678,5.45804196 53.4178322,5.53146853 C53.5157343,5.59265734 53.6136364,5.64160839 53.7115385,5.69055944 C53.8094406,5.72727273 53.9195804,5.75174825 54.0297203,5.77622378 C54.0664336,5.78846154 54.1031469,5.78846154 54.1398601,5.78846154 L54.2377622,5.78846154 C54.3111888,5.78846154 54.3846154,5.78846154 54.458042,5.77622378 C54.5314685,5.76398601 54.6048951,5.73951049 54.6660839,5.71503497 C54.7762238,5.67832168 54.8741259,5.64160839 54.9597902,5.58041958 C55.0454545,5.51923077 55.1311189,5.45804196 55.2167832,5.37237762 C55.3024476,5.29895105 55.3636364,5.22552448 55.4370629,5.12762238 C55.4982517,5.02972028 55.5472028,4.93181818 55.5839161,4.83391608 C55.6083916,4.76048951 55.6328671,4.68706294 55.6451049,4.61363636 C55.6573427,4.54020979 55.6695804,4.46678322 55.6695804,4.38111888 L55.6695804,4.28321678 C55.6695804,4.2465035 55.6695804,4.20979021 55.6573427,4.18531469 C55.6695804,4.07517483 55.6573427,3.96503497 55.6328671,3.8548951 C55.6083916,3.74475524 55.5716783,3.64685315 55.5227273,3.54895105 C55.4737762,3.43881119 55.4125874,3.35314685 55.3391608,3.26748252 C55.2657343,3.18181818 55.1800699,3.10839161 55.0944056,3.0472028 C55.0087413,2.97377622 54.9108392,2.92482517 54.8129371,2.88811189 C54.7272727,2.83916084 54.6171329,2.80244755 54.506993,2.79020979 L54.506993,2.79020979 L54.506993,2.79020979 Z"></path>
                        <path d="M57.9335664,5.37237762 C57.9702797,5.38461538 58.006993,5.39685315 58.0437063,5.40909091 C58.0804196,5.42132867 58.1048951,5.43356643 58.1416084,5.45804196 C58.1905594,5.48251748 58.2272727,5.51923077 58.263986,5.55594406 C58.3006993,5.6048951 58.3251748,5.64160839 58.3496503,5.69055944 C58.3741259,5.73951049 58.3863636,5.77622378 58.3863636,5.82517483 C58.3986014,5.87412587 58.3986014,5.92307692 58.3986014,5.97202797 C58.3863636,6.03321678 58.3741259,6.08216783 58.3618881,6.13111888 C58.3374126,6.18006993 58.3129371,6.24125874 58.2762238,6.29020979 C58.2395105,6.32692308 58.2027972,6.36363636 58.1538462,6.37587413 C58.1048951,6.40034965 58.0681818,6.41258741 58.0192308,6.41258741 C57.9947552,6.42482517 57.9825175,6.42482517 57.9702797,6.42482517 L57.9335664,6.42482517 C57.9213287,6.42482517 57.9090909,6.43706294 57.8968531,6.43706294 L57.8479021,6.43706294 L57.8111888,6.43706294 C57.798951,6.43706294 57.7867133,6.43706294 57.7744755,6.42482517 L57.7377622,6.42482517 L57.701049,6.42482517 C57.6520979,6.41258741 57.6031469,6.38811189 57.5541958,6.36363636 C57.5052448,6.33916084 57.4685315,6.30244755 57.4440559,6.26573427 C57.4073427,6.21678322 57.3828671,6.18006993 57.3706294,6.13111888 C57.3461538,6.08216783 57.3339161,6.03321678 57.3339161,5.97202797 C57.3339161,5.91083916 57.3339161,5.86188811 57.3461538,5.8006993 C57.3583916,5.73951049 57.3828671,5.69055944 57.4073427,5.65384615 C57.4440559,5.6048951 57.4807692,5.55594406 57.5174825,5.51923077 C57.5541958,5.48251748 57.6031469,5.4458042 57.6520979,5.42132867 C57.701049,5.39685315 57.75,5.38461538 57.798951,5.37237762 L57.9335664,5.37237762 L57.9335664,5.37237762 L57.9335664,5.37237762 Z"></path>
                        <path d="M63.2325175,0.122377622 L63.2325175,4.43006993 C63.2325175,4.52797203 63.2447552,4.62587413 63.256993,4.71153846 C63.2814685,4.7972028 63.3059441,4.8951049 63.3304196,4.98076923 C63.3671329,5.06643357 63.4160839,5.13986014 63.465035,5.20104895 C63.513986,5.26223776 63.5751748,5.32342657 63.6363636,5.38461538 C63.7587413,5.45804196 63.8933566,5.51923077 64.027972,5.55594406 C64.1625874,5.59265734 64.2972028,5.6048951 64.4440559,5.6048951 L65.3741259,5.59265734 L65.3741259,6.40034965 L64.6765734,6.40034965 L64.3461538,6.40034965 L64.0157343,6.37587413 C63.8076923,6.3513986 63.5996503,6.30244755 63.4160839,6.20454545 C63.2202797,6.11888112 63.048951,6.00874126 62.9020979,5.86188811 C62.8409091,5.78846154 62.7797203,5.72727273 62.7307692,5.64160839 C62.6695804,5.56818182 62.6206294,5.49475524 62.5716783,5.40909091 C62.534965,5.29895105 62.4982517,5.18881119 62.4737762,5.07867133 C62.4493007,4.96853147 62.4370629,4.84615385 62.4248252,4.73601399 L62.4248252,0.122377622 L63.2325175,0.122377622 L63.2325175,0.122377622 Z"></path>
                        <path d="M66.756993,0.954545455 L66.756993,2.06818182 L68.3356643,2.06818182 L68.3356643,2.79020979 L66.7692308,2.79020979 L66.7692308,5.23776224 L66.7692308,5.27447552 L66.7692308,5.31118881 C66.7814685,5.36013986 66.7937063,5.40909091 66.8181818,5.4458042 C66.8426573,5.49475524 66.8671329,5.53146853 66.9038462,5.55594406 C66.9527972,5.59265734 67.013986,5.61713287 67.0751748,5.64160839 C67.1363636,5.65384615 67.2097902,5.67832168 67.270979,5.67832168 L68.3111888,5.66608392 L68.3111888,6.37587413 L67.013986,6.37587413 C66.9283217,6.37587413 66.8548951,6.3513986 66.7692308,6.32692308 C66.6835664,6.30244755 66.6101399,6.26573427 66.548951,6.22902098 C66.4632867,6.18006993 66.3898601,6.13111888 66.3164336,6.06993007 C66.243007,6.00874126 66.1818182,5.93531469 66.1328671,5.84965035 C66.0839161,5.77622378 66.0472028,5.71503497 66.0227273,5.64160839 C65.9982517,5.56818182 65.9737762,5.49475524 65.9615385,5.42132867 C65.9615385,5.38461538 65.9493007,5.3479021 65.9493007,5.31118881 L65.9493007,5.21328671 C65.9370629,5.18881119 65.9370629,5.1520979 65.9370629,5.11538462 L65.9370629,5.00524476 L65.9370629,0.93006993 L66.756993,0.93006993 L66.756993,0.954545455 Z"></path>
                        <path d="M73.1573427,0.11013986 L73.1573427,4.31993007 C73.1573427,4.5034965 73.1206294,4.68706294 73.0716783,4.85839161 C73.0227273,5.02972028 72.9493007,5.20104895 72.8636364,5.36013986 C72.8024476,5.48251748 72.7412587,5.6048951 72.6555944,5.71503497 C72.5699301,5.82517483 72.472028,5.92307692 72.3741259,6.00874126 C72.263986,6.09440559 72.1538462,6.15559441 72.0314685,6.22902098 C71.9090909,6.29020979 71.7867133,6.33916084 71.6520979,6.38811189 C71.5909091,6.38811189 71.5174825,6.40034965 71.4562937,6.42482517 C71.3828671,6.43706294 71.3216783,6.4493007 71.2482517,6.46153846 L71.1503497,6.46153846 L71.0402098,6.46153846 L70.9912587,6.46153846 L70.9545455,6.46153846 L70.9178322,6.46153846 L70.8688811,6.46153846 C70.7342657,6.46153846 70.5996503,6.4493007 70.465035,6.42482517 C70.3304196,6.40034965 70.208042,6.36363636 70.0734266,6.31468531 C69.951049,6.2534965 69.8409091,6.18006993 69.7307692,6.09440559 C69.6206294,6.00874126 69.5227273,5.92307692 69.4370629,5.81293706 C69.3391608,5.71503497 69.2534965,5.6048951 69.1800699,5.49475524 C69.1066434,5.38461538 69.0332168,5.26223776 68.9842657,5.13986014 C68.9353147,5.01748252 68.8986014,4.88286713 68.8618881,4.76048951 C68.8374126,4.62587413 68.8129371,4.49125874 68.8006993,4.35664336 C68.8006993,4.08741259 68.8374126,3.81818182 68.9108392,3.54895105 C68.9965035,3.29195804 69.1066434,3.0472028 69.2657343,2.82692308 C69.4493007,2.61888112 69.6573427,2.44755245 69.8898601,2.3006993 C70.1223776,2.16608392 70.3793706,2.06818182 70.6486014,2.03146853 C70.8933566,2.01923077 71.1381119,2.04370629 71.3828671,2.09265734 C71.6153846,2.14160839 71.8479021,2.21503497 72.0681818,2.32517483 L72.0681818,3.09615385 C71.9702797,3.03496503 71.8723776,2.97377622 71.7744755,2.92482517 C71.6765734,2.87587413 71.5664336,2.82692308 71.4685315,2.79020979 C71.3828671,2.76573427 71.2972028,2.74125874 71.1993007,2.72902098 C71.1136364,2.71678322 71.0157343,2.71678322 70.9300699,2.72902098 C70.8444056,2.72902098 70.7587413,2.74125874 70.6730769,2.76573427 C70.5874126,2.79020979 70.5017483,2.81468531 70.4160839,2.8513986 C70.2447552,2.91258741 70.0856643,3.01048951 69.951049,3.1451049 C69.8164336,3.27972028 69.7185315,3.43881119 69.6573427,3.61013986 C69.6206294,3.6958042 69.5961538,3.78146853 69.5839161,3.87937063 C69.5716783,3.97727273 69.5594406,4.06293706 69.5594406,4.16083916 C69.5594406,4.25874126 69.5716783,4.34440559 69.5839161,4.43006993 C69.6083916,4.51573427 69.6328671,4.61363636 69.6573427,4.6993007 C69.7185315,4.87062937 69.791958,5.02972028 69.9020979,5.16433566 C70.0122378,5.31118881 70.1346154,5.43356643 70.2692308,5.54370629 C70.3426573,5.59265734 70.4283217,5.62937063 70.513986,5.65384615 C70.5996503,5.67832168 70.6853147,5.7027972 70.7832168,5.71503497 C70.8199301,5.72727273 70.8566434,5.72727273 70.8933566,5.72727273 L71.0034965,5.72727273 C71.0524476,5.72727273 71.1013986,5.72727273 71.1625874,5.71503497 C71.2115385,5.71503497 71.2604895,5.7027972 71.3094406,5.69055944 C71.3951049,5.66608392 71.4807692,5.62937063 71.5664336,5.59265734 C71.6520979,5.55594406 71.7255245,5.50699301 71.798951,5.4458042 C71.9458042,5.3479021 72.0559441,5.22552448 72.1660839,5.07867133 C72.263986,4.93181818 72.3251748,4.77272727 72.3618881,4.6013986 L72.3618881,0.0979020979 L73.1573427,0.0979020979 L73.1573427,0.11013986 Z"></path>
                    </g>
                </g>
            </g>
        </g>
    </g>
</svg>