<?xml version="1.0" encoding="utf-8"?>
<!-- Generator: Adobe Illustrator 20.0.0, SVG Export Plug-In . SVG Version: 6.00 Build 0)  -->
<svg version="1.1" id="GoldenIO" xmlns="http://www.w3.org/2000/svg" xmlns:xlink="http://www.w3.org/1999/xlink" x="0px" y="0px" viewBox="0 0 240 100" style="enable-background:new 0 0 240 100;" xml:space="preserve">
    <style type="text/css">
	.st0{fill:none;stroke:#B5B5B6;stroke-width:0.3023;}
	.st1{fill:url(#SVGID_1_);}
	.st2{fill:url(#SVGID_2_);}
	.st3{fill:url(#SVGID_3_);}
	.st4{opacity:0.2;fill:url(#SVGID_4_);enable-background:new    ;}
	.st5{fill:url(#SVGID_5_);}
	.st6{fill:url(#SVGID_6_);}
	.st7{fill:none;}
	.st8{fill:url(#SVGID_7_);}
	.st9{fill:url(#SVGID_8_);}
	.st10{fill:url(#SVGID_9_);}
	.st11{fill:url(#SVGID_10_);}
	.st12{fill:url(#SVGID_11_);}
	.st13{fill:url(#SVGID_12_);}
	.st14{fill:url(#SVGID_13_);}
	.st15{fill:url(#SVGID_14_);}
	.st16{fill:url(#SVGID_15_);}
	.st17{fill:url(#SVGID_16_);}
	.st18{fill:url(#SVGID_17_);}
	.st19{opacity:0.7;fill:url(#SVGID_18_);enable-background:new    ;}
	.st20{fill:url(#SVGID_19_);}
	.st21{fill:#480408;}
	.st22{fill:url(#SVGID_20_);}
	.st23{fill:url(#SVGID_21_);}
	.st24{fill:url(#SVGID_22_);}
	.st25{opacity:0.1;fill:url(#SVGID_23_);enable-background:new    ;}
	.st26{fill:#C2391E;}
</style>
    <title>GoldenIO</title>
    <g id="GoldenIO" transform="translate(-50.000000, -25.000000)">
        <g id="GoldenIO" transform="translate(50.000000, 25.000000)">
            <g id="Shape">
                <path class="st0" d="M82.1,50.8c2.6,4.9-3.4,11.9-12.4,14c-7.5,1.8-12.4-1.3-11.9-5.8c0.4-3.7,4.4-7.9,9.7-10.1
							C73.4,46.5,80.1,46.9,82.1,50.8L82.1,50.8z"></path>
                <radialGradient id="SVGID_1_" cx="-217.5309" cy="380.3018" r="0.8289" gradientTransform="matrix(22.8454 0 0 -22.8454 5056.8306 8756.3574)" gradientUnits="userSpaceOnUse">
                    <stop offset="0" style="stop-color:#B93A21"></stop>
                    <stop offset="0.6141" style="stop-color:#B93A21"></stop>
                    <stop offset="1" style="stop-color:#480408"></stop>
                </radialGradient>
                <path class="st1" d="M86.2,51.8c-2.2-4.7-9.6-6.8-17.1-5.3c-8.1,1.7-15.1,7.3-15.1,13.3c0,7.1,9.4,11,20.1,7.8
							C83.9,64.6,88.8,57.3,86.2,51.8L86.2,51.8z M72.8,63c-8.3,2.7-16,0.2-16.4-5c-0.4-4.7,5.3-9.6,12.2-11.2
							c6.5-1.6,12.7,0,14.4,3.8C84.8,54.9,80.6,60.5,72.8,63L72.8,63z"></path>
                <radialGradient id="SVGID_2_" cx="-191.2173" cy="335.9153" r="1.0472" gradientTransform="matrix(7.1894 0 0 -7.1894 1452.4117 2467.8474)" gradientUnits="userSpaceOnUse">
                    <stop offset="0" style="stop-color:#B93A21"></stop>
                    <stop offset="0.6141" style="stop-color:#B93A21"></stop>
                    <stop offset="1" style="stop-color:#480408"></stop>
                </radialGradient>
                <path class="st2" d="M82.4,49.6c-1.5-2-3.7-3.1-6.1-3.1c10.5,5.2,2.3,13.8,2.3,13.8C84.3,56.2,84.1,51.7,82.4,49.6L82.4,49.6z
							"></path>
                <radialGradient id="SVGID_3_" cx="-190.7282" cy="335.5596" r="1.0394" gradientTransform="matrix(7.1894 0 0 -7.1894 1452.4117 2470.26)" gradientUnits="userSpaceOnUse">
                    <stop offset="0" style="stop-color:#B93A21"></stop>
                    <stop offset="0.6141" style="stop-color:#B93A21"></stop>
                    <stop offset="1" style="stop-color:#480408"></stop>
                </radialGradient>
                <path class="st3" d="M82.4,49.6c-1.5-2-3.7-3.1-6.1-3.1h0c2.2,0.1,4.3,1.1,5.8,3c1.9,2.5,2,6.6-3.6,10.8
							C84.3,56.2,84.1,51.7,82.4,49.6L82.4,49.6z"></path>
                <radialGradient id="SVGID_4_" cx="-189.905" cy="334.0816" r="0.6315" gradientTransform="matrix(6.9756 0 0 -6.9756 1403.1323 2380.804)" gradientUnits="userSpaceOnUse">
                    <stop offset="0.3098" style="stop-color:#E3981F"></stop>
                    <stop offset="1" style="stop-color:#B93A21"></stop>
                </radialGradient>
                <path class="st4" d="M82.4,49.7c-1.4-1.9-3.7-3.2-6-3.3c10.5,5.2,2.2,13.8,2.2,13.8C84.1,56,84,51.9,82.4,49.7L82.4,49.7z"></path>
                <radialGradient id="SVGID_5_" cx="-213.852" cy="374.0164" r="0.8614" gradientTransform="matrix(17.3215 0 0 -17.3215 3773.4131 6538.5884)" gradientUnits="userSpaceOnUse">
                    <stop offset="0" style="stop-color:#B93A21"></stop>
                    <stop offset="0.6141" style="stop-color:#B93A21"></stop>
                    <stop offset="1" style="stop-color:#480408"></stop>
                </radialGradient>
                <path class="st5" d="M75.3,62.1c-0.8,0.4-1.6,0.7-2.6,1c-8.3,2.7-16,0.2-16.4-5.1c-0.3-3.6,3-7.3,7.7-9.6l-0.2-0.2l0,0
							c-5.6,2.6-9.8,7-9.8,11.7v0.3C54.2,60.6,58.6,70.5,75.3,62.1L75.3,62.1z"></path>
                <radialGradient id="SVGID_6_" cx="-212.9593" cy="372.7678" r="1.0371" gradientTransform="matrix(16.5571 0 0 -16.5571 3595.1663 6232.019)" gradientUnits="userSpaceOnUse">
                    <stop offset="0" style="stop-color:#FFFFFF"></stop>
                    <stop offset="1" style="stop-color:#FFFFFF;stop-opacity:0"></stop>
                </radialGradient>
                <path class="st6" d="M63.5,65.4c-2.9,0-5.4-0.9-7.2-2.5c-1.3-1.2-1.9-2.4-2-2.7v-0.3c0-4.1,3.4-8.3,8.8-11
							c-4.4,2.5-7,5.9-6.7,9.1c0.3,3.7,4.2,6.3,9.8,6.3c1.8,0,3.9-0.3,5.8-0.9C68.8,64.7,66,65.4,63.5,65.4L63.5,65.4L63.5,65.4z"></path>
                <g transform="translate(0.221298, 14.928571)">
                    <path class="st7" d="M61.8,34.7c-0.3,0.1-0.5,0.3-0.7,0.5c0,0,0,0,0,0c-0.2,0.2-0.5,0.3-0.7,0.5c0,0,0,0,0,0
								c-0.2,0.2-0.5,0.4-0.6,0.6c0,0,0,0,0,0c-0.1,0.1-0.2,0.2-0.3,0.3l0,0c-0.1,0.1-0.2,0.2-0.3,0.3c0,0,0,0,0,0
								c-0.1,0.1-0.2,0.2-0.3,0.3c0,0,0,0,0,0c-0.1,0.1-0.2,0.2-0.2,0.3c0,0,0,0,0,0c-0.1,0.1-0.2,0.2-0.2,0.3l0,0
								c-0.1,0.1-0.1,0.2-0.2,0.3l0,0c0,0.1-0.1,0.2-0.2,0.3c0,0,0,0,0,0c-0.1,0.2-0.3,0.4-0.4,0.6c0,0,0,0,0,0
								c-0.1,0.2-0.2,0.4-0.3,0.6c0,0,0,0,0,0c0,0.1-0.1,0.2-0.1,0.3v0c0,0.1-0.1,0.2-0.1,0.3c0,0,0,0,0,0c0,0.1,0,0.2-0.1,0.3
								c0,0,0,0,0,0c0,0.1,0,0.2-0.1,0.3c0,0,0,0,0,0c0,0.1,0,0.2,0,0.3v0c0.2,0,0.2,0,0.2,0.1v0c0,0.1,0,0.2,0,0.3v0
								c0,0.1,0,0.2,0,0.3v0v0.3v0v0.3c0.4,5.3,8.1,7.7,16.4,5c0.2,0,0.4-0.1,0.6-0.2c0,0,0,0,0,0c0.2,0,0.4-0.1,0.6-0.2
								c0,0,0,0,0,0c0.2,0,0.4-0.1,0.6-0.2h0c0.2-0.1,0.4-0.2,0.6-0.2c6.2-2.8,9.3-7.7,7.7-11.4c-1.7-3.9-7.9-5.5-14.4-3.9
								c-1.6,0.4-3.1,0.9-4.5,1.6C63.2,33.8,62.5,34.2,61.8,34.7C61.8,34.7,61.8,34.7,61.8,34.7L61.8,34.7z"></path>
                    <radialGradient id="SVGID_7_" cx="342.0266" cy="-555.8617" r="28.0933" gradientTransform="matrix(0.5202 0 0 -0.5202 -90.9096 -235.9058)" gradientUnits="userSpaceOnUse">
                        <stop offset="0" style="stop-color:#B93A21"></stop>
                        <stop offset="0.6141" style="stop-color:#B93A21"></stop>
                        <stop offset="1" style="stop-color:#480408"></stop>
                    </radialGradient>
                    <path class="st8" d="M61.7,34.3c0.3-0.2,0.6-0.4,1-0.5C62.3,34,62,34.1,61.7,34.3L61.7,34.3z"></path>
                    <radialGradient id="SVGID_8_" cx="300.5573" cy="-479.396" r="29.4311" gradientTransform="matrix(0.5655 0 0 -0.5655 -82.9323 -217.8123)" gradientUnits="userSpaceOnUse">
                        <stop offset="0" style="stop-color:#B93A21"></stop>
                        <stop offset="0.6141" style="stop-color:#B93A21"></stop>
                        <stop offset="1" style="stop-color:#480408"></stop>
                    </radialGradient>
                    <path class="st9" d="M60.7,34.9c0.3-0.2,0.6-0.4,0.9-0.6C61.3,34.6,61,34.7,60.7,34.9L60.7,34.9z"></path>
                    <radialGradient id="SVGID_9_" cx="303.0316" cy="-478.3156" r="30.9026" gradientTransform="matrix(0.5655 0 0 -0.5655 -84.3314 -217.2015)" gradientUnits="userSpaceOnUse">
                        <stop offset="0" style="stop-color:#B93A21"></stop>
                        <stop offset="0.6141" style="stop-color:#B93A21"></stop>
                        <stop offset="1" style="stop-color:#480408"></stop>
                    </radialGradient>
                    <path class="st10" d="M59.8,35.6c0.3-0.2,0.6-0.4,0.9-0.6C60.4,35.1,60.1,35.3,59.8,35.6L59.8,35.6z"></path>
                    <radialGradient id="SVGID_10_" cx="259.2248" cy="-371.3568" r="42.6243" gradientTransform="matrix(0.6418 0 0 -0.6418 -79.3354 -185.0485)" gradientUnits="userSpaceOnUse">
                        <stop offset="0" style="stop-color:#B93A21"></stop>
                        <stop offset="0.6141" style="stop-color:#B93A21"></stop>
                        <stop offset="1" style="stop-color:#480408"></stop>
                    </radialGradient>
                    <path class="st11" d="M57.7,37.3c-0.2,0.2-0.5,0.5-0.6,0.7C57.2,37.7,57.4,37.5,57.7,37.3L57.7,37.3z"></path>
                    <radialGradient id="SVGID_11_" cx="-217.7439" cy="365.359" r="0.8311" gradientTransform="matrix(22.8303 0 0 -22.8303 5058.1831 8394.5303)" gradientUnits="userSpaceOnUse">
                        <stop offset="0.3953" style="stop-color:#B93A21"></stop>
                        <stop offset="0.4503" style="stop-color:#B13A23"></stop>
                        <stop offset="1" style="stop-color:#480408"></stop>
                    </radialGradient>
                    <path class="st12" d="M86,36.9c-2.2-4.7-9.6-6.8-17.1-5.3c-1.8,0.4-3.5,0.9-5.1,1.7l0,0l0.2,0.2l0,0c1.4-0.7,2.9-1.2,4.5-1.6
								c6.5-1.6,12.7,0,14.4,3.8c1.6,3.7-1.5,8.6-7.7,11.4l0,0c-15.6,7.9-20.8,0.8-21.3-1.5c0.6,6.6,9.7,10.2,20,7
								C83.6,49.7,88.6,42.4,86,36.9L86,36.9z"></path>
                    <radialGradient id="SVGID_12_" cx="-217.3668" cy="364.7642" r="1.0963" gradientTransform="matrix(22.325 0 0 -22.325 4942.665 8199.4111)" gradientUnits="userSpaceOnUse">
                        <stop offset="0" style="stop-color:#B93A21"></stop>
                        <stop offset="0.6141" style="stop-color:#B93A21"></stop>
                        <stop offset="1" style="stop-color:#480408"></stop>
                    </radialGradient>
                    <path class="st13" d="M66.4,53.7c-3.4,0-6.4-0.8-8.6-2.2c-1.8-1.2-3.1-2.7-3.6-4.5c1.1,1.8,3.7,3.9,8.4,3.9l0,0
								c3.6,0,7.8-1.2,12.5-3.6c3-1.4,5.4-3.3,6.8-5.4c1.4-2.1,1.8-4.4,0.9-6.2c-0.9-2-3-3.5-5.8-4.1c4.2,0.7,7.4,2.6,8.8,5.4
								c0.9,1.9,0.9,4.2,0,6.4c-1.7,4-6.2,7.4-11.9,9.2C71.3,53.3,68.8,53.7,66.4,53.7L66.4,53.7L66.4,53.7z"></path>
                    <radialGradient id="SVGID_13_" cx="9.5354" cy="-13.4711" r="8.7774" gradientTransform="matrix(1.1988 0 0 -1.1988 57.1985 26.3359)" gradientUnits="userSpaceOnUse">
                        <stop offset="0" style="stop-color:#B93A21"></stop>
                        <stop offset="0.6141" style="stop-color:#B93A21"></stop>
                        <stop offset="1" style="stop-color:#480408"></stop>
                    </radialGradient>
                    <path class="st14" d="M63.9,33.5c-0.7,0.4-1.4,0.8-2.1,1.2C62.5,34.2,63.2,33.8,63.9,33.5L63.9,33.5z"></path>
                    <radialGradient id="SVGID_14_" cx="286.271" cy="-457.956" r="28.7536" gradientTransform="matrix(0.5655 0 0 -0.5655 -93.2498 -216.4779)" gradientUnits="userSpaceOnUse">
                        <stop offset="0" style="stop-color:#B93A21"></stop>
                        <stop offset="0.6141" style="stop-color:#B93A21"></stop>
                        <stop offset="1" style="stop-color:#480408"></stop>
                    </radialGradient>
                    <path class="st15" d="M59.7,36.3c0.2-0.2,0.4-0.4,0.6-0.6C60.1,35.9,59.9,36.1,59.7,36.3L59.7,36.3z"></path>
                    <radialGradient id="SVGID_15_" cx="327.7684" cy="-532.3835" r="26.0579" gradientTransform="matrix(0.5202 0 0 -0.5202 -101.8881 -234.4809)" gradientUnits="userSpaceOnUse">
                        <stop offset="0" style="stop-color:#B93A21"></stop>
                        <stop offset="0.6141" style="stop-color:#B93A21"></stop>
                        <stop offset="1" style="stop-color:#480408"></stop>
                    </radialGradient>
                    <path class="st16" d="M60.4,35.7c0.2-0.2,0.5-0.4,0.7-0.5C60.8,35.4,60.5,35.6,60.4,35.7L60.4,35.7z"></path>
                </g>
                <radialGradient id="SVGID_16_" cx="-215.5426" cy="376.7296" r="0.7859" gradientTransform="matrix(19.2001 0 0 -19.2001 4205.8452 7291.8979)" gradientUnits="userSpaceOnUse">
                    <stop offset="0" style="stop-color:#B86A20"></stop>
                    <stop offset="0.6141" style="stop-color:#B93A21"></stop>
                    <stop offset="1" style="stop-color:#480408"></stop>
                </radialGradient>
                <path class="st17" d="M72.8,63c-8.3,2.7-16,0.2-16.4-5c-0.3-3.6,3-7.2,7.6-9.6l0,0c0,0,0,0,0.1,0c0,0,0,0,0,0l0,0
							c0.7-0.4,2.3-1,3.7-1.4c0.2,0,1.3-0.4,1.3-0.4c-0.2,0-1.4,0.3-1.8,0.4c-0.4,0.1-1.3,0.3-2.3,0.8c-0.1,0-0.8,0.4-1.1,0.5l0,0
							c0,0,0,0,0,0h-0.1l0,0c-5.6,2.6-9.8,7-9.8,11.6v0.3c-0.2,1.6,4.6,10.4,21.3,1.8C74.5,62.4,73.7,62.7,72.8,63L72.8,63z"></path>
                <radialGradient id="SVGID_17_" cx="-213.6241" cy="373.113" r="0.4781" gradientTransform="matrix(16.6931 0 0 -16.6931 3628.8799 6283.9761)" gradientUnits="userSpaceOnUse">
                    <stop offset="0" style="stop-color:#B93A21"></stop>
                    <stop offset="0.6141" style="stop-color:#B93A21"></stop>
                    <stop offset="1" style="stop-color:#480408"></stop>
                </radialGradient>
                <path class="st18" d="M63.9,51.6c6.3-4.6,10.8-5.2,12.7-5.1c0,0-0.1,0-0.2-0.1c-2.4-0.4-5-0.3-7.7,0.4
							c-7,1.7-12.6,6.5-12.2,11.2c0.1,2.1,1.5,3.7,3.5,4.8C59.9,62.8,55.7,57.6,63.9,51.6L63.9,51.6z"></path>
                <radialGradient id="SVGID_18_" cx="-213.3039" cy="372.5957" r="0.6264" gradientTransform="matrix(16.3762 0 0 -16.3762 3555.627 6156.7178)" gradientUnits="userSpaceOnUse">
                    <stop offset="0" style="stop-color:#B65227"></stop>
                    <stop offset="1" style="stop-color:#CE3C30;stop-opacity:0"></stop>
                </radialGradient>
                <path class="st19" d="M59.7,62.6c-1.9-1.1-3.1-2.7-3.2-4.6c-0.2-2.2,1-4.5,3.3-6.6c2.3-2.1,5.4-3.6,8.8-4.5
							c1.7-0.4,3.3-0.6,5-0.6c0.9,0,1.7,0,2.6,0.2c-2.2,0-6.5,0.9-12.3,5.2c-3.1,2.2-4.8,4.5-5,6.9C58.6,60.5,59.3,62,59.7,62.6
							L59.7,62.6z"></path>
                <g transform="translate(2.434276, 15.154762)">
                    <radialGradient id="SVGID_19_" cx="-216.2957" cy="357.0924" r="1.1386" gradientTransform="matrix(16.6929 0 0 -16.6929 3666.1501 6015.7607)" gradientUnits="userSpaceOnUse">
                        <stop offset="0" style="stop-color:#B93A21"></stop>
                        <stop offset="0.6141" style="stop-color:#B93A21"></stop>
                        <stop offset="1" style="stop-color:#480408"></stop>
                    </radialGradient>
                    <path class="st20" d="M57.5,47.7l-0.1,0c-2.1-1.1-3.2-2.7-3.4-4.7c-0.2-2.2,1-4.6,3.4-6.7c2.3-2.1,5.5-3.6,8.8-4.5
								c1.7-0.4,3.3-0.6,4.9-0.6c1,0,1.9,0,2.8,0.2l0,0c0,0,0.1,0,0.1,0l0.2,0.1h-0.2c-2.1,0-6.5,0.7-12.6,5.1c-3,2.1-4.7,4.5-5,6.9
								c0,0.4,0,0.8,0,1.1c0.1,1.8,1,3,1,3L57.5,47.7L57.5,47.7z M71.1,31.1c-1.6,0-3.2,0.2-4.9,0.6c-3.4,0.9-6.5,2.4-8.8,4.5
								c-2.4,2.1-3.6,4.5-3.4,6.7c0.1,2,1.3,3.6,3.4,4.7c-0.3-0.4-1.3-2-1-4.1c0.3-2.4,2-4.8,5-6.9c6.1-4.4,10.6-5.1,12.7-5.1
								c0,0-0.1-0.1-0.1-0.1C73.1,31.1,72.1,31.1,71.1,31.1L71.1,31.1z"></path>
                </g>
                <path class="st21" d="M76.5,46.5L76.5,46.5c-1.9,0-6.6-0.9-12.9,3.7c-1.7,1.2-4.7,4.7-4.8,8.7v0.4c3-6.2,10.7-8.2,13.8-8.5
							c3-0.3,8.3,0.3,9,3.8C82.4,50.5,79.6,47.9,76.5,46.5L76.5,46.5z"></path>
                <radialGradient id="SVGID_20_" cx="-195.2694" cy="341.8954" r="0.6933" gradientTransform="matrix(7.9738 0 0 -7.9738 1617.5779 2780.0759)" gradientUnits="userSpaceOnUse">
                    <stop offset="0" style="stop-color:#B93A21"></stop>
                    <stop offset="0.6141" style="stop-color:#B93A21"></stop>
                    <stop offset="1" style="stop-color:#480408"></stop>
                </radialGradient>
                <path class="st22" d="M63.7,50.4c3.7-2.7,6.9-3.8,10.6-3.8c0.6,0,1.1,0,1.5,0c0.3,0,0.6,0,0.7,0c1.8,0.9,4.4,2.6,5.1,5.6
							c-0.4-2-1.8-4-5-5.7l0,0C74.7,46.6,70,45.7,63.7,50.4c-1.7,1.2-2.8,2.7-3.6,4.1C60.9,52.8,62.1,51.5,63.7,50.4L63.7,50.4z"></path>
                <g transform="translate(0.442596, 0.000000)">
                    <linearGradient id="SVGID_21_" gradientUnits="userSpaceOnUse" x1="-215.7415" y1="373.6718" x2="-215.1055" y2="374.4213" gradientTransform="matrix(18.3527 0 0 -17.2366 4023.4062 6502.2344)">
                        <stop offset="0.2705" style="stop-color:#E0B93C"></stop>
                        <stop offset="0.4073" style="stop-color:#DEB63E"></stop>
                        <stop offset="0.5176" style="stop-color:#D4AC3B"></stop>
                        <stop offset="0.6187" style="stop-color:#C49D38"></stop>
                        <stop offset="0.7143" style="stop-color:#AF8635"></stop>
                        <stop offset="0.806" style="stop-color:#916C2C"></stop>
                        <stop offset="0.8947" style="stop-color:#6F4E22"></stop>
                        <stop offset="0.9796" style="stop-color:#4A2A12"></stop>
                        <stop offset="1" style="stop-color:#40220F"></stop>
                    </linearGradient>
                    <path class="st23" d="M78.8,58.4c-6.4-13-13.1-12.3-13.1-12.3c0.4,4.7-5.1,16.4-5.1,16.4c6.7,2.2,15-0.7,18.2-3.9
								C78.8,58.4,78.8,58.4,78.8,58.4C78.8,57.7,78.8,58.4,78.8,58.4L78.8,58.4z"></path>
                    <linearGradient id="SVGID_22_" gradientUnits="userSpaceOnUse" x1="-220.0018" y1="384.043" x2="-219.1425" y2="384.4138" gradientTransform="matrix(25.622 0 0 -27.4112 5699.1421 10576.4072)">
                        <stop offset="0.2705" style="stop-color:#E0B93C"></stop>
                        <stop offset="0.4073" style="stop-color:#DEB63E"></stop>
                        <stop offset="0.5176" style="stop-color:#D4AC3B"></stop>
                        <stop offset="0.6187" style="stop-color:#C49D38"></stop>
                        <stop offset="0.7143" style="stop-color:#AF8635"></stop>
                        <stop offset="0.806" style="stop-color:#916C2C"></stop>
                        <stop offset="0.8947" style="stop-color:#6F4E22"></stop>
                        <stop offset="0.9796" style="stop-color:#4A2A12"></stop>
                        <stop offset="1" style="stop-color:#40220F"></stop>
                    </linearGradient>
                    <path class="st24" d="M71.4,32.4c0,0-2.9-1.7-6.7-1l2.7,2.2c0,0-9.3,7.4-11.6,9.2c-1.2,0.9-1.9,1.3-1.9,1.3l0.9,1.7
								c0,0,4.3,1.5,9.4,0.9c1.2-0.1,6.5-1.8,14.6,11.8C78.8,58.4,82.5,38.7,71.4,32.4L71.4,32.4z"></path>
                </g>
                <radialGradient id="SVGID_23_" cx="-213.8414" cy="373.3458" r="0.6959" gradientTransform="matrix(16.7155 0 0 -16.7155 3630.8347 6295.7197)" gradientUnits="userSpaceOnUse">
                    <stop offset="0.2031" style="stop-color:#B93A21"></stop>
                    <stop offset="0.3657" style="stop-color:#BA3E20"></stop>
                    <stop offset="0.5153" style="stop-color:#BE4920"></stop>
                    <stop offset="0.6598" style="stop-color:#C5571E"></stop>
                    <stop offset="0.8012" style="stop-color:#CE6D1E"></stop>
                    <stop offset="0.9389" style="stop-color:#DB8A1F"></stop>
                    <stop offset="1" style="stop-color:#E3981F"></stop>
                </radialGradient>
                <path class="st25" d="M62.9,65.6c-4.4,0-6.6-1.8-7.5-3c-0.8-1-1.2-2-1.1-2.3l0,0l0,0v-0.3c0-4.1,3.4-8.3,8.8-11
							c-4.3,2.4-6.9,5.9-6.7,9.1c0.3,3.7,4.3,6.3,9.9,6.3c1.9,0,3.9-0.3,5.9-0.9C68.6,64.9,65.6,65.6,62.9,65.6L62.9,65.6L62.9,65.6
							z"></path>
            </g>
            <g id="Shape_1_" transform="translate(38.505824, 5.654762)">
                <g>
                    <g>
                        <path class="st26" d="M67.2,46.3c-0.8,0.5-1.8,0.9-2.7,1c-0.9,0.2-1.9,0.3-2.9,0.3c-1.2,0-2.2-0.2-3.2-0.6
									c-1-0.4-1.8-0.9-2.5-1.6c-0.7-0.7-1.3-1.5-1.7-2.5c-0.4-1-0.6-2-0.6-3.2c0-1.2,0.2-2.3,0.6-3.3s1-1.8,1.7-2.5
									c0.7-0.7,1.6-1.2,2.6-1.6c1-0.4,2-0.6,3.1-0.6c1,0,1.9,0.1,2.8,0.4c0.9,0.3,1.7,0.8,2.4,1.5l-1.3,1.4
									c-0.5-0.6-1.1-1-1.8-1.3c-0.7-0.3-1.4-0.4-2.2-0.4c-0.8,0-1.7,0.1-2.4,0.5c-0.7,0.3-1.3,0.8-1.9,1.3c-0.6,0.6-1,1.2-1.3,2
									c-0.3,0.8-0.5,1.6-0.5,2.5s0.1,1.7,0.5,2.5c0.3,0.8,0.7,1.4,1.3,2c0.6,0.6,1.2,1,1.9,1.3c0.7,0.3,1.6,0.5,2.5,0.5
									c0.6,0,1.3-0.1,1.9-0.2c0.6-0.1,1.3-0.4,1.8-0.7v-4.6H62v-1.7h5.2V46.3L67.2,46.3L67.2,46.3z"></path>
                        <path class="st26" d="M70,42.3c0-0.8,0.1-1.5,0.4-2.1c0.3-0.7,0.6-1.2,1.1-1.7c0.5-0.5,1-0.8,1.7-1.1
									c0.6-0.2,1.3-0.4,2.1-0.4s1.4,0.1,2.1,0.4c0.6,0.2,1.2,0.6,1.7,1.1c0.5,0.5,0.8,1,1.1,1.7c0.3,0.6,0.4,1.4,0.4,2.1
									s-0.1,1.5-0.4,2.1c-0.3,0.7-0.6,1.2-1.1,1.7c-0.5,0.5-1,0.8-1.7,1.1c-0.6,0.2-1.3,0.4-2.1,0.4s-1.4-0.1-2.1-0.4
									c-0.6-0.2-1.2-0.6-1.7-1.1c-0.5-0.5-0.8-1-1.1-1.7C70.2,43.8,70,43.1,70,42.3L70,42.3z M71.8,42.3c0,0.5,0.1,1,0.2,1.5
									c0.1,0.4,0.4,0.9,0.7,1.2c0.3,0.3,0.7,0.6,1.1,0.8c0.4,0.2,0.9,0.3,1.4,0.3c0.5,0,1-0.1,1.4-0.3c0.4-0.2,0.8-0.5,1.1-0.8
									c0.3-0.3,0.6-0.7,0.7-1.2c0.1-0.4,0.2-0.9,0.2-1.5c0-0.5-0.1-1-0.2-1.5c-0.1-0.4-0.4-0.9-0.7-1.2c-0.3-0.3-0.7-0.6-1.1-0.8
									c-0.4-0.2-0.9-0.3-1.4-0.3c-0.5,0-1,0.1-1.4,0.3c-0.4,0.2-0.8,0.5-1.1,0.8c-0.3,0.3-0.6,0.7-0.7,1.2
									C71.9,41.3,71.8,41.8,71.8,42.3L71.8,42.3z"></path>
                        <polygon class="st26" points="83.2,31.2 84.9,31.2 84.9,47.3 83.2,47.3 								"></polygon>
                        <path class="st26" d="M96.3,45.5L96.3,45.5c-0.4,0.6-0.8,1-1.5,1.4c-0.6,0.4-1.4,0.6-2.3,0.6c-0.7,0-1.3-0.1-1.9-0.4
									c-0.6-0.3-1.1-0.6-1.6-1.1c-0.5-0.5-0.8-1-1-1.7c-0.2-0.6-0.4-1.3-0.4-2.1c0-0.8,0.1-1.5,0.4-2.1c0.2-0.7,0.6-1.2,1.1-1.7
									c0.5-0.5,1-0.9,1.6-1.1c0.6-0.3,1.3-0.4,2.1-0.4c0.7,0,1.4,0.1,1.9,0.4c0.6,0.3,1.1,0.7,1.6,1.3h0v-7.6H98v16.1h-1.6
									L96.3,45.5L96.3,45.5L96.3,45.5z M96.3,42.3c0-0.5-0.1-1-0.2-1.5c-0.1-0.4-0.4-0.9-0.7-1.2c-0.3-0.3-0.7-0.6-1.1-0.8
									c-0.4-0.2-0.9-0.3-1.4-0.3s-1,0.1-1.4,0.3c-0.4,0.2-0.8,0.5-1.1,0.8c-0.3,0.3-0.6,0.7-0.7,1.2c-0.1,0.4-0.2,0.9-0.2,1.5
									c0,0.5,0.1,1,0.2,1.5c0.1,0.4,0.4,0.9,0.7,1.2c0.3,0.3,0.7,0.6,1.1,0.8c0.4,0.2,0.9,0.3,1.4,0.3s1-0.1,1.4-0.3
									c0.4-0.2,0.8-0.5,1.1-0.8c0.3-0.3,0.6-0.7,0.7-1.2C96.2,43.4,96.3,42.9,96.3,42.3L96.3,42.3z"></path>
                        <path class="st26" d="M109.8,45.5c-0.6,0.8-1.3,1.3-1.9,1.6c-0.7,0.3-1.5,0.5-2.4,0.5c-0.8,0-1.5-0.1-2.1-0.4
									c-0.6-0.3-1.2-0.7-1.6-1.1c-0.4-0.5-0.7-1-1-1.7c-0.2-0.6-0.3-1.3-0.3-2c0-0.8,0.1-1.5,0.4-2.1s0.6-1.2,1.1-1.7
									c0.5-0.5,1-0.8,1.6-1.1c0.6-0.2,1.3-0.4,2-0.4c0.7,0,1.3,0.1,1.9,0.3c0.6,0.2,1.1,0.6,1.5,1c0.4,0.4,0.7,1,1,1.7
									c0.2,0.7,0.3,1.4,0.3,2.2v0.5h-8c0,0.4,0.1,0.9,0.3,1.2c0.2,0.4,0.4,0.7,0.7,1c0.3,0.3,0.6,0.5,1,0.7
									c0.4,0.2,0.8,0.2,1.3,0.2c0.7,0,1.3-0.1,1.8-0.4c0.5-0.2,0.9-0.6,1.3-1.1L109.8,45.5L109.8,45.5z M108.3,41.4
									c0-0.9-0.3-1.5-0.8-2c-0.5-0.5-1.3-0.8-2.1-0.8c-0.9,0-1.7,0.2-2.2,0.8c-0.6,0.5-0.9,1.2-1,2H108.3L108.3,41.4z"></path>
                        <path class="st26" d="M112.6,39.7c0-0.5,0-0.9,0-1.3c0-0.4,0-0.8,0-1.1h1.6v0.8V39h0c0.1-0.2,0.3-0.5,0.5-0.7
									c0.2-0.2,0.5-0.4,0.7-0.6c0.3-0.2,0.6-0.3,0.9-0.4c0.4-0.1,0.7-0.1,1.1-0.1c0.6,0,1.2,0.1,1.7,0.3c0.5,0.2,0.9,0.5,1.2,0.9
									c0.3,0.4,0.6,0.8,0.7,1.3c0.1,0.5,0.2,1,0.2,1.7v6.1h-1.6v-6c0-0.9-0.2-1.5-0.6-2c-0.4-0.5-0.9-0.7-1.7-0.7
									c-0.5,0-1,0.1-1.4,0.3c-0.4,0.2-0.7,0.4-0.9,0.8c-0.2,0.3-0.4,0.8-0.6,1.2c-0.1,0.5-0.2,1-0.2,1.6v4.9h-1.6V39.7L112.6,39.7
									L112.6,39.7z"></path>
                    </g>
                    <path class="st26" d="M123.7,47.2V47c0.4,0,0.7-0.1,1-0.3c0.3-0.1,0.6-0.3,0.8-0.6c0.1-0.1,0.1-0.2,0.1-0.4
								c0-0.1,0-0.3,0.1-0.6c0-0.2,0-0.4,0-0.7v-0.7V43v-1.1v-1.2v-1.2v-4.2v-0.8c0-0.2,0-0.5,0-0.7c0-0.2,0-0.4-0.1-0.6
								c0-0.2-0.1-0.3-0.2-0.4c-0.2-0.2-0.4-0.4-0.7-0.5c-0.3-0.1-0.6-0.2-1-0.2v-0.2h6.3V32c-0.3,0-0.6,0.1-0.9,0.2
								c-0.3,0.1-0.6,0.3-0.8,0.7c-0.1,0.2-0.2,0.6-0.2,0.9c0,0.4,0,0.7,0,1v1v1V38v1.2v4.8v1.2c0,0.4,0.1,0.7,0.2,0.8
								c0.2,0.2,0.4,0.4,0.8,0.6c0.4,0.1,0.7,0.2,1,0.2v0.2h-6.3V47.2L123.7,47.2z"></path>
                    <path class="st26" d="M146.9,42.6c-0.4,0.9-1,1.8-1.7,2.5c-0.7,0.7-1.6,1.3-2.5,1.7c-1,0.4-2,0.6-3.1,0.6
								c-1.1,0-2.1-0.2-3-0.6c-1-0.4-1.8-0.9-2.5-1.6s-1.3-1.5-1.7-2.5c-0.4-0.9-0.6-2-0.6-3.2c0-1.2,0.2-2.3,0.6-3.3
								c0.4-1,1-1.8,1.8-2.5c0.7-0.7,1.6-1.2,2.6-1.6c1-0.4,2-0.5,3.1-0.5c1.2,0,2.3,0.2,3.2,0.6c0.9,0.4,1.8,1,2.4,1.7
								c0.6,0.7,1.2,1.6,1.5,2.5c0.4,0.9,0.5,1.9,0.5,2.9C147.5,40.5,147.3,41.6,146.9,42.6L146.9,42.6z M144.6,36.8
								c-0.2-0.9-0.6-1.7-1-2.4c-0.5-0.7-1-1.3-1.7-1.8c-0.6-0.4-1.4-0.7-2.3-0.7c-0.9,0-1.7,0.2-2.4,0.7c-0.6,0.4-1.2,1-1.6,1.8
								c-0.4,0.7-0.7,1.5-0.9,2.4c-0.2,0.9-0.3,1.8-0.3,2.7s0.1,1.9,0.3,2.8s0.6,1.7,1,2.4c0.5,0.7,1,1.2,1.7,1.7
								c0.6,0.4,1.4,0.6,2.3,0.6s1.7-0.2,2.3-0.7c0.6-0.4,1.2-1,1.6-1.8c0.4-0.7,0.7-1.5,1-2.4c0.2-0.9,0.3-1.8,0.3-2.7
								C144.9,38.6,144.8,37.7,144.6,36.8L144.6,36.8z"></path>
                </g>
                <g transform="translate(6.417637, 21.035714)">
                    <path class="st26" d="M57.3,32.5c0,0.3-0.5,0.3-0.5,0c0-0.5-0.2-0.8-0.6-0.8h-1.6c-0.4,0-0.6,0.2-0.6,0.8v2.4
								c0,0.5,0.2,0.8,0.6,0.8h1.6c0.4,0,0.6-0.3,0.6-0.8v-1h-1.4c-0.3,0-0.3-0.4,0-0.4h1.6c0.1,0,0.2,0.1,0.2,0.2v1.2
								c0,0.6-0.4,1.1-1,1.1h-1.6c-0.6,0-1-0.5-1-1.1v-2.4c0-0.6,0.4-1.1,1-1.1h1.6C56.9,31.3,57.3,31.8,57.3,32.5L57.3,32.5z"></path>
                    <path class="st26" d="M58.4,33.4c0-0.4,0.4-0.9,0.8-0.9h1c0.5,0,0.8,0.4,0.8,0.9v1.7c0,0.4-0.3,0.9-0.8,0.9h-1
								c-0.5,0-0.8-0.5-0.8-0.9V33.4L58.4,33.4z M58.9,33.4v1.7c0,0.3,0.1,0.5,0.4,0.5h1c0.3,0,0.4-0.1,0.4-0.5v-1.7
								c0-0.3-0.1-0.5-0.4-0.5h-1C59,33,58.9,33.2,58.9,33.4L58.9,33.4z"></path>
                    <path class="st26" d="M62.2,31.3c0-0.3,0.5-0.3,0.5,0v3.8c0,0.3,0.1,0.5,0.4,0.5c0.3,0,0.3,0.4,0,0.4c-0.5,0-0.8-0.4-0.8-0.9
								V31.3L62.2,31.3z"></path>
                    <path class="st26" d="M67,32.8v3c0,0.1-0.1,0.2-0.2,0.2h-1.6c-0.5,0-0.8-0.5-0.8-0.9v-1.7c0-0.4,0.4-0.9,0.8-0.9h1.4v-1.3
								c0-0.3,0.5-0.3,0.5,0V32.8L67,32.8z M66.6,33h-1.4c-0.2,0-0.4,0.2-0.4,0.5v1.7c0,0.3,0.1,0.5,0.4,0.5h1.4V33L66.6,33z"></path>
                    <path class="st26" d="M68.2,34.3v-0.9c0-0.4,0.4-0.9,0.8-0.9h1.1c0.5,0,0.8,0.4,0.8,0.9v0.9c0,0.1-0.1,0.2-0.2,0.2h-2.1v0.6
								c0,0.3,0.1,0.5,0.4,0.5h1.1c0.3,0,0.4-0.2,0.4-0.5c0-0.3,0.5-0.3,0.5,0c0,0.4-0.3,0.9-0.8,0.9H69c-0.6,0-0.8-0.5-0.8-0.9
								L68.2,34.3L68.2,34.3L68.2,34.3z M68.6,34.1h1.9v-0.6c0-0.3-0.1-0.5-0.4-0.5H69c-0.3,0-0.4,0.2-0.4,0.5V34.1L68.6,34.1
								L68.6,34.1z"></path>
                    <path class="st26" d="M72.5,35.8c0,0.3-0.5,0.3-0.5,0v-2.4c0-0.4,0.4-0.9,0.8-0.9h1c0.5,0,0.8,0.4,0.8,0.9v2.4
								c0,0.3-0.5,0.3-0.5,0v-2.4c0-0.3-0.1-0.5-0.4-0.5h-1c-0.2,0-0.4,0.2-0.4,0.5V35.8L72.5,35.8z"></path>
                    <path class="st26" d="M77.4,33.4c0-0.4,0.4-0.9,0.8-0.9h1c0.5,0,0.8,0.4,0.8,0.9v1.7c0,0.4-0.3,0.9-0.8,0.9h-1
								c-0.5,0-0.8-0.5-0.8-0.9V33.4L77.4,33.4z M77.9,33.4v1.7c0,0.3,0.1,0.5,0.4,0.5h1c0.3,0,0.4-0.1,0.4-0.5v-1.7
								c0-0.3-0.1-0.5-0.4-0.5h-1C78,33,77.9,33.2,77.9,33.4L77.9,33.4z"></path>
                    <path class="st26" d="M85.4,31.3H87c0.3,0,0.3,0.4,0,0.4h-1.4v4.1c0,0.3-0.5,0.3-0.5,0v-4.1h-1.4c-0.3,0-0.3-0.4,0-0.4H85.4
								L85.4,31.3z"></path>
                    <path class="st26" d="M88.4,34.3v-0.9c0-0.4,0.4-0.9,0.8-0.9h1.1c0.5,0,0.8,0.4,0.8,0.9v0.9c0,0.1-0.1,0.2-0.2,0.2h-2.1v0.6
								c0,0.3,0.1,0.5,0.4,0.5h1.1c0.3,0,0.4-0.2,0.4-0.5c0-0.3,0.5-0.3,0.5,0c0,0.4-0.3,0.9-0.8,0.9h-1.1c-0.6,0-0.8-0.5-0.8-0.9
								L88.4,34.3L88.4,34.3L88.4,34.3z M88.9,34.1h1.9v-0.6c0-0.3-0.1-0.5-0.4-0.5h-1.1c-0.3,0-0.4,0.2-0.4,0.5V34.1L88.9,34.1
								L88.9,34.1z"></path>
                    <path class="st26" d="M95,33.4c0,0.3-0.5,0.3-0.5,0c0-0.3-0.1-0.5-0.4-0.5h-1c-0.2,0-0.4,0.2-0.4,0.5v1.7
								c0,0.3,0.1,0.5,0.4,0.5h1.1c0.2,0,0.4-0.1,0.4-0.5c0-0.3,0.5-0.3,0.5,0c0,0.4-0.3,0.9-0.8,0.9h-1.1c-0.5,0-0.8-0.5-0.8-0.9
								v-1.7c0-0.4,0.4-0.9,0.8-0.9h1C94.6,32.5,95,33,95,33.4L95,33.4z"></path>
                    <path class="st26" d="M96.5,32.7c0.1,0,0.2-0.1,0.4-0.1h1c0.5,0,0.8,0.4,0.8,0.9v2.4c0,0.3-0.5,0.3-0.5,0v-2.4
								c0-0.3-0.1-0.5-0.4-0.5h-1c-0.2,0-0.4,0.2-0.4,0.5v2.4c0,0.3-0.5,0.3-0.5,0v-2.4v-2.2c0-0.3,0.5-0.3,0.5,0V32.7L96.5,32.7z"></path>
                    <path class="st26" d="M100.3,35.8c0,0.3-0.5,0.3-0.5,0v-2.4c0-0.4,0.4-0.9,0.8-0.9h1c0.5,0,0.8,0.4,0.8,0.9v2.4
								c0,0.3-0.5,0.3-0.5,0v-2.4c0-0.3-0.1-0.5-0.4-0.5h-1c-0.2,0-0.4,0.2-0.4,0.5V35.8L100.3,35.8z"></path>
                    <path class="st26" d="M103.6,33.4c0-0.4,0.4-0.9,0.8-0.9h1c0.5,0,0.8,0.4,0.8,0.9v1.7c0,0.4-0.3,0.9-0.8,0.9h-1
								c-0.5,0-0.8-0.5-0.8-0.9V33.4L103.6,33.4z M104.1,33.4v1.7c0,0.3,0.1,0.5,0.4,0.5h1c0.3,0,0.4-0.1,0.4-0.5v-1.7
								c0-0.3-0.1-0.5-0.4-0.5h-1C104.2,33,104.1,33.2,104.1,33.4L104.1,33.4z"></path>
                    <path class="st26" d="M107.4,31.3c0-0.3,0.5-0.3,0.5,0v3.8c0,0.3,0.1,0.5,0.4,0.5c0.3,0,0.3,0.4,0,0.4
								c-0.5,0-0.8-0.4-0.8-0.9V31.3L107.4,31.3z"></path>
                    <path class="st26" d="M109.5,33.4c0-0.4,0.4-0.9,0.8-0.9h1c0.5,0,0.8,0.4,0.8,0.9v1.7c0,0.4-0.3,0.9-0.8,0.9h-1
								c-0.5,0-0.8-0.5-0.8-0.9V33.4L109.5,33.4z M110,33.4v1.7c0,0.3,0.1,0.5,0.4,0.5h1c0.3,0,0.4-0.1,0.4-0.5v-1.7
								c0-0.3-0.1-0.5-0.4-0.5h-1C110.2,33,110,33.2,110,33.4L110,33.4z"></path>
                    <path class="st26" d="M114.2,37.4c-0.3,0-0.3-0.4,0-0.4h1c0.2,0,0.4-0.2,0.4-0.5v-0.5h-1.4c-0.5,0-0.8-0.5-0.8-0.9v-1.7
								c0-0.4,0.4-0.9,0.8-0.9h1.6c0.1,0,0.2,0.1,0.2,0.2v3v0.7c0,0.4-0.3,0.9-0.8,0.9L114.2,37.4L114.2,37.4L114.2,37.4z
								 M115.6,35.6V33h-1.4c-0.2,0-0.4,0.2-0.4,0.5v1.7c0,0.3,0.1,0.5,0.4,0.5H115.6L115.6,35.6z"></path>
                    <path class="st26" d="M119.6,32.5c0.1,0,0.2,0.1,0.2,0.2v0.1l-1.1,3c-0.2,0.8-0.6,1.5-1,1.5h-0.3c-0.3,0-0.3-0.4,0-0.4h0.3
								c0.1,0,0.4-0.4,0.6-1.2l-1.1-3c-0.1-0.2,0.3-0.4,0.4-0.1l0.9,2.5l0.9-2.5C119.4,32.6,119.5,32.5,119.6,32.5L119.6,32.5z"></path>
                    <path class="st26" d="M123.8,31.5c0-0.3,0.5-0.3,0.5,0v4.1h2.4c0.3,0,0.3,0.4,0,0.4H124c-0.1,0-0.2-0.1-0.2-0.2L123.8,31.5
								L123.8,31.5z"></path>
                    <path class="st26" d="M128.5,33v2.2c0,0.3,0.1,0.5,0.3,0.5h0.4c0.3,0,0.3,0.4,0,0.4h-0.4c-0.5,0-0.7-0.5-0.7-0.9V33h0
								c-0.3,0-0.3-0.4,0-0.4h0v-1.3c0-0.3,0.5-0.3,0.5,0v1.3h0.4c0.3,0,0.3,0.4,0,0.4H128.5L128.5,33z"></path>
                    <path class="st26" d="M133,32.8v3c0,0.1-0.1,0.2-0.2,0.2h-1.6c-0.5,0-0.8-0.5-0.8-0.9v-1.7c0-0.4,0.4-0.9,0.8-0.9h1.4v-1.3
								c0-0.3,0.5-0.3,0.5,0L133,32.8L133,32.8z M132.5,33h-1.4c-0.2,0-0.4,0.2-0.4,0.5v1.7c0,0.3,0.1,0.5,0.4,0.5h1.4V33L132.5,33z
								"></path>
                </g>
            </g>
        </g>
    </g>
</svg>