<?xml version="1.0" encoding="UTF-8"?>
<svg width="200px" height="52px" viewBox="0 0 200 52" version="1.1" xmlns="http://www.w3.org/2000/svg" xmlns:xlink="http://www.w3.org/1999/xlink">
    <!-- Generator: Sketch 43.1 (39012) - http://www.bohemiancoding.com/sketch -->
    <title>logo</title>
    <desc>Created with Sketch.</desc>
    <g id="_Project" stroke="none" stroke-width="1" fill="none" fill-rule="evenodd">
        <g id="Project_G" transform="translate(-960.000000, -1119.000000)">
            <g id="Project-3" transform="translate(240.000000, 1065.000000)">
                <g id="點亮台灣" transform="translate(680.000000, 0.000000)">
                    <g id="logo" transform="translate(40.000000, 54.000000)">
                        <g id="logo-copy">
                            <path d="M25.9722144,51.2070083 C22.6179118,51.2070083 19.3568552,50.5656405 16.279736,49.2995472 L17.2492393,46.9312231 C20.0172415,48.0692988 22.9525757,48.6466579 25.9722144,48.6466579 C38.6498433,48.6466579 48.9643877,38.3092431 48.9643877,25.6035041 C48.9643877,12.8977652 38.6498433,2.56035041 25.9722144,2.56035041 C13.2945855,2.56035041 2.98004113,12.8977652 2.98004113,25.6035041 L0.425355206,25.6035041 C0.425355206,11.485732 11.8856763,0 25.9722144,0 C40.0587526,0 51.5190736,11.485732 51.5190736,25.6035041 C51.5190736,39.7212763 40.0587526,51.2070083 25.9722144,51.2070083" id="Fill-1" fill="#56B879"></path>
                            <path d="M12.4936915,44.2735794 C6.53616393,39.9465872 2.98004113,32.9670719 2.98004113,25.6035041 C2.98004113,24.8955672 2.40779148,24.3233289 1.70269817,24.3233289 C0.997604852,24.3233289 0.425355206,24.8955672 0.425355206,25.6035041 C0.425355206,33.7851039 4.37617698,41.5391251 10.9940909,46.346183 L12.4936915,44.2735794" id="Fill-2" fill="#9ED16B"></path>
                            <path d="M16.763849,49.3955604 C16.6029038,49.3955604 16.4381266,49.3661163 16.279736,49.2995472 C14.4122606,48.5314421 12.6341992,47.5380261 10.9940909,46.346183 C10.4231186,45.9314062 10.2953843,45.1312967 10.7092434,44.5590584 C11.1256572,43.9855399 11.9239965,43.8588026 12.4936915,44.2735794 C13.9690226,45.3463662 15.5695333,46.2399285 17.2492393,46.9312231 C17.9019616,47.1987797 18.2136333,47.946402 17.9466686,48.6018517 C17.7435711,49.0972795 17.2671221,49.3955604 16.763849,49.3955604" id="Fill-3" fill="#F0ED1F"></path>
                        </g>
                        <g id="點亮台灣-copy" transform="translate(71.432077, 6.400876)" fill="#323232">
                            <path d="M0.248002039,14.6933993 L0.3761861,15.6856103 L10.726712,14.3436855 L10.5985279,13.3528299 L6.3225774,13.9058655 L6.3225774,12.0597023 L10.4851862,12.0597023 L10.4851862,11.0607138 L6.3225774,11.0607138 L6.3225774,9.06273681 L10.2976327,9.06273681 L10.2976327,2.00610985 L1.3530836,2.00610985 L1.3530836,9.06273681 L5.32813891,9.06273681 L5.32813891,11.0607138 L1.16553007,11.0607138 L1.16553007,12.0597023 L5.32813891,12.0597023 L5.32813891,14.0346361 L0.248002039,14.6933993 L0.248002039,14.6933993 L0.248002039,14.6933993 Z M6.3225774,3.00509834 L9.30454353,3.00509834 L9.30454353,8.06239284 L6.3225774,8.06239284 L6.3225774,3.00509834 L6.3225774,3.00509834 Z M2.34617278,3.00509834 L5.32813891,3.00509834 L5.32813891,8.06239284 L2.34617278,8.06239284 L2.34617278,3.00509834 L2.34617278,3.00509834 Z" id="Fill-17"></path>
                            <polyline id="Fill-18" points="3.79802598 4.12065808 2.87105279 4.47986017 3.82366279 6.94954407 4.75063598 6.58898649 3.79802598 4.12065808"></polyline>
                            <polyline id="Fill-19" points="7.82570422 6.94954407 8.77966352 4.47986017 7.85269033 4.12065808 6.90008033 6.58898649 7.82570422 6.94954407"></polyline>
                            <path d="M0.0172707172,21.1115953 L0.874079991,21.6158336 C2.13568105,19.4511326 2.35157,17.103442 2.35426862,17.0803988 L1.36387806,17.001781 C1.36117944,17.0221132 1.1479891,19.1705484 0.0172707172,21.1115953" id="Fill-20"></path>
                            <path d="M3.89247739,17.2430564 C4.17178372,18.1959586 4.38092615,19.59888 4.46863103,21.091263 L5.4603709,21.031622 C5.36861809,19.4673984 5.14463331,17.9845038 4.84778599,16.9611166 L3.89247739,17.2430564" id="Fill-21"></path>
                            <path d="M6.49663786,16.9489173 C6.8218206,17.9248627 7.10787345,19.3725149 7.24550266,20.7279945 L8.23454391,20.6263335 C8.08746957,19.1813923 7.79062226,17.6890092 7.43980272,16.6330905 L6.49663786,16.9489173" id="Fill-22"></path>
                            <path d="M9.17905808,16.5260077 C9.46646024,17.3542057 9.83751938,18.5077189 10.1411132,20.0854972 L11.1166614,19.8943745 C10.8009238,18.2555997 10.4177209,17.0573557 10.118175,16.1952706 L9.17905808,16.5260077" id="Fill-23"></path>
                            <path d="M19.1868603,6.4087077 L19.1868603,5.40971921 L15.4600772,5.40971921 L15.4600772,1.94375779 L14.4656388,1.94375779 L14.4656388,12.0285262 L12.20825,12.0285262 L12.20825,19.6165012 L18.7213497,19.6165012 L18.7213497,12.0285262 L15.4600772,12.0285262 L15.4600772,6.4087077 L19.1868603,6.4087077 L19.1868603,6.4087077 L19.1868603,6.4087077 Z M13.2026884,13.0288703 L17.7282606,13.0288703 L17.7282606,18.6175128 L13.2026884,18.6175128 L13.2026884,13.0288703 L13.2026884,13.0288703 Z" id="Fill-24"></path>
                            <polyline id="Fill-25" points="43.2800672 3.09998191 35.8548366 3.09998191 35.8548366 0.799732982 34.8590489 0.799732982 34.8590489 3.09998191 27.4338182 3.09998191 27.4338182 4.10032589 43.2800672 4.10032589 43.2800672 3.09998191"></polyline>
                            <path d="M31.1309165,9.76080883 L39.6841668,9.76080883 L39.6841668,5.53442333 L31.1309165,5.53442333 L31.1309165,9.76080883 L31.1309165,9.76080883 Z M32.1240057,6.53476731 L38.6910778,6.53476731 L38.6910778,8.76182033 L32.1240057,8.76182033 L32.1240057,6.53476731 L32.1240057,6.53476731 Z" id="Fill-26"></path>
                            <polyline id="Fill-27" points="27.7697954 12.37824 43.1653763 12.37824 43.1653763 14.4155258 44.1598147 14.4155258 44.1598147 11.380607 26.7753569 11.380607 26.7753569 14.4155258 27.7697954 14.4155258 27.7697954 12.37824"></polyline>
                            <path d="M26.1344366,20.4623205 L26.3543735,21.4369103 C32.6421392,19.9987465 33.4152915,15.5581952 33.4544214,13.7160984 L32.4613322,13.6944107 C32.4181544,15.6923877 31.5384069,19.2274786 26.1344366,20.4623205" id="Fill-28"></path>
                            <path d="M44.0032952,17.9153743 L43.5229422,19.2220567 C43.4554769,19.40098 43.2827659,19.5216177 43.0911644,19.5216177 L38.6398041,19.5216177 C38.3402582,19.5216177 38.0973831,19.2749204 38.0973831,18.9726483 L38.0973831,13.6442579 L37.1029446,13.6442579 L37.1029446,18.9726483 C37.1029446,19.8266006 37.7924399,20.5206061 38.6398041,20.5206061 L43.0911644,20.5206061 C43.6929548,20.5206061 44.2394237,20.1410718 44.452614,19.5704149 L44.9356657,18.2610216 L44.0032952,17.9153743" id="Fill-29"></path>
                            <path d="M68.4837529,10.5090336 C66.9603866,8.14778807 65.1523165,5.79060899 64.2847129,4.87837119 L63.5655328,5.56831032 C63.9406399,5.96411038 64.5086977,6.65404951 65.1482686,7.4930914 L55.3158762,8.74148814 L59.1047274,1.5438913 L58.2249799,1.07625083 L54.110946,8.89330186 L51.3543141,9.24437108 L51.4784501,10.2352267 L65.8350654,8.41346207 C66.4328079,9.23488273 67.0615844,10.1403431 67.6498819,11.0525809 L68.4837529,10.5090336" id="Fill-30"></path>
                            <path d="M54.1500758,21.5724584 L55.1445144,21.5724584 L55.1445144,20.2196897 L64.5680672,20.2196897 L64.5680672,21.5724584 L65.5611562,21.5724584 L65.5611562,13.4138264 L54.1500758,13.4138264 L54.1500758,21.5724584 L54.1500758,21.5724584 L54.1500758,21.5724584 Z M55.1445144,14.4128149 L64.5667178,14.4128149 L64.5667178,19.2207011 L55.1445144,19.2207011 L55.1445144,14.4128149 L55.1445144,14.4128149 Z" id="Fill-31"></path>
                            <polyline id="Fill-32" points="75.492048 2.22027563 78.0462842 4.82957393 78.7452246 4.13827932 76.1896392 1.52898102 75.492048 2.22027563"></polyline>
                            <polyline id="Fill-33" points="78.0300926 9.3365437 75.474507 6.72724541 74.7755665 7.41854002 77.3311521 10.0291938 78.0300926 9.3365437"></polyline>
                            <path d="M77.1355027,13.5995272 C76.7442039,15.1217308 76.0884412,17.671388 74.6473825,21.4003124 L75.5622119,21.758159 C77.0235103,17.9750154 77.714355,15.2884548 78.085414,13.8462245 C78.1677217,13.5263312 78.2365363,13.2593018 78.2959058,13.0464915 L77.3513916,12.779462 C77.2893236,12.9976941 77.220509,13.2715011 77.1355027,13.5995272" id="Fill-34"></path>
                            <path d="M78.9354768,12.4189044 L79.6546569,12.5774955 C79.9609493,11.182707 80.1687424,9.77165265 80.1700918,9.75674238 L79.4428159,9.6496595 C79.4401172,9.66321429 79.2363721,11.0485145 78.9354768,12.4189044" id="Fill-35"></path>
                            <path d="M81.1321469,9.81638349 L81.1577837,10.0224164 C81.2117559,10.4371932 81.3237483,11.2979227 81.3601796,12.3307982 L82.0955513,12.3036886 C82.0577708,11.2369261 81.9417304,10.3517979 81.8877582,9.92753282 L81.8634707,9.73369922 L81.1321469,9.81638349" id="Fill-36"></path>
                            <path d="M82.8295737,9.68354648 C82.963155,10.015639 83.377392,11.4592248 83.4623983,12.2060941 L84.1950714,12.1220543 C84.0992706,11.2870789 83.6647942,9.78385198 83.5109732,9.40431768 L82.8295737,9.68354648" id="Fill-37"></path>
                            <path d="M89.6408702,9.65643689 C89.3656117,11.2613248 89.1618666,11.9553303 89.0390797,12.2535359 L89.7177806,12.5354756 C89.9201765,12.044792 90.1320175,11.1433981 90.3654474,9.78249649 L90.3843378,9.67812456 L89.6624591,9.53308824 L89.6408702,9.65643689" id="Fill-38"></path>
                            <path d="M91.5568846,12.2535359 L92.2922563,12.2277818 C92.2706674,11.6300152 92.1654217,10.7340432 91.9805666,9.5629088 L91.2546401,9.67812456 C91.4340977,10.8207939 91.5352957,11.6869454 91.5568846,12.2535359" id="Fill-39"></path>
                            <path d="M93.6995825,9.3500985 L93.000642,9.58324099 C93.1652573,10.0779911 93.4405157,10.9034781 93.7279179,12.1545859 L94.4443994,11.9878618 C94.1489014,10.7015117 93.8668964,9.85569239 93.6995825,9.3500985" id="Fill-40"></path>
                            <path d="M79.5237742,8.96514227 L83.1628523,8.15049902 L83.4934322,8.95972036 L84.1734825,8.68049155 L83.2559545,6.41955154 L82.5732056,6.70013582 L82.8808474,7.45649346 L80.5924245,7.96750928 C82.3627139,5.85025008 83.6566982,3.63946281 83.7174171,3.53644636 L83.0818939,3.16233397 C83.0751475,3.1745333 82.7944917,3.6530176 82.327632,4.36599989 L80.3508988,4.76993282 C81.2104066,3.07151685 81.9930041,1.34870223 82.0024492,1.32972551 L81.3318441,1.02338712 C81.3223991,1.04371932 80.3751863,3.13115794 79.4239256,4.96512189 L79.4347201,4.9705438 L79.5790957,5.68352609 L81.7366359,5.24163973 C81.0997636,6.15658848 80.2834335,7.24503862 79.386145,8.23182779 L79.3915422,8.23589423 L79.3632067,8.24267163 L79.5237742,8.96514227" id="Fill-41"></path>
                            <path d="M89.7042876,8.96514227 L93.3433656,8.15049902 L93.6739457,8.95972036 L94.3553452,8.68049155 L93.4351184,6.41955154 L92.7537189,6.70013582 L93.0613607,7.45649346 L90.7729378,7.96750928 C92.5432273,5.85025008 93.8372117,3.63946281 93.8979304,3.53644636 L93.2637566,3.16233397 C93.2570101,3.1745333 92.9750052,3.6530176 92.5081453,4.36599989 L90.5314121,4.76993282 C91.3895707,3.07151685 92.1735175,1.34870223 92.1829625,1.32972551 L91.5123575,1.02338712 C91.5029124,1.04371932 90.5556996,3.13115794 89.6044389,4.96512189 L89.613884,4.9705438 L89.759609,5.68352609 L91.9171494,5.24163973 C91.2802769,6.15658848 90.4639468,7.24503862 89.5666583,8.23182779 L89.5720556,8.23724972 L89.5450694,8.24267163 L89.7042876,8.96514227" id="Fill-42"></path>
                            <polyline id="Fill-43" points="89.3332284 2.84108531 87.1109215 2.84108531 87.1109215 0.959679579 86.3742004 0.959679579 86.3742004 2.84108531 84.1815783 2.84108531 84.1815783 3.58117718 89.3332284 3.58117718 89.3332284 2.84108531"></polyline>
                            <polygon id="Fill-44" points="84.9331417 4.62760746 88.5668226 4.62760746 88.5668226 5.36769934 84.9331417 5.36769934"></polygon>
                            <polygon id="Fill-45" points="84.9331417 6.36939878 88.5668226 6.36939878 88.5668226 7.10949066 84.9331417 7.10949066"></polygon>
                            <path d="M85.0559286,11.9485529 L88.4588782,11.9485529 L88.4588782,8.58967443 L85.0559286,8.58967443 L85.0559286,11.9485529 L85.0559286,11.9485529 Z M85.7913003,9.32841082 L87.7235065,9.32841082 L87.7235065,11.2084611 L85.7913003,11.2084611 L85.7913003,9.32841082 L85.7913003,9.32841082 Z" id="Fill-46"></path>
                            <path d="M92.8333281,17.7540722 L81.6111505,17.7540722 L81.9160936,16.4609446 L82.0253875,16.3741939 L92.4649675,16.3741939 L92.4649675,13.2077936 L80.4251106,13.2077936 L80.4251106,14.0468354 L91.6297472,14.0468354 L91.6297472,15.5351521 L81.3655768,15.5351521 L81.2549338,15.6232582 L80.585678,18.4711209 L80.6814787,18.5917586 L92.3003522,18.5917586 L91.7646778,20.8445657 L91.6769729,20.9136952 L87.708664,20.9136952 L87.708664,21.7513817 L91.6769729,21.7513817 C92.1047028,21.7513817 92.4771112,21.4572426 92.5756106,21.0383993 L93.2111337,18.3681044 C93.2475649,18.2190018 93.2691539,18.0455003 93.1760517,17.9248627 C93.1760517,17.9248627 93.097792,17.7540722 92.8333281,17.7540722" id="Fill-47"></path>
                        </g>
                        <g id="light-up-copy" transform="translate(71.531206, 35.844906)" fill="#323232">
                            <polyline id="Fill-48" points="0.296343567 7.8794784 0.296343567 0.503108856 1.73207705 0.503108856 1.73207705 6.59418249 5.06977421 6.59418249 5.06977421 7.8794784 0.296343567 7.8794784"></polyline>
                            <polygon id="Fill-49" points="9.33354501 0.503108856 10.7705558 0.503108856 10.7705558 7.87819822 9.33354501 7.87819822"></polygon>
                            <path d="M20.1168743,7.10241205 C19.5292965,7.71305562 18.8267579,7.94092681 18.041192,7.94092681 C17.2351886,7.94092681 16.5748023,7.65032704 16.0574784,7.13313625 C15.3140648,6.38807428 15.3345022,5.46506796 15.3345022,4.19129363 C15.3345022,2.9175193 15.3140648,1.99579315 16.0574784,1.249451 C16.5748023,0.730980043 17.2147511,0.441660446 18.041192,0.441660446 C19.7451675,0.441660446 20.6137607,1.56053358 20.8104715,2.8035837 L19.3632419,2.8035837 C19.1971874,2.10972874 18.7743868,1.72567618 18.041192,1.72567618 C17.6490477,1.72567618 17.3284346,1.88185755 17.1227824,2.11997014 C16.8430443,2.43105272 16.7702357,2.77157932 16.7702357,4.19129363 C16.7702357,5.60972776 16.8430443,5.96305611 17.1227824,6.27413869 C17.3284346,6.51225128 17.6490477,6.65691108 18.041192,6.65691108 C18.4754886,6.65691108 18.8267579,6.50200988 19.0643437,6.24213431 C19.3019295,5.97329752 19.3938982,5.64173214 19.3938982,5.25767957 L19.3938982,4.97860138 L18.041192,4.97860138 L18.041192,3.77651686 L20.8206903,3.77651686 L20.8206903,4.85442438 C20.8206903,5.92081033 20.6341982,6.56345829 20.1168743,7.10241205" id="Fill-50"></path>
                            <polyline id="Fill-51" points="29.2996928 7.8794784 29.2996928 4.7916958 26.8088741 4.7916958 26.8088741 7.8794784 25.3731406 7.8794784 25.3731406 0.503108856 26.8088741 0.503108856 26.8088741 3.51792147 29.2996928 3.51792147 29.2996928 0.503108856 30.7354263 0.503108856 30.7354263 7.8794784 29.2996928 7.8794784"></polyline>
                            <polyline id="Fill-52" points="38.3573318 1.78840476 38.3573318 7.8794784 36.9203209 7.8794784 36.9203209 1.78840476 34.9991971 1.78840476 34.9991971 0.503108856 40.2784556 0.503108856 40.2784556 1.78840476 38.3573318 1.78840476"></polyline>
                            <path d="M52.630362,7.94092681 C51.12182,7.94092681 49.9236723,6.91550647 49.9236723,5.35113236 L49.9236723,0.503108856 L51.3594058,0.503108856 L51.3594058,5.29992536 C51.3594058,6.14868152 51.8550148,6.65691108 52.630362,6.65691108 C53.4044319,6.65691108 53.9102597,6.14868152 53.9102597,5.29992536 L53.9102597,0.503108856 L55.3357744,0.503108856 L55.3357744,5.35113236 C55.3357744,6.91550647 54.1376267,7.94092681 52.630362,7.94092681" id="Fill-53"></path>
                            <path d="M62.8861486,5.10277837 L61.4708526,5.10277837 L61.4708526,7.8794784 L60.0351192,7.8794784 L60.0351192,0.503108856 L62.8861486,0.503108856 C64.4049094,0.503108856 65.3143776,1.55029218 65.3143776,2.8035837 C65.3143776,4.05687523 64.4049094,5.10277837 62.8861486,5.10277837 M62.8146174,1.78840476 L61.4708526,1.78840476 L61.4708526,3.80724107 L62.8146174,3.80724107 C63.464785,3.80724107 63.8786441,3.40398588 63.8786441,2.8035837 C63.8786441,2.20190136 63.464785,1.78840476 62.8146174,1.78840476" id="Fill-54"></path>
                            <polyline id="Fill-55" points="77.92303 1.78840476 77.92303 7.8794784 76.4872965 7.8794784 76.4872965 1.78840476 74.5661727 1.78840476 74.5661727 0.503108856 79.8441538 0.503108856 79.8441538 1.78840476 77.92303 1.78840476"></polyline>
                            <path d="M87.6729888,7.8794784 L87.2386922,6.57369969 L84.6252485,6.57369969 L84.1807331,7.8794784 L82.6836872,7.8794784 L85.3597207,0.503108856 L86.4850599,0.503108856 L89.1700348,7.8794784 L87.6729888,7.8794784 L87.6729888,7.8794784 L87.6729888,7.8794784 Z M85.9587946,2.67940671 L85.0288889,5.36137377 L86.8567667,5.36137377 L85.9587946,2.67940671 L85.9587946,2.67940671 L85.9587946,2.67940671 Z" id="Fill-56"></path>
                            <polygon id="Fill-57" points="93.1770596 0.503108856 94.6127931 0.503108856 94.6127931 7.87819822 93.1770596 7.87819822"></polygon>
                            <polyline id="Fill-58" points="105.696298 7.8794784 104.49815 7.8794784 103.144167 3.40398588 101.791461 7.8794784 100.593313 7.8794784 98.6300367 0.503108856 100.12836 0.503108856 101.265195 5.15398538 102.607683 0.503108856 103.681928 0.503108856 105.024416 5.15398538 106.17147 0.503108856 107.668516 0.503108856 105.696298 7.8794784"></polyline>
                            <path d="M115.701725,7.8794784 L115.268706,6.57369969 L112.655262,6.57369969 L112.210747,7.8794784 L110.712424,7.8794784 L113.388457,0.503108856 L114.513796,0.503108856 L117.200049,7.8794784 L115.701725,7.8794784 L115.701725,7.8794784 L115.701725,7.8794784 Z M113.987531,2.67940671 L113.057625,5.36137377 L114.885503,5.36137377 L113.987531,2.67940671 L113.987531,2.67940671 L113.987531,2.67940671 Z" id="Fill-59"></path>
                            <polyline id="Fill-60" points="125.555149 7.8794784 122.64153 3.35277887 122.64153 7.8794784 121.205796 7.8794784 121.205796 0.503108856 122.486971 0.503108856 125.399313 5.01956699 125.399313 0.503108856 126.836324 0.503108856 126.836324 7.8794784 125.555149 7.8794784"></polyline>
                        </g>
                        <g id="number-copy" transform="translate(176.273329, 6.400876)">
                            <g id="Group-3">
                                <g id="Fill-1-Clipped">
                                    <mask id="mask-2" fill="white">
                                        <polyline points="0 0.0645208304 22.9277952 0.0645208304 22.9277952 23.0431537 0 23.0431537"></polyline>
                                    </mask>
                                    <g id="path-1"></g>
                                    <path d="M22.9278609,11.5537714 C22.9278609,17.8991976 17.7953508,23.0430879 11.4639633,23.0430879 C5.13257569,23.0430879 6.56919236e-05,17.8991976 6.56919236e-05,11.5537714 C6.56919236e-05,5.20834528 5.13257569,0.0644549928 11.4639633,0.0644549928 C17.7953508,0.0644549928 22.9278609,5.20834528 22.9278609,11.5537714" id="Fill-1" fill="#57B76F" mask="url(#mask-2)"></path>
                                </g>
                            </g>
                            <path d="M7.02194111,18.303967 L7.02194111,16.5658549 L12.2431352,10.2066028 C12.757503,9.57653717 12.9670602,9.08012181 12.9670602,8.39211907 C12.9670602,7.17017355 12.2431352,6.33008601 10.9851349,6.33008601 C9.95639934,6.33008601 8.98415887,6.90287297 8.98415887,8.43030488 L7.04099176,8.43030488 C7.04099176,6.12006411 8.67934834,4.59197383 10.9851349,4.59197383 C13.309972,4.59197383 14.9108842,6.06278542 14.9108842,8.41187035 C14.9108842,9.61472298 14.4720621,10.3211602 13.6338333,11.3521768 L9.3848796,16.5658549 L14.9108842,16.5658549 L14.9108842,18.303967 L7.02194111,18.303967 L7.02194111,18.303967 Z" id="Fill-4" fill="#FEFEFE"></path>
                        </g>
                    </g>
                </g>
            </g>
        </g>
    </g>
</svg>