<?xml version="1.0" encoding="utf-8"?>
<!-- Generator: Adobe Illustrator 20.0.0, SVG Export Plug-In . SVG Version: 6.00 Build 0)  -->
<svg version="1.1" id="Judicial" xmlns="http://www.w3.org/2000/svg" xmlns:xlink="http://www.w3.org/1999/xlink" x="0px" y="0px" viewBox="0 0 240 100" style="enable-background:new 0 0 240 100;" xml:space="preserve">
    <style type="text/css">
	.st0{fill:url(#SVGID_1_);}
	.st1{fill:#AD1C3D;}
</style>
    <title>Judicial</title>
    <g id="Judicial" transform="translate(-34.000000, -36.000000)">
        <g id="Judicial" transform="translate(34.222222, 35.555556)">
            <g transform="translate(24.285714, 4.285714)">
                <path id="Shape" d="M36.2,44.8c0,0.1-0.1,0.1-0.1,0.2c-0.3,0.7-0.8,1.3-1.4,1.9l-0.9-0.6l0.3-0.3c0.5-0.5,0.9-1.1,1.1-1.7
							L36.2,44.8L36.2,44.8z M38.6,44.2h-4.2v-7.3h4.2V44.2L38.6,44.2z M37.6,37.8h-2.2v1.1h2.2V37.8L37.6,37.8z M35.4,41h2.2v-1.2
							h-2.2V41L35.4,41z M35.4,43.2h2.2v-1.3h-2.2V43.2L35.4,43.2z M38,47c-0.3-0.7-0.7-1.5-1.2-2.1l0.9-0.5
							c0.5,0.7,0.9,1.4,1.3,2.1L38,47L38,47z M42.3,41.3c-0.7,1.2-1.7,2.4-2.9,3.5l-0.7-1c0.8-0.7,1.5-1.3,2-1.9
							c0.5-0.6,1-1.4,1.5-2.3H39v-1h3.2v-2.1h1.1v2.1h1v1h-1v5.9v0.1c0,0.4-0.1,0.7-0.3,0.9s-0.5,0.3-1,0.3h-1.4l-0.3-1l1.5,0.1
							c0.3,0,0.4-0.1,0.4-0.3L42.3,41.3L42.3,41.3z"></path>
                <path id="Shape_1_" d="M45.5,36.8h9.9V47h-1v-0.5h-8V47h-1V36.8L45.5,36.8z M53.2,41.9l0.3,0.4l0.5,0.5l-0.7,0.5l-0.3-0.4
							h-0.2v0.5h1.4v0.7h-1.4v0.3v0.1c0,0.3-0.1,0.5-0.2,0.6c-0.1,0.1-0.4,0.2-0.8,0.2h-1.2l-0.2-0.7l1.2,0.1c0.3,0,0.4-0.1,0.4-0.3
							v-0.2h-4.9v-0.7h4.9v-0.5L49.7,43L47.2,43L47,42.2l1.5,0l1.5,0v-0.4h-2.7v-2.7h2.7v-0.4h-3V38h3v-0.4h-3.4v8.1h8v-8.1h-3.6V38
							h3.3v0.7h-3.3v0.4h2.9v2.7H53.2L53.2,41.9z M48.9,45.4l-0.4-0.5c-0.1-0.1-0.2-0.3-0.3-0.4l-0.1-0.1l0.7-0.3l0.4,0.3
							c0.1,0.1,0.2,0.2,0.3,0.4c0,0,0,0.1,0.1,0.1L48.9,45.4L48.9,45.4z M48.1,40.3h1.8v-0.5h-1.8V40.3L48.1,40.3z M48.1,41.2h1.8
							v-0.5h-1.8V41.2L48.1,41.2z M50.8,40.3h2v-0.5h-2V40.3L50.8,40.3z M50.8,41.2h2v-0.5h-2V41.2L50.8,41.2z M50.8,41.9v0.4h0.9
							l0.7,0l-0.3-0.4H50.8L50.8,41.9z"></path>
                <path id="Shape_2_" d="M58.6,41.9l-1-0.7c-0.1-0.1-0.3-0.2-0.6-0.4c-0.1-0.1-0.2-0.1-0.3-0.2l0.7-0.9l1,0.5
							c0.3,0.1,0.6,0.4,1,0.7L58.6,41.9L58.6,41.9z M59.7,43.2c-0.1,0.3-0.2,0.5-0.3,0.7c-0.6,1.3-1.2,2.3-1.7,3L56.8,46
							c0.6-0.7,1.2-1.7,1.7-2.9c0.1-0.2,0.2-0.4,0.3-0.6L59.7,43.2L59.7,43.2z M59.2,38.8l-1-0.7c-0.3-0.2-0.6-0.4-1-0.6l0.7-0.9
							l1,0.5c0.2,0.1,0.4,0.3,0.8,0.5c0.1,0,0.1,0.1,0.2,0.1L59.2,38.8L59.2,38.8z M59.7,42v-1h3v-2h-2.4v-1h2.4v-1.5h1.1V38h3v1h-3
							v2h3.4v1h-3.5c-0.5,1.2-1,2.3-1.5,3.2c0.2,0,0.4,0,0.5-0.1c1.1-0.1,1.9-0.2,2.6-0.3L64.7,44L64.2,43l0.9-0.4
							c0.6,0.8,1.3,1.9,1.9,3.4c0.1,0.1,0.1,0.2,0.2,0.4l-1.1,0.5l-0.2-0.5c-0.1-0.2-0.2-0.4-0.3-0.6c-1.6,0.3-3.5,0.5-5.9,0.7
							l-0.3-1.2h0.7l0.5,0c0.7-1.1,1.3-2.1,1.7-3.2L59.7,42L59.7,42z"></path>
                <path id="Shape_3_" d="M73.9,36.5v1.3c0,0.5,0.2,1.4,0.6,2.6c0.4,1.1,0.8,2.1,1.4,2.9c0.5,0.6,1,1.3,1.7,1.8
							c0.7,0.6,1,0.9,1.1,0.9l-0.8,1c-0.1,0-0.6-0.4-1.4-1.2c-0.8-0.8-1.4-1.6-1.9-2.4c-0.4-0.8-0.8-1.7-1.1-2.7
							c-0.3,1.3-0.7,2.3-1.1,3c-0.4,0.7-1.1,1.5-1.9,2.2c-0.9,0.7-1.3,1.1-1.5,1.1l-0.8-1c0.1,0,0.5-0.3,1.1-0.7
							c0.6-0.5,1.2-1.1,1.6-1.7c0.6-0.8,1-1.6,1.3-2.7c0.3-1,0.5-2,0.5-3v-1.4H73.9L73.9,36.5z"></path>
                <path id="Shape_4_" d="M85.6,40.3l0.1,0.7c0,0.3,0.1,0.5,0.1,0.7H90v1h-3.9l0.2,0.5c0.3,0.7,0.7,1.3,1.1,1.8
							c0.4,0.5,0.7,0.7,1,0.7c0.2,0,0.3-0.1,0.4-0.4c0.1-0.3,0.2-0.7,0.3-1.4l1,0.6c-0.1,0.8-0.3,1.4-0.5,1.8
							c-0.2,0.4-0.5,0.6-0.9,0.6c-0.6,0-1.2-0.3-1.8-0.9c-0.6-0.6-1.1-1.5-1.5-2.5L85,42.7h-3.3v2.8l1.6-0.4
							c0.7-0.2,1.3-0.3,1.7-0.5v1.1c-1.4,0.5-3.1,1-5,1.4l-0.4-1.1l0.6-0.1l0.4-0.1V37h8.8v3.4L85.6,40.3L85.6,40.3z M88.3,38h-6.6
							v1.4h6.6V38L88.3,38z M81.7,40.3v1.3h3.1c-0.1-0.3-0.1-0.5-0.1-0.7l-0.1-0.7L81.7,40.3L81.7,40.3z"></path>
                <path id="Shape_5_" d="M95.7,41.1h-3.3V47h-1.1V36.8h4.4V41.1L95.7,41.1z M94.6,37.7h-2.3v0.8h2.3V37.7L94.6,37.7z M92.4,40.2
							h2.3v-0.9h-2.3V40.2L92.4,40.2z M93.8,41.7h4.7v4.4h-4.7V41.7L93.8,41.7z M97.5,42.6h-2.7v0.8h2.7V42.6L97.5,42.6z M97.5,44.2
							h-2.7v0.9h2.7V44.2L97.5,44.2z M99.6,45.8c0.3,0,0.4-0.1,0.4-0.4v-4.4h-3.4v-4.2h4.5v8.7v0.1c0,0.4-0.1,0.7-0.2,0.9
							c-0.1,0.2-0.4,0.3-0.9,0.3h-1.1l-0.3-1.1L99.6,45.8L99.6,45.8z M97.6,38.5h2.4v-0.8h-2.4V38.5L97.6,38.5z M100,39.3h-2.4v0.9
							h2.4V39.3L100,39.3z"></path>
                <path id="Shape_6_" d="M112.5,37v8.6v0.1c0,0.4-0.1,0.7-0.3,0.9c-0.2,0.2-0.5,0.3-1.1,0.3h-1.8l-0.3-1.1l1.8,0.1
							c0.2,0,0.3,0,0.3-0.1c0.1-0.1,0.1-0.2,0.1-0.3V38h-8.7V37H112.5L112.5,37z M110.4,40.1H103v-1h7.4V40.1L110.4,40.1z
							 M103.4,41.2h6.2v3.7h-6.2V41.2L103.4,41.2z M108.5,42.1h-4v1.7h4V42.1L108.5,42.1z"></path>
                <path id="Shape_7_" d="M115.8,41.9l-1-0.7c-0.1-0.1-0.3-0.2-0.6-0.4c-0.1-0.1-0.2-0.1-0.3-0.2l0.7-0.9l1,0.5
							c0.3,0.1,0.6,0.4,1,0.7L115.8,41.9L115.8,41.9z M116.8,43.2c-0.1,0.3-0.2,0.5-0.3,0.7c-0.6,1.3-1.2,2.3-1.7,3l-0.9-0.9
							c0.6-0.7,1.2-1.7,1.7-2.9c0.1-0.2,0.2-0.4,0.3-0.6L116.8,43.2L116.8,43.2z M116.3,38.8l-1-0.7c-0.3-0.2-0.6-0.4-1-0.6l0.7-0.9
							l1,0.5c0.2,0.1,0.4,0.3,0.8,0.5c0.1,0,0.1,0.1,0.2,0.1L116.3,38.8L116.3,38.8z M116.8,42v-1h3v-2h-2.4v-1h2.4v-1.5h1.1V38h3v1
							h-3v2h3.4v1h-3.5c-0.5,1.2-1,2.3-1.5,3.2c0.2,0,0.4,0,0.5-0.1c1.1-0.1,1.9-0.2,2.6-0.3l-0.5-0.8l-0.6-0.9l0.9-0.4
							c0.6,0.8,1.3,1.9,1.9,3.4c0.1,0.1,0.1,0.2,0.2,0.4l-1.1,0.5l-0.2-0.5c-0.1-0.2-0.2-0.4-0.3-0.6c-1.6,0.3-3.5,0.5-5.9,0.7
							l-0.3-1.2h0.7l0.5,0c0.7-1.1,1.3-2.1,1.7-3.2L116.8,42L116.8,42z"></path>
                <path id="Shape_8_" d="M131.2,36.5l1.1,0.1l-0.2,0.9l-0.2,0.7h3.8v1.1h-0.9c-0.1,1.9-0.6,3.5-1.4,4.9c0.3,0.4,0.6,0.7,0.9,1
							c0.3,0.2,0.7,0.5,1.4,0.9l-0.7,1c-0.8-0.5-1.6-1.1-2.3-2c-0.7,0.7-1.4,1.3-2.3,1.7L130,47l-0.7-1c1.2-0.6,2.1-1.2,2.8-1.8
							c-0.5-0.8-1-1.9-1.4-3.2l-0.2,0.3l-0.3,0.4l-0.7-1v0.8H127V45l1.1-0.5c0.5-0.2,1-0.5,1.7-1v1.2c-1.2,0.7-2.4,1.3-3.6,1.8
							c-0.2,0.1-0.4,0.2-0.7,0.3l-0.3-1.1l0.4-0.1l0.3-0.1v-4.8h2.5V38h-3v-1h4v3.7C130.2,39.8,130.8,38.3,131.2,36.5L131.2,36.5z
							 M131.5,39.2l-0.1,0.1l-0.1,0.1c0.3,1.7,0.7,3,1.3,3.8c0.3-0.4,0.5-0.9,0.7-1.5c0.2-0.5,0.3-1.4,0.5-2.6H131.5L131.5,39.2z"></path>
                <path id="Shape_9_" d="M142.5,45.3V47h-1.1v-1.7h-4.7v-1h4.7v-0.8h-3.6v-3h3.6v-0.7h-2.3v-1.6h-2.2v-0.9h2.2v-0.8h1.1v0.8h3.5
							v-0.8h1.1v0.8h2.2v0.9h-2.2v1.6h-2.3v0.7h3.6v3h-3.6v0.8h4.7v1L142.5,45.3L142.5,45.3z M141.4,41.5h-2.5v1.2h2.5V41.5
							L141.4,41.5z M143.7,38.2h-3.5V39h3.5V38.2L143.7,38.2z M145,41.5h-2.5v1.2h2.5V41.5L145,41.5z"></path>
                <path id="Shape_10_" d="M150.3,44.1C150.3,44.2,150.3,44.2,150.3,44.1c-0.7,0.5-1.2,0.7-1.6,0.9l-0.6-1c1.1-0.3,2-0.8,2.7-1.5
							h-2.8v-0.9h1.9v-3.5h-1.7v-0.9h1.7v-0.7h1.1v0.7h4.6v-0.7h1.1v0.7h1.7v0.9h-1.7v3.5h1.9v0.9h-2.8c0.8,0.7,1.7,1.1,2.8,1.4
							l-0.5,1c-0.5-0.2-1-0.4-1.7-0.8v0.7h-2.6v0.9h4.2v0.9h-9.4v-0.9h4.1v-0.9h-2.5V44.1L150.3,44.1z M152.9,44v-1h1.1v1h2.3
							c-0.6-0.4-1.1-0.9-1.6-1.4h-2.4c-0.4,0.4-0.8,0.9-1.3,1.2c-0.1,0.1-0.2,0.1-0.3,0.2H152.9L152.9,44z M151.1,41.6h4.6V41h-4.6
							V41.6L151.1,41.6z M151.1,38.7h4.6v-0.6h-4.6V38.7L151.1,38.7z M151.1,40.2h4.6v-0.6h-4.6V40.2L151.1,40.2z"></path>
                <path id="Shape_11_" d="M162.1,45.6c-0.3-1-0.6-1.7-0.9-2l1-0.4c0.3,0.6,0.6,1.3,0.8,1.9l0.2,0.5h1v-2.9h-4.1v-1h4.1v-1.3
							h-2.5v-0.5l-0.7,0.4l-0.9,0.4l-0.6-1c2.1-0.9,3.7-2,4.7-3.2h1c1.3,1.3,3,2.3,4.9,3.2l-0.7,1l-0.7-0.4
							c-0.4-0.2-0.6-0.3-0.7-0.4v0.6h-2.6v1.3h4.1v1h-4.1v2.9h1c0.4-0.8,0.7-1.6,1-2.5l1.1,0.4c-0.1,0.1-0.1,0.2-0.1,0.3
							c-0.3,0.7-0.5,1.3-0.8,1.8h2.2v1h-9.9v-1H162.1L162.1,45.6z M164.8,37.5c-0.8,0.8-1.5,1.5-2.3,1.9h4.8
							C166.4,38.9,165.6,38.3,164.8,37.5L164.8,37.5z"></path>
                <path id="Shape_12_" d="M171.4,39.8l-0.5-1c2-0.8,3.6-1.5,4.7-2.3h1.1c1.4,0.8,3,1.5,4.7,2.2l-0.4,1l-0.3-0.1v3h-8.9v-3
							L171.4,39.8L171.4,39.8z M172.1,39.5h8.4l-1.1-0.5l-1.1-0.5V39h-4v-0.6C173.7,38.8,173,39.2,172.1,39.5L172.1,39.5z
							 M172.3,43.1h7.9V47h-1.1v-0.4h-5.8V47h-1.1V43.1L172.3,43.1z M175.7,40.3h-2.9v1.5h2.9V40.3L175.7,40.3z M173.4,44.5h5.8
							v-0.6h-5.8V44.5L173.4,44.5z M173.4,45.9h5.8v-0.7h-5.8V45.9L173.4,45.9z M174.2,41.8l-0.3-0.6c-0.1-0.2-0.3-0.4-0.3-0.5
							l0.7-0.3c0.1,0.1,0.3,0.3,0.4,0.5l0.4,0.5L174.2,41.8L174.2,41.8z M176.2,37.3c-0.5,0.3-0.9,0.6-1.3,0.8
							c-0.1,0-0.2,0.1-0.3,0.1h3.2C177.3,37.9,176.7,37.6,176.2,37.3L176.2,37.3z M179.7,40.3h-3v1.5h3V40.3L179.7,40.3z
							 M177.5,41.3c0.1-0.1,0.2-0.2,0.3-0.5l0.4-0.5l0.7,0.4l-0.4,0.6c-0.1,0.2-0.3,0.4-0.3,0.5L177.5,41.3L177.5,41.3z"></path>
                <path id="Shape_13_" d="M37.9,54.3c-0.1,0.2-0.2,0.4-0.3,0.6c-0.1,0.2-0.4,0.3-0.6,0.4c-0.3,0.1-0.6,0.1-0.9,0.1
							c-0.6,0-1.1-0.2-1.5-0.5c-0.3-0.3-0.5-0.8-0.5-1.5v-0.4h0.9v0.3c0,0.2,0,0.4,0.1,0.5c0,0.2,0.1,0.3,0.2,0.4
							c0.1,0.1,0.2,0.2,0.3,0.3c0.1,0.1,0.3,0.1,0.5,0.1c0.4,0,0.7-0.1,0.9-0.3c0.1-0.2,0.2-0.5,0.2-0.9v-4.9H38v5
							C38,53.8,38,54.1,37.9,54.3"></path>
                <path id="Shape_14_" d="M44.2,54.8c-0.5,0.4-1.1,0.7-2,0.7s-1.5-0.2-2-0.6c-0.5-0.4-0.7-1.1-0.7-2v-4.3h0.9v4.3
							c0,0.6,0.2,1.1,0.5,1.4c0.3,0.3,0.8,0.5,1.4,0.5c0.6,0,1-0.1,1.3-0.5c0.3-0.3,0.5-0.8,0.5-1.4v-4.3h0.9v4.3
							C44.9,53.7,44.7,54.4,44.2,54.8"></path>
                <path id="Shape_15_" d="M48.6,48.6c1,0,1.8,0.3,2.4,0.8c0.6,0.5,0.8,1.3,0.8,2.4c0,0.6-0.1,1.1-0.2,1.5
							c-0.1,0.4-0.3,0.8-0.6,1.1c-0.3,0.3-0.6,0.5-1,0.7s-0.9,0.2-1.5,0.2h-2.3v-6.8L48.6,48.6L48.6,48.6z M48.7,54.6
							c0.1,0,0.2,0,0.4,0c0.1,0,0.3-0.1,0.5-0.1s0.3-0.1,0.5-0.3s0.3-0.3,0.5-0.5c0.1-0.2,0.2-0.4,0.3-0.7c0.1-0.3,0.1-0.7,0.1-1.1
							s0-0.8-0.1-1.1c-0.1-0.3-0.2-0.6-0.4-0.8c-0.2-0.2-0.4-0.4-0.7-0.5c-0.3-0.1-0.6-0.2-1.1-0.2h-1.5v5.2H48.7L48.7,54.6z"></path>
                <rect id="Rectangle-path" x="53" y="48.6" width="1" height="6.8"></rect>
                <path id="Shape_16_" d="M59.5,49.5c-0.3-0.2-0.7-0.4-1.2-0.4c-0.4,0-0.7,0.1-1,0.2c-0.3,0.1-0.5,0.3-0.7,0.6
							c-0.2,0.3-0.3,0.5-0.4,0.9c-0.1,0.3-0.1,0.7-0.1,1c0,0.4,0.1,0.7,0.1,1.1c0.1,0.3,0.2,0.6,0.4,0.9c0.2,0.3,0.4,0.5,0.7,0.6
							s0.6,0.2,1,0.2c0.3,0,0.6-0.1,0.8-0.1c0.2-0.1,0.4-0.2,0.6-0.4s0.3-0.4,0.4-0.6c0.1-0.2,0.1-0.5,0.2-0.8h0.9
							c-0.1,0.9-0.4,1.5-0.9,2c-0.5,0.5-1.2,0.7-2,0.7c-0.5,0-1-0.1-1.4-0.3s-0.7-0.4-1-0.7c-0.3-0.3-0.5-0.7-0.6-1.1
							c-0.1-0.4-0.2-0.9-0.2-1.4c0-0.5,0.1-0.9,0.2-1.4c0.1-0.4,0.3-0.8,0.6-1.1c0.3-0.3,0.6-0.6,1-0.8c0.4-0.2,0.9-0.3,1.4-0.3
							c0.3,0,0.7,0.1,1,0.1c0.3,0.1,0.6,0.2,0.8,0.4c0.3,0.2,0.5,0.4,0.6,0.7c0.2,0.3,0.3,0.6,0.3,0.9h-0.9
							C60.1,50.1,59.9,49.7,59.5,49.5"></path>
                <rect id="Rectangle-path_1_" x="62.3" y="48.6" width="1" height="6.8"></rect>
                <path id="Shape_17_" d="M67.6,48.6l2.6,6.8h-1l-0.7-2h-2.9l-0.7,2h-0.9l2.6-6.8H67.6L67.6,48.6z M68.2,52.5L67,49.4h0
							l-1.1,3.2H68.2L68.2,52.5z"></path>
                <polygon id="Shape_18_" points="71.7,48.6 71.7,54.6 75.3,54.6 75.3,55.3 70.9,55.3 70.9,48.6 						"></polygon>
                <path id="Shape_19_" d="M81.9,48.6c0.6,0,1.1,0.1,1.5,0.5c0.4,0.3,0.5,0.7,0.5,1.3c0,0.4-0.1,0.8-0.3,1.1
							c-0.2,0.3-0.5,0.5-0.9,0.6v0c0.2,0,0.3,0.1,0.5,0.2c0.1,0.1,0.2,0.2,0.3,0.3c0.1,0.1,0.1,0.3,0.2,0.4c0,0.1,0.1,0.3,0.1,0.5
							c0,0.2,0,0.3,0,0.5s0,0.3,0.1,0.5c0,0.2,0.1,0.3,0.1,0.5c0.1,0.1,0.1,0.3,0.2,0.4h-1c-0.1-0.1-0.1-0.2-0.1-0.3
							c0-0.1,0-0.3,0-0.4s0-0.3,0-0.5c0-0.2,0-0.3-0.1-0.5c0-0.2-0.1-0.3-0.1-0.5c0-0.1-0.1-0.3-0.2-0.4c-0.1-0.1-0.2-0.2-0.3-0.3
							c-0.1-0.1-0.3-0.1-0.5-0.1h-2.2v2.9h-0.9v-6.8L81.9,48.6L81.9,48.6z M82.1,51.6c0.2,0,0.3-0.1,0.5-0.2
							c0.1-0.1,0.3-0.2,0.3-0.4c0.1-0.1,0.1-0.3,0.1-0.6c0-0.3-0.1-0.6-0.3-0.8s-0.5-0.3-0.9-0.3h-2.2v2.4h1.9
							C81.7,51.7,81.9,51.7,82.1,51.6L82.1,51.6z"></path>
                <polygon id="Shape_20_" points="89.9,48.6 89.9,49.3 86.1,49.3 86.1,51.5 89.6,51.5 89.6,52.2 86.1,52.2 86.1,54.6 89.9,54.6 
							89.9,55.3 85.2,55.3 85.2,48.6 						"></polygon>
                <polygon id="Shape_21_" points="95.4,48.6 95.4,49.3 91.9,49.3 91.9,51.5 95,51.5 95,52.2 91.9,52.2 91.9,55.3 91,55.3 
							91,48.6 						"></polygon>
                <path id="Shape_22_" d="M96.3,50.6c0.1-0.4,0.3-0.8,0.6-1.1c0.3-0.3,0.6-0.6,1-0.8c0.4-0.2,0.9-0.3,1.4-0.3
							c0.5,0,1,0.1,1.4,0.3c0.4,0.2,0.7,0.5,1,0.8c0.3,0.3,0.5,0.7,0.6,1.1c0.1,0.4,0.2,0.9,0.2,1.3s-0.1,0.9-0.2,1.3
							c-0.1,0.4-0.3,0.8-0.6,1.1c-0.3,0.3-0.6,0.6-1,0.8c-0.4,0.2-0.9,0.3-1.4,0.3c-0.5,0-1-0.1-1.4-0.3c-0.4-0.2-0.7-0.5-1-0.8
							c-0.3-0.3-0.5-0.7-0.6-1.1c-0.1-0.4-0.2-0.9-0.2-1.3S96.1,51,96.3,50.6 M97.1,53c0.1,0.3,0.2,0.6,0.4,0.9
							c0.2,0.3,0.4,0.5,0.7,0.6c0.3,0.2,0.7,0.2,1.1,0.2c0.4,0,0.8-0.1,1.1-0.2c0.3-0.2,0.5-0.4,0.7-0.6c0.2-0.3,0.3-0.6,0.4-0.9
							c0.1-0.3,0.1-0.7,0.1-1s0-0.7-0.1-1c-0.1-0.3-0.2-0.6-0.4-0.9c-0.2-0.3-0.4-0.5-0.7-0.6c-0.3-0.2-0.7-0.2-1.1-0.2
							c-0.4,0-0.8,0.1-1.1,0.2c-0.3,0.2-0.5,0.4-0.7,0.6c-0.2,0.3-0.3,0.6-0.4,0.9c-0.1,0.3-0.1,0.7-0.1,1
							C96.9,52.3,97,52.6,97.1,53"></path>
                <path id="Shape_23_" d="M106.8,48.6c0.7,0,1.1,0.1,1.5,0.5c0.4,0.3,0.5,0.7,0.5,1.3c0,0.4-0.1,0.8-0.3,1.1
							c-0.2,0.3-0.5,0.5-0.9,0.6v0c0.2,0,0.3,0.1,0.5,0.2c0.1,0.1,0.2,0.2,0.3,0.3c0.1,0.1,0.1,0.3,0.2,0.4c0,0.1,0.1,0.3,0.1,0.5
							c0,0.2,0,0.3,0,0.5s0,0.3,0.1,0.5s0.1,0.3,0.1,0.5s0.1,0.3,0.2,0.4h-1c-0.1-0.1-0.1-0.2-0.1-0.3c0-0.1,0-0.3,0-0.4
							s0-0.3,0-0.5c0-0.2,0-0.3-0.1-0.5c0-0.2-0.1-0.3-0.1-0.5c0-0.1-0.1-0.3-0.2-0.4c-0.1-0.1-0.2-0.2-0.3-0.3
							c-0.1-0.1-0.3-0.1-0.5-0.1h-2.2v2.9h-0.9v-6.8L106.8,48.6L106.8,48.6z M107,51.6c0.2,0,0.3-0.1,0.5-0.2
							c0.1-0.1,0.3-0.2,0.3-0.4c0.1-0.1,0.1-0.3,0.1-0.6c0-0.3-0.1-0.6-0.3-0.8c-0.2-0.2-0.5-0.3-0.9-0.3h-2.2v2.4h1.9
							C106.6,51.7,106.8,51.7,107,51.6L107,51.6z"></path>
                <polygon id="Shape_24_" points="111.3,48.6 113.5,54.2 115.6,48.6 116.8,48.6 116.8,55.3 116,55.3 116,49.7 116,49.7 
							113.9,55.3 113.1,55.3 111,49.7 111,49.7 111,55.3 110.1,55.3 110.1,48.6 						"></polygon>
                <polygon id="Shape_25_" points="125.4,48.6 125.4,49.3 121.8,49.3 121.8,51.5 125,51.5 125,52.2 121.8,52.2 121.8,55.3 
							121,55.3 121,48.6 						"></polygon>
                <path id="Shape_26_" d="M126.2,50.6c0.1-0.4,0.3-0.8,0.6-1.1c0.3-0.3,0.6-0.6,1-0.8c0.4-0.2,0.9-0.3,1.4-0.3
							c0.5,0,1,0.1,1.4,0.3c0.4,0.2,0.7,0.5,1,0.8c0.3,0.3,0.5,0.7,0.6,1.1c0.1,0.4,0.2,0.9,0.2,1.3s-0.1,0.9-0.2,1.3
							c-0.1,0.4-0.3,0.8-0.6,1.1c-0.3,0.3-0.6,0.6-1,0.8c-0.4,0.2-0.9,0.3-1.4,0.3s-1-0.1-1.4-0.3c-0.4-0.2-0.7-0.5-1-0.8
							c-0.3-0.3-0.5-0.7-0.6-1.1c-0.1-0.4-0.2-0.9-0.2-1.3S126.1,51,126.2,50.6 M127,53c0.1,0.3,0.2,0.6,0.4,0.9
							c0.2,0.3,0.4,0.5,0.7,0.6c0.3,0.2,0.7,0.2,1.1,0.2c0.4,0,0.8-0.1,1.1-0.2c0.3-0.2,0.5-0.4,0.7-0.6c0.2-0.3,0.3-0.6,0.4-0.9
							c0.1-0.3,0.1-0.7,0.1-1s-0.1-0.7-0.1-1c-0.1-0.3-0.2-0.6-0.4-0.9c-0.2-0.3-0.4-0.5-0.7-0.6c-0.3-0.2-0.7-0.2-1.1-0.2
							c-0.4,0-0.8,0.1-1.1,0.2c-0.3,0.2-0.5,0.4-0.7,0.6c-0.2,0.3-0.3,0.6-0.4,0.9c-0.1,0.3-0.1,0.7-0.1,1
							C126.9,52.3,126.9,52.6,127,53"></path>
                <path id="Shape_27_" d="M138.3,54.8c-0.5,0.4-1.1,0.7-2,0.7s-1.5-0.2-2-0.6c-0.5-0.4-0.7-1.1-0.7-2v-4.3h0.9v4.3
							c0,0.6,0.2,1.1,0.5,1.4c0.3,0.3,0.8,0.5,1.4,0.5c0.6,0,1-0.1,1.3-0.5c0.3-0.3,0.5-0.8,0.5-1.4v-4.3h0.9v4.3
							C139,53.7,138.7,54.4,138.3,54.8"></path>
                <polygon id="Shape_28_" points="141.3,48.6 144.9,54 144.9,54 144.9,48.6 145.8,48.6 145.8,55.3 144.8,55.3 141.3,49.9 
							141.3,49.9 141.3,55.3 140.4,55.3 140.4,48.6 						"></polygon>
                <path id="Shape_29_" d="M149.6,48.6c1,0,1.8,0.3,2.4,0.8c0.6,0.5,0.8,1.3,0.8,2.4c0,0.6-0.1,1.1-0.2,1.5
							c-0.1,0.4-0.3,0.8-0.6,1.1c-0.3,0.3-0.6,0.5-1,0.7c-0.4,0.2-0.9,0.2-1.5,0.2h-2.3v-6.8L149.6,48.6L149.6,48.6z M149.6,54.6
							c0.1,0,0.2,0,0.4,0c0.1,0,0.3-0.1,0.5-0.1s0.3-0.1,0.5-0.3c0.2-0.1,0.3-0.3,0.5-0.5s0.2-0.4,0.3-0.7c0.1-0.3,0.1-0.7,0.1-1.1
							s0-0.8-0.1-1.1c-0.1-0.3-0.2-0.6-0.4-0.8c-0.2-0.2-0.4-0.4-0.7-0.5s-0.6-0.2-1.1-0.2h-1.5v5.2H149.6L149.6,54.6z"></path>
                <path id="Shape_30_" d="M156.7,48.6l2.6,6.8h-1l-0.7-2h-2.9l-0.7,2h-0.9l2.6-6.8H156.7L156.7,48.6z M157.4,52.5l-1.1-3.2h0
							l-1.1,3.2H157.4L157.4,52.5z"></path>
                <polygon id="Shape_31_" points="159.3,49.3 159.3,48.6 164.7,48.6 164.7,49.3 162.5,49.3 162.5,55.3 161.5,55.3 161.5,49.3 
													"></polygon>
                <rect id="Rectangle-path_2_" x="165.5" y="48.6" width="1" height="6.8"></rect>
                <path id="Shape_32_" d="M167.7,50.6c0.1-0.4,0.3-0.8,0.6-1.1c0.3-0.3,0.6-0.6,1-0.8c0.4-0.2,0.9-0.3,1.4-0.3
							c0.5,0,1,0.1,1.4,0.3c0.4,0.2,0.7,0.5,1,0.8c0.3,0.3,0.5,0.7,0.6,1.1c0.1,0.4,0.2,0.9,0.2,1.3s-0.1,0.9-0.2,1.3
							c-0.1,0.4-0.3,0.8-0.6,1.1c-0.3,0.3-0.6,0.6-1,0.8c-0.4,0.2-0.9,0.3-1.4,0.3c-0.5,0-1-0.1-1.4-0.3c-0.4-0.2-0.7-0.5-1-0.8
							c-0.3-0.3-0.5-0.7-0.6-1.1c-0.1-0.4-0.2-0.9-0.2-1.3S167.6,51,167.7,50.6 M168.6,53c0.1,0.3,0.2,0.6,0.4,0.9
							c0.2,0.3,0.4,0.5,0.7,0.6c0.3,0.2,0.7,0.2,1.1,0.2c0.4,0,0.8-0.1,1.1-0.2c0.3-0.2,0.5-0.4,0.7-0.6c0.2-0.3,0.3-0.6,0.4-0.9
							c0.1-0.3,0.1-0.7,0.1-1s-0.1-0.7-0.1-1c-0.1-0.3-0.2-0.6-0.4-0.9c-0.2-0.3-0.4-0.5-0.7-0.6c-0.3-0.2-0.7-0.2-1.1-0.2
							c-0.4,0-0.8,0.1-1.1,0.2c-0.3,0.2-0.5,0.4-0.7,0.6c-0.2,0.3-0.3,0.6-0.4,0.9c-0.1,0.3-0.1,0.7-0.1,1
							C168.4,52.3,168.5,52.6,168.6,53"></path>
                <polygon id="Shape_33_" points="176,48.6 179.6,54 179.6,54 179.6,48.6 180.5,48.6 180.5,55.3 179.5,55.3 176,49.9 
							175.9,49.9 175.9,55.3 175.1,55.3 175.1,48.6 						"></polygon>
            </g>
            <g id="Shape_34_">
                <path d="M55.7,47.8c-0.1,0-0.3-0.1-0.3-0.2c-2.1-3.8-6-6.2-10.3-6.2c-4.4,0-8.3,2.3-10.5,6.2c-0.1,0.2-0.3,0.3-0.5,0.1
							c-0.2-0.1-0.3-0.3-0.1-0.5c2.3-4.1,6.5-6.6,11.1-6.6H45c4.6,0,8.8,2.5,11,6.6c0.1,0.2,0,0.4-0.1,0.5
							C55.8,47.7,55.8,47.8,55.7,47.8L55.7,47.8z"></path>
                <linearGradient id="SVGID_1_" gradientUnits="userSpaceOnUse" x1="-156.2095" y1="389.1787" x2="-156.2095" y2="390.1819" gradientTransform="matrix(4.4857 0 0 -27.4857 745.7111 10761.1348)">
                    <stop offset="0" style="stop-color:#E6E6E6"></stop>
                    <stop offset="3.040981e-02" style="stop-color:#CBCBCB"></stop>
                    <stop offset="9.843354e-02" style="stop-color:#969696"></stop>
                    <stop offset="0.1673" style="stop-color:#686868"></stop>
                    <stop offset="0.2357" style="stop-color:#424242"></stop>
                    <stop offset="0.3035" style="stop-color:#252525"></stop>
                    <stop offset="0.3705" style="stop-color:#111111"></stop>
                    <stop offset="0.4364" style="stop-color:#040404"></stop>
                    <stop offset="0.5" style="stop-color:#000000"></stop>
                </linearGradient>
                <polygon class="st0" points="45,62.4 47.2,64.2 45,36.7 42.8,64.2 						"></polygon>
                <g transform="translate(12.857143, 6.285714)">
                    <path class="st1" d="M34.8,47l0.8,7.4c3.5,0.1,6.1-3.1,6.1-7.4H34.8L34.8,47z"></path>
                    <path class="st1" d="M34.7,45.6h7.1l0,0c0-0.2-0.1-0.5-0.1-0.7h-7.1L34.7,45.6L34.7,45.6z"></path>
                    <path class="st1" d="M41.7,45.9h-7.1l0.1,0.7h7C41.8,46.4,41.8,46.2,41.7,45.9L41.7,45.9z"></path>
                    <path class="st1" d="M41.6,44.5c-0.9-4.5-4.3-8-7.9-8.1l0.9,8.1H41.6L41.6,44.5z"></path>
                </g>
                <g transform="translate(1.714286, 6.285714)">
                    <path class="st1" d="M33.8,45.6h7.1l0.1-0.7h-7.1C33.8,45.1,33.8,45.3,33.8,45.6L33.8,45.6z"></path>
                    <path class="st1" d="M40.9,44.5l0.9-8.1c-3.6,0.1-7,3.6-7.9,8.1H40.9L40.9,44.5z"></path>
                    <path class="st1" d="M33.7,47c0.1,4.3,2.6,7.5,6.2,7.4l0.8-7.4H33.7L33.7,47z"></path>
                    <path class="st1" d="M40.8,45.9h-7.1c0,0.2,0,0.5,0,0.7h7L40.8,45.9L40.8,45.9z"></path>
                </g>
            </g>
        </g>
    </g>
</svg>