<?xml version="1.0" encoding="UTF-8"?>
<svg width="172px" height="28px" viewBox="0 0 172 28" version="1.1" xmlns="http://www.w3.org/2000/svg" xmlns:xlink="http://www.w3.org/1999/xlink">
    <!-- Generator: Sketch 43.1 (39012) - http://www.bohemiancoding.com/sketch -->
    <title>Judicial Copy</title>
    <desc>Created with Sketch.</desc>
    <defs>
        <linearGradient x1="50.2306313%" y1="100.175978%" x2="50.2306313%" y2="0.0839041996%" id="linearGradient-1">
            <stop stop-color="#E6E6E6" offset="0%"></stop>
            <stop stop-color="#CBCBCB" offset="3.040981%"></stop>
            <stop stop-color="#969696" offset="9.843355%"></stop>
            <stop stop-color="#686868" offset="16.73%"></stop>
            <stop stop-color="#424242" offset="23.57%"></stop>
            <stop stop-color="#252525" offset="30.35%"></stop>
            <stop stop-color="#111111" offset="37.05%"></stop>
            <stop stop-color="#040404" offset="43.64%"></stop>
            <stop stop-color="#000000" offset="50%"></stop>
        </linearGradient>
    </defs>
    <g id="_Client" stroke="none" stroke-width="1" fill="none" fill-rule="evenodd">
        <g id="Judicial-Copy" transform="translate(-34.000000, -36.000000)">
            <g id="JRF" transform="translate(34.222222, 35.555556)">
                <g id="圖層_1">
                    <g id="Group">
                        <g transform="translate(24.285714, 4.285714)" fill="#000000">
                            <path d="M2.62857143,8.4 C2.6,8.48571429 2.57142857,8.54285714 2.54285714,8.6 C2.22857143,9.28571429 1.74285714,9.91428571 1.14285714,10.5142857 L0.257142857,9.91428571 L0.571428571,9.6 C1.05714286,9.08571429 1.42857143,8.54285714 1.71428571,7.94285714 L2.62857143,8.4 L2.62857143,8.4 Z M5.02857143,7.71428571 L0.828571429,7.71428571 L0.828571429,0.457142857 L5.02857143,0.457142857 L5.02857143,7.71428571 L5.02857143,7.71428571 Z M4.05714286,1.37142857 L1.82857143,1.37142857 L1.82857143,2.51428571 L4.05714286,2.51428571 L4.05714286,1.37142857 L4.05714286,1.37142857 Z M1.8,4.6 L4.02857143,4.6 L4.02857143,3.4 L1.8,3.4 L1.8,4.6 L1.8,4.6 Z M1.8,6.8 L4.02857143,6.8 L4.02857143,5.48571429 L1.8,5.48571429 L1.8,6.8 L1.8,6.8 Z M4.45714286,10.5142857 C4.17142857,9.77142857 3.77142857,9.05714286 3.28571429,8.42857143 L4.14285714,7.94285714 C4.65714286,8.6 5.08571429,9.31428571 5.42857143,10.0285714 L4.45714286,10.5142857 L4.45714286,10.5142857 Z M8.71428571,4.82857143 C8.02857143,6.05714286 7.05714286,7.22857143 5.8,8.34285714 L5.08571429,7.37142857 C5.91428571,6.68571429 6.6,6.05714286 7.08571429,5.42857143 C7.6,4.8 8.08571429,4.05714286 8.6,3.14285714 L5.45714286,3.14285714 L5.45714286,2.17142857 L8.68571429,2.17142857 L8.68571429,0.0285714286 L9.74285714,0.0285714286 L9.74285714,2.17142857 L10.7142857,2.17142857 L10.7142857,3.14285714 L9.74285714,3.14285714 L9.74285714,9.05714286 L9.74285714,9.2 C9.74285714,9.6 9.65714286,9.91428571 9.48571429,10.0857143 C9.31428571,10.2571429 8.97142857,10.3714286 8.45714286,10.3714286 L7.05714286,10.3714286 L6.8,9.34285714 L8.31428571,9.4 C8.57142857,9.4 8.68571429,9.28571429 8.68571429,9.05714286 L8.68571429,4.82857143 L8.71428571,4.82857143 Z" id="Shape"></path>
                            <path d="M11.9428571,0.342857143 L21.8285714,0.342857143 L21.8285714,10.5428571 L20.8571429,10.5428571 L20.8571429,10.0857143 L12.9142857,10.0857143 L12.9142857,10.5428571 L11.9428571,10.5428571 L11.9428571,0.342857143 L11.9428571,0.342857143 Z M19.5428571,5.42857143 L19.8857143,5.82857143 L20.3428571,6.37142857 L19.6,6.82857143 L19.2857143,6.42857143 L19.0857143,6.42857143 L19.0857143,6.94285714 L20.4571429,6.94285714 L20.4571429,7.65714286 L19.0857143,7.65714286 L19.0857143,7.94285714 L19.0857143,8.05714286 C19.0857143,8.34285714 19.0285714,8.54285714 18.8857143,8.68571429 C18.7714286,8.82857143 18.4857143,8.88571429 18.0571429,8.88571429 L16.8285714,8.88571429 L16.6,8.14285714 L17.7714286,8.2 C18.0285714,8.2 18.1714286,8.08571429 18.1714286,7.85714286 L18.1714286,7.62857143 L13.3142857,7.62857143 L13.3142857,6.91428571 L18.1714286,6.91428571 L18.1714286,6.45714286 L16.0571429,6.54285714 L13.5428571,6.6 L13.3714286,5.8 L14.8285714,5.82857143 L16.2857143,5.8 L16.2857143,5.42857143 L13.6,5.42857143 L13.6,2.71428571 L16.2857143,2.71428571 L16.2857143,2.34285714 L13.2857143,2.34285714 L13.2857143,1.6 L16.2857143,1.6 L16.2857143,1.17142857 L12.8571429,1.17142857 L12.8571429,9.22857143 L20.8,9.22857143 L20.8,1.17142857 L17.1714286,1.17142857 L17.1714286,1.6 L20.4285714,1.6 L20.4285714,2.34285714 L17.1428571,2.34285714 L17.1428571,2.71428571 L20,2.71428571 L20,5.42857143 L19.5428571,5.42857143 L19.5428571,5.42857143 Z M15.2857143,8.97142857 L14.9142857,8.48571429 C14.8285714,8.34285714 14.7142857,8.22857143 14.5714286,8.08571429 L14.5142857,8.02857143 L15.2571429,7.68571429 L15.6285714,8.02857143 C15.7142857,8.11428571 15.8285714,8.25714286 15.9714286,8.42857143 C16,8.45714286 16,8.48571429 16.0571429,8.54285714 L15.2857143,8.97142857 L15.2857143,8.97142857 Z M14.5142857,3.82857143 L16.3142857,3.82857143 L16.3142857,3.37142857 L14.5142857,3.37142857 L14.5142857,3.82857143 L14.5142857,3.82857143 Z M14.5142857,4.8 L16.3142857,4.8 L16.3142857,4.31428571 L14.5142857,4.31428571 L14.5142857,4.8 L14.5142857,4.8 Z M17.2,3.82857143 L19.1714286,3.82857143 L19.1714286,3.37142857 L17.2,3.37142857 L17.2,3.82857143 L17.2,3.82857143 Z M17.2,4.8 L19.1714286,4.8 L19.1714286,4.31428571 L17.2,4.31428571 L17.2,4.8 L17.2,4.8 Z M17.2,5.42857143 L17.2,5.82857143 L18.1428571,5.82857143 L18.8571429,5.8 L18.5714286,5.42857143 L17.2,5.42857143 L17.2,5.42857143 Z" id="Shape"></path>
                            <path d="M25,5.42857143 L24,4.74285714 C23.8857143,4.65714286 23.6571429,4.51428571 23.3714286,4.34285714 C23.2857143,4.28571429 23.1714286,4.22857143 23.0285714,4.14285714 L23.7142857,3.25714286 L24.6857143,3.77142857 C24.9428571,3.91428571 25.2857143,4.14285714 25.7142857,4.42857143 L25,5.42857143 L25,5.42857143 Z M26.0285714,6.77142857 C25.8857143,7.05714286 25.8,7.28571429 25.7142857,7.45714286 C25.1428571,8.71428571 24.5428571,9.71428571 23.9714286,10.4571429 L23.1142857,9.51428571 C23.7142857,8.77142857 24.2857143,7.82857143 24.8571429,6.62857143 C24.9428571,6.45714286 25.0285714,6.25714286 25.1714286,6 L26.0285714,6.77142857 L26.0285714,6.77142857 Z M25.5428571,2.4 L24.5428571,1.68571429 C24.2857143,1.51428571 23.9428571,1.31428571 23.5428571,1.05714286 L24.2,0.142857143 L25.2,0.685714286 C25.3714286,0.771428571 25.6285714,0.942857143 26,1.17142857 C26.0571429,1.2 26.1428571,1.25714286 26.2285714,1.31428571 L25.5428571,2.4 L25.5428571,2.4 Z M26,5.6 L26,4.57142857 L28.9428571,4.57142857 L28.9428571,2.6 L26.6,2.6 L26.6,1.6 L28.9428571,1.6 L28.9428571,0.0571428571 L30.0571429,0.0571428571 L30.0571429,1.6 L33,1.6 L33,2.6 L30.0571429,2.6 L30.0571429,4.57142857 L33.4285714,4.57142857 L33.4285714,5.6 L29.9428571,5.6 C29.4857143,6.82857143 28.9714286,7.88571429 28.4285714,8.77142857 C28.6571429,8.74285714 28.8285714,8.74285714 28.9714286,8.71428571 C30.0857143,8.62857143 30.9142857,8.51428571 31.5142857,8.37142857 L31.0571429,7.54285714 L30.4857143,6.6 L31.4285714,6.2 C32.0285714,7.02857143 32.6857143,8.14285714 33.3714286,9.54285714 C33.4285714,9.62857143 33.4857143,9.77142857 33.5428571,9.91428571 L32.4571429,10.4285714 L32.2285714,9.88571429 C32.1428571,9.65714286 32.0571429,9.45714286 31.9428571,9.31428571 C30.3714286,9.6 28.4285714,9.82857143 26.0857143,9.97142857 L25.8,8.77142857 L26.5428571,8.77142857 L27,8.74285714 C27.6857143,7.65714286 28.2571429,6.6 28.6857143,5.54285714 L26,5.54285714 L26,5.6 Z" id="Shape"></path>
                            <path d="M40.2285714,0.0857142857 L40.2285714,1.37142857 C40.2285714,1.91428571 40.4285714,2.77142857 40.8,3.91428571 C41.1714286,5.05714286 41.6285714,6 42.2,6.8 C42.6571429,7.42857143 43.2,8.05714286 43.8571429,8.62857143 C44.5142857,9.22857143 44.8571429,9.51428571 44.9428571,9.51428571 L44.1428571,10.5428571 C44.0285714,10.5428571 43.5714286,10.1428571 42.7428571,9.34285714 C41.9142857,8.54285714 41.3142857,7.74285714 40.8857143,7 C40.4571429,6.22857143 40.0857143,5.34285714 39.7714286,4.28571429 C39.4285714,5.54285714 39.0571429,6.54285714 38.6285714,7.25714286 C38.2,8 37.5714286,8.71428571 36.7142857,9.45714286 C35.8571429,10.2 35.3714286,10.5714286 35.2,10.5714286 L34.4285714,9.54285714 C34.5428571,9.54285714 34.8857143,9.28571429 35.5142857,8.8 C36.1428571,8.31428571 36.6857143,7.74285714 37.1428571,7.11428571 C37.7142857,6.34285714 38.1428571,5.48571429 38.4857143,4.45714286 C38.8,3.45714286 38.9714286,2.45714286 38.9714286,1.51428571 L38.9714286,0.0857142857 L40.2285714,0.0857142857 L40.2285714,0.0857142857 Z" id="Shape"></path>
                            <path d="M51.8857143,3.91428571 L51.9714286,4.57142857 C52,4.88571429 52.0285714,5.11428571 52.0857143,5.25714286 L56.2285714,5.25714286 L56.2285714,6.25714286 L52.3428571,6.25714286 L52.5428571,6.8 C52.8571429,7.51428571 53.2,8.11428571 53.6285714,8.57142857 C54.0571429,9.02857143 54.3714286,9.25714286 54.6285714,9.25714286 C54.8,9.25714286 54.9142857,9.14285714 55,8.88571429 C55.0857143,8.62857143 55.1714286,8.17142857 55.2857143,7.45714286 L56.3142857,8.02857143 C56.1714286,8.82857143 56,9.42857143 55.8,9.82857143 C55.5714286,10.2571429 55.2857143,10.4571429 54.8857143,10.4571429 C54.2857143,10.4571429 53.6857143,10.1428571 53.0571429,9.54285714 C52.4571429,8.91428571 51.9428571,8.08571429 51.5714286,7.02857143 L51.2857143,6.22857143 L47.9714286,6.22857143 L47.9714286,8.97142857 L49.5428571,8.57142857 C50.2285714,8.4 50.8285714,8.22857143 51.2857143,8.08571429 L51.2857143,9.14285714 C49.8571429,9.65714286 48.1714286,10.1142857 46.2571429,10.5142857 L45.8857143,9.37142857 L46.5142857,9.28571429 L46.9142857,9.2 L46.9142857,0.571428571 L55.6857143,0.571428571 L55.6857143,3.94285714 L51.8857143,3.94285714 L51.8857143,3.91428571 Z M54.5142857,1.54285714 L47.9428571,1.54285714 L47.9428571,2.94285714 L54.5142857,2.94285714 L54.5142857,1.54285714 L54.5142857,1.54285714 Z M47.9428571,3.91428571 L47.9428571,5.22857143 L51.0285714,5.22857143 C50.9714286,4.91428571 50.9142857,4.71428571 50.9142857,4.54285714 L50.8285714,3.88571429 L47.9428571,3.88571429 L47.9428571,3.91428571 Z" id="Shape"></path>
                            <path d="M61.9428571,4.62857143 L58.6285714,4.62857143 L58.6285714,10.5428571 L57.5714286,10.5428571 L57.5714286,0.428571429 L61.9428571,0.428571429 L61.9428571,4.62857143 L61.9428571,4.62857143 Z M60.8857143,1.31428571 L58.6,1.31428571 L58.6,2.08571429 L60.8857143,2.08571429 L60.8857143,1.31428571 L60.8857143,1.31428571 Z M58.6285714,3.74285714 L60.9142857,3.74285714 L60.9142857,2.88571429 L58.6285714,2.88571429 L58.6285714,3.74285714 L58.6285714,3.74285714 Z M60.0571429,5.31428571 L64.7428571,5.31428571 L64.7428571,9.65714286 L60.0571429,9.65714286 L60.0571429,5.31428571 L60.0571429,5.31428571 Z M63.7428571,6.17142857 L61.0857143,6.17142857 L61.0857143,6.97142857 L63.7428571,6.97142857 L63.7428571,6.17142857 L63.7428571,6.17142857 Z M63.7428571,7.8 L61.0857143,7.8 L61.0857143,8.74285714 L63.7428571,8.74285714 L63.7428571,7.8 L63.7428571,7.8 Z M65.8571429,9.34285714 C66.1142857,9.34285714 66.2571429,9.22857143 66.2571429,8.97142857 L66.2571429,4.62857143 L62.8285714,4.62857143 L62.8285714,0.428571429 L67.2857143,0.428571429 L67.2857143,9.08571429 L67.2857143,9.22857143 C67.2857143,9.62857143 67.2285714,9.91428571 67.0857143,10.1142857 C66.9428571,10.2857143 66.6571429,10.4 66.2285714,10.4 L65.1428571,10.4 L64.8857143,9.31428571 L65.8571429,9.34285714 L65.8571429,9.34285714 Z M63.8571429,2.08571429 L66.2285714,2.08571429 L66.2285714,1.31428571 L63.8571429,1.31428571 L63.8571429,2.08571429 L63.8571429,2.08571429 Z M66.2285714,2.91428571 L63.8571429,2.91428571 L63.8571429,3.77142857 L66.2285714,3.77142857 L66.2285714,2.91428571 L66.2285714,2.91428571 Z" id="Shape"></path>
                            <path d="M78.6857143,0.571428571 L78.6857143,9.14285714 L78.6857143,9.28571429 C78.6857143,9.71428571 78.6,10 78.4285714,10.2 C78.2571429,10.3714286 77.9142857,10.4857143 77.3714286,10.4857143 L75.5428571,10.4857143 L75.2857143,9.37142857 L77.1142857,9.42857143 C77.2857143,9.42857143 77.4,9.4 77.4285714,9.34285714 C77.4857143,9.28571429 77.5142857,9.17142857 77.5142857,9.02857143 L77.5142857,1.62857143 L68.8,1.62857143 L68.8,0.571428571 L78.6857143,0.571428571 L78.6857143,0.571428571 Z M76.5714286,3.68571429 L69.1714286,3.68571429 L69.1714286,2.65714286 L76.5714286,2.65714286 L76.5714286,3.68571429 L76.5714286,3.68571429 Z M69.6285714,4.74285714 L75.8285714,4.74285714 L75.8285714,8.45714286 L69.6285714,8.45714286 L69.6285714,4.74285714 L69.6285714,4.74285714 Z M74.7142857,5.71428571 L70.7142857,5.71428571 L70.7142857,7.45714286 L74.7142857,7.45714286 L74.7142857,5.71428571 L74.7142857,5.71428571 Z" id="Shape"></path>
                            <path d="M81.9714286,5.42857143 L80.9714286,4.74285714 C80.8571429,4.65714286 80.6285714,4.51428571 80.3428571,4.34285714 C80.2571429,4.28571429 80.1428571,4.22857143 80,4.14285714 L80.6571429,3.25714286 L81.6285714,3.77142857 C81.8857143,3.91428571 82.2285714,4.14285714 82.6285714,4.42857143 L81.9714286,5.42857143 L81.9714286,5.42857143 Z M82.9714286,6.77142857 C82.8285714,7.05714286 82.7428571,7.28571429 82.6571429,7.45714286 C82.0857143,8.71428571 81.4857143,9.71428571 80.9142857,10.4571429 L80.0571429,9.51428571 C80.6571429,8.77142857 81.2285714,7.82857143 81.8,6.62857143 C81.8857143,6.45714286 81.9714286,6.25714286 82.1142857,6 L82.9714286,6.77142857 L82.9714286,6.77142857 Z M82.5142857,2.4 L81.5142857,1.68571429 C81.2571429,1.51428571 80.9142857,1.31428571 80.5142857,1.05714286 L81.1714286,0.142857143 L82.1714286,0.685714286 C82.3428571,0.771428571 82.6,0.942857143 82.9714286,1.17142857 C83.0285714,1.2 83.1142857,1.25714286 83.2,1.31428571 L82.5142857,2.4 L82.5142857,2.4 Z M82.9428571,5.6 L82.9428571,4.57142857 L85.8857143,4.57142857 L85.8857143,2.6 L83.5428571,2.6 L83.5428571,1.6 L85.8857143,1.6 L85.8857143,0.0571428571 L87,0.0571428571 L87,1.6 L89.9428571,1.6 L89.9428571,2.6 L87,2.6 L87,4.57142857 L90.3714286,4.57142857 L90.3714286,5.6 L86.8571429,5.6 C86.4,6.82857143 85.8857143,7.88571429 85.3428571,8.77142857 C85.5714286,8.74285714 85.7428571,8.74285714 85.8857143,8.71428571 C87,8.62857143 87.8285714,8.51428571 88.4285714,8.37142857 L87.9714286,7.54285714 L87.4,6.6 L88.3428571,6.2 C88.9428571,7.02857143 89.6,8.14285714 90.2857143,9.54285714 C90.3428571,9.62857143 90.4,9.77142857 90.4571429,9.91428571 L89.3714286,10.4285714 L89.1428571,9.88571429 C89.0571429,9.65714286 88.9714286,9.45714286 88.8571429,9.31428571 C87.2857143,9.6 85.3428571,9.82857143 83,9.97142857 L82.7142857,8.77142857 L83.4571429,8.77142857 L83.9142857,8.74285714 C84.6,7.65714286 85.1714286,6.6 85.6,5.54285714 L82.9428571,5.54285714 L82.9428571,5.6 Z" id="Shape"></path>
                            <path d="M97.2857143,0.0571428571 L98.3428571,0.2 L98.1714286,1.05714286 L98,1.71428571 L101.828571,1.71428571 L101.828571,2.77142857 L100.942857,2.77142857 C100.828571,4.65714286 100.342857,6.28571429 99.5428571,7.65714286 C99.8571429,8.05714286 100.171429,8.37142857 100.428571,8.62857143 C100.685714,8.85714286 101.171429,9.17142857 101.828571,9.54285714 L101.171429,10.5142857 C100.342857,10.0285714 99.5714286,9.37142857 98.8571429,8.54285714 C98.1714286,9.28571429 97.4285714,9.85714286 96.6,10.2857143 L96.1428571,10.5142857 L95.4571429,9.54285714 C96.6857143,8.97142857 97.6,8.37142857 98.2,7.71428571 C97.6571429,6.94285714 97.2,5.85714286 96.8285714,4.51428571 L96.6,4.85714286 L96.2857143,5.28571429 L95.5714286,4.31428571 L95.5714286,5.08571429 L93.1428571,5.08571429 L93.1428571,8.57142857 L94.2857143,8.02857143 C94.7714286,7.8 95.3142857,7.48571429 95.9714286,7.05714286 L95.9714286,8.22857143 C94.8,8.94285714 93.6285714,9.54285714 92.4285714,10.0285714 C92.2285714,10.1142857 92,10.2 91.6857143,10.3428571 L91.4285714,9.2 L91.8285714,9.05714286 L92.1428571,8.91428571 L92.1428571,4.11428571 L94.6,4.11428571 L94.6,1.62857143 L91.6571429,1.62857143 L91.6571429,0.628571429 L95.6285714,0.628571429 L95.6285714,4.28571429 C96.3714286,3.34285714 96.9428571,1.91428571 97.2857143,0.0571428571 L97.2857143,0.0571428571 Z M97.6285714,2.8 L97.5714286,2.91428571 L97.5142857,3.05714286 C97.8285714,4.8 98.2571429,6.08571429 98.8,6.85714286 C99.0571429,6.42857143 99.2857143,5.91428571 99.4571429,5.4 C99.6285714,4.85714286 99.7714286,4 99.9142857,2.8 L97.6285714,2.8 L97.6285714,2.8 Z" id="Shape"></path>
                            <path d="M108.6,8.88571429 L108.6,10.5428571 L107.485714,10.5428571 L107.485714,8.88571429 L102.771429,8.88571429 L102.771429,7.91428571 L107.485714,7.91428571 L107.485714,7.11428571 L103.942857,7.11428571 L103.942857,4.08571429 L107.485714,4.08571429 L107.485714,3.42857143 L105.171429,3.42857143 L105.171429,1.82857143 L103,1.82857143 L103,0.885714286 L105.171429,0.885714286 L105.171429,0.0571428571 L106.285714,0.0571428571 L106.285714,0.885714286 L109.771429,0.885714286 L109.771429,0.0571428571 L110.885714,0.0571428571 L110.885714,0.885714286 L113.085714,0.885714286 L113.085714,1.82857143 L110.885714,1.82857143 L110.885714,3.42857143 L108.6,3.42857143 L108.6,4.11428571 L112.171429,4.11428571 L112.171429,7.14285714 L108.6,7.14285714 L108.6,7.94285714 L113.257143,7.94285714 L113.257143,8.91428571 L108.6,8.91428571 L108.6,8.88571429 Z M107.457143,5.02857143 L105,5.02857143 L105,6.2 L107.457143,6.2 L107.457143,5.02857143 L107.457143,5.02857143 Z M109.771429,1.82857143 L106.285714,1.82857143 L106.285714,2.57142857 L109.771429,2.57142857 L109.771429,1.82857143 L109.771429,1.82857143 Z M111.085714,5.02857143 L108.6,5.02857143 L108.6,6.2 L111.085714,6.2 L111.085714,5.02857143 L111.085714,5.02857143 Z" id="Shape"></path>
                            <path d="M116.4,7.68571429 C116.371429,7.71428571 116.342857,7.71428571 116.314286,7.74285714 C115.714286,8.14285714 115.2,8.4 114.8,8.54285714 L114.2,7.54285714 C115.314286,7.2 116.2,6.71428571 116.914286,6.08571429 L114.171429,6.08571429 L114.171429,5.17142857 L116.028571,5.17142857 L116.028571,1.71428571 L114.371429,1.71428571 L114.371429,0.8 L116.028571,0.8 L116.028571,0.0571428571 L117.114286,0.0571428571 L117.114286,0.8 L121.714286,0.8 L121.714286,0.0571428571 L122.8,0.0571428571 L122.8,0.8 L124.542857,0.8 L124.542857,1.71428571 L122.8,1.71428571 L122.8,5.17142857 L124.657143,5.17142857 L124.657143,6.08571429 L121.914286,6.08571429 C122.742857,6.74285714 123.657143,7.2 124.685714,7.45714286 L124.2,8.48571429 C123.742857,8.31428571 123.171429,8.05714286 122.542857,7.68571429 L122.542857,8.42857143 L120,8.42857143 L120,9.28571429 L124.171429,9.28571429 L124.171429,10.2 L114.8,10.2 L114.8,9.28571429 L118.914286,9.28571429 L118.914286,8.42857143 L116.4,8.42857143 L116.4,7.68571429 L116.4,7.68571429 Z M118.914286,7.54285714 L118.914286,6.57142857 L120,6.57142857 L120,7.54285714 L122.257143,7.54285714 C121.685714,7.14285714 121.142857,6.68571429 120.628571,6.11428571 L118.2,6.11428571 C117.828571,6.54285714 117.428571,6.97142857 116.942857,7.31428571 C116.857143,7.37142857 116.771429,7.42857143 116.657143,7.54285714 L118.914286,7.54285714 L118.914286,7.54285714 Z M117.114286,5.2 L121.714286,5.2 L121.714286,4.54285714 L117.114286,4.54285714 L117.114286,5.2 L117.114286,5.2 Z M117.114286,2.31428571 L121.714286,2.31428571 L121.714286,1.71428571 L117.114286,1.71428571 L117.114286,2.31428571 L117.114286,2.31428571 Z M117.114286,3.74285714 L121.714286,3.74285714 L121.714286,3.11428571 L117.114286,3.11428571 L117.114286,3.74285714 L117.114286,3.74285714 Z" id="Shape"></path>
                            <path d="M128.114286,9.2 C127.771429,8.2 127.485714,7.54285714 127.257143,7.17142857 L128.285714,6.77142857 C128.6,7.4 128.885714,8.05714286 129.085714,8.71428571 L129.257143,9.2 L130.257143,9.2 L130.257143,6.28571429 L126.142857,6.28571429 L126.142857,5.28571429 L130.257143,5.28571429 L130.257143,4 L127.742857,4 L127.742857,3.48571429 L127,3.88571429 L126.142857,4.28571429 L125.542857,3.25714286 C127.685714,2.34285714 129.228571,1.28571429 130.2,0.0571428571 L131.2,0.0571428571 C132.514286,1.31428571 134.142857,2.34285714 136.057143,3.2 L135.4,4.2 L134.657143,3.82857143 C134.285714,3.62857143 134.028571,3.48571429 133.914286,3.42857143 L133.914286,4 L131.371429,4 L131.371429,5.25714286 L135.485714,5.25714286 L135.485714,6.25714286 L131.371429,6.25714286 L131.371429,9.17142857 L132.371429,9.17142857 C132.742857,8.37142857 133.057143,7.54285714 133.371429,6.68571429 L134.428571,7.11428571 C134.371429,7.22857143 134.342857,7.31428571 134.314286,7.4 C134.057143,8.08571429 133.828571,8.68571429 133.542857,9.2 L135.742857,9.2 L135.742857,10.2 L125.885714,10.2 L125.885714,9.2 L128.114286,9.2 L128.114286,9.2 Z M130.771429,1.08571429 C130,1.88571429 129.257143,2.54285714 128.514286,3 L133.257143,3 C132.428571,2.48571429 131.6,1.85714286 130.771429,1.08571429 L130.771429,1.08571429 Z" id="Shape"></path>
                            <path d="M137.428571,3.37142857 L136.971429,2.37142857 C139,1.6 140.571429,0.857142857 141.657143,0.0857142857 L142.771429,0.0857142857 C144.142857,0.914285714 145.714286,1.62857143 147.457143,2.28571429 L147.028571,3.31428571 L146.685714,3.17142857 L146.685714,6.14285714 L137.857143,6.14285714 L137.857143,3.17142857 L137.428571,3.37142857 L137.428571,3.37142857 Z M138.057143,3.08571429 L146.457143,3.08571429 L145.342857,2.6 L144.228571,2.05714286 L144.228571,2.57142857 L140.228571,2.57142857 L140.228571,2 C139.685714,2.37142857 138.942857,2.74285714 138.057143,3.08571429 L138.057143,3.08571429 Z M138.314286,6.68571429 L146.171429,6.68571429 L146.171429,10.5714286 L145.114286,10.5714286 L145.114286,10.2 L139.371429,10.2 L139.371429,10.5714286 L138.314286,10.5714286 L138.314286,6.68571429 L138.314286,6.68571429 Z M141.685714,3.85714286 L138.8,3.85714286 L138.8,5.37142857 L141.685714,5.37142857 L141.685714,3.85714286 L141.685714,3.85714286 Z M139.371429,8.08571429 L145.114286,8.08571429 L145.114286,7.45714286 L139.371429,7.45714286 L139.371429,8.08571429 L139.371429,8.08571429 Z M139.371429,9.42857143 L145.114286,9.42857143 L145.114286,8.74285714 L139.371429,8.74285714 L139.371429,9.42857143 L139.371429,9.42857143 Z M140.228571,5.34285714 L139.885714,4.74285714 C139.742857,4.51428571 139.628571,4.34285714 139.542857,4.22857143 L140.2,3.88571429 C140.342857,4.02857143 140.485714,4.2 140.628571,4.4 L141,4.91428571 L140.228571,5.34285714 L140.228571,5.34285714 Z M142.228571,0.885714286 C141.771429,1.2 141.342857,1.45714286 140.914286,1.68571429 C140.857143,1.71428571 140.742857,1.77142857 140.628571,1.82857143 L143.828571,1.82857143 C143.257143,1.51428571 142.714286,1.22857143 142.228571,0.885714286 L142.228571,0.885714286 Z M145.685714,3.85714286 L142.685714,3.85714286 L142.685714,5.37142857 L145.685714,5.37142857 L145.685714,3.85714286 L145.685714,3.85714286 Z M143.485714,4.85714286 C143.542857,4.8 143.657143,4.65714286 143.828571,4.4 L144.2,3.88571429 L144.942857,4.25714286 L144.571429,4.85714286 C144.428571,5.08571429 144.314286,5.22857143 144.257143,5.34285714 L143.485714,4.85714286 L143.485714,4.85714286 Z" id="Shape"></path>
                            <path d="M4.34285714,17.8285714 C4.28571429,18.0571429 4.17142857,18.2571429 4,18.4285714 C3.85714286,18.6 3.62857143,18.7428571 3.4,18.8571429 C3.14285714,18.9714286 2.82857143,19 2.45714286,19 C1.82857143,19 1.34285714,18.8285714 1,18.5142857 C0.657142857,18.1714286 0.485714286,17.6857143 0.485714286,17.0571429 L0.485714286,16.6571429 L1.37142857,16.6571429 L1.37142857,16.9428571 C1.37142857,17.1428571 1.4,17.3142857 1.42857143,17.4857143 C1.45714286,17.6571429 1.51428571,17.8 1.6,17.9142857 C1.68571429,18.0285714 1.8,18.1142857 1.94285714,18.2 C2.08571429,18.2571429 2.25714286,18.2857143 2.48571429,18.2857143 C2.88571429,18.2857143 3.17142857,18.1714286 3.34285714,17.9428571 C3.48571429,17.7142857 3.57142857,17.4285714 3.57142857,17.0571429 L3.57142857,12.1428571 L4.45714286,12.1428571 L4.45714286,17.1428571 C4.45714286,17.3714286 4.42857143,17.6 4.34285714,17.8285714" id="Shape"></path>
                            <path d="M10.6,18.3428571 C10.1428571,18.7714286 9.48571429,19 8.62857143,19 C7.77142857,19 7.08571429,18.8 6.6,18.3714286 C6.11428571,17.9714286 5.85714286,17.3142857 5.85714286,16.4 L5.85714286,12.0857143 L6.74285714,12.0857143 L6.74285714,16.4 C6.74285714,17 6.91428571,17.4571429 7.22857143,17.7714286 C7.54285714,18.0857143 8,18.2285714 8.6,18.2285714 C9.17142857,18.2285714 9.6,18.0857143 9.91428571,17.7714286 C10.2,17.4571429 10.3714286,17 10.3714286,16.4 L10.3714286,12.0857143 L11.2571429,12.0857143 L11.2571429,16.4 C11.2857143,17.2571429 11.0571429,17.9142857 10.6,18.3428571" id="Shape"></path>
                            <path d="M15.0285714,12.1142857 C16.0571429,12.1142857 16.8571429,12.3714286 17.4285714,12.9142857 C18,13.4571429 18.2571429,14.2571429 18.2571429,15.3428571 C18.2571429,15.9142857 18.2,16.4 18.0571429,16.8571429 C17.9428571,17.2857143 17.7428571,17.6571429 17.4857143,17.9714286 C17.2285714,18.2571429 16.8857143,18.4857143 16.4857143,18.6571429 C16.0857143,18.8285714 15.6,18.8857143 15.0285714,18.8857143 L12.7142857,18.8857143 L12.7142857,12.1428571 L15.0285714,12.1428571 L15.0285714,12.1142857 Z M15.1142857,18.0857143 C15.2285714,18.0857143 15.3428571,18.0857143 15.4857143,18.0571429 C15.6285714,18.0285714 15.8,18 15.9714286,17.9428571 C16.1428571,17.8857143 16.3142857,17.8 16.4857143,17.6857143 C16.6571429,17.5714286 16.8,17.4285714 16.9428571,17.2285714 C17.0857143,17.0285714 17.1714286,16.8 17.2571429,16.4857143 C17.3428571,16.2 17.3714286,15.8285714 17.3714286,15.4285714 C17.3714286,15.0285714 17.3428571,14.6571429 17.2571429,14.3428571 C17.1714286,14.0285714 17.0571429,13.7428571 16.8571429,13.5428571 C16.6857143,13.3142857 16.4571429,13.1428571 16.1714286,13.0285714 C15.8857143,12.9142857 15.5428571,12.8571429 15.1142857,12.8571429 L13.6,12.8571429 L13.6,18.0857143 L15.1142857,18.0857143 L15.1142857,18.0857143 Z" id="Shape"></path>
                            <rect id="Rectangle-path" x="19.4" y="12.1142857" width="1" height="6.74285714"></rect>
                            <path d="M25.8857143,13.0571429 C25.5428571,12.8285714 25.1428571,12.6857143 24.6571429,12.6857143 C24.2571429,12.6857143 23.9142857,12.7714286 23.6285714,12.9142857 C23.3428571,13.0571429 23.1142857,13.2571429 22.9142857,13.5142857 C22.7142857,13.7714286 22.6,14.0571429 22.5142857,14.4 C22.4285714,14.7142857 22.3714286,15.0571429 22.3714286,15.4285714 C22.3714286,15.8 22.4285714,16.1714286 22.5142857,16.5142857 C22.6,16.8571429 22.7428571,17.1428571 22.9142857,17.4 C23.1142857,17.6571429 23.3428571,17.8571429 23.6285714,18 C23.9142857,18.1428571 24.2571429,18.2285714 24.6571429,18.2285714 C24.9428571,18.2285714 25.2285714,18.1714286 25.4571429,18.0857143 C25.6857143,18 25.8857143,17.8571429 26.0571429,17.6857143 C26.2285714,17.5142857 26.3428571,17.3142857 26.4571429,17.0571429 C26.5428571,16.8285714 26.6,16.5714286 26.6285714,16.2857143 L27.5142857,16.2857143 C27.4285714,17.1428571 27.1428571,17.8 26.6285714,18.2571429 C26.1428571,18.7142857 25.4571429,18.9714286 24.6,18.9714286 C24.0857143,18.9714286 23.6285714,18.8857143 23.2285714,18.7142857 C22.8285714,18.5428571 22.5142857,18.2857143 22.2571429,17.9714286 C22,17.6571429 21.8,17.2857143 21.6857143,16.8571429 C21.5428571,16.4285714 21.4857143,15.9714286 21.4857143,15.4857143 C21.4857143,15 21.5428571,14.5428571 21.6857143,14.1142857 C21.8285714,13.6857143 22.0285714,13.3142857 22.2857143,13 C22.5428571,12.6857143 22.8857143,12.4285714 23.2857143,12.2285714 C23.6857143,12.0571429 24.1428571,11.9428571 24.6571429,11.9428571 C25,11.9428571 25.3428571,12 25.6571429,12.0857143 C25.9714286,12.1714286 26.2571429,12.3142857 26.4857143,12.4857143 C26.7428571,12.6571429 26.9428571,12.8857143 27.0857143,13.1714286 C27.2571429,13.4571429 27.3428571,13.7714286 27.4,14.1142857 L26.5142857,14.1142857 C26.4285714,13.6571429 26.2285714,13.2857143 25.8857143,13.0571429" id="Shape"></path>
                            <rect id="Rectangle-path" x="28.6571429" y="12.1142857" width="1" height="6.74285714"></rect>
                            <path d="M33.8857143,12.1142857 L36.5142857,18.8571429 L35.5142857,18.8571429 L34.7714286,16.8285714 L31.9142857,16.8285714 L31.1714286,18.8571429 L30.2571429,18.8571429 L32.8857143,12.1142857 L33.8857143,12.1142857 L33.8857143,12.1142857 Z M34.4857143,16.0571429 L33.3714286,12.9142857 L33.3428571,12.9142857 L32.2,16.0571429 L34.4857143,16.0571429 L34.4857143,16.0571429 Z" id="Shape"></path>
                            <polygon id="Shape" points="38.0571429 12.1142857 38.0571429 18.0857143 41.6285714 18.0857143 41.6285714 18.8285714 37.1714286 18.8285714 37.1714286 12.1142857"></polygon>
                            <path d="M48.2,12.1142857 C48.8285714,12.1142857 49.3428571,12.2571429 49.7142857,12.5714286 C50.0857143,12.8857143 50.2571429,13.3142857 50.2571429,13.8571429 C50.2571429,14.2571429 50.1714286,14.6285714 49.9714286,14.9428571 C49.8,15.2571429 49.4857143,15.4571429 49.0857143,15.5714286 L49.0857143,15.6 C49.2857143,15.6285714 49.4285714,15.7142857 49.5714286,15.8 C49.6857143,15.8857143 49.8,16 49.8571429,16.1142857 C49.9428571,16.2285714 49.9714286,16.3714286 50.0285714,16.5142857 C50.0571429,16.6571429 50.0857143,16.8285714 50.1142857,16.9714286 C50.1142857,17.1428571 50.1428571,17.3142857 50.1428571,17.4857143 C50.1428571,17.6571429 50.1714286,17.8285714 50.2,18 C50.2285714,18.1714286 50.2571429,18.3142857 50.3142857,18.4571429 C50.3714286,18.6 50.4285714,18.7428571 50.5142857,18.8571429 L49.5142857,18.8571429 C49.4571429,18.8 49.4,18.6857143 49.4,18.5714286 C49.3714286,18.4571429 49.3714286,18.3142857 49.3714286,18.1714286 C49.3714286,18.0285714 49.3714286,17.8571429 49.3428571,17.6857143 C49.3428571,17.5142857 49.3142857,17.3428571 49.2857143,17.2 C49.2571429,17.0285714 49.2285714,16.8857143 49.2,16.7428571 C49.1714286,16.6 49.1142857,16.4571429 49.0285714,16.3428571 C48.9428571,16.2285714 48.8285714,16.1428571 48.7142857,16.0857143 C48.5714286,16.0285714 48.4,16 48.2,16 L46,16 L46,18.8857143 L45.1142857,18.8857143 L45.1142857,12.1428571 L48.2,12.1428571 L48.2,12.1142857 Z M48.3714286,15.1714286 C48.5714286,15.1428571 48.7142857,15.0857143 48.8571429,15 C49,14.9142857 49.1142857,14.7714286 49.2,14.6285714 C49.2857143,14.4857143 49.3142857,14.2857143 49.3142857,14.0285714 C49.3142857,13.6857143 49.2285714,13.4 49.0285714,13.2 C48.8285714,13 48.5428571,12.8857143 48.1142857,12.8857143 L45.8857143,12.8857143 L45.8857143,15.2285714 L47.7428571,15.2285714 C48,15.2 48.2,15.2 48.3714286,15.1714286 L48.3714286,15.1714286 Z" id="Shape"></path>
                            <polygon id="Shape" points="56.1428571 12.1142857 56.1428571 12.8571429 52.3714286 12.8571429 52.3714286 15 55.8857143 15 55.8857143 15.7428571 52.3714286 15.7428571 52.3714286 18.0857143 56.1714286 18.0857143 56.1714286 18.8285714 51.4857143 18.8285714 51.4857143 12.1142857"></polygon>
                            <polygon id="Shape" points="61.6571429 12.1142857 61.6571429 12.8571429 58.1428571 12.8571429 58.1428571 15 61.2285714 15 61.2285714 15.7428571 58.1428571 15.7428571 58.1428571 18.8285714 57.2571429 18.8285714 57.2571429 12.1142857"></polygon>
                            <path d="M62.4857143,14.1428571 C62.6285714,13.7142857 62.8285714,13.3428571 63.0857143,13.0285714 C63.3428571,12.7142857 63.6857143,12.4285714 64.0857143,12.2571429 C64.4857143,12.0571429 64.9428571,11.9714286 65.4857143,11.9714286 C66.0285714,11.9714286 66.4857143,12.0571429 66.8857143,12.2571429 C67.2857143,12.4571429 67.6285714,12.7142857 67.8857143,13.0285714 C68.1428571,13.3428571 68.3714286,13.7428571 68.4857143,14.1428571 C68.6285714,14.5714286 68.6857143,15 68.6857143,15.4571429 C68.6857143,15.9142857 68.6285714,16.3714286 68.4857143,16.7714286 C68.3428571,17.2 68.1428571,17.5714286 67.8857143,17.8857143 C67.6285714,18.2 67.2857143,18.4857143 66.8857143,18.6571429 C66.4857143,18.8571429 66,18.9428571 65.4857143,18.9428571 C64.9428571,18.9428571 64.4857143,18.8571429 64.0857143,18.6571429 C63.6857143,18.4571429 63.3428571,18.2 63.0857143,17.8857143 C62.8285714,17.5714286 62.6,17.1714286 62.4857143,16.7714286 C62.3428571,16.3428571 62.2857143,15.9142857 62.2857143,15.4571429 C62.2857143,15 62.3428571,14.5714286 62.4857143,14.1428571 M63.3142857,16.4857143 C63.4,16.8285714 63.5428571,17.1142857 63.7142857,17.3714286 C63.9142857,17.6285714 64.1428571,17.8571429 64.4285714,18 C64.7142857,18.1714286 65.0857143,18.2285714 65.4857143,18.2285714 C65.8857143,18.2285714 66.2571429,18.1428571 66.5428571,18 C66.8285714,17.8285714 67.0857143,17.6285714 67.2571429,17.3714286 C67.4571429,17.1142857 67.5714286,16.8 67.6857143,16.4857143 C67.7714286,16.1428571 67.8285714,15.8285714 67.8285714,15.4857143 C67.8285714,15.1428571 67.8,14.8 67.6857143,14.4857143 C67.6,14.1428571 67.4571429,13.8571429 67.2571429,13.6 C67.0571429,13.3428571 66.8285714,13.1142857 66.5428571,12.9714286 C66.2571429,12.8 65.8857143,12.7428571 65.4857143,12.7428571 C65.0857143,12.7428571 64.7142857,12.8285714 64.4285714,12.9714286 C64.1428571,13.1428571 63.8857143,13.3428571 63.7142857,13.6 C63.5142857,13.8571429 63.4,14.1714286 63.3142857,14.4857143 C63.2285714,14.8285714 63.1714286,15.1428571 63.1714286,15.4857143 C63.1714286,15.8 63.2285714,16.1428571 63.3142857,16.4857143" id="Shape"></path>
                            <path d="M73,12.1142857 C73.6571429,12.1142857 74.1428571,12.2571429 74.5142857,12.5714286 C74.8857143,12.8857143 75.0571429,13.3142857 75.0571429,13.8571429 C75.0571429,14.2571429 74.9714286,14.6285714 74.7714286,14.9428571 C74.6,15.2571429 74.2857143,15.4571429 73.8857143,15.5714286 L73.8857143,15.6 C74.0857143,15.6285714 74.2285714,15.7142857 74.3714286,15.8 C74.4857143,15.8857143 74.6,16 74.6571429,16.1142857 C74.7428571,16.2285714 74.7714286,16.3714286 74.8285714,16.5142857 C74.8571429,16.6571429 74.8857143,16.8285714 74.9142857,16.9714286 C74.9142857,17.1428571 74.9428571,17.3142857 74.9428571,17.4857143 C74.9428571,17.6571429 74.9714286,17.8285714 75,18 C75.0285714,18.1714286 75.0571429,18.3142857 75.1142857,18.4571429 C75.1714286,18.6 75.2285714,18.7428571 75.3142857,18.8571429 L74.2857143,18.8571429 C74.2285714,18.8 74.1714286,18.6857143 74.1714286,18.5714286 C74.1428571,18.4571429 74.1428571,18.3142857 74.1428571,18.1714286 C74.1428571,18.0285714 74.1428571,17.8571429 74.1142857,17.6857143 C74.1142857,17.5142857 74.0857143,17.3428571 74.0571429,17.2 C74.0285714,17.0285714 74,16.8857143 73.9714286,16.7428571 C73.9428571,16.6 73.8857143,16.4571429 73.8,16.3428571 C73.7142857,16.2285714 73.6,16.1428571 73.4857143,16.0857143 C73.3428571,16.0285714 73.1714286,16 72.9714286,16 L70.7714286,16 L70.7714286,18.8857143 L69.8857143,18.8857143 L69.8857143,12.1428571 L73,12.1428571 L73,12.1142857 Z M73.1714286,15.1714286 C73.3714286,15.1428571 73.5142857,15.0857143 73.6571429,15 C73.8,14.9142857 73.9142857,14.7714286 74,14.6285714 C74.0857143,14.4857143 74.1142857,14.2857143 74.1142857,14.0285714 C74.1142857,13.6857143 74.0285714,13.4 73.8285714,13.2 C73.6285714,13 73.3428571,12.8857143 72.9142857,12.8857143 L70.6857143,12.8857143 L70.6857143,15.2285714 L72.5428571,15.2285714 C72.8,15.2 73,15.2 73.1714286,15.1714286 L73.1714286,15.1714286 Z" id="Shape"></path>
                            <polygon id="Shape" points="77.5142857 12.1142857 79.6571429 17.7714286 81.7714286 12.1142857 83 12.1142857 83 18.8285714 82.1428571 18.8285714 82.1428571 13.2285714 82.1428571 13.2285714 80.0285714 18.8285714 79.2857143 18.8285714 77.1714286 13.2285714 77.1428571 13.2285714 77.1428571 18.8285714 76.3142857 18.8285714 76.3142857 12.1142857"></polygon>
                            <polygon id="Shape" points="91.5428571 12.1142857 91.5428571 12.8571429 88 12.8571429 88 15 91.1142857 15 91.1142857 15.7428571 88 15.7428571 88 18.8285714 87.1142857 18.8285714 87.1142857 12.1142857"></polygon>
                            <path d="M92.3428571,14.1428571 C92.4857143,13.7142857 92.6857143,13.3428571 92.9428571,13.0285714 C93.2285714,12.7142857 93.5428571,12.4285714 93.9428571,12.2571429 C94.3428571,12.0571429 94.8285714,11.9714286 95.3428571,11.9714286 C95.8857143,11.9714286 96.3428571,12.0571429 96.7428571,12.2571429 C97.1428571,12.4571429 97.4857143,12.7142857 97.7428571,13.0285714 C98,13.3428571 98.2285714,13.7428571 98.3428571,14.1428571 C98.4857143,14.5714286 98.5428571,15 98.5428571,15.4571429 C98.5428571,15.9142857 98.4857143,16.3714286 98.3428571,16.7714286 C98.2,17.2 98,17.5714286 97.7428571,17.8857143 C97.4857143,18.2 97.1428571,18.4857143 96.7428571,18.6571429 C96.3428571,18.8571429 95.8857143,18.9428571 95.3428571,18.9428571 C94.8,18.9428571 94.3428571,18.8571429 93.9428571,18.6571429 C93.5428571,18.4571429 93.2,18.2 92.9428571,17.8857143 C92.6857143,17.5714286 92.4571429,17.1714286 92.3428571,16.7714286 C92.2,16.3428571 92.1428571,15.9142857 92.1428571,15.4571429 C92.1428571,15 92.2285714,14.5714286 92.3428571,14.1428571 M93.1714286,16.4857143 C93.2571429,16.8285714 93.4,17.1142857 93.6,17.3714286 C93.8,17.6285714 94.0285714,17.8571429 94.3142857,18 C94.6,18.1714286 94.9714286,18.2285714 95.3714286,18.2285714 C95.7714286,18.2285714 96.1428571,18.1428571 96.4285714,18 C96.7142857,17.8285714 96.9714286,17.6285714 97.1428571,17.3714286 C97.3428571,17.1142857 97.4571429,16.8 97.5714286,16.4857143 C97.6571429,16.1428571 97.7142857,15.8285714 97.7142857,15.4857143 C97.7142857,15.1428571 97.6571429,14.8 97.5714286,14.4857143 C97.4857143,14.1428571 97.3428571,13.8571429 97.1428571,13.6 C96.9428571,13.3428571 96.7142857,13.1142857 96.4285714,12.9714286 C96.1428571,12.8 95.7714286,12.7428571 95.3714286,12.7428571 C94.9714286,12.7428571 94.6,12.8285714 94.3142857,12.9714286 C94.0285714,13.1428571 93.7714286,13.3428571 93.6,13.6 C93.4,13.8571429 93.2857143,14.1714286 93.1714286,14.4857143 C93.0857143,14.8285714 93.0285714,15.1428571 93.0285714,15.4857143 C93.0571429,15.8 93.0857143,16.1428571 93.1714286,16.4857143" id="Shape"></path>
                            <path d="M104.371429,18.3428571 C103.914286,18.7714286 103.257143,19 102.4,19 C101.542857,19 100.857143,18.8 100.371429,18.3714286 C99.8857143,17.9714286 99.6285714,17.3142857 99.6285714,16.4 L99.6285714,12.0857143 L100.514286,12.0857143 L100.514286,16.4 C100.514286,17 100.685714,17.4571429 101,17.7714286 C101.314286,18.0857143 101.771429,18.2285714 102.371429,18.2285714 C102.942857,18.2285714 103.371429,18.0857143 103.685714,17.7714286 C103.971429,17.4571429 104.142857,17 104.142857,16.4 L104.142857,12.0857143 L105.028571,12.0857143 L105.028571,16.4 C105.057143,17.2571429 104.828571,17.9142857 104.371429,18.3428571" id="Shape"></path>
                            <polygon id="Shape" points="107.428571 12.1142857 111 17.5714286 111 17.5714286 111 12.1142857 111.857143 12.1142857 111.857143 18.8285714 110.885714 18.8285714 107.371429 13.4285714 107.342857 13.4285714 107.342857 18.8285714 106.485714 18.8285714 106.485714 12.1142857"></polygon>
                            <path d="M115.628571,12.1142857 C116.657143,12.1142857 117.457143,12.3714286 118.028571,12.9142857 C118.6,13.4571429 118.857143,14.2571429 118.857143,15.3428571 C118.857143,15.9142857 118.8,16.4 118.657143,16.8571429 C118.542857,17.2857143 118.342857,17.6571429 118.085714,17.9714286 C117.828571,18.2571429 117.485714,18.4857143 117.085714,18.6571429 C116.685714,18.8285714 116.2,18.8857143 115.628571,18.8857143 L113.314286,18.8857143 L113.314286,12.1428571 L115.628571,12.1428571 L115.628571,12.1142857 Z M115.685714,18.0857143 C115.8,18.0857143 115.914286,18.0857143 116.057143,18.0571429 C116.2,18.0285714 116.371429,18 116.542857,17.9428571 C116.714286,17.8857143 116.885714,17.8 117.057143,17.6857143 C117.228571,17.5714286 117.371429,17.4285714 117.514286,17.2285714 C117.657143,17.0285714 117.742857,16.8 117.828571,16.4857143 C117.914286,16.2 117.942857,15.8285714 117.942857,15.4285714 C117.942857,15.0285714 117.914286,14.6571429 117.828571,14.3428571 C117.742857,14.0285714 117.628571,13.7428571 117.428571,13.5428571 C117.257143,13.3142857 117.028571,13.1428571 116.742857,13.0285714 C116.457143,12.9142857 116.114286,12.8571429 115.685714,12.8571429 L114.171429,12.8571429 L114.171429,18.0857143 L115.685714,18.0857143 L115.685714,18.0857143 Z" id="Shape"></path>
                            <path d="M122.771429,12.1142857 L125.4,18.8571429 L124.4,18.8571429 L123.657143,16.8285714 L120.8,16.8285714 L120.057143,18.8571429 L119.142857,18.8571429 L121.771429,12.1142857 L122.771429,12.1142857 L122.771429,12.1142857 Z M123.4,16.0571429 L122.285714,12.9142857 L122.257143,12.9142857 L121.114286,16.0571429 L123.4,16.0571429 L123.4,16.0571429 Z" id="Shape"></path>
                            <polygon id="Shape" points="125.342857 12.8571429 125.342857 12.1142857 130.714286 12.1142857 130.714286 12.8571429 128.485714 12.8571429 128.485714 18.8285714 127.571429 18.8285714 127.571429 12.8571429"></polygon>
                            <rect id="Rectangle-path" x="131.485714" y="12.1142857" width="1" height="6.74285714"></rect>
                            <path d="M133.742857,14.1428571 C133.885714,13.7142857 134.085714,13.3428571 134.342857,13.0285714 C134.6,12.7142857 134.942857,12.4285714 135.342857,12.2571429 C135.742857,12.0571429 136.2,11.9714286 136.742857,11.9714286 C137.285714,11.9714286 137.742857,12.0571429 138.142857,12.2571429 C138.542857,12.4571429 138.885714,12.7142857 139.142857,13.0285714 C139.428571,13.3428571 139.628571,13.7428571 139.742857,14.1428571 C139.885714,14.5714286 139.942857,15 139.942857,15.4571429 C139.942857,15.9142857 139.885714,16.3714286 139.742857,16.7714286 C139.6,17.2 139.4,17.5714286 139.142857,17.8857143 C138.885714,18.2 138.542857,18.4857143 138.142857,18.6571429 C137.742857,18.8571429 137.285714,18.9428571 136.742857,18.9428571 C136.2,18.9428571 135.742857,18.8571429 135.342857,18.6571429 C134.942857,18.4571429 134.6,18.2 134.342857,17.8857143 C134.085714,17.5714286 133.857143,17.1714286 133.742857,16.7714286 C133.6,16.3428571 133.542857,15.9142857 133.542857,15.4571429 C133.542857,15 133.6,14.5714286 133.742857,14.1428571 M134.571429,16.4857143 C134.657143,16.8285714 134.8,17.1142857 135,17.3714286 C135.2,17.6285714 135.428571,17.8571429 135.714286,18 C136,18.1714286 136.371429,18.2285714 136.771429,18.2285714 C137.171429,18.2285714 137.542857,18.1428571 137.828571,18 C138.114286,17.8285714 138.371429,17.6285714 138.542857,17.3714286 C138.742857,17.1142857 138.857143,16.8 138.942857,16.4857143 C139.028571,16.1428571 139.085714,15.8285714 139.085714,15.4857143 C139.085714,15.1428571 139.028571,14.8 138.942857,14.4857143 C138.857143,14.1428571 138.714286,13.8571429 138.542857,13.6 C138.342857,13.3428571 138.114286,13.1142857 137.828571,12.9714286 C137.542857,12.8 137.171429,12.7428571 136.771429,12.7428571 C136.371429,12.7428571 136,12.8285714 135.714286,12.9714286 C135.428571,13.1428571 135.171429,13.3428571 135,13.6 C134.8,13.8571429 134.685714,14.1714286 134.571429,14.4857143 C134.485714,14.8285714 134.428571,15.1428571 134.428571,15.4857143 C134.428571,15.8 134.485714,16.1428571 134.571429,16.4857143" id="Shape"></path>
                            <polygon id="Shape" points="142.028571 12.1142857 145.571429 17.5714286 145.571429 17.5714286 145.571429 12.1142857 146.428571 12.1142857 146.428571 18.8285714 145.457143 18.8285714 141.942857 13.4285714 141.914286 13.4285714 141.914286 18.8285714 141.057143 18.8285714 141.057143 12.1142857"></polygon>
                        </g>
                        <g id="Shape">
                            <path d="M22.1714286,11.3142857 C22.0285714,11.3142857 21.8857143,11.2285714 21.8285714,11.1142857 C19.7142857,7.28571429 15.8571429,4.97142857 11.5142857,4.97142857 C7.14285714,4.97142857 3.2,7.25714286 1.02857143,11.1142857 C0.914285714,11.3142857 0.685714286,11.3714286 0.485714286,11.2571429 C0.285714286,11.1428571 0.228571429,10.9142857 0.342857143,10.7142857 C2.65714286,6.6 6.8,4.17142857 11.4571429,4.17142857 L11.5142857,4.17142857 C16.1428571,4.2 20.2571429,6.62857143 22.5142857,10.7428571 C22.6285714,10.9428571 22.5428571,11.1714286 22.3714286,11.2857143 C22.2857143,11.2857143 22.2285714,11.3142857 22.1714286,11.3142857 L22.1714286,11.3142857 Z" fill="#000000"></path>
                            <polygon fill="url(#linearGradient-1)" points="11.4571429 25.9428571 13.7142857 27.7428571 11.4857143 0.257142857 9.22857143 27.7428571"></polygon>
                            <g transform="translate(12.857143, 6.285714)" fill="#AD1C3D">
                                <path d="M1.25714286,10.5428571 L2.08571429,17.8857143 C5.6,17.9714286 8.14285714,14.8 8.2,10.5428571 L1.25714286,10.5428571 L1.25714286,10.5428571 Z"></path>
                                <path d="M1.11428571,9.11428571 L8.17142857,9.11428571 L8.17142857,9.11428571 C8.14285714,8.88571429 8.11428571,8.65714286 8.05714286,8.45714286 L1.02857143,8.45714286 L1.11428571,9.11428571 L1.11428571,9.11428571 Z"></path>
                                <path d="M8.17142857,9.48571429 L1.14285714,9.48571429 L1.22857143,10.1714286 L8.22857143,10.1714286 C8.22857143,9.94285714 8.2,9.71428571 8.17142857,9.48571429 L8.17142857,9.48571429 Z"></path>
                                <path d="M8,8.05714286 C7.08571429,3.6 3.71428571,0.0857142857 0.0857142857,0 L1,8.05714286 L8,8.05714286 L8,8.05714286 Z"></path>
                            </g>
                            <g transform="translate(1.714286, 6.285714)" fill="#AD1C3D">
                                <path d="M0.257142857,9.11428571 L7.31428571,9.11428571 L7.4,8.42857143 L0.371428571,8.42857143 C0.314285714,8.65714286 0.285714286,8.88571429 0.257142857,9.11428571 L0.257142857,9.11428571 Z"></path>
                                <path d="M7.42857143,8.05714286 L8.34285714,0 C4.71428571,0.0857142857 1.34285714,3.6 0.428571429,8.05714286 L7.42857143,8.05714286 L7.42857143,8.05714286 Z"></path>
                                <path d="M0.2,10.5428571 C0.257142857,14.8 2.8,17.9714286 6.34285714,17.8857143 L7.17142857,10.5428571 L0.2,10.5428571 L0.2,10.5428571 Z"></path>
                                <path d="M7.25714286,9.48571429 L0.228571429,9.48571429 C0.2,9.71428571 0.2,9.94285714 0.2,10.1714286 L7.2,10.1714286 L7.25714286,9.48571429 L7.25714286,9.48571429 Z"></path>
                            </g>
                        </g>
                    </g>
                </g>
            </g>
        </g>
    </g>
</svg>