<?xml version="1.0" encoding="UTF-8"?>
<svg width="188px" height="20px" viewBox="0 0 188 20" version="1.1" xmlns="http://www.w3.org/2000/svg" xmlns:xlink="http://www.w3.org/1999/xlink">
    <!-- Generator: Sketch 43.1 (39012) - http://www.bohemiancoding.com/sketch -->
    <title>logo</title>
    <desc>Created with Sketch.</desc>
    <defs></defs>
    <g id="_Client" stroke="none" stroke-width="1" fill="none" fill-rule="evenodd">
        <g id="JudeCreativePartners-Copy" transform="translate(-25.000000, -35.000000)">
            <g id="logo" transform="translate(25.000000, 35.000000)">
                <path d="M98.3145737,14.8771655 C97.7821278,14.8771655 97.5002447,14.7205638 97.3123226,14.3133992 L93.6478418,4.94861505 L94.744054,4.94861505 L98.1892924,13.6869923 C98.2206127,13.749633 98.2519331,13.843594 98.3145737,13.843594 C98.3772144,13.843594 98.4085348,13.749633 98.4398551,13.7183126 L101.885093,4.9799354 L102.981306,4.9799354 L99.2855046,14.3447196 C99.1289028,14.6579231 98.8470197,14.8771655 98.3145737,14.8771655 L98.3145737,14.8771655 Z M65.9606538,14.8145248 C63.1731428,14.8145248 60.8867574,12.5594597 60.8867574,9.74062836 C60.8867574,6.921797 63.1731428,4.66673192 65.9606538,4.66673192 C67.7459137,4.66673192 69.3432514,5.57502202 70.2828619,7.07839875 L70.3141822,7.14103944 L63.3297445,11.8390917 L62.7659783,11.0247627 L68.8734462,6.921797 C68.1217579,6.13878829 67.056866,5.70030342 65.9606538,5.70030342 C63.7369091,5.70030342 61.9203289,7.51688363 61.9203289,9.74062836 C61.9203289,11.9643731 63.7369091,13.7809533 65.9606538,13.7809533 C68.1217579,13.7809533 69.9070177,12.0896545 70.0009788,9.92855046 L70.0009788,9.86590976 L71.0345503,9.86590976 L71.0345503,9.9598708 C70.8779485,12.7160615 68.6855241,14.8771655 65.9606538,14.8145248 L65.9606538,14.8145248 Z M108.556328,14.8771655 C105.768817,14.8771655 103.482431,12.6221004 103.482431,9.80326906 C103.482431,6.9844377 105.768817,4.72937261 108.556328,4.72937261 C110.341588,4.72937261 111.938925,5.63766272 112.878536,7.14103944 L112.909856,7.20368014 L105.925418,11.9017324 L105.361652,11.0874033 L111.46912,6.9844377 C110.717432,6.20142899 109.65254,5.76294411 108.556328,5.76294411 C106.332583,5.76294411 104.516003,7.57952432 104.516003,9.80326906 C104.516003,12.0270138 106.332583,13.843594 108.556328,13.843594 C110.717432,13.843594 112.502692,12.1522952 112.596653,9.99119115 L112.596653,9.92855046 L113.630224,9.92855046 L113.630224,10.0225115 C113.473622,12.7160615 111.249878,14.8771655 108.556328,14.8771655 L108.556328,14.8771655 Z M77.0480572,5.76294411 C74.8243124,5.76294411 73.0077322,7.57952432 73.0077322,9.80326906 C73.0077322,12.0270138 74.8243124,13.843594 77.0480572,13.843594 C79.2718019,13.843594 81.0883821,12.0270138 81.0883821,9.80326906 C81.0883821,7.57952432 79.3031222,5.76294411 77.0480572,5.76294411 L77.0480572,5.76294411 Z M77.0480572,14.8771655 C74.2605461,14.8771655 71.9741607,12.6221004 71.9741607,9.80326906 C71.9741607,6.9844377 74.2605461,4.72937261 77.0480572,4.72937261 C78.6453949,4.72937261 80.1174513,5.48106098 81.0883821,6.76519526 L81.0883821,4.94861505 L82.1219536,4.94861505 L82.1219536,14.6579231 L81.0883821,14.6579231 L81.0883821,12.8413429 C80.180092,14.0941568 78.6767153,14.8771655 77.0480572,14.8771655 L77.0480572,14.8771655 Z M53.6204365,13.9688754 C52.8061075,14.5326417 51.8351767,14.8458452 50.8016052,14.8458452 C48.0140942,14.8458452 45.7277087,12.5907801 45.7277087,9.77194871 C45.7277087,6.95311735 48.0140942,4.69805227 50.8016052,4.69805227 C51.8038563,4.69805227 52.7434668,5.01125575 53.5577958,5.51238133 L52.7747871,6.20142899 C52.1797005,5.85690516 51.5219732,5.66898307 50.8016052,5.66898307 C48.5778604,5.66898307 46.7612802,7.48556328 46.7612802,9.70930802 C46.7612802,11.9330528 48.5778604,13.749633 50.8016052,13.749633 C51.5219732,13.749633 52.1797005,13.5617109 52.7747871,13.217187 L53.6204365,13.9688754 L53.6204365,13.9688754 L53.6204365,13.9688754 Z M87.1645297,14.6266027 C85.3479495,14.6266027 84.314378,13.5930312 84.314378,11.8077714 L84.314378,2.28638544 L85.3479495,2.28638544 L85.3479495,4.9172947 L88.6679064,4.9172947 L88.6679064,5.9508662 L85.3479495,5.9508662 L85.3479495,11.8077714 C85.3479495,13.029265 85.9430361,13.6243516 87.1958501,13.6243516 L88.6679064,13.6243516 L88.6679064,14.6579231 L87.1645297,14.6266027 L87.1645297,14.6266027 L87.1645297,14.6266027 Z M91.4240971,3.82108251 C90.9856122,3.82108251 90.6724087,3.47655868 90.6724087,3.06939415 C90.6724087,2.63090927 91.0169326,2.31770578 91.4240971,2.31770578 C91.8312616,2.31770578 92.1757855,2.66222962 92.1757855,3.06939415 C92.1757855,3.50787903 91.8312616,3.82108251 91.4240971,3.82108251 L91.4240971,3.82108251 Z M90.8916512,14.6266027 L90.8916512,4.9172947 L91.9252227,4.9172947 L91.9252227,14.6266027 L90.8916512,14.6266027 L90.8916512,14.6266027 Z M55.7188999,14.6266027 L55.7188999,4.9172947 L56.7524714,4.9172947 L56.7524714,6.17010864 C57.4728394,5.38709993 58.4437702,4.9172947 59.4460213,4.9172947 L60.4169521,4.9172947 L60.4169521,5.9508662 L59.4460213,5.9508662 C58.3498091,5.9508662 57.4101987,6.70255457 57.0969952,7.48556328 C57.0969952,7.48556328 56.7524714,8.17461094 56.7524714,8.61309582 L56.7524714,14.6579231 L55.7188999,14.6579231 L55.7188999,14.6266027 L55.7188999,14.6266027 Z M160.610747,14.6266027 L160.610747,8.73837721 C160.610747,6.9844377 159.420574,5.76294411 157.729275,5.76294411 C156.037976,5.76294411 154.847803,6.9844377 154.847803,8.73837721 L154.847803,14.6266027 L153.814231,14.6266027 L153.814231,8.73837721 C153.814231,6.42067143 155.47421,4.72937261 157.729275,4.72937261 C159.98434,4.72937261 161.644318,6.42067143 161.644318,8.73837721 L161.644318,14.6266027 L160.610747,14.6266027 L160.610747,14.6266027 L160.610747,14.6266027 Z M180.279926,14.6266027 L180.279926,13.5930312 L184.664774,13.5930312 C186.10551,13.5930312 186.794558,13.0919056 186.794558,12.1522952 C186.794558,10.7741999 185.322502,10.429676 183.819125,10.0538318 C182.096506,9.64666732 180.311246,9.27082314 180.311246,7.29764119 C180.311246,5.85690516 181.376138,4.88597436 182.848194,4.88597436 L187.233043,4.88597436 L187.233043,5.91954585 L182.910835,5.91954585 C182.221787,5.91954585 181.407458,6.35803073 181.407458,7.29764119 C181.407458,8.45649408 182.754233,8.76969756 184.194969,9.08290105 C185.948909,9.49006558 187.953411,9.89723011 187.953411,12.0270138 C187.953411,13.7183126 186.763238,14.6266027 184.508173,14.6266027 L180.279926,14.6266027 L180.279926,14.6266027 L180.279926,14.6266027 Z M168.503475,14.8145248 C165.715964,14.8145248 163.429578,12.5594597 163.429578,9.74062836 C163.429578,6.921797 165.715964,4.66673192 168.503475,4.66673192 C170.288734,4.66673192 171.886072,5.57502202 172.825683,7.07839875 L172.857003,7.14103944 L165.872565,11.8390917 L165.308799,11.0247627 L171.416267,6.921797 C170.664579,6.13878829 169.599687,5.70030342 168.503475,5.70030342 C166.27973,5.70030342 164.46315,7.51688363 164.46315,9.74062836 C164.46315,11.9643731 166.27973,13.7809533 168.503475,13.7809533 C170.664579,13.7809533 172.449839,12.0896545 172.5438,9.92855046 L172.5438,9.86590976 L173.577371,9.86590976 L173.577371,9.9598708 C173.48341,12.7160615 171.259665,14.8771655 168.503475,14.8145248 L168.503475,14.8145248 Z M134.80278,5.76294411 C132.579035,5.76294411 130.762455,7.57952432 130.762455,9.80326906 C130.762455,12.0270138 132.579035,13.843594 134.80278,13.843594 C137.026524,13.843594 138.843105,12.0270138 138.843105,9.80326906 C138.843105,7.57952432 137.026524,5.76294411 134.80278,5.76294411 L134.80278,5.76294411 Z M134.80278,14.8145248 C132.015269,14.8145248 129.728883,12.5594597 129.728883,9.74062836 C129.728883,6.921797 132.015269,4.66673192 134.80278,4.66673192 C136.400117,4.66673192 137.872174,5.41842028 138.843105,6.70255457 L138.843105,4.88597436 L139.876676,4.88597436 L139.876676,14.5952824 L138.843105,14.5952824 L138.843105,12.7787022 C137.872174,14.0941568 136.368797,14.8771655 134.80278,14.8145248 L134.80278,14.8145248 Z M150.776157,14.6266027 C148.959577,14.6266027 147.926006,13.5930312 147.926006,11.8077714 L147.926006,2.28638544 L148.959577,2.28638544 L148.959577,4.9172947 L152.279534,4.9172947 L152.279534,5.9508662 L148.959577,5.9508662 L148.959577,11.8077714 C148.959577,13.029265 149.554664,13.6243516 150.807478,13.6243516 L152.279534,13.6243516 L152.279534,14.6579231 L150.776157,14.6266027 L150.776157,14.6266027 L150.776157,14.6266027 Z M124.0599,13.843594 C121.930116,13.843594 120.332779,12.1209748 120.332779,9.80326906 C120.332779,7.48556328 121.930116,5.76294411 124.0599,5.76294411 C126.189684,5.76294411 127.787022,7.48556328 127.787022,9.80326906 C127.787022,12.1209748 126.189684,13.843594 124.0599,13.843594 L124.0599,13.843594 Z M124.0599,4.72937261 C122.493883,4.72937261 121.209748,5.41842028 120.332779,6.57727317 L120.332779,4.72937261 L119.330528,4.72937261 L119.330528,19.1993736 L120.364099,19.1993736 L120.364099,12.9666243 C121.272389,14.1567975 122.587844,14.8145248 124.091221,14.8145248 C126.816091,14.8145248 128.820593,12.6221004 128.820593,9.74062836 C128.789273,6.921797 126.75345,4.72937261 124.0599,4.72937261 L124.0599,4.72937261 Z" id="Shape" fill="#414042"></path>
                <path d="M142.00646,14.6266027 L142.00646,4.9172947 L143.040031,4.9172947 L143.040031,6.17010864 C143.760399,5.38709993 144.73133,4.9172947 145.733581,4.9172947 L146.704512,4.9172947 L146.704512,5.9508662 L145.733581,5.9508662 C144.637369,5.9508662 143.697759,6.70255457 143.384555,7.48556328 C143.384555,7.48556328 143.040031,8.17461094 143.040031,8.61309582 L143.040031,14.6579231 L142.00646,14.6579231 L142.00646,14.6266027 L142.00646,14.6266027 Z M175.080748,14.6266027 L175.080748,4.9172947 L176.114319,4.9172947 L176.114319,6.17010864 C176.834687,5.38709993 177.805618,4.9172947 178.807869,4.9172947 L179.7788,4.9172947 L179.7788,5.9508662 L178.807869,5.9508662 C177.711657,5.9508662 176.772047,6.70255457 176.458843,7.48556328 C176.458843,7.48556328 176.114319,8.17461094 176.114319,8.61309582 L176.114319,14.6579231 L175.080748,14.6579231 L175.080748,14.6266027 L175.080748,14.6266027 Z" id="Shape" fill="#414042"></path>
                <path d="M0,16.5058236 L0,15.190369 L1.81658021,15.190369 C3.28863659,15.190369 4.72937261,14.3760399 4.72937261,12.4654987 L4.72937261,0.187922091 L6.04482725,0.187922091 L6.04482725,12.402858 C6.04482725,15.190369 3.82108251,16.4745033 1.81658021,16.4745033 L0,16.4745033 L0,16.5058236 L0,16.5058236 Z" id="Shape" fill="#E4594E"></path>
                <path d="M12.3088969,15.0024469 C9.9598708,15.0024469 8.23725164,13.2485074 8.23725164,10.8368406 L8.23725164,4.76069296 L9.55270627,4.76069296 L9.55270627,10.8368406 C9.55270627,12.496819 10.6802388,13.6556719 12.2775766,13.6556719 C13.8749144,13.6556719 15.0024469,12.496819 15.0024469,10.8368406 L15.0024469,4.76069296 L16.3179015,4.76069296 L16.3179015,10.8368406 C16.3805422,13.2485074 14.6579231,15.0024469 12.3088969,15.0024469" id="Shape" fill="#E4594E"></path>
                <path d="M22.6759323,5.91954585 C20.6401096,5.91954585 19.1367329,7.57952432 19.1367329,9.80326906 C19.1367329,12.0270138 20.67143,13.6869923 22.6759323,13.6869923 C24.7117549,13.6869923 26.2151316,12.0270138 26.2151316,9.80326906 C26.246452,7.57952432 24.7117549,5.91954585 22.6759323,5.91954585 L22.6759323,5.91954585 Z M26.246452,15.0024469 L26.246452,13.4364295 C25.3381619,14.4386806 24.0540276,15.0024469 22.7072526,15.0024469 C19.9197416,15.0024469 17.7899579,12.7473818 17.7899579,9.77194871 C17.7899579,6.79651561 19.9197416,4.54145052 22.7072526,4.54145052 C24.0853479,4.54145052 25.3694822,5.1052168 26.246452,6.10746795 L26.246452,0.250562788 L27.5619066,0.250562788 L27.5619066,15.0337673 L26.246452,15.0024469 L26.246452,15.0024469 L26.246452,15.0024469 Z M34.2957815,15.0024469 C31.4143095,15.0024469 29.0652834,12.6534208 29.0652834,9.77194871 C29.0652834,6.89047666 31.4143095,4.54145052 34.2957815,4.54145052 C36.1123618,4.54145052 37.8036606,5.48106098 38.7745914,7.0470784 L38.8998728,7.23500049 L32.0093961,11.8704121 L31.2577077,10.7428795 L36.9266908,6.921797 C36.2063228,6.26406969 35.2667123,5.85690516 34.2644612,5.85690516 C32.1033571,5.85690516 30.380738,7.61084467 30.380738,9.74062836 C30.380738,11.9017324 32.1346775,13.6243516 34.2644612,13.6243516 C36.3629245,13.6243516 38.0542234,11.9956935 38.1481844,9.9598708 L38.1481844,9.74062836 L39.463639,9.74062836 L39.463639,9.99119115 C39.4009983,12.8100225 37.1146129,15.0024469 34.2957815,15.0024469 L34.2957815,15.0024469 Z" id="Shape" fill="#E4594E"></path>
            </g>
        </g>
    </g>
</svg>