<?xml version="1.0" encoding="UTF-8"?>
<svg width="150px" height="23px" viewBox="0 0 150 23" version="1.1" xmlns="http://www.w3.org/2000/svg" xmlns:xlink="http://www.w3.org/1999/xlink">
    <!-- Generator: Sketch 43.1 (39012) - http://www.bohemiancoding.com/sketch -->
    <title>Watchout Copy</title>
    <desc>Created with Sketch.</desc>
    <defs></defs>
    <g id="_Client" stroke="none" stroke-width="1" fill="none" fill-rule="evenodd">
        <g id="Watchout-Copy" transform="translate(-45.000000, -39.000000)" fill="#000000">
            <g id="logo" transform="translate(45.000000, 39.000000)">
                <g id="en" transform="translate(46.517413, 0.000000)">
                    <polygon id="Shape" points="10.6716418 19.4781647 8.23383085 19.4781647 8.23383085 12.7142067 5.37313433 12.7142067 5.37313433 19.4781647 2.93532338 19.4781647 2.93532338 4.7042565 0.0746268657 4.7042565 0.0746268657 19.4781647 0.0746268657 19.4781647 0.0746268657 22.1481481 0.0746268657 22.1481481 2.93532338 22.1481481 5.37313433 22.1481481 8.23383085 22.1481481 10.6716418 22.1481481 13.5323383 22.1481481 13.5323383 19.4781647 13.5323383 7.52681039 10.6716418 7.52681039"></polygon>
                    <polygon id="Shape" points="102.736318 7.52681039 100.199005 7.52681039 100.199005 4.7042565 97.3631841 4.7042565 97.3631841 7.52681039 94.8258706 7.52681039 94.8258706 10.4510779 97.3631841 10.4510779 97.3631841 22.1481481 100.199005 22.1481481 100.199005 10.4510779 102.736318 10.4510779"></polygon>
                    <polygon id="Shape" points="40.6218905 7.52681039 38.8557214 22.1481481 39.2537313 22.1481481 41.6915423 22.1481481 50 22.1481481 50 19.4781647 42.0149254 19.4781647 43.0845771 10.4510779 50 10.4510779 50 7.52681039 43.4577114 7.52681039"></polygon>
                    <path d="M24.278607,7.52681039 L23.880597,7.52681039 L21.641791,7.52681039 L20.5721393,7.52681039 L18.8059701,7.52681039 L17.039801,22.1227197 L19.9004975,22.1227197 L20.3731343,17.9524599 L25.1243781,17.9524599 L25.5970149,22.1227197 L28.4328358,22.1227197 L26.7412935,7.52681039 L24.278607,7.52681039 L24.278607,7.52681039 Z M20.7462687,15.0790492 L21.2935323,10.4510779 L24.2039801,10.4510779 L24.7512438,15.0790492 L20.7462687,15.0790492 L20.7462687,15.0790492 Z" id="Shape"></path>
                    <polygon id="Shape" points="61.1940299 7.52681039 56.4427861 7.52681039 56.4427861 0.152570481 53.6069652 0.152570481 53.6069652 7.52681039 53.6069652 10.4510779 53.6069652 22.1481481 56.4427861 22.1481481 56.4427861 10.4510779 61.1940299 10.4510779 61.1940299 22.1481481 64.0298507 22.1481481 64.0298507 7.52681039 62.1144279 7.52681039"></polygon>
                    <polygon id="Shape" points="34.8756219 4.7042565 32.0149254 4.7042565 32.0149254 7.52681039 29.5024876 7.52681039 29.5024876 10.4510779 32.0149254 10.4510779 32.0149254 22.1481481 34.8756219 22.1481481 34.8756219 10.4510779 37.3880597 10.4510779 37.3880597 7.52681039 34.8756219 7.52681039"></polygon>
                    <path d="M75.0995025,7.52681039 L70.3482587,7.52681039 L67.5124378,7.52681039 L67.5124378,7.52681039 L67.5124378,10.4256495 L67.5124378,10.4256495 L67.5124378,19.4527363 L67.5124378,22.199005 L70.3482587,22.199005 L75.0995025,22.199005 L77.9353234,22.199005 L77.9353234,19.4527363 L77.9353234,7.52681039 L77.9353234,7.52681039 L75.0995025,7.52681039 L75.0995025,7.52681039 Z M70.4228856,19.4781647 L70.4228856,10.4510779 L75.1741294,10.4510779 L75.1741294,19.4781647 L70.4228856,19.4781647 L70.4228856,19.4781647 Z" id="Shape"></path>
                    <polygon id="Shape" points="89.0049751 19.4781647 84.2288557 19.4781647 84.2288557 10.5273632 81.3930348 10.5273632 81.3930348 19.4781647 81.3930348 22.1481481 84.2288557 22.1481481 89.0049751 22.1481481 91.840796 22.1481481 91.840796 22.1481481 91.840796 7.62852405 89.0049751 7.62852405"></polygon>
                </g>
                <g id="tw" transform="translate(0.000000, 1.525705)">
                    <path d="M40.0746269,15.5113322 L31.9402985,15.5113322 L31.9402985,14.3416252 L38.5323383,14.3416252 L38.5323383,13.6296296 L38.5323383,12.3073521 L38.5323383,11.0613599 L38.5323383,8.87451631 L38.5323383,7.62852405 L38.5323383,5.59425097 L38.5323383,5.51796573 L22.8606965,5.51796573 L22.8606965,5.59425097 L22.8606965,7.62852405 L22.8606965,8.79823107 L22.8606965,10.9850746 L22.8606965,12.3073521 L22.8606965,13.7313433 L22.8606965,14.4433389 L29.5522388,14.4433389 L29.5522388,15.6130459 L21.1940299,15.6130459 L21.1940299,17.7998894 L29.5522388,17.7998894 L29.5522388,20.6224433 L31.9402985,20.6224433 L31.9402985,17.7998894 L40.0746269,17.7998894 L40.0746269,15.5113322 L40.0746269,15.5113322 Z M25.1741294,7.57766722 L36.2189055,7.57766722 L36.2189055,8.74737424 L25.1741294,8.74737424 L25.1741294,7.57766722 L25.1741294,7.57766722 Z M25.1741294,10.9596462 L36.2189055,10.9596462 L36.2189055,12.2819237 L25.1741294,12.2819237 L25.1741294,10.9596462 L25.1741294,10.9596462 Z" id="Shape"></path>
                    <polygon id="Shape" points="4.37810945 4.75511332 2.68656716 1.37313433 0.149253731 1.37313433 1.84079602 4.75511332"></polygon>
                    <rect id="Rectangle-path" x="0.995024876" y="6.4079602" width="3.45771144" height="2.36484245"></rect>
                    <polygon id="Shape" points="0 20.5207297 2.3880597 20.5207297 4.22885572 10.4002211 1.84079602 10.4002211"></polygon>
                    <polygon id="Shape" points="18.2835821 9.78993919 18.2835821 7.50138198 13.2089552 7.50138198 13.2089552 3.73797678 16.8159204 3.73797678 16.8159204 1.37313433 7.13930348 1.37313433 7.13930348 3.73797678 10.8208955 3.73797678 10.8208955 7.50138198 5.74626866 7.50138198 5.74626866 9.78993919 10.5970149 9.78993919 5.44776119 20.5207297 7.98507463 20.5207297 11.9651741 12.2056385 16.0447761 20.5207297 18.5820896 20.5207297 13.4328358 9.78993919"></polygon>
                    <polygon id="Shape" points="26.0199005 4.83139856 28.2587065 4.83139856 28.2587065 3.5854063 33.0845771 3.5854063 33.0845771 4.83139856 35.3233831 4.83139856 35.3233831 3.5854063 39.7761194 3.5854063 39.7761194 1.44941957 35.3233831 1.44941957 35.3233831 0.127142067 33.0845771 0.127142067 33.0845771 1.44941957 28.2587065 1.44941957 28.2587065 0.127142067 26.0199005 0.127142067 26.0199005 1.44941957 21.5671642 1.44941957 21.5671642 3.5854063 26.0199005 3.5854063"></polygon>
                </g>
            </g>
        </g>
    </g>
</svg>