<?xml version="1.0" encoding="utf-8"?>
<!-- Generator: Adobe Illustrator 20.0.0, SVG Export Plug-In . SVG Version: 6.00 Build 0)  -->
<svg version="1.1" id="#nude" xmlns="http://www.w3.org/2000/svg" xmlns:xlink="http://www.w3.org/1999/xlink" x="0px" y="0px" viewBox="0 0 240 100" style="enable-background:new 0 0 240 100;" xml:space="preserve">
    <style type="text/css">
	.st0{fill:#040000;}
</style>
    <title>#nude</title>
    <g id="#nude" transform="translate(-59.000000, -33.000000)">
        <g id="#nude" transform="translate(59.000000, 33.000000)">
            <path id="Shape" class="st0" d="M144.3,27.6v26.3c0,3.9-2.8,6.8-6.5,6.8c-3.7,0-6.7-3-6.7-6.8s2.9-6.8,6.7-6.8
				c2.3,0,4.2,1.1,5.4,3v-2c-1.4-1.4-3.3-2.2-5.4-2.2c-4.4,0-8,3.5-8,8.1s3.5,8.1,8,8.1c2.8,0,5.2-1.4,6.5-3.5v3.3h1.3V27.6H144.3
				L144.3,27.6z M172.1,58.3c-1.3,1.7-3.1,2.7-5.5,2.7c-4,0-6.8-2.7-6.9-6.5v-0.7c0-0.3,0.1-0.6,0.1-0.6c0.3-3.4,3.1-5.9,6.6-5.9
				c3.5,0,6,2.3,6.4,5.9h-11.9c0,0-0.2,0.6-0.1,1.3H174v-0.4c-0.2-4.8-3.3-8-7.8-8c-4.4,0-8,3.5-8,8.1c0,4.7,3.5,8.1,8.3,8.1
				c2.8,0,5.1-1,6.7-3.1l0.3-0.3l-1-0.8L172.1,58.3L172.1,58.3L172.1,58.3z M111.9,60.8c-2.3,0-5.1-0.9-5.1-5.2v-9.4h-1.3v9.4
				c0,4.1,2.3,6.4,6.4,6.4c1.3,0,2.8-0.4,4-1.4V59C114.7,60.3,113.1,60.8,111.9,60.8L111.9,60.8z M117,46.3h1.3v15.5H117V46.3
				L117,46.3z M86,45.9c-1.3,0-2.8,0.4-4,1.4v1.8c1-1.4,2.7-2,4-2c2.3,0,5.1,0.9,5.1,5.2v9.4h1.3v-9.4C92.4,48.2,90.1,45.9,86,45.9
				L86,45.9z M79.6,46.3h1.3v15.5h-1.3V46.3L79.6,46.3z M55.6,61.1H57v-8.4h-1.4v7V61.1L55.6,61.1z M55.6,46.2H57v3h-1.4V46.2
				L55.6,46.2z M61.1,54.5h1.4v-8.3h-1.4v8V54.5L61.1,54.5z M61.1,58.2h1.4v3h-1.4V58.2L61.1,58.2z M59.4,51.6H60v-1.3h-8v1.3
				L59.4,51.6L59.4,51.6z M63.5,50.2H66v1.4h-2.5V50.2L63.5,50.2z M52,55.6h2.5V57H52V55.6L52,55.6z M58.1,55.6V57h8v-1.4h-7.2H58.1
				L58.1,55.6z"></path>
        </g>
    </g>
</svg>