<?xml version="1.0" encoding="UTF-8"?>
<svg width="122px" height="35px" viewBox="0 0 122 35" version="1.1" xmlns="http://www.w3.org/2000/svg" xmlns:xlink="http://www.w3.org/1999/xlink">
    <!-- Generator: Sketch 43.1 (39012) - http://www.bohemiancoding.com/sketch -->
    <title>#nude copy</title>
    <desc>Created with Sketch.</desc>
    <defs></defs>
    <g id="_Client" stroke="none" stroke-width="1" fill="none" fill-rule="evenodd">
        <g id="#nude-copy" transform="translate(-59.000000, -33.000000)" fill="#040000">
            <g id="logo" transform="translate(59.000000, 33.000000)">
                <path d="M92.3133333,0.101744186 L92.3133333,26.4331395 C92.3133333,30.3197674 89.548,33.2703488 85.827,33.2703488 C82.106,33.2703488 79.1576667,30.2383721 79.1576667,26.4331395 C79.1576667,22.627907 82.106,19.5959302 85.827,19.5959302 C88.1653333,19.5959302 90.0766667,20.7151163 91.2763333,22.5465116 L91.2763333,20.5523256 C89.8936667,19.1686047 87.9823333,18.3953488 85.827,18.3953488 C81.4146667,18.3953488 77.8766667,21.9360465 77.8766667,26.5348837 C77.8766667,31.1337209 81.3333333,34.6744186 85.827,34.6744186 C88.5923333,34.6744186 91.012,33.2906977 92.3133333,31.1337209 L92.3133333,34.3895349 L93.6146667,34.3895349 L93.6146667,0.101744186 L92.3133333,0.101744186 L92.3133333,0.101744186 Z M120.088667,30.8284884 C118.787333,32.5581395 116.977667,33.5145349 114.558,33.5145349 C110.572667,33.5145349 107.726,30.8284884 107.644667,27.0232558 L107.644667,26.3313953 C107.644667,26.0668605 107.726,25.7209302 107.726,25.7209302 C108.071667,22.3430233 110.837,19.8401163 114.293667,19.8401163 C117.831667,19.8401163 120.271667,22.0988372 120.698667,25.7209302 L108.844333,25.7209302 C108.844333,25.7209302 108.661333,26.3313953 108.763,27.0232558 L122,27.0232558 L122,26.5959302 C121.817,21.752907 118.706,18.6395349 114.212333,18.6395349 C109.8,18.6395349 106.262,22.1802326 106.262,26.7790698 C106.262,31.4593023 109.718667,34.9186047 114.578333,34.9186047 C117.425,34.9186047 119.682,33.880814 121.247667,31.8052326 L121.512,31.4593023 L120.475,30.6860465 L120.088667,30.8284884 L120.088667,30.8284884 L120.088667,30.8284884 Z M59.8816667,33.3517442 C57.5433333,33.3517442 54.778,32.4767442 54.778,28.1627907 L54.778,18.8023256 L53.4766667,18.8023256 L53.4766667,28.244186 C53.4766667,32.3139535 55.815,34.6540698 59.8816667,34.6540698 C61.183,34.6540698 62.647,34.2267442 63.867,33.2703488 L63.867,31.5406977 C62.7283333,32.8226744 61.0813333,33.3517442 59.8816667,33.3517442 L59.8816667,33.3517442 Z M64.9853333,18.8023256 L66.2866667,18.8023256 L66.2866667,34.3081395 L64.9853333,34.3081395 L64.9853333,18.8023256 L64.9853333,18.8023256 Z M33.9973333,18.375 C32.696,18.375 31.232,18.8023256 30.012,19.7587209 L30.012,21.5697674 C31.049,20.1860465 32.696,19.5755814 33.9973333,19.5755814 C36.3356667,19.5755814 39.101,20.4505814 39.101,24.7645349 L39.101,34.2063953 L40.4023333,34.2063953 L40.4023333,24.8459302 C40.4023333,20.6947674 38.064,18.375 33.9973333,18.375 L33.9973333,18.375 Z M27.5923333,18.8023256 L28.8936667,18.8023256 L28.8936667,34.3081395 L27.5923333,34.3081395 L27.5923333,18.8023256 L27.5923333,18.8023256 Z M3.63966667,33.5959302 L5.02233333,33.5959302 L5.02233333,25.1918605 L3.63966667,25.1918605 L3.63966667,32.2122093 L3.63966667,33.5959302 L3.63966667,33.5959302 Z M3.63966667,18.7209302 L5.02233333,18.7209302 L5.02233333,21.6715116 L3.63966667,21.6715116 L3.63966667,18.7209302 L3.63966667,18.7209302 Z M9.089,27.0232558 L10.4716667,27.0232558 L10.4716667,18.7209302 L9.089,18.7209302 L9.089,26.6773256 L9.089,27.0232558 L9.089,27.0232558 Z M9.089,30.6656977 L10.4716667,30.6656977 L10.4716667,33.6162791 L9.089,33.6162791 L9.089,30.6656977 L9.089,30.6656977 Z M7.36066667,24.0726744 L7.97066667,24.0726744 L7.97066667,22.7906977 L0,22.7906977 L0,24.0930233 L7.36066667,24.0930233 L7.36066667,24.0726744 Z M11.5086667,22.6889535 L14.0096667,22.6889535 L14.0096667,24.0726744 L11.5086667,24.0726744 L11.5086667,22.6889535 L11.5086667,22.6889535 Z M0,28.1424419 L2.501,28.1424419 L2.501,29.5261628 L0,29.5261628 L0,28.1424419 L0,28.1424419 Z M6.14066667,28.1424419 L6.14066667,29.5261628 L14.091,29.5261628 L14.091,28.1424419 L6.91333333,28.1424419 L6.14066667,28.1424419 L6.14066667,28.1424419 Z" id="Shape"></path>
            </g>
        </g>
    </g>
</svg>