<?xml version="1.0" encoding="UTF-8"?>
<svg width="185px" height="25px" viewBox="0 0 185 25" version="1.1" xmlns="http://www.w3.org/2000/svg" xmlns:xlink="http://www.w3.org/1999/xlink">
    <!-- Generator: Sketch 43.1 (39012) - http://www.bohemiancoding.com/sketch -->
    <title>TripMoment Copy</title>
    <desc>Created with Sketch.</desc>
    <defs></defs>
    <g id="_Client" stroke="none" stroke-width="1" fill="none" fill-rule="evenodd">
        <g id="TripMoment-Copy" transform="translate(-28.000000, -38.000000)" fill="#2E7693">
            <g id="logo" transform="translate(28.000000, 38.000000)">
                <path d="M41.4633943,7.163785 L41.4633943,20.0770455 L38.8469218,20.0770455 L38.8469218,7.163785 L34.1372712,7.163785 L34.1372712,5.10381249 L46.1730449,5.10381249 L46.1730449,7.163785 L41.4633943,7.163785 L41.4633943,7.163785 Z" id="Shape"></path>
                <path d="M56.8544093,11.929393 C56.6081531,11.714172 56.3311148,11.5604427 56.0232945,11.4067134 C55.7154742,11.2529842 55.3460899,11.1914924 55.0074875,11.1914924 C54.3918469,11.1300007 53.7762063,11.4067134 53.2529118,11.8064096 C52.7911814,12.2675975 52.4833611,12.8825146 52.5449251,13.5589235 L52.5449251,20.0770455 L50.0823627,20.0770455 L50.0823627,9.40823266 L52.4833611,9.40823266 L52.4833611,10.5765753 C52.8527454,10.1768791 53.3144759,9.86942053 53.8069884,9.65419952 C54.422629,9.40823266 55.0998336,9.28524922 55.7154742,9.28524922 C56.2695507,9.28524922 56.7928453,9.34674094 57.3161398,9.53121609 C57.8394343,9.68494538 58.2396007,9.93091225 58.6397671,10.2998625 L56.8544093,11.929393 L56.8544093,11.929393 L56.8544093,11.929393 Z" id="Shape"></path>
                <path d="M65.3502496,6.91781813 C64.6730449,7.47124358 63.749584,7.47124358 63.1031614,6.91781813 C62.5490849,6.51812197 62.4875208,5.6879838 62.8876872,5.1653042 C62.9492512,5.10381249 62.9800333,5.01157491 63.1031614,4.95008319 C63.7803661,4.39665774 64.703827,4.39665774 65.3502496,4.95008319 C65.9043261,5.34977935 65.9658902,6.17991753 65.5657238,6.70259712 C65.5041597,6.82558055 65.4118136,6.85632641 65.3502496,6.91781813 L65.3502496,6.91781813 Z M63.0108153,20.0770455 L63.0108153,9.40823266 L65.4733777,9.40823266 L65.4733777,20.0770455 L63.0108153,20.0770455 L63.0108153,20.0770455 Z" id="Shape"></path>
                <path d="M81.6647255,15.9878463 C81.6647255,16.3875425 81.5723794,16.8179845 81.4492512,17.2176807 C81.3569052,17.6173768 81.202995,17.9863271 81.0490849,18.3552774 C80.8336106,18.7242277 80.5873544,19.0316863 80.3410982,19.2776532 C79.9717138,19.5851118 79.5099834,19.8310786 79.0482529,19.9540621 C77.9093178,20.3230124 76.6780366,20.3230124 75.5698835,19.9540621 C75.015807,19.7388411 74.4925125,19.4313825 74.1231281,19.0316863 L74.1231281,24.4122115 L71.6605657,24.4122115 L71.6605657,9.43897851 L74.0615641,9.43897851 L74.0615641,10.5765753 C74.4617304,10.1153874 74.985025,9.80792881 75.5391015,9.56196195 C76.093178,9.34674094 76.7088186,9.31599508 77.3244592,9.31599508 C77.8785358,9.31599508 78.4941764,9.40823266 79.0174709,9.56196195 C79.4792013,9.71569124 79.9409318,9.93091225 80.3103161,10.2691167 C80.6181364,10.5150836 80.8643927,10.8225421 81.0183028,11.1914924 C81.233777,11.5604427 81.3261231,11.8986472 81.4184692,12.3290892 C81.5108153,12.7287854 81.5723794,13.1592274 81.6339434,13.5589235 C81.6339434,13.9586197 81.6955075,14.3890617 81.6955075,14.7887579 C81.7262895,15.1577082 81.7262895,15.5881502 81.6647255,15.9878463 L81.6647255,15.9878463 L81.6647255,15.9878463 Z M79.171381,13.3744484 C79.109817,12.9747522 79.0174709,12.6058019 78.8019967,12.2368516 C78.6480865,11.929393 78.3402662,11.6219345 78.0324459,11.4682052 C77.1705491,11.0992549 76.1855241,11.0992549 75.3544093,11.4682052 C75.046589,11.6834262 74.7387687,11.929393 74.5848586,12.2368516 C74.3693844,12.6058019 74.2770383,12.9440064 74.2154742,13.3744484 C74.1231281,14.2968241 74.1231281,15.1577082 74.2154742,16.0800839 C74.2770383,16.4797801 74.3693844,16.8487304 74.5848586,17.2176807 C74.8003328,17.5251393 75.046589,17.8325978 75.3544093,17.9863271 C76.2163062,18.3552774 77.2013311,18.3552774 78.0324459,17.9863271 C78.3402662,17.8325978 78.6480865,17.5251393 78.8019967,17.2176807 C79.0174709,16.8487304 79.109817,16.5105259 79.171381,16.0800839 C79.2637271,15.1577082 79.2637271,14.2968241 79.171381,13.3744484 L79.171381,13.3744484 Z" id="Shape"></path>
                <polygon id="Shape" points="100.257072 20.0770455 100.257072 10.0846415 96.3169717 17.37141 94.3777038 17.37141 90.3144759 10.0846415 90.3144759 20.0770455 87.6980033 20.0770455 87.6980033 5.10381249 90.3144759 5.10381249 95.3319468 14.4198076 100.257072 5.10381249 102.873544 5.10381249 102.873544 20.0770455 100.257072 20.0770455"></polygon>
                <path d="M118.72629,17.1254431 C118.510815,17.8325978 118.110649,18.447515 117.556572,18.9087029 C117.094842,19.308399 116.571547,19.6158576 116.079035,19.8310786 C115.371048,20.0770455 114.63228,20.2000289 113.924293,20.2000289 C113.216306,20.2000289 112.446755,20.1077914 111.769551,19.8310786 C111.215474,19.6158576 110.69218,19.308399 110.292013,18.9087029 C109.737937,18.447515 109.306988,17.7711061 109.122296,17.1254431 C108.906822,16.3567966 108.814476,15.5266585 108.814476,14.7272662 C108.814476,13.9278738 108.906822,13.1284815 109.122296,12.3598351 C109.33777,11.6526803 109.737937,11.0377631 110.292013,10.5765753 C110.753744,10.1768791 111.215474,9.86942053 111.769551,9.65419952 C112.477537,9.40823266 113.216306,9.25450336 113.924293,9.28524922 C114.63228,9.28524922 115.40183,9.3774868 116.079035,9.65419952 C116.633111,9.86942053 117.156406,10.1768791 117.556572,10.5765753 C118.110649,11.0377631 118.541597,11.714172 118.72629,12.3598351 C118.941764,13.1284815 119.03411,13.9586197 119.03411,14.7272662 C119.03411,15.5266585 118.910982,16.3567966 118.72629,17.1254431 L118.72629,17.1254431 Z M116.417637,13.0669898 C116.325291,12.6058019 116.109817,12.144614 115.709651,11.8371555 C115.186356,11.4374593 114.570715,11.1607466 113.924293,11.2222383 C113.247088,11.1607466 112.600666,11.4374593 112.138935,11.8371555 C111.769551,12.144614 111.523295,12.6058019 111.430948,13.1284815 C111.215474,14.2045866 111.215474,15.3421833 111.430948,16.4490342 C111.523295,16.9717138 111.738769,17.37141 112.138935,17.7403603 C112.66223,18.1400564 113.27787,18.4167692 113.924293,18.3552774 C114.601498,18.3552774 115.24792,18.1400564 115.709651,17.7403603 C116.079035,17.4329017 116.325291,16.9717138 116.417637,16.4490342 C116.602329,15.3114375 116.602329,14.2045866 116.417637,13.0669898 L116.417637,13.0669898 Z" id="Shape"></path>
                <path d="M139.596506,20.0770455 L139.596506,13.5589235 C139.65807,12.8825146 139.381032,12.2368516 138.888519,11.7756637 C138.365225,11.3759676 137.749584,11.2222383 137.133943,11.2222383 C136.826123,11.2222383 136.456739,11.28373 136.148918,11.3759676 C135.841098,11.4682052 135.594842,11.5911886 135.317804,11.7756637 C135.040765,11.9601389 134.917637,12.2368516 134.763727,12.4828185 C134.609817,12.7902771 134.548253,13.1592274 134.548253,13.4974318 L134.548253,20.1077914 L132.085691,20.1077914 L132.085691,13.5589235 C132.147255,12.8825146 131.870216,12.2368516 131.377704,11.7756637 C130.854409,11.3759676 130.238769,11.2222383 129.623128,11.2222383 C128.945923,11.2222383 128.330283,11.4374593 127.83777,11.7756637 C127.314476,12.2368516 127.006656,12.9132605 127.06822,13.5589235 L127.06822,20.0770455 L124.667221,20.0770455 L124.667221,9.40823266 L127.06822,9.40823266 L127.06822,10.4843377 C127.468386,10.0846415 127.991681,9.77718296 128.545757,9.62345366 C129.099834,9.40823266 129.715474,9.31599508 130.300333,9.31599508 C131.839434,9.31599508 133.009151,9.83867467 133.778702,10.853288 C134.794509,9.83867467 136.1797,9.25450336 137.626456,9.31599508 C138.242097,9.31599508 138.796173,9.40823266 139.381032,9.56196195 C139.904326,9.71569124 140.366057,9.96165811 140.704659,10.2691167 C141.166389,10.638067 141.535774,11.0992549 141.720466,11.5911886 C141.93594,12.1138682 142.028286,12.6672936 142.028286,13.2207191 L142.028286,20.0462996 L139.596506,20.0462996 L139.596506,20.0770455 L139.596506,20.0770455 Z" id="Shape"></path>
                <path d="M150.000832,15.3729292 C149.939268,16.2030674 150.247088,16.9717138 150.831947,17.586631 C151.447587,18.1400564 152.309484,18.447515 153.140599,18.4167692 C153.694676,18.4167692 154.279534,18.3552774 154.833611,18.1708023 C155.295341,17.9555813 155.757072,17.7096144 156.126456,17.3406641 L157.727121,18.6319902 C157.419301,18.877957 157.111481,19.1546698 156.742097,19.3391449 C156.434276,19.5543659 156.064892,19.7080952 155.72629,19.8618245 C155.387687,20.0155538 154.956739,20.1077914 154.556572,20.1692831 C154.094842,20.2307748 153.571547,20.2615207 153.109817,20.2615207 C152.40183,20.2615207 151.663062,20.1692831 150.955075,20.0155538 C150.27787,19.8618245 149.723794,19.4928742 149.200499,19.093178 C148.677205,18.6319902 148.277038,18.0785647 148.030782,17.4021558 C147.722962,16.5720177 147.569052,15.7111336 147.569052,14.8502496 C147.569052,13.0977357 148.030782,11.7756637 149.015807,10.7917963 C150.031614,9.80792881 151.416805,9.25450336 152.801997,9.34674094 C153.571547,9.34674094 154.279534,9.43897851 155.018303,9.71569124 C155.633943,9.93091225 156.18802,10.2691167 156.64975,10.7303046 C157.111481,11.1914924 157.480865,11.7449179 157.665557,12.3598351 C157.911814,13.0362439 158.034942,13.7433987 158.034942,14.4505534 L158.034942,15.4344209 L150.031614,15.4344209 L150.000832,15.3729292 L150.000832,15.3729292 Z M155.449251,13.1284815 C155.387687,12.8825146 155.295341,12.6672936 155.202995,12.4520726 C154.987521,12.0523765 154.6797,11.6834262 154.279534,11.4682052 C153.817804,11.2222383 153.294509,11.0992549 152.801997,11.0992549 C152.278702,11.0992549 151.78619,11.1914924 151.262895,11.4682052 C150.862729,11.6834262 150.554908,12.0216306 150.339434,12.4520726 C150.247088,12.6672936 150.12396,12.8517688 150.093178,13.1284815 C150.062396,13.4051942 150.031614,13.6511611 150.031614,13.897128 L155.572379,13.897128 C155.510815,13.6204152 155.510815,13.3744484 155.449251,13.1284815 L155.449251,13.1284815 Z" id="Shape"></path>
                <path d="M170.994176,20.0770455 L170.994176,13.5589235 C171.05574,12.8825146 170.778702,12.2368516 170.28619,11.7756637 C169.762895,11.3759676 169.147255,11.2222383 168.531614,11.2222383 C167.854409,11.2222383 167.238769,11.4374593 166.746256,11.7756637 C166.222962,12.2368516 165.915141,12.9132605 165.976705,13.5589235 L165.976705,20.0770455 L163.514143,20.0770455 L163.514143,9.40823266 L165.915141,9.40823266 L165.915141,10.4843377 C166.315308,10.0846415 166.838602,9.77718296 167.392679,9.56196195 C168.531614,9.19301165 169.762895,9.16226579 170.871048,9.50047023 C171.332779,9.65419952 171.794509,9.90016639 172.194676,10.207625 C172.594842,10.5765753 172.964226,11.0377631 173.1797,11.5296969 C173.395175,12.0523765 173.425957,12.6058019 173.425957,13.1592274 L173.425957,19.9848079 L170.963394,19.9848079 L170.994176,20.0770455 L170.994176,20.0770455 Z" id="Shape"></path>
                <path d="M183.214642,20.0770455 C182.691348,20.0770455 182.198835,20.0155538 181.737105,19.8310786 C181.36772,19.6773493 181.029118,19.4621283 180.721298,19.1546698 C180.475042,18.9087029 180.259567,18.5397526 180.105657,18.232294 C179.951747,17.8633437 179.890183,17.5251393 179.890183,17.0946972 L179.890183,11.2529842 L178.504992,11.2529842 L178.504992,9.62345366 L179.890183,9.62345366 L179.890183,6.39513854 L182.352745,6.39513854 L182.352745,9.62345366 L184.722962,9.62345366 L184.722962,11.2529842 L182.352745,11.2529842 L182.352745,17.0024597 C182.352745,17.37141 182.445092,17.6788686 182.660566,17.9248354 C182.968386,18.1708023 183.33777,18.2937857 183.676373,18.232294 L184.69218,18.232294 L184.69218,20.0770455 L183.214642,20.0770455 L183.214642,20.0770455 Z" id="Shape"></path>
                <path d="M17.2379368,7.07154742 L7.78785358,13.466686 C7.69550749,13.5281777 7.63394343,13.6204152 7.54159734,13.7126528 L1.13893511,23.0901396 C0.27703827,24.319974 0.523294509,24.5659408 1.69301165,23.7050568 L11.1430948,17.3099183 C11.2354409,17.2484265 11.3585691,17.156189 11.3893511,17.0639514 L17.7920133,7.62497287 C18.7154742,6.45663025 18.4076539,6.21066339 17.2379368,7.07154742 L17.2379368,7.07154742 Z M9.75790349,16.5412718 C9.08069884,16.6950011 8.46505824,16.2953049 8.31114809,15.6803878 C8.24958403,15.5266585 8.24958403,15.3114375 8.31114809,15.1269623 C8.46505824,14.4505534 9.08069884,14.112349 9.75790349,14.2660783 C10.4351082,14.4198076 10.7737105,15.0347247 10.6198003,15.7111336 C10.5274542,16.1415756 10.2196339,16.4490342 9.75790349,16.5412718 L9.75790349,16.5412718 Z" id="Shape"></path>
                <path d="M24.687188,24.3814657 L22.0707155,24.3814657 L22.0707155,4.85784562 C22.0707155,3.62801129 21.0856905,2.61339796 19.8236273,2.61339796 L0,2.61339796 L0,0.0614917167 L21.7936772,0.0614917167 C23.3943428,0.0614917167 24.656406,1.35281777 24.656406,2.92085654 C24.687188,2.92085654 24.687188,24.3814657 24.687188,24.3814657 L24.687188,24.3814657 Z" id="Shape"></path>
            </g>
        </g>
    </g>
</svg>