<?xml version="1.0" encoding="utf-8"?>
<!-- Generator: Adobe Illustrator 20.0.0, SVG Export Plug-In . SVG Version: 6.00 Build 0)  -->
<svg version="1.1" id="Watchout" xmlns="http://www.w3.org/2000/svg" xmlns:xlink="http://www.w3.org/1999/xlink" x="0px" y="0px" viewBox="0 0 240 100" style="enable-background:new 0 0 240 100;" xml:space="preserve">
    <title>Watchout</title>
    <g id="Watchout" transform="translate(-45.000000, -39.000000)">
        <g id="Watchout" transform="translate(45.000000, 39.000000)">
            <g id="en" transform="translate(46.517413, 0.000000)">
                <polygon id="Shape" points="56,58.3 53.5,58.3 53.5,51.5 50.6,51.5 50.6,58.3 48.2,58.3 48.2,43.5 45.3,43.5 45.3,58.3 
					45.3,58.3 45.3,61 45.3,61 48.2,61 50.6,61 53.5,61 56,61 58.8,61 58.8,58.3 58.8,46.3 56,46.3 				"></polygon>
                <polygon id="Shape_1_" points="148.5,46.3 145.9,46.3 145.9,43.5 143.1,43.5 143.1,46.3 140.5,46.3 140.5,49.3 143.1,49.3 
					143.1,61 145.9,61 145.9,49.3 148.5,49.3 				"></polygon>
                <polygon id="Shape_2_" points="86.1,46.3 84.3,61 84.7,61 87.1,61 95.5,61 95.5,58.3 87.5,58.3 88.5,49.3 95.5,49.3 95.5,46.3 
					88.9,46.3 				"></polygon>
                <path id="Shape_3_" d="M69.6,46.3h-0.4H67h-1.1h-1.8L62.4,61h2.9l0.5-4.2h4.8L71,61h2.8l-1.7-14.7H69.6L69.6,46.3z M66.1,53.9
					l0.5-4.7h2.9l0.5,4.7H66.1L66.1,53.9z"></path>
                <polygon id="Shape_4_" points="106.7,46.3 102,46.3 102,38.9 99.1,38.9 99.1,46.3 99.1,49.3 99.1,61 102,61 102,49.3 
					106.7,49.3 106.7,61 109.6,61 109.6,46.3 107.7,46.3 				"></polygon>
                <polygon id="Shape_5_" points="80.3,43.5 77.4,43.5 77.4,46.3 74.9,46.3 74.9,49.3 77.4,49.3 77.4,61 80.3,61 80.3,49.3 
					82.8,49.3 82.8,46.3 80.3,46.3 				"></polygon>
                <path id="Shape_6_" d="M120.7,46.3h-4.8h-2.9l0,0v2.9l0,0v9.1v2.8h2.9h4.8h2.8v-2.8v-12l0,0H120.7L120.7,46.3z M116,58.3v-9.1
					h4.8v9.1H116L116,58.3z"></path>
                <polygon id="Shape_7_" points="134.7,58.3 129.9,58.3 129.9,49.3 127,49.3 127,58.3 127,61 129.9,61 134.7,61 137.5,61 
					137.5,61 137.5,46.4 134.7,46.4 				"></polygon>
            </g>
            <g id="tw" transform="translate(0.000000, 1.525705)">
                <path id="Shape_8_" d="M85.3,54.4h-8.2v-1.2h6.6v-0.7v-1.3v-1.3v-2.2v-1.3v-2v-0.1H68v0.1v2v1.2v2.2v1.3v1.4v0.7h6.7v1.2h-8.4
					v2.2h8.4v2.8h2.4v-2.8h8.2V54.4L85.3,54.4z M70.3,46.4h11.1v1.2H70.3V46.4L70.3,46.4z M70.3,49.8h11.1v1.3H70.3V49.8L70.3,49.8z
					"></path>
                <polygon id="Shape_9_" points="49.4,43.6 47.7,40.2 45.2,40.2 46.8,43.6 				"></polygon>
                <rect id="Rectangle-path" x="46" y="45.2" width="3.5" height="2.4"></rect>
                <polygon id="Shape_10_" points="45,59.4 47.4,59.4 49.2,49.2 46.8,49.2 				"></polygon>
                <polygon id="Shape_11_" points="63.4,48.6 63.4,46.3 58.3,46.3 58.3,42.5 61.9,42.5 61.9,40.2 52.2,40.2 52.2,42.5 55.9,42.5 
					55.9,46.3 50.8,46.3 50.8,48.6 55.6,48.6 50.5,59.4 53,59.4 57,51 61.1,59.4 63.7,59.4 58.5,48.6 				"></polygon>
                <polygon id="Shape_12_" points="71.2,43.6 73.4,43.6 73.4,42.4 78.2,42.4 78.2,43.6 80.5,43.6 80.5,42.4 85,42.4 85,40.2 
					80.5,40.2 80.5,38.9 78.2,38.9 78.2,40.2 73.4,40.2 73.4,38.9 71.2,38.9 71.2,40.2 66.7,40.2 66.7,42.4 71.2,42.4 				"></polygon>
            </g>
        </g>
    </g>
</svg>