<?xml version="1.0" encoding="utf-8"?>
<!-- Generator: Adobe Illustrator 20.0.0, SVG Export Plug-In . SVG Version: 6.00 Build 0)  -->
<svg version="1.1" id="Fable" xmlns="http://www.w3.org/2000/svg" xmlns:xlink="http://www.w3.org/1999/xlink" x="0px" y="0px" viewBox="0 0 240 100" style="enable-background:new 0 0 240 100;" xml:space="preserve">
    <style type="text/css">
	.st0{fill:#3AB1DC;}
	.st1{fill:#231815;}
	.st2{fill:#9F9E9F;}
</style>
    <title>Fable</title>
    <g id="Fable" transform="translate(-80.000000, -26.000000)">
        <g id="Fable" transform="translate(80.000000, 26.000000)">
            <g id="Shape">
                <path class="st0" d="M90.3,32.6h5.2v3h-5.3c-0.3,0-0.6,0-0.9,0.1s-0.6,0.1-0.9,0.3c-0.1,0.1-0.3,0.1-0.4,0.2
						c-0.1,0.1-0.2,0.2-0.4,0.3c-0.1,0.1-0.2,0.2-0.3,0.4c-0.1,0.1-0.2,0.3-0.2,0.4c-0.1,0.2-0.2,0.4-0.3,0.7
						c-0.1,0.2-0.1,0.5-0.1,0.7v4.2h8.9v3h-8.9V56h-3.1V39.6l0.3-2.5c0.1-0.4,0.3-0.7,0.4-1c0.2-0.3,0.4-0.7,0.6-0.9
						c0.2-0.3,0.4-0.5,0.7-0.7c0.2-0.2,0.5-0.4,0.7-0.5c0.3-0.2,0.7-0.4,1-0.6c0.4-0.2,0.7-0.3,1.1-0.4c0.2-0.1,0.4-0.1,0.6-0.2
						c0.2,0,0.5-0.1,0.7-0.1c0.1,0,0.2,0,0.3,0L90.3,32.6L90.3,32.6L90.3,32.6z"></path>
                <path class="st1" d="M105.9,41c0.1,0,0.2,0,0.3,0h0.3c0.5,0,1.1,0.1,1.6,0.3c0.5,0.1,1,0.4,1.5,0.6c0.3,0.1,0.5,0.2,0.8,0.4
						c0.2,0.2,0.5,0.4,0.7,0.6c0.6,0.5,1,1.1,1.4,1.8c0.3,0.7,0.6,1.4,0.6,2.1V56h-2.6v-8.5c0-0.3-0.1-0.6-0.2-0.9
						c-0.1-0.3-0.2-0.6-0.4-0.9c-0.3-0.6-0.8-1-1.3-1.4c-0.5-0.4-1.1-0.6-1.8-0.7c-0.1,0-0.3-0.1-0.5-0.1c-0.2,0-0.4,0-0.5,0h-0.2
						c-0.1,0-0.1,0-0.2,0c-0.1,0-0.1,0-0.2,0c-0.1,0-0.1,0-0.2,0c-0.7,0-1.3,0.2-1.9,0.5s-1,0.7-1.4,1.3c-0.3,0.5-0.5,0.9-0.6,1.4
						c-0.1,0.5-0.2,1.1-0.2,1.6v0.2v0.2c0,0.1,0,0.2,0,0.2c0,0.1,0,0.1,0,0.2c0,0.3,0.1,0.6,0.2,0.9c0.1,0.3,0.2,0.6,0.4,0.9
						c0.1,0.3,0.3,0.5,0.5,0.8c0.2,0.2,0.4,0.5,0.6,0.7c0.2,0.2,0.5,0.4,0.8,0.5s0.6,0.3,0.9,0.4c0.2,0.1,0.5,0.1,0.7,0.2
						c0.3,0,0.5,0.1,0.8,0.1h0.1c0,0,0.1,0,0.1,0h0.1h0.1c0.3,0,0.6-0.1,0.9-0.2c0.3-0.1,0.5-0.2,0.8-0.4c0.3-0.2,0.5-0.4,0.8-0.6
						c0.2-0.2,0.5-0.5,0.6-0.7V55c-0.5,0.4-1,0.6-1.6,0.8c-0.6,0.2-1.2,0.3-1.8,0.4c-0.1,0-0.3,0-0.4,0h-0.4c-0.3,0-0.5,0-0.8-0.1
						c-0.2,0-0.5-0.1-0.7-0.1c-0.4-0.1-0.8-0.2-1.2-0.4c-0.4-0.2-0.7-0.4-1.1-0.7c-0.3-0.2-0.6-0.5-0.9-0.8s-0.5-0.5-0.8-0.9
						c-0.2-0.3-0.5-0.7-0.6-1s-0.4-0.7-0.5-1.1c-0.1-0.4-0.2-0.9-0.3-1.3c-0.1-0.4-0.1-0.9-0.1-1.3c0-0.4,0-0.8,0.1-1.2
						c0.1-0.4,0.1-0.8,0.3-1.2c0.1-0.4,0.3-0.8,0.5-1.2c0.2-0.4,0.4-0.7,0.6-1.1c0.2-0.3,0.5-0.6,0.8-0.8c0.3-0.3,0.5-0.5,0.9-0.7
						c0.3-0.2,0.6-0.4,1-0.6c0.4-0.2,0.7-0.3,1.1-0.4c0.5-0.1,0.9-0.2,1.4-0.3C105,41,105.4,41,105.9,41L105.9,41L105.9,41z"></path>
                <path class="st1" d="M118.9,34.3v14.6c0,0.7,0.2,1.3,0.4,1.9c0.3,0.6,0.6,1.1,1.1,1.6c0.2,0.2,0.5,0.5,0.8,0.6
						c0.3,0.2,0.5,0.3,0.9,0.4c0.3,0.1,0.6,0.2,1,0.2c0.3,0,0.7,0.1,1,0c0.3,0,0.6,0,0.9-0.1c0.3-0.1,0.6-0.2,0.9-0.3
						c0.3-0.1,0.6-0.3,0.8-0.5c0.3-0.2,0.5-0.4,0.7-0.7c0.2-0.3,0.4-0.5,0.6-0.8c0.2-0.3,0.3-0.6,0.4-0.8c0.1-0.3,0.2-0.6,0.3-1
						c0.1-0.3,0.1-0.7,0.1-1c0-0.1,0-0.2,0-0.3c0-0.1,0-0.2,0-0.3c0-0.2-0.1-0.4-0.1-0.6c0-0.2-0.1-0.4-0.2-0.6
						c-0.2-0.6-0.5-1.2-0.9-1.7c-0.5-0.5-1-0.9-1.6-1.1c-0.3-0.1-0.6-0.2-0.9-0.3s-0.6-0.1-1-0.1c-0.7,0-1.4,0-2.1,0.3
						c-0.7,0.2-1.3,0.5-1.9,1v-2.7c0.4-0.2,0.8-0.4,1.2-0.5c0.4-0.1,0.9-0.2,1.3-0.3c0.2,0,0.5-0.1,0.7-0.1c0.2,0,0.5,0,0.7,0
						c0.2,0,0.5,0,0.7,0c0.2,0,0.5,0,0.7,0.1c0.9,0.1,1.7,0.5,2.5,0.9c0.8,0.5,1.4,1.1,1.9,1.8c0.3,0.3,0.6,0.7,0.8,1.1
						c0.2,0.4,0.4,0.8,0.5,1.3c0,0.2,0.1,0.4,0.1,0.5c0,0.2,0.1,0.4,0.1,0.5c0,0.2,0,0.4,0,0.6c0,0.2,0,0.4,0,0.5
						c0,0.5,0,1.1-0.1,1.6c-0.1,0.5-0.2,1-0.4,1.5c-0.3,0.9-0.7,1.6-1.3,2.3c-0.6,0.7-1.3,1.2-2.1,1.7c-0.4,0.2-0.8,0.4-1.3,0.5
						s-0.9,0.2-1.3,0.2c-0.1,0-0.2,0-0.3,0c-0.1,0-0.2,0-0.3,0h-0.3h-0.3c-0.3,0-0.5,0-0.8,0s-0.5-0.1-0.8-0.1
						c-0.9-0.1-1.7-0.4-2.5-0.9c-0.8-0.5-1.4-1.1-2-1.8c-0.3-0.4-0.6-0.8-0.8-1.3c-0.2-0.5-0.4-0.9-0.5-1.4V34.3H118.9L118.9,34.3z"></path>
                <polygon class="st1" points="137.7,34.3 137.7,56 135,56 135,34.3 					"></polygon>
                <path class="st1" d="M148,40.8h0.5c0.2,0,0.3,0,0.5,0c0.3,0,0.7,0.1,1,0.1c0.4,0,0.7,0.1,1,0.2c0.5,0.1,1,0.4,1.4,0.6
						c0.5,0.2,0.9,0.5,1.3,0.9c0.5,0.4,0.9,0.9,1.2,1.3c0.4,0.5,0.7,1,0.9,1.5l-9.8,5.6l-1.3-2.2l7.2-4.2c-0.2-0.2-0.4-0.4-0.6-0.6
						c-0.2-0.2-0.5-0.4-0.8-0.5c-0.3-0.1-0.6-0.2-0.9-0.3c-0.3-0.1-0.7-0.1-1-0.2c-0.3,0-0.6,0-0.9,0.1c-0.3,0-0.6,0.1-0.9,0.2
						c-0.7,0.2-1.2,0.6-1.7,1.1c-0.5,0.5-0.9,1.1-1.1,1.8c0,0.1-0.1,0.3-0.1,0.5c0,0.2-0.1,0.3-0.1,0.5c0,0.1,0,0.3,0,0.5v0.5
						c0,0.5,0.1,1,0.2,1.4c0.1,0.5,0.3,0.9,0.6,1.3c0.2,0.4,0.5,0.8,0.9,1.1s0.7,0.7,1.1,0.9c0.4,0.2,0.7,0.3,1.1,0.4
						c0.4,0.1,0.8,0.1,1.2,0.1c0.2,0,0.5,0,0.7,0s0.5-0.1,0.7-0.1c0.3-0.1,0.6-0.2,0.9-0.4c0.3-0.1,0.5-0.3,0.8-0.5
						c0.3-0.2,0.5-0.4,0.7-0.7c0.2-0.2,0.4-0.5,0.5-0.8c0.1-0.3,0.2-0.6,0.3-1c0.1-0.3,0.1-0.7,0.1-1l2.7,0.5c0,0.6-0.1,1.1-0.3,1.6
						c-0.2,0.5-0.4,1-0.7,1.4c-0.3,0.5-0.6,0.9-1,1.2c-0.4,0.4-0.8,0.7-1.2,1c-0.5,0.3-0.9,0.5-1.4,0.7s-1,0.3-1.5,0.4
						c-0.1,0-0.3,0-0.4,0.1c-0.1,0-0.3,0-0.4,0.1h-0.4h-0.4c-0.3,0-0.5,0-0.8,0c-0.3,0-0.5,0-0.8-0.1c-0.5,0-1-0.2-1.5-0.4
						c-0.5-0.2-1-0.5-1.4-0.8c-0.8-0.7-1.5-1.4-2-2.3c-0.5-0.9-0.9-1.8-1.1-2.8c0-0.2,0-0.3,0-0.5v-0.5v-0.4c0-0.1,0-0.2,0-0.3
						c0-0.2,0-0.5,0-0.7c0-0.2,0.1-0.5,0.1-0.7c0.1-0.5,0.3-1,0.5-1.5c0.2-0.5,0.4-0.9,0.7-1.4c0.3-0.4,0.6-0.8,1-1.2
						c0.4-0.4,0.8-0.7,1.3-0.9s1-0.5,1.5-0.6C146.9,40.9,147.4,40.9,148,40.8L148,40.8L148,40.8z"></path>
            </g>
            <g id="Shape_1_" transform="translate(0.000000, 26.555944)">
                <polygon class="st2" points="87.5,32.5 87.5,33.4 85.9,33.4 85.9,38.8 85,38.8 85,33.4 83.5,33.4 83.5,32.5 					"></polygon>
                <path class="st2" d="M89.9,34.4h0.1c0,0,0.1,0,0.1,0c0.1,0,0.2,0,0.3,0c0.1,0,0.2,0,0.3,0.1c0.1,0,0.3,0.1,0.4,0.2
						c0.1,0.1,0.3,0.2,0.4,0.2c0.1,0.1,0.2,0.2,0.4,0.4c0.1,0.1,0.2,0.3,0.3,0.5l-2.8,1.6L89,36.8l2.1-1.2c-0.1-0.1-0.1-0.1-0.2-0.2
						c-0.1-0.1-0.1-0.1-0.2-0.1c-0.1,0-0.2-0.1-0.3-0.1s-0.2,0-0.3,0c-0.1,0-0.2,0-0.3,0c-0.1,0-0.2,0-0.3,0.1
						c-0.2,0.1-0.4,0.2-0.5,0.3c-0.1,0.1-0.2,0.3-0.3,0.5c0,0,0,0.1,0,0.1c0,0,0,0.1,0,0.1s0,0.1,0,0.1v0.1c0,0.1,0,0.3,0.1,0.4
						c0,0.1,0.1,0.3,0.2,0.4c0.1,0.1,0.2,0.2,0.3,0.3c0.1,0.1,0.2,0.2,0.3,0.3c0.1,0.1,0.2,0.1,0.3,0.1c0.1,0,0.2,0,0.4,0
						c0.1,0,0.1,0,0.2,0c0.1,0,0.1,0,0.2,0c0.1,0,0.2-0.1,0.3-0.1c0.1,0,0.2-0.1,0.2-0.1c0.1-0.1,0.2-0.1,0.2-0.2
						c0.1-0.1,0.1-0.1,0.2-0.2c0-0.1,0.1-0.2,0.1-0.3c0-0.1,0-0.2,0-0.3l0.8,0.2c0,0.2,0,0.3-0.1,0.5c0,0.1-0.1,0.3-0.2,0.4
						c-0.1,0.1-0.2,0.2-0.3,0.4c-0.1,0.1-0.2,0.2-0.3,0.3c-0.1,0.1-0.3,0.2-0.4,0.2c-0.1,0.1-0.3,0.1-0.4,0.1c0,0-0.1,0-0.1,0
						s-0.1,0-0.1,0h-0.1h-0.1c-0.1,0-0.1,0-0.2,0c-0.1,0-0.1,0-0.2,0c-0.1,0-0.3,0-0.4-0.1c-0.1-0.1-0.3-0.1-0.4-0.2
						c-0.2-0.2-0.4-0.4-0.6-0.7C88.1,37.6,88,37.3,88,37c0,0,0-0.1,0-0.1v-0.1v-0.1c0,0,0-0.1,0-0.1c0-0.1,0-0.1,0-0.2
						c0-0.1,0-0.1,0-0.2c0-0.1,0.1-0.3,0.1-0.4c0-0.1,0.1-0.3,0.2-0.4s0.2-0.2,0.3-0.3c0.1-0.1,0.2-0.2,0.4-0.3
						c0.1-0.1,0.3-0.1,0.4-0.2C89.6,34.4,89.8,34.4,89.9,34.4L89.9,34.4L89.9,34.4z"></path>
                <path class="st2" d="M95.1,34.5h1v0.8h-0.8H95c-0.1,0-0.2,0.1-0.3,0.1c-0.1,0-0.2,0.1-0.3,0.1c-0.1,0.1-0.1,0.1-0.2,0.2
						c-0.1,0.1-0.1,0.1-0.2,0.2c0,0.1-0.1,0.1-0.1,0.2c0,0.1-0.1,0.2-0.1,0.2c0,0.1,0,0.1,0,0.2s0,0.1,0,0.2v0.1c0,0,0,0.1,0,0.1
						c0,0.1,0,0.2,0.1,0.3c0,0.1,0.1,0.2,0.1,0.3c0,0.1,0.1,0.1,0.1,0.2c0,0.1,0.1,0.1,0.2,0.2c0.1,0.1,0.1,0.1,0.2,0.2
						c0.1,0,0.2,0.1,0.2,0.1c0.1,0,0.3,0.1,0.4,0.1c0.1,0,0.3,0,0.4,0c0.1,0,0.1,0,0.2,0c0.1,0,0.1,0,0.2,0v0.7h-0.8l-0.5,0
						c-0.1,0-0.3-0.1-0.4-0.1c-0.1,0-0.3-0.1-0.4-0.2c-0.1-0.1-0.2-0.1-0.3-0.2c-0.1-0.1-0.2-0.1-0.2-0.2c-0.1-0.1-0.1-0.2-0.2-0.2
						c0-0.1-0.1-0.2-0.1-0.3c0-0.1-0.1-0.1-0.1-0.2c0-0.1,0-0.1-0.1-0.2c0,0,0-0.1,0-0.1c0,0,0-0.1,0-0.1c0-0.1,0-0.2,0-0.4
						c0-0.1,0-0.2,0-0.4c0-0.1,0-0.2,0.1-0.3c0-0.1,0.1-0.2,0.1-0.3c0.1-0.1,0.1-0.2,0.2-0.3c0.1-0.1,0.2-0.2,0.3-0.3
						c0.1-0.1,0.1-0.1,0.2-0.2c0.1,0,0.1-0.1,0.2-0.1c0.1-0.1,0.3-0.1,0.4-0.1C94.8,34.5,94.9,34.5,95.1,34.5L95.1,34.5L95.1,34.5z"></path>
                <path class="st2" d="M97.6,32.6V35c0.1-0.1,0.3-0.2,0.5-0.3s0.4-0.1,0.5-0.2c0,0,0,0,0.1,0h0.1c0.1,0,0.1,0,0.2,0
						c0.1,0,0.1,0,0.2,0c0.2,0,0.3,0.1,0.5,0.2c0.1,0.1,0.3,0.2,0.4,0.3c0.1,0.2,0.2,0.3,0.3,0.5c0.1,0.2,0.1,0.4,0.1,0.6v2.6h-0.8
						v-2.8c0-0.1,0-0.1,0-0.2c0-0.1-0.1-0.1-0.1-0.2c-0.1-0.1-0.2-0.2-0.3-0.3c-0.1-0.1-0.3-0.1-0.4-0.1c-0.1,0-0.2,0-0.2,0
						c-0.1,0-0.1,0-0.2,0.1c-0.1,0-0.2,0.1-0.2,0.1c-0.1,0-0.1,0.1-0.2,0.2c-0.1,0.1-0.2,0.3-0.2,0.4c0,0.1-0.1,0.3-0.1,0.5v2.4
						h-0.8v-6.2L97.6,32.6L97.6,32.6z"></path>
                <path class="st2" d="M102.9,34.5C102.9,34.5,103,34.5,102.9,34.5h0.1c0,0,0,0,0.1,0h0.1c0.1,0,0.2,0,0.3,0c0.1,0,0.2,0,0.3,0
						c0.1,0,0.2,0,0.3,0.1c0.1,0,0.2,0.1,0.3,0.1c0.2,0.1,0.3,0.3,0.5,0.5c0.1,0.2,0.2,0.4,0.3,0.6v3h-0.8v-2.6c0-0.1,0-0.2,0-0.2
						c0-0.1-0.1-0.2-0.1-0.2c-0.1-0.1-0.2-0.3-0.3-0.4s-0.3-0.1-0.4-0.2h0h0c0,0,0,0,0,0h0c0,0-0.1,0-0.2,0c0,0-0.1,0-0.2,0
						c-0.1,0-0.3,0.1-0.4,0.2c-0.1,0.1-0.2,0.2-0.2,0.4c0,0.1,0,0.1,0,0.2s0,0.1,0,0.2c0,0.1,0,0.1,0,0.2v0.2v2.3h-0.8v-2.5
						c0-0.2,0-0.5,0.1-0.7c0.1-0.2,0.2-0.4,0.4-0.6c0.1-0.1,0.3-0.3,0.5-0.4C102.5,34.6,102.7,34.5,102.9,34.5L102.9,34.5
						L102.9,34.5z"></path>
                <path class="st2" d="M108.2,34.5c0.1,0,0.2,0,0.3,0c0.1,0,0.2,0,0.3,0.1c0.2,0.1,0.3,0.1,0.4,0.2c0.1,0.1,0.3,0.2,0.4,0.3
						c0.1,0.1,0.2,0.2,0.3,0.4s0.2,0.3,0.2,0.5c0,0.2,0.1,0.3,0.1,0.5c0,0.2,0,0.3,0,0.5c0,0.2,0,0.3-0.1,0.5
						c-0.1,0.2-0.1,0.3-0.2,0.5c-0.1,0.1-0.2,0.3-0.3,0.4c-0.1,0.1-0.2,0.2-0.4,0.3c-0.1,0.1-0.3,0.1-0.4,0.2s-0.3,0.1-0.5,0.1
						c0,0-0.1,0-0.1,0h-0.1c0,0-0.1,0-0.1,0H108c-0.1,0-0.2,0-0.3,0c-0.1,0-0.2,0-0.3-0.1c-0.2,0-0.3-0.1-0.5-0.2
						c-0.1-0.1-0.3-0.2-0.4-0.3c-0.1-0.1-0.2-0.2-0.3-0.4c-0.1-0.1-0.2-0.3-0.2-0.4c0-0.1-0.1-0.2-0.1-0.4c0-0.1,0-0.3,0-0.4v-0.1
						v-0.1c0,0,0,0,0,0v-0.1c0-0.2,0-0.3,0.1-0.5s0.1-0.3,0.2-0.5c0.1-0.1,0.2-0.3,0.3-0.4c0.1-0.1,0.2-0.2,0.4-0.3
						c0.1-0.1,0.3-0.2,0.4-0.2c0.2-0.1,0.3-0.1,0.5-0.1c0.1,0,0.2,0,0.2,0C108,34.5,108.1,34.5,108.2,34.5L108.2,34.5L108.2,34.5z
						 M108.3,35.2L108.3,35.2h-0.1c0,0,0,0-0.1,0H108h-0.1h-0.1c0,0-0.1,0-0.1,0c0,0-0.1,0-0.1,0c-0.1,0-0.2,0.1-0.3,0.1
						c-0.1,0.1-0.2,0.1-0.3,0.2c-0.1,0.1-0.1,0.2-0.2,0.3s-0.1,0.2-0.1,0.3c0,0.1,0,0.2-0.1,0.3c0,0.1,0,0.2,0,0.3
						c0,0.1,0,0.2,0.1,0.3c0,0.1,0.1,0.2,0.1,0.3c0,0.1,0.1,0.2,0.2,0.3c0.1,0.1,0.2,0.1,0.2,0.2c0.1,0.1,0.2,0.1,0.3,0.2
						c0.1,0,0.2,0.1,0.3,0.1c0,0,0.1,0,0.1,0h0.1c0.1,0,0.1,0,0.2,0c0.1,0,0.1,0,0.2-0.1c0.1,0,0.2-0.1,0.3-0.1s0.2-0.1,0.3-0.2
						c0.1-0.1,0.1-0.1,0.2-0.2c0.1-0.1,0.1-0.2,0.1-0.3c0-0.1,0-0.1,0.1-0.2c0-0.1,0-0.1,0-0.2v-0.1c0,0,0-0.1,0-0.1
						c0-0.1,0-0.2,0-0.3s-0.1-0.2-0.1-0.3c0-0.1-0.1-0.2-0.2-0.3s-0.2-0.2-0.2-0.2c-0.1-0.1-0.2-0.1-0.3-0.2
						C108.5,35.3,108.4,35.2,108.3,35.2L108.3,35.2L108.3,35.2z"></path>
                <polygon class="st2" points="112,32.5 112,38.8 111.2,38.8 111.2,32.5 					"></polygon>
                <path class="st2" d="M115.3,34.5c0.1,0,0.2,0,0.3,0c0.1,0,0.2,0,0.3,0.1c0.2,0.1,0.3,0.1,0.4,0.2c0.1,0.1,0.3,0.2,0.4,0.3
						c0.1,0.1,0.2,0.2,0.3,0.4s0.2,0.3,0.2,0.5c0,0.2,0.1,0.3,0.1,0.5s0,0.3,0,0.5c0,0.2,0,0.3-0.1,0.5c-0.1,0.2-0.1,0.3-0.2,0.5
						c-0.1,0.1-0.2,0.3-0.3,0.4c-0.1,0.1-0.2,0.2-0.4,0.3c-0.1,0.1-0.3,0.1-0.4,0.2c-0.2,0-0.3,0.1-0.5,0.1c0,0-0.1,0-0.1,0h-0.1
						c0,0-0.1,0-0.1,0h-0.1c-0.1,0-0.2,0-0.3,0c-0.1,0-0.2,0-0.3-0.1c-0.2,0-0.3-0.1-0.5-0.2c-0.1-0.1-0.3-0.2-0.4-0.3
						c-0.1-0.1-0.2-0.2-0.3-0.4c-0.1-0.1-0.2-0.3-0.2-0.4c0-0.1-0.1-0.2-0.1-0.4c0-0.1,0-0.3,0-0.4v-0.1v-0.1v0v-0.1
						c0-0.2,0-0.3,0.1-0.5s0.1-0.3,0.2-0.5c0.1-0.1,0.2-0.3,0.3-0.4c0.1-0.1,0.2-0.2,0.4-0.3c0.1-0.1,0.3-0.2,0.5-0.2
						s0.3-0.1,0.5-0.1c0.1,0,0.2,0,0.2,0C115.1,34.5,115.2,34.5,115.3,34.5L115.3,34.5L115.3,34.5z M115.4,35.2L115.4,35.2h-0.1
						c0,0,0,0-0.1,0h-0.1H115h-0.1c0,0-0.1,0-0.1,0c0,0-0.1,0-0.1,0c-0.1,0-0.2,0.1-0.3,0.1c-0.1,0.1-0.2,0.1-0.3,0.2
						c-0.1,0.1-0.1,0.2-0.2,0.3c-0.1,0.1-0.1,0.2-0.1,0.3c0,0.1,0,0.2-0.1,0.3c0,0.1,0,0.2,0,0.3c0,0.1,0,0.2,0.1,0.3
						c0,0.1,0.1,0.2,0.1,0.3c0,0.1,0.1,0.2,0.2,0.3c0.1,0.1,0.2,0.1,0.2,0.2c0.1,0.1,0.2,0.1,0.3,0.2c0.1,0,0.2,0.1,0.3,0.1
						c0,0,0.1,0,0.1,0h0.1c0.1,0,0.1,0,0.2,0c0.1,0,0.1,0,0.2-0.1c0.1,0,0.2-0.1,0.3-0.1s0.2-0.1,0.3-0.2c0.1-0.1,0.1-0.1,0.2-0.2
						c0.1-0.1,0.1-0.2,0.1-0.3c0-0.1,0-0.1,0.1-0.2c0-0.1,0-0.1,0-0.2v-0.1c0,0,0-0.1,0-0.1c0-0.1,0-0.2,0-0.3s-0.1-0.2-0.1-0.3
						c0-0.1-0.1-0.2-0.2-0.3s-0.2-0.2-0.2-0.2c-0.1-0.1-0.2-0.1-0.3-0.2C115.6,35.3,115.5,35.2,115.4,35.2L115.4,35.2L115.4,35.2z"></path>
                <path class="st2" d="M120.2,34.5h0.2c0.1,0,0.1,0,0.2,0c0.2,0,0.3,0,0.5,0.1c0.2,0,0.3,0.1,0.4,0.2c0.1,0.1,0.2,0.2,0.3,0.3
						c0.1,0.1,0.2,0.2,0.3,0.4c0.1,0.1,0.1,0.3,0.2,0.4c0,0.1,0.1,0.3,0.1,0.5v2.6c0,0.1,0,0.2-0.1,0.3c0,0.1-0.1,0.2-0.1,0.3
						c0,0.1-0.1,0.2-0.2,0.3c-0.1,0.1-0.1,0.2-0.2,0.3s-0.2,0.2-0.3,0.2c-0.1,0.1-0.2,0.1-0.3,0.2c-0.1,0-0.3,0.1-0.4,0.1
						c-0.1,0-0.3,0-0.5,0.1c-0.1,0-0.2,0-0.3,0c-0.1,0-0.2,0-0.3,0c-0.2,0-0.3-0.1-0.5-0.1c-0.1,0-0.3-0.1-0.4-0.1l0.1-0.7
						c0.2,0.1,0.3,0.1,0.5,0.1s0.4,0.1,0.5,0.1c0,0,0.1,0,0.1,0h0.1c0.1,0,0.3,0,0.4-0.1c0.1,0,0.3-0.1,0.4-0.2
						c0.1,0,0.1-0.1,0.2-0.1c0.1,0,0.1-0.1,0.2-0.2c0-0.1,0.1-0.1,0.1-0.2c0-0.1,0.1-0.2,0.1-0.2c0-0.1,0-0.1,0-0.2
						c0-0.1,0-0.1,0-0.2v-2c0-0.2,0-0.4-0.1-0.6c-0.1-0.2-0.2-0.4-0.3-0.5s-0.3-0.3-0.5-0.3c-0.2-0.1-0.4-0.1-0.5-0.1
						c-0.1,0-0.2,0-0.3,0c-0.1,0-0.2,0-0.3,0.1c-0.2,0-0.3,0.1-0.4,0.2c-0.1,0.1-0.2,0.2-0.3,0.4c0,0.1-0.1,0.2-0.1,0.3
						c0,0.1,0,0.2,0,0.3v0v0v0v0c0,0.1,0,0.3,0.1,0.4c0,0.1,0.1,0.3,0.2,0.4c0.1,0.1,0.1,0.2,0.2,0.2c0.1,0.1,0.1,0.1,0.2,0.2
						c0.1,0,0.1,0.1,0.2,0.1c0.1,0,0.1,0,0.2,0h0.1h0.1c0,0,0.1,0,0.1,0h0.1c0.1,0,0.1,0,0.2,0c0.1,0,0.1,0,0.2,0
						c0.1,0,0.2-0.1,0.3-0.1c0.1,0,0.2-0.1,0.3-0.2v0.7c-0.1,0.1-0.2,0.1-0.2,0.2s-0.2,0.1-0.3,0.1c-0.1,0-0.2,0-0.3,0
						c-0.1,0-0.2,0-0.3,0h-0.1c0,0-0.1,0-0.1,0c0,0-0.1,0-0.1,0c0,0-0.1,0-0.1,0c-0.2,0-0.3-0.1-0.5-0.1s-0.3-0.1-0.4-0.2
						c-0.1-0.1-0.3-0.2-0.4-0.3c-0.1-0.1-0.2-0.3-0.3-0.4s-0.1-0.3-0.2-0.5c0-0.2-0.1-0.3-0.1-0.5c0-0.2,0-0.3,0-0.5
						c0-0.2,0.1-0.3,0.1-0.5c0.1-0.1,0.1-0.3,0.2-0.4c0.1-0.1,0.2-0.3,0.3-0.4c0.2-0.2,0.4-0.3,0.6-0.4
						C119.6,34.5,119.9,34.5,120.2,34.5L120.2,34.5L120.2,34.5z"></path>
                <path class="st2" d="M124.1,34.5v2.7c0,0.1,0,0.2,0,0.3c0,0.1,0.1,0.2,0.1,0.3c0.1,0.1,0.2,0.2,0.4,0.3
						c0.1,0.1,0.3,0.1,0.5,0.1c0.1,0,0.3,0,0.4-0.1c0.1-0.1,0.2-0.1,0.3-0.2c0.1-0.1,0.1-0.2,0.2-0.3s0-0.2,0.1-0.3v-2.7h0.8v2.7
						v0.1c0,0,0,0.1,0,0.1c0,0.1,0,0.1,0,0.2c0,0.1,0,0.1-0.1,0.2c0,0.1-0.1,0.2-0.1,0.3c0,0.1-0.1,0.2-0.2,0.2
						c0,0.1-0.1,0.1-0.2,0.2c-0.1,0.1-0.1,0.1-0.2,0.2c-0.1,0.1-0.2,0.1-0.3,0.2c-0.1,0-0.2,0.1-0.3,0.1v1.9h-0.8v-1.9
						c-0.1,0-0.3,0-0.4-0.1s-0.2-0.1-0.3-0.2c-0.1,0-0.2-0.1-0.2-0.2s-0.1-0.1-0.2-0.2c-0.1-0.1-0.1-0.2-0.2-0.3
						c0-0.1-0.1-0.2-0.1-0.3v-3H124.1L124.1,34.5z"></path>
                <path class="st2" d="M134.6,32.5v0.8h-0.1h-0.1h-0.1h-0.1c-0.1,0-0.2,0-0.3,0c-0.1,0-0.2,0-0.3,0c-0.2,0-0.3,0-0.5,0.1
						c-0.1,0-0.3,0.1-0.4,0.2c-0.1,0-0.2,0.1-0.3,0.2c-0.1,0.1-0.2,0.2-0.3,0.2c-0.1,0.1-0.2,0.2-0.2,0.3c-0.1,0.1-0.1,0.2-0.2,0.3
						c-0.1,0.1-0.1,0.2-0.1,0.4c0,0.1-0.1,0.3-0.1,0.4c0,0.1,0,0.1,0,0.2c0,0.1,0,0.1,0,0.2c0,0.1,0,0.1,0,0.2c0,0.1,0,0.1,0,0.2
						c0,0.1,0.1,0.3,0.1,0.4c0,0.1,0.1,0.2,0.2,0.4c0.1,0.2,0.3,0.4,0.5,0.5c0.2,0.2,0.4,0.3,0.6,0.4c0.2,0.1,0.4,0.1,0.6,0.1
						c0.2,0,0.4,0,0.6,0c0.1,0,0.2,0,0.3,0c0.1,0,0.2,0,0.3,0v0.8H134l-0.6,0c-0.2,0-0.3,0-0.5-0.1c-0.2,0-0.3-0.1-0.5-0.2
						c-0.1-0.1-0.3-0.1-0.4-0.2c-0.1-0.1-0.2-0.2-0.3-0.3c-0.1-0.1-0.2-0.2-0.3-0.3c-0.1-0.1-0.2-0.2-0.3-0.3
						c-0.1-0.2-0.2-0.3-0.3-0.5c-0.1-0.2-0.1-0.4-0.2-0.5c0-0.2,0-0.4,0-0.6c0-0.2,0-0.4,0-0.6c0-0.2,0.1-0.3,0.1-0.5
						c0-0.2,0.1-0.3,0.2-0.5c0.1-0.1,0.2-0.3,0.3-0.4c0.1-0.1,0.2-0.3,0.3-0.4c0.1-0.1,0.2-0.2,0.3-0.3c0.1-0.1,0.2-0.2,0.4-0.2
						c0.2-0.1,0.4-0.2,0.6-0.2c0.2-0.1,0.4-0.1,0.6-0.2c0.1,0,0.3,0,0.4-0.1c0.1,0,0.3,0,0.4,0h0.2
						C134.5,32.5,134.6,32.5,134.6,32.5L134.6,32.5L134.6,32.5z"></path>
                <path class="st2" d="M137.6,34.5c0.1,0,0.2,0,0.3,0c0.1,0,0.2,0,0.3,0.1c0.2,0.1,0.3,0.1,0.4,0.2c0.1,0.1,0.3,0.2,0.4,0.3
						c0.1,0.1,0.2,0.2,0.3,0.4c0.1,0.1,0.2,0.3,0.2,0.5c0,0.2,0.1,0.3,0.1,0.5s0,0.3,0,0.5c0,0.2,0,0.3-0.1,0.5
						c-0.1,0.2-0.1,0.3-0.2,0.5c-0.1,0.1-0.2,0.3-0.3,0.4c-0.1,0.1-0.2,0.2-0.4,0.3c-0.1,0.1-0.3,0.1-0.4,0.2
						c-0.2,0-0.3,0.1-0.5,0.1c0,0-0.1,0-0.1,0h-0.1c0,0-0.1,0-0.1,0h-0.1c-0.1,0-0.2,0-0.3,0c-0.1,0-0.2,0-0.3-0.1
						c-0.2,0-0.3-0.1-0.5-0.2c-0.1-0.1-0.3-0.2-0.4-0.3c-0.1-0.1-0.2-0.2-0.3-0.4c-0.1-0.1-0.2-0.3-0.2-0.4c0-0.1-0.1-0.2-0.1-0.4
						c0-0.1,0-0.3,0-0.4v-0.1v-0.1v0v-0.1c0-0.2,0-0.3,0.1-0.5c0-0.2,0.1-0.3,0.2-0.5c0.1-0.1,0.2-0.3,0.3-0.4
						c0.1-0.1,0.2-0.2,0.4-0.3c0.1-0.1,0.3-0.2,0.5-0.2c0.2-0.1,0.3-0.1,0.5-0.1c0.1,0,0.2,0,0.2,0
						C137.4,34.5,137.5,34.5,137.6,34.5L137.6,34.5L137.6,34.5z M137.7,35.2L137.7,35.2h-0.1c0,0,0,0-0.1,0h-0.1h-0.1h-0.1
						c0,0-0.1,0-0.1,0c0,0-0.1,0-0.1,0c-0.1,0-0.2,0.1-0.3,0.1c-0.1,0.1-0.2,0.1-0.3,0.2c-0.1,0.1-0.1,0.2-0.2,0.3
						c0,0.1-0.1,0.2-0.1,0.3c0,0.1,0,0.2,0,0.3c0,0.1,0,0.2,0,0.3c0,0.1,0,0.2,0.1,0.3c0,0.1,0.1,0.2,0.1,0.3c0,0.1,0.1,0.2,0.2,0.3
						c0.1,0.1,0.2,0.1,0.2,0.2c0.1,0.1,0.2,0.1,0.3,0.2c0.1,0,0.2,0.1,0.3,0.1c0,0,0.1,0,0.1,0h0.1c0.1,0,0.1,0,0.2,0
						c0.1,0,0.1,0,0.2-0.1c0.1,0,0.2-0.1,0.3-0.1c0.1-0.1,0.2-0.1,0.3-0.2c0.1-0.1,0.1-0.1,0.2-0.2c0.1-0.1,0.1-0.2,0.1-0.3
						c0-0.1,0-0.1,0.1-0.2c0-0.1,0-0.1,0-0.2v-0.1c0,0,0-0.1,0-0.1c0-0.1,0-0.2,0-0.3s-0.1-0.2-0.1-0.3c0-0.1-0.1-0.2-0.2-0.3
						s-0.2-0.2-0.2-0.2c-0.1-0.1-0.2-0.1-0.3-0.2C137.9,35.3,137.8,35.2,137.7,35.2L137.7,35.2L137.7,35.2z"></path>
                <path class="st2" d="M141.1,37.8c0,0,0.1,0,0.1,0s0.1,0,0.1,0c0,0,0.1,0.1,0.1,0.1c0,0,0.1,0.1,0.1,0.1c0,0,0,0.1,0,0.1
						c0,0,0,0.1,0,0.1c0,0.1,0,0.1,0,0.2c0,0,0,0.1-0.1,0.2c0,0-0.1,0.1-0.1,0.1c0,0-0.1,0-0.1,0c0,0,0,0,0,0h0c0,0,0,0,0,0h0h0
						c0,0,0,0,0,0h0h0c0,0-0.1,0-0.1-0.1s-0.1-0.1-0.1-0.1c0,0-0.1-0.1-0.1-0.1c0,0,0-0.1,0-0.2s0-0.1,0-0.2s0-0.1,0.1-0.1
						c0,0,0.1-0.1,0.1-0.1c0,0,0.1-0.1,0.1-0.1c0,0,0.1,0,0.1,0H141.1L141.1,37.8L141.1,37.8z"></path>
                <path class="st2" d="M146.4,32.6v4.3c0,0.1,0,0.2,0,0.3c0,0.1,0,0.2,0.1,0.3c0,0.1,0.1,0.2,0.1,0.2c0,0.1,0.1,0.1,0.2,0.2
						c0.1,0.1,0.3,0.1,0.4,0.2c0.1,0,0.3,0,0.4,0l0.9,0v0.8h-0.7h-0.3l-0.3,0c-0.2,0-0.4-0.1-0.6-0.2c-0.2-0.1-0.4-0.2-0.5-0.3
						c-0.1-0.1-0.1-0.1-0.2-0.2c-0.1-0.1-0.1-0.1-0.2-0.2c0-0.1-0.1-0.2-0.1-0.3c0-0.1,0-0.2,0-0.3v-4.6H146.4L146.4,32.6z"></path>
                <path class="st2" d="M149.9,33.4v1.1h1.6v0.7h-1.6v2.4v0v0c0,0,0,0.1,0,0.1c0,0,0,0.1,0.1,0.1c0,0,0.1,0.1,0.2,0.1
						c0.1,0,0.1,0,0.2,0l1,0v0.7h-1.3c-0.1,0-0.2,0-0.2,0s-0.2-0.1-0.2-0.1c-0.1,0-0.2-0.1-0.2-0.2s-0.1-0.1-0.2-0.2
						c0-0.1-0.1-0.1-0.1-0.2c0-0.1,0-0.1-0.1-0.2c0,0,0-0.1,0-0.1v-0.1c0,0,0-0.1,0-0.1v-0.1v-4.1L149.9,33.4L149.9,33.4z"></path>
                <path class="st2" d="M156.2,32.5v4.2c0,0.2,0,0.4-0.1,0.5c0,0.2-0.1,0.3-0.2,0.5c-0.1,0.1-0.1,0.2-0.2,0.4
						c-0.1,0.1-0.2,0.2-0.3,0.3c-0.1,0.1-0.2,0.1-0.3,0.2c-0.1,0.1-0.2,0.1-0.4,0.2c-0.1,0-0.1,0-0.2,0c-0.1,0-0.1,0-0.2,0h-0.1
						h-0.1h0h0h0h0c-0.1,0-0.3,0-0.4,0s-0.3-0.1-0.4-0.1c-0.1-0.1-0.2-0.1-0.3-0.2c-0.1-0.1-0.2-0.2-0.3-0.3
						c-0.1-0.1-0.2-0.2-0.3-0.3s-0.1-0.2-0.2-0.4c0-0.1-0.1-0.3-0.1-0.4c0-0.1,0-0.3-0.1-0.4c0-0.3,0-0.5,0.1-0.8
						c0.1-0.3,0.2-0.5,0.4-0.7c0.2-0.2,0.4-0.4,0.6-0.5c0.2-0.1,0.5-0.2,0.8-0.3c0.2,0,0.5,0,0.7,0.1c0.2,0,0.5,0.1,0.7,0.2v0.8
						c-0.1-0.1-0.2-0.1-0.3-0.2s-0.2-0.1-0.3-0.1c-0.1,0-0.2,0-0.3-0.1c-0.1,0-0.2,0-0.3,0c-0.1,0-0.2,0-0.3,0c-0.1,0-0.2,0-0.3,0.1
						c-0.2,0.1-0.3,0.2-0.5,0.3c-0.1,0.1-0.2,0.3-0.3,0.5c0,0.1-0.1,0.2-0.1,0.3c0,0.1,0,0.2,0,0.3c0,0.1,0,0.2,0,0.3
						c0,0.1,0,0.2,0.1,0.3c0.1,0.2,0.1,0.3,0.2,0.5c0.1,0.1,0.2,0.3,0.4,0.4c0.1,0,0.2,0.1,0.2,0.1c0.1,0,0.2,0,0.3,0.1
						c0,0,0.1,0,0.1,0h0.1c0,0,0.1,0,0.2,0c0,0,0.1,0,0.1,0c0.1,0,0.2-0.1,0.3-0.1c0.1,0,0.2-0.1,0.2-0.1c0.1-0.1,0.3-0.2,0.4-0.4
						c0.1-0.1,0.2-0.3,0.2-0.5v-4.5L156.2,32.5L156.2,32.5z"></path>
            </g>
        </g>
    </g>
</svg>