<?xml version="1.0" encoding="utf-8"?>
<!-- Generator: Adobe Illustrator 20.0.0, SVG Export Plug-In . SVG Version: 6.00 Build 0)  -->
<svg version="1.1" id="JudeCreativePartners" xmlns="http://www.w3.org/2000/svg" xmlns:xlink="http://www.w3.org/1999/xlink" x="0px" y="0px" viewBox="0 0 240 100" style="enable-background:new 0 0 240 100;" xml:space="preserve">
    <style type="text/css">
	.st0{fill:#414042;}
	.st1{fill:#E4594E;}
</style>
    <title>JudeCreativePartners</title>
    <g id="JudeCreativePartners" transform="translate(-25.000000, -35.000000)">
        <g id="JudeCreativePartners" transform="translate(25.000000, 35.000000)">
            <path id="Shape" class="st0" d="M124.3,55.2c-0.5,0-0.8-0.2-1-0.6l-3.7-9.4h1.1l3.4,8.7c0,0.1,0.1,0.2,0.1,0.2
				c0.1,0,0.1-0.1,0.1-0.1l3.4-8.7h1.1l-3.7,9.4C125.2,55,124.9,55.2,124.3,55.2L124.3,55.2z M92,55.1c-2.8,0-5.1-2.3-5.1-5.1
				S89.2,45,92,45c1.8,0,3.4,0.9,4.3,2.4l0,0.1l-7,4.7l-0.6-0.8l6.1-4.1C94.1,46.4,93.1,46,92,46c-2.2,0-4,1.8-4,4c0,2.2,1.8,4,4,4
				c2.2,0,3.9-1.7,4-3.9v-0.1h1v0.1C96.9,53,94.7,55.2,92,55.1L92,55.1z M134.6,55.2c-2.8,0-5.1-2.3-5.1-5.1s2.3-5.1,5.1-5.1
				c1.8,0,3.4,0.9,4.3,2.4l0,0.1l-7,4.7l-0.6-0.8l6.1-4.1c-0.8-0.8-1.8-1.2-2.9-1.2c-2.2,0-4,1.8-4,4s1.8,4,4,4c2.2,0,3.9-1.7,4-3.9
				v-0.1h1v0.1C139.5,53,137.3,55.2,134.6,55.2L134.6,55.2z M103.1,46.1c-2.2,0-4,1.8-4,4s1.8,4,4,4s4-1.8,4-4
				S105.3,46.1,103.1,46.1L103.1,46.1z M103.1,55.2c-2.8,0-5.1-2.3-5.1-5.1s2.3-5.1,5.1-5.1c1.6,0,3.1,0.8,4,2v-1.8h1V55h-1v-1.8
				C106.2,54.4,104.7,55.2,103.1,55.2L103.1,55.2z M79.6,54.3c-0.8,0.6-1.8,0.9-2.8,0.9c-2.8,0-5.1-2.3-5.1-5.1S74,45,76.8,45
				c1,0,1.9,0.3,2.8,0.8l-0.8,0.7c-0.6-0.3-1.3-0.5-2-0.5c-2.2,0-4,1.8-4,4s1.8,4,4,4c0.7,0,1.4-0.2,2-0.5L79.6,54.3L79.6,54.3
				L79.6,54.3z M113.2,54.9c-1.8,0-2.9-1-2.9-2.8v-9.5h1v2.6h3.3v1h-3.3v5.9c0,1.2,0.6,1.8,1.8,1.8h1.5v1L113.2,54.9L113.2,54.9
				L113.2,54.9z M117.4,44.1c-0.4,0-0.8-0.3-0.8-0.8c0-0.4,0.3-0.8,0.8-0.8s0.8,0.3,0.8,0.8C118.2,43.8,117.9,44.1,117.4,44.1
				L117.4,44.1z M116.9,54.9v-9.7h1v9.7H116.9L116.9,54.9z M81.7,54.9v-9.7h1v1.3c0.7-0.8,1.7-1.3,2.7-1.3h1v1h-1
				c-1.1,0-2,0.8-2.3,1.5c0,0-0.3,0.7-0.3,1.1v6L81.7,54.9L81.7,54.9L81.7,54.9z M186.6,54.9V49c0-1.8-1.2-3-2.9-3
				c-1.7,0-2.9,1.2-2.9,3v5.9h-1V49c0-2.3,1.7-4,3.9-4c2.3,0,3.9,1.7,3.9,4v5.9H186.6L186.6,54.9L186.6,54.9z M206.3,54.9v-1h4.4
				c1.4,0,2.1-0.5,2.1-1.4c0-1.4-1.5-1.7-3-2.1c-1.7-0.4-3.5-0.8-3.5-2.8c0-1.4,1.1-2.4,2.5-2.4h4.4v1H209c-0.7,0-1.5,0.4-1.5,1.4
				c0,1.2,1.3,1.5,2.8,1.8c1.8,0.4,3.8,0.8,3.8,2.9c0,1.7-1.2,2.6-3.4,2.6H206.3L206.3,54.9L206.3,54.9z M194.5,55.1
				c-2.8,0-5.1-2.3-5.1-5.1s2.3-5.1,5.1-5.1c1.8,0,3.4,0.9,4.3,2.4l0,0.1l-7,4.7l-0.6-0.8l6.1-4.1c-0.8-0.8-1.8-1.2-2.9-1.2
				c-2.2,0-4,1.8-4,4c0,2.2,1.8,4,4,4c2.2,0,3.9-1.7,4-3.9v-0.1h1v0.1C199.5,53,197.3,55.2,194.5,55.1L194.5,55.1z M160.8,46.1
				c-2.2,0-4,1.8-4,4s1.8,4,4,4s4-1.8,4-4S163.1,46.1,160.8,46.1L160.8,46.1z M160.8,55.1c-2.8,0-5.1-2.3-5.1-5.1s2.3-5.1,5.1-5.1
				c1.6,0,3.1,0.8,4,2v-1.8h1v9.7h-1v-1.8C163.9,54.4,162.4,55.2,160.8,55.1L160.8,55.1z M176.8,54.9c-1.8,0-2.9-1-2.9-2.8v-9.5h1
				v2.6h3.3v1H175v5.9c0,1.2,0.6,1.8,1.8,1.8h1.5v1L176.8,54.9L176.8,54.9L176.8,54.9z M150.1,54.2c-2.1,0-3.7-1.7-3.7-4
				c0-2.3,1.6-4,3.7-4s3.7,1.7,3.7,4C153.8,52.4,152.2,54.2,150.1,54.2L150.1,54.2z M150.1,45c-1.6,0-2.9,0.7-3.7,1.8V45h-1v14.5h1
				v-6.2c0.9,1.2,2.2,1.8,3.7,1.8c2.7,0,4.7-2.2,4.7-5.1C154.8,47.2,152.8,45,150.1,45L150.1,45z"></path>
            <path id="Shape_1_" class="st0" d="M168,54.9v-9.7h1v1.3c0.7-0.8,1.7-1.3,2.7-1.3h1v1h-1c-1.1,0-2,0.8-2.3,1.5
				c0,0-0.3,0.7-0.3,1.1v6L168,54.9L168,54.9L168,54.9z M201.1,54.9v-9.7h1v1.3c0.7-0.8,1.7-1.3,2.7-1.3h1v1h-1
				c-1.1,0-2,0.8-2.3,1.5c0,0-0.3,0.7-0.3,1.1v6L201.1,54.9L201.1,54.9L201.1,54.9z"></path>
            <path id="Shape_2_" class="st1" d="M26,56.8v-1.3h1.8c1.5,0,2.9-0.8,2.9-2.7V40.5H32v12.2c0,2.8-2.2,4.1-4.2,4.1L26,56.8L26,56.8
				L26,56.8z"></path>
            <path id="Shape_3_" class="st1" d="M38.3,55.3c-2.3,0-4.1-1.8-4.1-4.2v-6.1h1.3v6.1c0,1.7,1.1,2.8,2.7,2.8c1.6,0,2.7-1.2,2.7-2.8
				v-6.1h1.3v6.1C42.4,53.6,40.7,55.3,38.3,55.3"></path>
            <path id="Shape_4_" class="st1" d="M48.7,46.2c-2,0-3.5,1.7-3.5,3.9s1.5,3.9,3.5,3.9c2,0,3.5-1.7,3.5-3.9
				C52.3,47.9,50.7,46.2,48.7,46.2L48.7,46.2z M52.3,55.3v-1.6c-0.9,1-2.2,1.6-3.5,1.6c-2.8,0-4.9-2.3-4.9-5.2c0-3,2.1-5.2,4.9-5.2
				c1.4,0,2.7,0.6,3.5,1.6v-5.9h1.3v14.8L52.3,55.3L52.3,55.3L52.3,55.3z M60.3,55.3c-2.9,0-5.2-2.3-5.2-5.2s2.3-5.2,5.2-5.2
				c1.8,0,3.5,0.9,4.5,2.5l0.1,0.2L58,52.2L57.3,51l5.7-3.8c-0.7-0.7-1.7-1.1-2.7-1.1c-2.2,0-3.9,1.8-3.9,3.9c0,2.2,1.8,3.9,3.9,3.9
				c2.1,0,3.8-1.6,3.9-3.7V50h1.3v0.3C65.4,53.1,63.1,55.3,60.3,55.3L60.3,55.3z"></path>
        </g>
    </g>
</svg>