<?xml version="1.0" encoding="utf-8"?>
<!-- Generator: Adobe Illustrator 20.0.0, SVG Export Plug-In . SVG Version: 6.00 Build 0)  -->
<svg version="1.1" id="TripMoment" xmlns="http://www.w3.org/2000/svg" xmlns:xlink="http://www.w3.org/1999/xlink" x="0px" y="0px" viewBox="0 0 240 100" style="enable-background:new 0 0 240 100;" xml:space="preserve">
    <style type="text/css">
	.st0{fill:#2E7693;}
</style>
    <title>TripMoment</title>
    <g id="TripMoment" transform="translate(-28.000000, -38.000000)">
        <g id="TripMoment" transform="translate(28.000000, 38.000000)">
            <path id="Shape" class="st0" d="M69,44.9v12.9h-2.6V44.9h-4.7v-2.1h12.1v2.1H69L69,44.9z"></path>
            <path id="Shape_1_" class="st0" d="M84.4,49.7c-0.2-0.2-0.5-0.4-0.8-0.5c-0.3-0.2-0.7-0.2-1-0.2c-0.6-0.1-1.2,0.2-1.8,0.6
				c-0.5,0.5-0.8,1.1-0.7,1.8v6.5h-2.5V47.2h2.4v1.2c0.4-0.4,0.8-0.7,1.3-0.9c0.6-0.2,1.3-0.4,1.9-0.4c0.6,0,1.1,0.1,1.6,0.2
				c0.5,0.2,0.9,0.4,1.3,0.8L84.4,49.7L84.4,49.7L84.4,49.7z"></path>
            <path id="Shape_2_" class="st0" d="M92.9,44.7c-0.7,0.6-1.6,0.6-2.3,0c-0.6-0.4-0.6-1.2-0.2-1.8c0.1-0.1,0.1-0.2,0.2-0.2
				c0.7-0.6,1.6-0.6,2.3,0c0.6,0.4,0.6,1.2,0.2,1.8C93.1,44.6,93,44.6,92.9,44.7L92.9,44.7z M90.6,57.9V47.2h2.5v10.7H90.6
				L90.6,57.9z"></path>
            <path id="Shape_3_" class="st0" d="M109.3,53.8c0,0.4-0.1,0.8-0.2,1.2c-0.1,0.4-0.2,0.8-0.4,1.1c-0.2,0.4-0.5,0.7-0.7,0.9
				c-0.4,0.3-0.8,0.6-1.3,0.7c-1.1,0.4-2.4,0.4-3.5,0c-0.6-0.2-1.1-0.5-1.4-0.9v5.4h-2.5v-15h2.4v1.1c0.4-0.5,0.9-0.8,1.5-1
				c0.6-0.2,1.2-0.2,1.8-0.2c0.6,0,1.2,0.1,1.7,0.2c0.5,0.2,0.9,0.4,1.3,0.7c0.3,0.2,0.6,0.6,0.7,0.9c0.2,0.4,0.3,0.7,0.4,1.1
				c0.1,0.4,0.2,0.8,0.2,1.2c0,0.4,0.1,0.8,0.1,1.2C109.3,52.9,109.3,53.4,109.3,53.8L109.3,53.8L109.3,53.8z M106.8,51.1
				c-0.1-0.4-0.2-0.8-0.4-1.1c-0.2-0.3-0.5-0.6-0.8-0.8c-0.9-0.4-1.8-0.4-2.7,0c-0.3,0.2-0.6,0.5-0.8,0.8c-0.2,0.4-0.3,0.7-0.4,1.1
				c-0.1,0.9-0.1,1.8,0,2.7c0.1,0.4,0.2,0.8,0.4,1.1c0.2,0.3,0.5,0.6,0.8,0.8c0.9,0.4,1.8,0.4,2.7,0c0.3-0.2,0.6-0.5,0.8-0.8
				c0.2-0.4,0.3-0.7,0.4-1.1C106.9,52.9,106.9,52.1,106.8,51.1L106.8,51.1z"></path>
            <polygon id="Shape_4_" class="st0" points="127.9,57.9 127.9,47.8 124,55.1 122,55.1 117.9,47.8 117.9,57.9 115.3,57.9 
				115.3,42.9 117.9,42.9 123,52.2 127.9,42.9 130.5,42.9 130.5,57.9 			"></polygon>
            <path id="Shape_5_" class="st0" d="M146.4,54.9c-0.2,0.7-0.6,1.3-1.2,1.8c-0.5,0.4-1,0.7-1.5,0.9c-0.7,0.2-1.4,0.4-2.2,0.4
				s-1.5-0.1-2.2-0.4c-0.6-0.2-1.1-0.5-1.5-0.9c-0.6-0.5-1-1.1-1.2-1.8c-0.2-0.8-0.3-1.6-0.3-2.4s0.1-1.6,0.3-2.4
				c0.2-0.7,0.6-1.3,1.2-1.8c0.5-0.4,0.9-0.7,1.5-0.9c0.7-0.2,1.4-0.4,2.2-0.4c0.7,0,1.5,0.1,2.2,0.4c0.6,0.2,1.1,0.5,1.5,0.9
				c0.6,0.5,1,1.1,1.2,1.8c0.2,0.8,0.3,1.6,0.3,2.4C146.7,53.3,146.6,54.1,146.4,54.9L146.4,54.9z M144.1,50.8
				c-0.1-0.5-0.3-0.9-0.7-1.2c-0.5-0.4-1.1-0.7-1.8-0.6c-0.7-0.1-1.3,0.2-1.8,0.6c-0.4,0.3-0.6,0.8-0.7,1.3c-0.2,1.1-0.2,2.2,0,3.3
				c0.1,0.5,0.3,0.9,0.7,1.3c0.5,0.4,1.1,0.7,1.8,0.6c0.7,0,1.3-0.2,1.8-0.6c0.4-0.3,0.6-0.8,0.7-1.3
				C144.3,53.1,144.3,52,144.1,50.8L144.1,50.8z"></path>
            <path id="Shape_6_" class="st0" d="M167.3,57.9v-6.5c0.1-0.7-0.2-1.3-0.7-1.8c-0.5-0.4-1.1-0.6-1.8-0.6c-0.3,0-0.7,0.1-1,0.2
				c-0.3,0.1-0.6,0.2-0.8,0.4s-0.4,0.5-0.6,0.7c-0.2,0.3-0.2,0.7-0.2,1v6.6h-2.5v-6.6c0.1-0.7-0.2-1.3-0.7-1.8
				c-0.5-0.4-1.1-0.6-1.8-0.6c-0.7,0-1.3,0.2-1.8,0.6c-0.5,0.5-0.8,1.1-0.8,1.8v6.5h-2.4V47.2h2.4v1.1c0.4-0.4,0.9-0.7,1.5-0.9
				c0.6-0.2,1.2-0.3,1.8-0.3c1.5,0,2.7,0.5,3.5,1.5c1-1,2.4-1.6,3.9-1.5c0.6,0,1.2,0.1,1.8,0.2c0.5,0.2,1,0.4,1.3,0.7
				c0.5,0.4,0.8,0.8,1,1.3c0.2,0.5,0.3,1.1,0.3,1.6v6.8L167.3,57.9L167.3,57.9L167.3,57.9z"></path>
            <path id="Shape_7_" class="st0" d="M177.7,53.1c-0.1,0.8,0.2,1.6,0.8,2.2c0.6,0.6,1.5,0.9,2.3,0.8c0.6,0,1.1-0.1,1.7-0.2
				c0.5-0.2,0.9-0.5,1.3-0.8l1.6,1.3c-0.3,0.2-0.6,0.5-1,0.7c-0.3,0.2-0.7,0.4-1,0.5c-0.3,0.2-0.8,0.2-1.2,0.3
				c-0.5,0.1-1,0.1-1.4,0.1c-0.7,0-1.4-0.1-2.2-0.2c-0.7-0.2-1.2-0.5-1.8-0.9c-0.5-0.5-0.9-1-1.2-1.7c-0.3-0.8-0.5-1.7-0.5-2.6
				c0-1.8,0.5-3.1,1.4-4.1c1-1,2.4-1.5,3.8-1.4c0.8,0,1.5,0.1,2.2,0.4c0.6,0.2,1.2,0.6,1.6,1c0.5,0.5,0.8,1,1,1.6
				c0.2,0.7,0.4,1.4,0.4,2.1v1L177.7,53.1L177.7,53.1L177.7,53.1z M183.2,50.9c-0.1-0.2-0.2-0.5-0.2-0.7c-0.2-0.4-0.5-0.8-0.9-1
				c-0.5-0.2-1-0.4-1.5-0.4c-0.5,0-1,0.1-1.5,0.4c-0.4,0.2-0.7,0.6-0.9,1c-0.1,0.2-0.2,0.4-0.2,0.7c0,0.3-0.1,0.5-0.1,0.8h5.5
				C183.2,51.4,183.2,51.1,183.2,50.9L183.2,50.9z"></path>
            <path id="Shape_8_" class="st0" d="M198.8,57.9v-6.5c0.1-0.7-0.2-1.3-0.7-1.8c-0.5-0.4-1.1-0.6-1.8-0.6c-0.7,0-1.3,0.2-1.8,0.6
				c-0.5,0.5-0.8,1.1-0.8,1.8v6.5h-2.5V47.2h2.4v1.1c0.4-0.4,0.9-0.7,1.5-0.9c1.1-0.4,2.4-0.4,3.5-0.1c0.5,0.2,0.9,0.4,1.3,0.7
				c0.4,0.4,0.8,0.8,1,1.3c0.2,0.5,0.2,1.1,0.2,1.6v6.8L198.8,57.9L198.8,57.9L198.8,57.9z"></path>
            <path id="Shape_9_" class="st0" d="M211,57.9c-0.5,0-1-0.1-1.5-0.2c-0.4-0.2-0.7-0.4-1-0.7c-0.2-0.2-0.5-0.6-0.6-0.9
				c-0.2-0.4-0.2-0.7-0.2-1.1V49h-1.4v-1.6h1.4v-3.2h2.5v3.2h2.4V49h-2.4v5.8c0,0.4,0.1,0.7,0.3,0.9c0.3,0.2,0.7,0.4,1,0.3h1v1.8
				H211L211,57.9z"></path>
            <path id="Shape_10_" class="st0" d="M44.8,44.8l-9.5,6.4c-0.1,0.1-0.2,0.2-0.2,0.2l-6.4,9.4c-0.9,1.2-0.6,1.5,0.6,0.6l9.5-6.4
				c0.1-0.1,0.2-0.2,0.2-0.2l6.4-9.5C46.2,44.2,45.9,44,44.8,44.8L44.8,44.8z M37.3,54.3c-0.7,0.2-1.3-0.2-1.4-0.9
				c-0.1-0.2-0.1-0.4,0-0.6c0.2-0.7,0.8-1,1.4-0.9c0.7,0.2,1,0.8,0.9,1.4C38,53.9,37.7,54.2,37.3,54.3L37.3,54.3z"></path>
            <path id="Shape_11_" class="st0" d="M52.2,62.2h-2.6V42.6c0-1.2-1-2.2-2.3-2.2H27.5v-2.6h21.8c1.6,0,2.9,1.3,2.9,2.9
				C52.2,40.7,52.2,62.2,52.2,62.2L52.2,62.2z"></path>
        </g>
    </g>
</svg>