<?xml version="1.0" encoding="utf-8"?>
<!-- Generator: Adobe Illustrator 20.0.0, SVG Export Plug-In . SVG Version: 6.00 Build 0)  -->
<svg version="1.1" id="main" xmlns="http://www.w3.org/2000/svg" xmlns:xlink="http://www.w3.org/1999/xlink" x="0px" y="0px" viewBox="0 0 96 80" style="enable-background:new 0 0 96 80;" xml:space="preserve">
    <style type="text/css">
	.st0{fill:#4A4A4A;}
	.st1{fill:#814590;}
	.st2{fill:url(#Gear_1_);}
</style>
    <path id="Browser" class="st0" d="M65.1,71H4V11h86v42.2l1.2-0.6c0.3-0.2,0.7-0.3,1.1-0.3c0.6,0,1.2,0.3,1.7,0.7V3c0-1.7-1.3-3-3-3
	H3C1.3,0,0,1.3,0,3v72h67.4L65.1,71L65.1,71z M15.5,4C16.3,4,17,4.7,17,5.5S16.3,7,15.5,7C14.7,7,14,6.3,14,5.5S14.7,4,15.5,4
	L15.5,4z M10.5,4C11.3,4,12,4.7,12,5.5S11.3,7,10.5,7S9,6.3,9,5.5S9.7,4,10.5,4L10.5,4z M5.5,4C6.3,4,7,4.7,7,5.5S6.3,7,5.5,7
	S4,6.3,4,5.5S4.7,4,5.5,4L5.5,4z"></path>
    <g id="Code" transform="translate(9.000000, 18.500000)">
        <g id="Line">
            <path id="Shape" class="st1" d="M4.2,2h-3c-0.6,0-1-0.4-1-1s0.4-1,1-1h3c0.6,0,1,0.4,1,1S4.8,2,4.2,2L4.2,2z"></path>
        </g>
        <g id="Line_1_" transform="translate(0.000000, 5.000000)">
            <path id="Shape_1_" class="st1" d="M4.2,2h-3c-0.6,0-1-0.4-1-1s0.4-1,1-1h3c0.6,0,1,0.4,1,1S4.8,2,4.2,2L4.2,2z"></path>
        </g>
        <g id="Line_2_" transform="translate(0.000000, 10.000000)">
            <path id="Shape_2_" class="st1" d="M4.2,2h-3c-0.6,0-1-0.4-1-1s0.4-1,1-1h3c0.6,0,1,0.4,1,1S4.8,2,4.2,2L4.2,2z"></path>
        </g>
        <g id="Line_3_" transform="translate(0.000000, 15.000000)">
            <path id="Shape_3_" class="st1" d="M4.2,2h-3c-0.6,0-1-0.4-1-1s0.4-1,1-1h3c0.6,0,1,0.4,1,1S4.8,2,4.2,2L4.2,2z"></path>
        </g>
        <g id="Line_4_" transform="translate(0.000000, 20.000000)">
            <path id="Shape_4_" class="st1" d="M4.2,2h-3c-0.6,0-1-0.4-1-1s0.4-1,1-1h3c0.6,0,1,0.4,1,1S4.8,2,4.2,2L4.2,2z"></path>
        </g>
        <g id="Line_5_" transform="translate(0.000000, 25.000000)">
            <path id="Shape_5_" class="st1" d="M4.2,2h-3c-0.6,0-1-0.4-1-1s0.4-1,1-1h3c0.6,0,1,0.4,1,1S4.8,2,4.2,2L4.2,2z"></path>
        </g>
        <g id="Line_6_" transform="translate(0.000000, 30.000000)">
            <path id="Shape_6_" class="st1" d="M4.2,2h-3c-0.6,0-1-0.4-1-1s0.4-1,1-1h3c0.6,0,1,0.4,1,1S4.8,2,4.2,2L4.2,2z"></path>
        </g>
        <g id="Line_7_" transform="translate(0.000000, 35.000000)">
            <path id="Shape_7_" class="st1" d="M4.2,2h-3c-0.6,0-1-0.4-1-1s0.4-1,1-1h3c0.6,0,1,0.4,1,1S4.8,2,4.2,2L4.2,2z"></path>
        </g>
        <g id="Line_8_" transform="translate(0.000000, 40.000000)">
            <path id="Shape_8_" class="st1" d="M4.2,2h-3c-0.6,0-1-0.4-1-1s0.4-1,1-1h3c0.6,0,1,0.4,1,1S4.8,2,4.2,2L4.2,2z"></path>
        </g>
        <g id="Line_9_" transform="translate(7.000000, 0.000000)">
            <path id="Shape_9_" class="st0" d="M16.8,2h-15c-0.6,0-1-0.4-1-1s0.4-1,1-1h15c0.6,0,1,0.4,1,1S17.3,2,16.8,2L16.8,2z"></path>
        </g>
        <g id="Line_10_" transform="translate(7.000000, 5.000000)">
            <path id="Shape_10_" class="st0" d="M24.8,2h-23c-0.6,0-1-0.4-1-1s0.4-1,1-1h23c0.6,0,1,0.4,1,1S25.3,2,24.8,2L24.8,2z"></path>
        </g>
        <g id="Line_11_" transform="translate(7.000000, 10.000000)">
            <path id="Shape_11_" class="st0" d="M19.8,2h-18c-0.6,0-1-0.4-1-1s0.4-1,1-1h18c0.6,0,1,0.4,1,1S20.3,2,19.8,2L19.8,2z"></path>
        </g>
        <g id="Line_12_" transform="translate(7.000000, 15.000000)">
            <path id="Shape_12_" class="st0" d="M29.8,2h-28c-0.6,0-1-0.4-1-1s0.4-1,1-1h28c0.6,0,1,0.4,1,1S30.3,2,29.8,2L29.8,2z"></path>
        </g>
        <g id="Line_13_" transform="translate(7.000000, 20.000000)">
            <path id="Shape_13_" class="st0" d="M24.8,2h-23c-0.6,0-1-0.4-1-1s0.4-1,1-1h23c0.6,0,1,0.4,1,1S25.3,2,24.8,2L24.8,2z"></path>
        </g>
        <g id="Line_14_" transform="translate(7.000000, 25.000000)">
            <path id="Shape_14_" class="st0" d="M34.8,2h-33c-0.6,0-1-0.4-1-1s0.4-1,1-1h33c0.6,0,1,0.4,1,1S35.3,2,34.8,2L34.8,2z"></path>
        </g>
        <g id="Line_15_" transform="translate(7.000000, 30.000000)">
            <path id="Shape_15_" class="st0" d="M19.8,2h-18c-0.6,0-1-0.4-1-1s0.4-1,1-1h18c0.6,0,1,0.4,1,1S20.3,2,19.8,2L19.8,2z"></path>
        </g>
        <g id="Line_16_" transform="translate(7.000000, 35.000000)">
            <path id="Shape_16_" class="st0" d="M14.8,2h-13c-0.6,0-1-0.4-1-1s0.4-1,1-1h13c0.6,0,1,0.4,1,1S15.3,2,14.8,2L14.8,2z"></path>
        </g>
        <g id="Line_17_" transform="translate(7.000000, 40.000000)">
            <path id="Shape_17_" class="st0" d="M24.8,2h-23c-0.6,0-1-0.4-1-1s0.4-1,1-1h23c0.6,0,1,0.4,1,1S25.3,2,24.8,2L24.8,2z"></path>
        </g>
        <g id="Line_18_" transform="translate(27.000000, 0.000000)">
            <path id="Shape_18_" class="st0" d="M26.8,2h-25c-0.6,0-1-0.4-1-1s0.4-1,1-1h25c0.6,0,1,0.4,1,1S27.3,2,26.8,2L26.8,2z"></path>
        </g>
        <g id="Line_19_" transform="translate(57.000000, 0.000000)">
            <path id="Shape_19_" class="st0" d="M16.8,2h-15c-0.6,0-1-0.4-1-1s0.4-1,1-1h15c0.6,0,1,0.4,1,1S17.3,2,16.8,2L16.8,2z"></path>
        </g>
        <g id="Line_20_" transform="translate(35.000000, 5.000000)">
            <path id="Shape_20_" class="st0" d="M36.8,2h-35c-0.6,0-1-0.4-1-1s0.4-1,1-1h35c0.6,0,1,0.4,1,1S37.3,2,36.8,2L36.8,2z"></path>
        </g>
        <g id="Line_21_" transform="translate(30.000000, 10.000000)">
            <path id="Shape_21_" class="st0" d="M34.8,2h-33c-0.6,0-1-0.4-1-1s0.4-1,1-1h33c0.6,0,1,0.4,1,1S35.3,2,34.8,2L34.8,2z"></path>
        </g>
        <g id="Line_22_" transform="translate(40.000000, 15.000000)">
            <path id="Shape_22_" class="st0" d="M13.8,2h-12c-0.6,0-1-0.4-1-1s0.4-1,1-1h12c0.6,0,1,0.4,1,1S14.3,2,13.8,2L13.8,2z"></path>
        </g>
        <g id="Line_23_" transform="translate(57.000000, 15.000000)">
            <path id="Shape_23_" class="st0" d="M11.8,2h-10c-0.6,0-1-0.4-1-1s0.4-1,1-1h10c0.6,0,1,0.4,1,1S12.3,2,11.8,2L11.8,2z"></path>
        </g>
        <g id="Line_24_" transform="translate(35.000000, 20.000000)">
            <path id="Shape_24_" class="st0" d="M12.8,2H1.2c-0.6,0-1-0.4-1-1s0.4-1,1-1h11.5c0.6,0,1,0.4,1,1S13.3,2,12.8,2L12.8,2z"></path>
        </g>
        <g id="Line_25_" transform="translate(51.000000, 20.000000)">
            <path id="Shape_25_" class="st0" d="M17.8,2h-16c-0.6,0-1-0.4-1-1s0.4-1,1-1h16c0.6,0,1,0.4,1,1S18.3,2,17.8,2L17.8,2z"></path>
        </g>
        <g id="Line_26_" transform="translate(45.000000, 25.000000)">
            <path id="Shape_26_" class="st0" d="M19.2,2H1.8c-0.6,0-1-0.4-1-1s0.4-1,1-1h17.5c0.6,0,1,0.4,1,1S19.8,2,19.2,2L19.2,2z"></path>
        </g>
        <g id="Line_27_" transform="translate(30.000000, 30.000000)">
            <path id="Shape_27_" class="st0" d="M27.8,2h-26c-0.6,0-1-0.4-1-1s0.4-1,1-1h26c0.6,0,1,0.4,1,1S28.3,2,27.8,2L27.8,2z"></path>
        </g>
        <g id="Line_28_" transform="translate(25.000000, 35.000000)">
            <path id="Shape_28_" class="st0" d="M14.8,2h-13c-0.6,0-1-0.4-1-1s0.4-1,1-1h13c0.6,0,1,0.4,1,1S15.3,2,14.8,2L14.8,2z"></path>
        </g>
        <g id="Line_29_" transform="translate(43.000000, 35.000000)">
            <path id="Shape_29_" class="st0" d="M10.2,2H1.7c-0.6,0-1-0.4-1-1s0.4-1,1-1h8.5c0.6,0,1,0.4,1,1S10.8,2,10.2,2L10.2,2z"></path>
        </g>
        <g id="Line_30_" transform="translate(35.000000, 40.000000)">
            <path id="Shape_30_" class="st0" d="M16.2,2H1.8c-0.6,0-1-0.4-1-1s0.4-1,1-1h14.5c0.6,0,1,0.4,1,1S16.8,2,16.2,2L16.2,2z"></path>
        </g>
    </g>
    <linearGradient id="Gear_1_" gradientUnits="userSpaceOnUse" x1="-241.9065" y1="332.3954" x2="-241.9065" y2="331.3954" gradientTransform="matrix(29.2081 0 0 -30.1 7146.8306 10054.9004)">
        <stop offset="0" style="stop-color:#814590"></stop>
        <stop offset="1" style="stop-color:#3A2B84"></stop>
    </linearGradient>
    <path id="Gear" class="st2" d="M93.3,67.5c-0.2-0.1-0.3-0.4-0.2-0.6c0.2-1.4,0.2-2.8,0-4.2c-0.1-0.2,0-0.5,0.2-0.6l2.2-1.5
	c0.3-0.2,0.3-0.5,0.2-0.8l-2.9-5c-0.2-0.3-0.5-0.4-0.8-0.2l-2.4,1.2c-0.2,0.1-0.5,0.1-0.7-0.1c-1.1-0.9-2.3-1.6-3.6-2.1
	c-0.2-0.1-0.4-0.3-0.4-0.5l-0.2-2.7c0-0.3-0.3-0.6-0.6-0.6h-5.8c-0.3,0-0.6,0.2-0.6,0.6l-0.2,2.7c0,0.2-0.2,0.4-0.4,0.5
	c-1.3,0.5-2.5,1.2-3.6,2.1c-0.2,0.2-0.4,0.2-0.7,0.1l-2.4-1.2c-0.3-0.1-0.6,0-0.8,0.2l-2.9,5c-0.2,0.3-0.1,0.6,0.2,0.8l2.2,1.5
	c0.2,0.1,0.3,0.4,0.2,0.6c-0.2,1.4-0.2,2.8,0,4.2c0,0.2-0.1,0.5-0.2,0.6L66.9,69c-0.3,0.2-0.3,0.5-0.2,0.8l2.9,5.1
	c0.2,0.3,0.5,0.4,0.8,0.2l2.4-1.2c0.2-0.1,0.5-0.1,0.7,0.1c1.1,0.9,2.3,1.6,3.6,2.1c0.2,0.1,0.4,0.3,0.4,0.5l0.2,2.7
	c0,0.3,0.3,0.6,0.6,0.6h5.8c0.3,0,0.6-0.2,0.6-0.6l0.2-2.7c0-0.2,0.2-0.4,0.4-0.5c1.3-0.5,2.5-1.2,3.6-2.1c0.2-0.2,0.4-0.2,0.7-0.1
	l2.4,1.2c0.3,0.1,0.6,0,0.8-0.2l2.9-5c0.2-0.3,0.1-0.6-0.2-0.8L93.3,67.5L93.3,67.5z M81.2,69.5c-2.6,0-4.7-2.1-4.7-4.7
	c0-2.6,2.1-4.7,4.7-4.7c2.6,0,4.7,2.1,4.7,4.7C85.9,67.4,83.8,69.5,81.2,69.5L81.2,69.5z"></path>
</svg>