<?xml version="1.0" encoding="utf-8"?>
<svg version="1.1" id="logotype_en" xmlns="http://www.w3.org/2000/svg" xmlns:xlink="http://www.w3.org/1999/xlink" x="0px" y="0px" viewBox="0 0 151 40" style="enable-background:new 0 0 151 40;" xml:space="preserve">
  <style>
    .logotype{fill: #333}
    .logo{fill:url(#5fpro_gradient)}
  </style>
  <title>Logotype_en</title>
  <g id="logotype" transform="translate(235.411471, 31.920200)">
    <path class="logotype" d="M-182.4-2.7c-2.6,0-4.7-0.7-6.2-2.2c-1.1-1.1-1.8-2.4-2.1-4l-0.1-0.6h3.6l0.1,0.4
  c0.4,1.3,1.3,2.2,2.7,2.7c0.6,0.2,1.2,0.3,1.9,0.3c0.6,0,1.3-0.1,1.9-0.3c0.5-0.2,1-0.5,1.4-0.9c0.8-0.8,1.2-1.9,1.2-3
  c0-1.3-0.4-2.3-1.2-3.1c-0.8-0.8-1.8-1.2-3.1-1.2c-0.8,0-1.6,0.1-2.4,0.5c-0.6,0.2-1.1,0.6-1.5,1.1l-0.3,0.4l-3-1.8l1.6-11.1h12.3
  v3.4h-9.1l-0.7,4.7l0.3-0.1c0.8-0.3,1.7-0.5,2.6-0.5c1.2,0,2.3,0.2,3.4,0.6c0.9,0.4,1.8,0.9,2.5,1.6c1.5,1.4,2.2,3.2,2.2,5.5
  c0,2.1-0.8,4-2.3,5.5C-178.3-3.4-180.2-2.7-182.4-2.7z"></path>
    <polygon class="logotype" points="-170.4,-2.9 -170.4,-25.7 -153.6,-25.7 -155.4,-22.2 -166.8,-22.2 -166.8,-15.8 
  -155.1,-15.8 -156.9,-12.3 -166.8,-12.3 -166.8,-2.9 	"></polygon>
    <path class="logotype" d="M-149.4-2.9v-22.7h10.2c2.4,0,4.3,0.7,5.6,1.9c1.3,1.3,2,3,2,5.2s-0.7,3.9-2,5.2
  s-3.3,1.9-5.6,1.9h-8.6v8.5L-149.4-2.9z M-147.8-12.8h8.4c2,0,3.6-0.5,4.6-1.5c1.1-1,1.6-2.4,1.6-4.2s-0.5-3.2-1.6-4.2
  s-2.6-1.5-4.6-1.5h-8.4V-12.8z"></path>
    <path class="logotype" d="M-112-2.9l-5.8-9.1h-9.2v9.1h-1.6v-22.7h10.9c2.3,0,4.1,0.6,5.5,1.9c1.3,1.2,2,2.9,2,5
  c0,2.8-1.1,4.6-3.4,5.6c-0.6,0.3-1.3,0.5-1.9,0.6l-0.8,0.2l6.2,9.4H-112z M-126.9-13.5h8.8c2.7,0,4.7-0.9,5.8-2.7
  c0.4-0.7,0.6-1.6,0.6-2.6c0-1.7-0.6-3-1.8-4s-2.6-1.5-4.5-1.5h-9L-126.9-13.5L-126.9-13.5z"></path>
    <path class="logotype" d="M-96-2.7c-3.4,0-6.2-1.1-8.4-3.4c-2.1-2.2-3.2-5-3.2-8.3c0-3.3,1.1-6.1,3.2-8.3
  c2.2-2.3,5-3.4,8.4-3.4s6.2,1.1,8.4,3.4c2.1,2.2,3.2,5,3.2,8.3s-1.1,6.1-3.2,8.3C-89.8-3.8-92.6-2.7-96-2.7z M-96-24.4
  c-3,0-5.4,1-7.3,2.9c-1.8,1.9-2.7,4.3-2.7,7.2s0.9,5.3,2.7,7.2c1.9,2,4.3,2.9,7.3,2.9s5.4-1,7.3-2.9c1.8-1.9,2.7-4.3,2.7-7.2
  s-0.9-5.3-2.7-7.2C-90.5-23.5-93-24.4-96-24.4L-96-24.4z"></path>
  </g>
  <linearGradient id="5fpro_gradient" gradientUnits="userSpaceOnUse" x1="-120.5214" y1="392.4215" x2="-120.6207" y2="392.2755" gradientTransform="matrix(179.9131 0 0 212.124 21710.0098 -83211.4531)">
    <stop offset="0" style="stop-color:#3A2B84"></stop>
    <stop offset="1" style="stop-color:#814590"></stop>
  </linearGradient>
  <path class="logo" d="M8.2,0h23.5c0.1,0,0.1,0,0.2,0.1s0,0.1-0.1,0.2L0.3,21.9c-0.1,0-0.1,0-0.2,0S0,21.8,0,21.7L7.8,0.2
C7.9,0.1,8,0,8.2,0z M0.4,24.2h13.4c0,0,0.1,0,0.1,0.1v0.1L10,39.8c0,0.1,0,0.1,0.1,0.2s0.1,0,0.2,0l23.6-23.5c0,0,0.1-0.1,0-0.2
c0-0.1-0.1-0.1-0.1-0.1H11.7c-0.1,0-0.2,0-0.3,0.1L0.2,24c-0.1,0-0.1,0.1-0.1,0.2C0.2,24.2,0.3,24.2,0.4,24.2z"></path>
</svg>