<?xml version="1.0" encoding="utf-8"?>
<!-- Generator: Adobe Illustrator 20.0.0, SVG Export Plug-In . SVG Version: 6.00 Build 0)  -->
<svg version="1.1" id="main" xmlns="http://www.w3.org/2000/svg" xmlns:xlink="http://www.w3.org/1999/xlink" x="0px" y="0px"
	 viewBox="0 0 101 81" style="enable-background:new 0 0 101 81;" xml:space="preserve">
<style type="text/css">
	.st0{fill:#4A4A4A;}
	.st1{fill:url(#Point-1_1_);}
	.st2{fill:url(#Point-2_1_);}
	.st3{fill:url(#Point-3_1_);}
	.st4{fill:url(#Point-4_1_);}
	.st5{fill:url(#Crawler_1_);}
</style>
<path id="Canvas" class="st0" d="M96.2,0H4.8c-2.2,0-4,1.8-4,4c0,1.8,1.2,3.3,2.8,3.8v57.7H49v7.9c-1.4,0.7-2.2,2-2.2,3.6
	c0,2.2,1.8,4,4,4s4-1.8,4-4c0-1.6-0.9-2.9-2.2-3.6v-7.9h45V7.8c1.6-0.5,2.8-2,2.8-3.8C100.2,1.8,98.5,0,96.2,0L96.2,0z M52.8,77
	c0,1.1-0.9,2-2,2c-1.1,0-2-0.9-2-2s0.9-2,2-2C51.9,75,52.8,75.9,52.8,77L52.8,77z M6.5,62.5V8h88v54.5H6.5L6.5,62.5z"/>
<g id="Charts" transform="translate(51.000000, 18.000000)">
	<path id="Shape" class="st0" d="M36.3,37h-2l0.1-34.6c0-0.3-0.2-0.6-0.5-0.7c-0.3-0.1-0.6,0-0.8,0.2l-9.7,10l-9.9-5.5
		c-0.3-0.2-0.6-0.1-0.9,0.1l-9.2,8.9c-0.1,0.1-0.2,0.3-0.2,0.5v21H1.3c-0.6,0-1,0.4-1,1c0,0.6,0.4,1,1,1h35.1c0.6,0,1-0.4,1-1
		C37.4,37.3,36.9,37,36.3,37L36.3,37z M32.9,4.3L32.8,37H30V7.4L32.9,4.3L32.9,4.3z M28.5,8.9V37h-4.3V13.4L28.5,8.9L28.5,8.9z
		 M22.6,13.2V37h-3.4V11.4L22.6,13.2L22.6,13.2z M17.8,10.5V37h-3.4V8.7L17.8,10.5L17.8,10.5z M12.9,8.4V37H9.5V11.6L12.9,8.4
		L12.9,8.4z M4.7,16.3l3.4-3.2V37H4.7V16.3L4.7,16.3z"/>
	
		<linearGradient id="Point-1_1_" gradientUnits="userSpaceOnUse" x1="-247.625" y1="269.0494" x2="-247.625" y2="268.0338" gradientTransform="matrix(4.8 0 0 -4.8 1192.5 1304.6001)">
		<stop  offset="0" style="stop-color:#814590"/>
		<stop  offset="1" style="stop-color:#3A2B84"/>
	</linearGradient>
	<circle id="Point-1" class="st1" cx="3.9" cy="15.6" r="2.4"/>
	
		<linearGradient id="Point-2_1_" gradientUnits="userSpaceOnUse" x1="-247.625" y1="269.0468" x2="-247.625" y2="268.0312" gradientTransform="matrix(4.8 0 0 -4.8 1202.2001 1296.3)">
		<stop  offset="0" style="stop-color:#814590"/>
		<stop  offset="1" style="stop-color:#3A2B84"/>
	</linearGradient>
	<circle id="Point-2" class="st2" cx="13.6" cy="7.3" r="2.4"/>
	
		<linearGradient id="Point-3_1_" gradientUnits="userSpaceOnUse" x1="-247.625" y1="269.052" x2="-247.625" y2="268.0364" gradientTransform="matrix(4.8 0 0 -4.8 1212 1301.2001)">
		<stop  offset="0" style="stop-color:#814590"/>
		<stop  offset="1" style="stop-color:#3A2B84"/>
	</linearGradient>
	<circle id="Point-3" class="st3" cx="23.4" cy="12.2" r="2.4"/>
	
		<linearGradient id="Point-4_1_" gradientUnits="userSpaceOnUse" x1="-247.625" y1="269.0417" x2="-247.625" y2="268.026" gradientTransform="matrix(4.8 0 0 -4.8 1222.2001 1291.4)">
		<stop  offset="0" style="stop-color:#814590"/>
		<stop  offset="1" style="stop-color:#3A2B84"/>
	</linearGradient>
	<circle id="Point-4" class="st4" cx="33.6" cy="2.4" r="2.4"/>
</g>
<linearGradient id="Crawler_1_" gradientUnits="userSpaceOnUse" x1="-240.5452" y1="332.4238" x2="-240.5452" y2="331.4238" gradientTransform="matrix(31.302 0 0 -30.2 7559.5034 10063.2002)">
	<stop  offset="0" style="stop-color:#814590"/>
	<stop  offset="1" style="stop-color:#3A2B84"/>
</linearGradient>
<path id="Crawler" class="st5" d="M44.8,41h-5.5c0.1-0.8,0.1-1.6,0.1-2.2c1.6-0.4,3-1.4,4.1-2.6c1.4-1.7,2-3.7,1.8-5.9
	c0-0.5-0.5-0.9-1.1-0.9c-0.6,0-1,0.5-0.9,1.1c0.1,1.6-0.4,3.2-1.4,4.4c-0.9,1-2,1.7-3.3,2c-0.2-0.2-0.5-0.3-0.9-0.3h-0.9
	c-0.1-2.2-0.8-5.2-3-6.9c1.4-1.1,2.3-2.8,2.3-4.7c0-0.6-0.4-1-1-1c-0.6,0-1,0.4-1,1c0,1.6-1,3-2.4,3.6c-0.5-0.1-1.1-0.2-1.7-0.2
	s-1.1,0.1-1.6,0.2C27,28,26,26.6,26,25c0-0.6-0.4-1-1-1s-1,0.4-1,1c0,1.9,0.9,3.6,2.2,4.7c-2.2,1.7-2.9,4.7-3.1,6.9h-0.8
	c-0.3,0-0.6,0.1-0.8,0.3c-1.3-0.3-2.4-1-3.2-2c-1-1.2-1.5-2.8-1.4-4.4c0-0.6-0.4-1-0.9-1.1c-0.6,0-1,0.4-1.1,0.9
	c-0.2,2.1,0.5,4.2,1.8,5.9c1.1,1.3,2.4,2.2,4,2.6c0,0.7,0,1.4,0.1,2.3h-5.5c-0.6,0-1,0.4-1,1c0,0.6,0.4,1,1,1h5.8
	c0.1,0.7,0.3,1.4,0.5,2.1c-3.6,0.9-6.2,4.3-5.9,8.1c0,0.5,0.5,0.9,1,0.9h0.1c0.6,0,1-0.5,0.9-1.1c-0.2-3,1.8-5.6,4.7-6.1
	c1.3,2.7,3.7,4.9,7.6,4.9s6.2-2.2,7.5-4.9c1.3,0.2,2.5,0.9,3.4,1.9c1,1.2,1.5,2.6,1.3,4.2c0,0.6,0.4,1,0.9,1.1c0.5,0,1-0.4,1.1-0.9
	c0.3-3.9-2.3-7.3-6-8.1c0.2-0.7,0.4-1.4,0.5-2.1h5.8c0.6,0,1-0.4,1-1C45.8,41.4,45.4,41,44.8,41L44.8,41z"/>
<path id="Shape_1_" class="st0" d="M44.5,16h-5c-0.6,0-1-0.4-1-1s0.4-1,1-1h5c0.6,0,1,0.4,1,1S45.1,16,44.5,16L44.5,16z"/>
<path id="Shape_2_" class="st0" d="M34.5,16h-20c-0.6,0-1-0.4-1-1s0.4-1,1-1h20c0.6,0,1,0.4,1,1S35.1,16,34.5,16L34.5,16z"/>
</svg>
