<?xml version="1.0" encoding="utf-8"?>
<!-- Generator: Adobe Illustrator 20.0.0, SVG Export Plug-In . SVG Version: 6.00 Build 0)  -->
<svg version="1.1" id="main" xmlns="http://www.w3.org/2000/svg" xmlns:xlink="http://www.w3.org/1999/xlink" x="0px" y="0px" viewBox="0 0 101 83" style="enable-background:new 0 0 101 83;" xml:space="preserve">
    <style type="text/css">
	.st0{fill:#4A4A4A;}
	.st1{fill:url(#Shape_13_);}
	.st2{fill:url(#Oval_2_);}
	.st3{fill:url(#Shape_14_);}
	.st4{fill:url(#Oval_3_);}
	.st5{fill:url(#Shape_15_);}
	.st6{fill:url(#Shape_16_);}
</style>
    <g id="Web" transform="translate(13.000000, 0.000000)">
        <g id="browser">
            <path id="Shape" class="st0" d="M79,51c1.9,1.8,3.3,4.1,4,6.8V3c0-1.7-1.3-3-3-3H3.5c-1.7,0-3,1.3-3,3v29h4V9.7H79V51L79,51z
			 M5.3,6.2C4.6,6.2,4,5.6,4,4.9s0.6-1.3,1.3-1.3s1.3,0.6,1.3,1.3S6.1,6.2,5.3,6.2L5.3,6.2z M9.7,6.2C9,6.2,8.4,5.6,8.4,4.9
			S9,3.6,9.7,3.6S11,4.2,11,4.9S10.4,6.2,9.7,6.2L9.7,6.2z M14.1,6.2c-0.7,0-1.3-0.6-1.3-1.3s0.6-1.3,1.3-1.3c0.7,0,1.3,0.6,1.3,1.3
			S14.8,6.2,14.1,6.2L14.1,6.2z"></path>
            <path id="Shape_1_" class="st0" d="M54.5,62h-39v4h39.7C54.8,64.7,54.6,63.4,54.5,62L54.5,62z"></path>
        </g>
        <g id="img_m" transform="translate(15.000000, 24.000000)">
            <path id="Shape_2_" class="st0" d="M53.2,6h-20c-0.6,0-1-0.4-1-1s0.4-1,1-1h20c0.6,0,1,0.4,1,1S53.8,6,53.2,6L53.2,6z"></path>
            <path id="Shape_3_" class="st0" d="M53.2,12h-20c-0.6,0-1-0.4-1-1s0.4-1,1-1h20c0.6,0,1,0.4,1,1S53.8,12,53.2,12L53.2,12z"></path>
            <path id="Shape_4_" class="st0" d="M53.2,18h-20c-0.6,0-1-0.4-1-1s0.4-1,1-1h20c0.6,0,1,0.4,1,1S53.8,18,53.2,18L53.2,18z"></path>
            <linearGradient id="Shape_13_" gradientUnits="userSpaceOnUse" x1="-266.2193" y1="303.4403" x2="-266.2193" y2="302.4403" gradientTransform="matrix(24.2201 0 0 -17.7201 6460.5786 5383.0039)">
                <stop offset="0" style="stop-color:#814590"></stop>
                <stop offset="1" style="stop-color:#3A2B84"></stop>
            </linearGradient>
            <path id="Shape_5_" class="st1" d="M24.5,21.4l-6.9-8.6c-0.3-0.3-0.7-0.5-1.1-0.6c-0.4,0-0.9,0.2-1.1,0.5l-1.8,1.9l-6.4-8
			C6.9,6.2,6.4,6,5.9,6S5,6.3,4.7,6.7l-4.1,6.8v5.8l5.6-9.2l6.1,7.7c0.3,0.3,0.7,0.5,1.1,0.6c0.4,0,0.9-0.2,1.2-0.5l1.8-1.9l5.8,7.2
			c0.5,0.6,1.5,0.7,2.1,0.2C24.9,23,25,22,24.5,21.4L24.5,21.4z"></path>
            <linearGradient id="Oval_2_" gradientUnits="userSpaceOnUse" x1="-226.7" y1="266.4" x2="-226.7" y2="265.4" gradientTransform="matrix(5 0 0 -5 1151.6 1332)">
                <stop offset="0" style="stop-color:#814590"></stop>
                <stop offset="1" style="stop-color:#3A2B84"></stop>
            </linearGradient>
            <circle id="Oval" class="st2" cx="18.1" cy="2.5" r="2.5"></circle>
        </g>
    </g>
    <g id="Phone" transform="translate(0.000000, 34.000000)">
        <g id="phone">
            <path id="Shape_6_" class="st0" d="M23.3,0H4.2C2.4,0,0.9,1.5,0.9,3.3v41.5c0,1.8,1.5,3.3,3.3,3.3h19.1c1.8,0,3.3-1.5,3.3-3.3V3.3
			C26.6,1.5,25.1,0,23.3,0L23.3,0z M24.6,41H2.9V7h21.6v34H24.6z"></path>
        </g>
        <g id="img_s" transform="translate(6.000000, 12.000000)">
            <linearGradient id="Shape_14_" gradientUnits="userSpaceOnUse" x1="-238.3129" y1="269.1637" x2="-238.3129" y2="268.1637" gradientTransform="matrix(15.3826 0 0 -9.6138 3673.5928 2590.9978)">
                <stop offset="0" style="stop-color:#814590"></stop>
                <stop offset="1" style="stop-color:#3A2B84"></stop>
            </linearGradient>
            <path id="Shape_7_" class="st3" d="M1,12.9c-0.2,0-0.4,0-0.5-0.1c-0.5-0.3-0.6-0.9-0.3-1.4l4.6-7.6C5,3.5,5.3,3.3,5.6,3.3
			c0.3,0,0.6,0.1,0.8,0.4l3.1,3.9l0.7-0.8c0.2-0.2,0.5-0.3,0.8-0.3s0.6,0.1,0.7,0.4l3.5,4.4c0.3,0.4,0.3,1.1-0.1,1.4
			C14.7,13,14,13,13.7,12.6l-2.8-3.5l-0.7,0.8c-0.2,0.2-0.5,0.3-0.8,0.3c-0.3,0-0.6-0.1-0.7-0.4L5.8,6.1l-3.9,6.4
			C1.7,12.8,1.3,12.9,1,12.9L1,12.9z"></path>
            <linearGradient id="Oval_3_" gradientUnits="userSpaceOnUse" x1="-171.5" y1="210" x2="-171.5" y2="209" gradientTransform="matrix(3 0 0 -3 526.8 630.5)">
                <stop offset="0" style="stop-color:#814590"></stop>
                <stop offset="1" style="stop-color:#3A2B84"></stop>
            </linearGradient>
            <circle id="Oval_1_" class="st4" cx="12.3" cy="2" r="1.5"></circle>
            <path id="Shape_8_" class="st0" d="M14.5,18.5h-13C1.2,18.5,1,18.3,1,18s0.2-0.5,0.5-0.5h13c0.3,0,0.5,0.2,0.5,0.5
			S14.8,18.5,14.5,18.5L14.5,18.5z"></path>
            <path id="Shape_9_" class="st0" d="M14.5,21.5h-13C1.2,21.5,1,21.3,1,21s0.2-0.5,0.5-0.5h13c0.3,0,0.5,0.2,0.5,0.5
			S14.8,21.5,14.5,21.5L14.5,21.5z"></path>
            <path id="Shape_10_" class="st0" d="M14.5,24.5h-13C1.2,24.5,1,24.3,1,24s0.2-0.5,0.5-0.5h13c0.3,0,0.5,0.2,0.5,0.5
			S14.8,24.5,14.5,24.5L14.5,24.5z"></path>
        </g>
    </g>
    <g id="Search" transform="translate(69.000000, 49.000000)">
        <linearGradient id="Shape_15_" gradientUnits="userSpaceOnUse" x1="-295.0169" y1="269.1111" x2="-295.0169" y2="268.1111" gradientTransform="matrix(11.075 0 0 -10.8 3293.2502 2928.0999)">
            <stop offset="0" style="stop-color:#814590"></stop>
            <stop offset="1" style="stop-color:#3A2B84"></stop>
        </linearGradient>
        <path id="Shape_11_" class="st5" d="M30.8,28.3l-6.6-6.6c-1.1,1.3-2.4,2.4-3.8,3.3l6.8,6.8c0.5,0.5,1.1,0.7,1.8,0.7
		s1.3-0.2,1.8-0.7C31.7,30.8,31.7,29.2,30.8,28.3L30.8,28.3z"></path>
        <linearGradient id="Shape_16_" gradientUnits="userSpaceOnUse" x1="-307.54" y1="282.68" x2="-307.54" y2="281.68" gradientTransform="matrix(25 0 0 -25 7701.5 7067)">
            <stop offset="0" style="stop-color:#814590"></stop>
            <stop offset="1" style="stop-color:#3A2B84"></stop>
        </linearGradient>
        <path id="Shape_12_" class="st6" d="M13,0C6.1,0,0.5,5.6,0.5,12.5S6.1,25,13,25s12.5-5.6,12.5-12.5S19.9,0,13,0L13,0z M13,21.5
		c-5,0-9-4-9-9s4-9,9-9s9,4,9,9S18,21.5,13,21.5L13,21.5z"></path>
    </g>
</svg>