<?xml version="1.0" encoding="utf-8"?>
<!-- Generator: Adobe Illustrator 20.0.0, SVG Export Plug-In . SVG Version: 6.00 Build 0)  -->
<svg version="1.1" id="main" xmlns="http://www.w3.org/2000/svg" xmlns:xlink="http://www.w3.org/1999/xlink" x="0px" y="0px" viewBox="0 0 103 80" style="enable-background:new 0 0 103 80;" xml:space="preserve">
    <style type="text/css">
	.st0{fill:#4A4A4A;}
	.st1{fill:url(#Cart_1_);}
</style>
    <g id="Shop" transform="translate(23.000000, 0.000000)">
        <path id="shop" class="st0" d="M78.9,26.1L69.7,7.5v-5c0-1.4-1.1-2.5-2.5-2.5H12.5C11.1,0,10,1.1,10,2.5v5L0.7,26.1
		C0.3,27,0.1,28,0.2,29c0.6,3.8,3.4,6.9,7.1,7.9v6H10v-5.7c5.4,0,9.9-4.5,9.9-9.9c0,5.5,4.5,9.9,9.9,9.9c5.5,0,9.9-4.5,9.9-9.9
		c0,5.5,4.5,9.9,9.9,9.9c5.5,0,9.9-4.5,9.9-9.9c0,5.3,4.2,9.7,9.5,9.9V77H19.7c-0.2,0.9-0.7,1.8-1.3,2.5h53.4V37
		c3.9-0.9,6.8-4.1,7.5-8C79.6,28,79.4,27,78.9,26.1L78.9,26.1z M21.5,23.7c-0.1,0.5-0.5,0.8-1,0.8h-0.2c-0.5-0.1-0.9-0.6-0.8-1.2
		l2.6-14.8c0.1-0.5,0.6-0.9,1.2-0.8c0.5,0.1,0.9,0.6,0.8,1.2L21.5,23.7L21.5,23.7z M40.9,23.4c0,0.6-0.4,1-1,1c-0.6,0-1-0.4-1-1V8.7
		c0-0.6,0.4-1,1-1c0.6,0,1,0.4,1,1V23.4L40.9,23.4z M59.6,24.5h-0.2c-0.5,0-0.9-0.3-1-0.8L55.8,8.9c-0.1-0.5,0.3-1.1,0.8-1.2
		c0.5-0.1,1.1,0.3,1.2,0.8l2.6,14.8C60.5,23.9,60.1,24.4,59.6,24.5L59.6,24.5z"></path>
        <g id="Package" transform="translate(34.000000, 42.000000)">
            <path id="box-1" class="st0" d="M21.5,0.7H17v6.7c0,0.6-0.4,1-1,1s-1-0.4-1-1V0.7h-4.5c-1.1,0-2,0.9-2,2v10.9c0,1.1,0.9,2,2,2
			h10.9c1.1,0,2-0.9,2-2V2.7C23.5,1.6,22.6,0.7,21.5,0.7L21.5,0.7z"></path>
            <path id="box-2" class="st0" d="M13.1,17.6H8.6v6.7c0,0.6-0.4,1-1,1s-1-0.4-1-1v-6.7H2.1c-1.1,0-2,0.9-2,2v10.9c0,1.1,0.9,2,2,2
			H13c1.1,0,2-0.9,2-2V19.6C15.1,18.5,14.2,17.6,13.1,17.6L13.1,17.6z"></path>
            <path id="box-3" class="st0" d="M30,17.6h-4.5v6.7c0,0.6-0.4,1-1,1s-1-0.4-1-1v-6.7H19c-1.1,0-2,0.9-2,2v10.9c0,1.1,0.9,2,2,2h11
			c1.1,0,2-0.9,2-2V19.6C32,18.5,31.1,17.6,30,17.6L30,17.6z"></path>
        </g>
    </g>
    <linearGradient id="Cart_1_" gradientUnits="userSpaceOnUse" x1="-242.5666" y1="334.7288" x2="-242.5666" y2="333.7288" gradientTransform="matrix(50.2697 0 0 -41.3 12219.2783 13862.5)">
        <stop offset="0" style="stop-color:#814590"></stop>
        <stop offset="1" style="stop-color:#3A2B84"></stop>
    </linearGradient>
    <path id="Cart" class="st1" d="M49.1,45H10.9l-1.6-5.4c-0.3-0.8-1-1.4-1.9-1.4h-5c-1.1,0-2,0.9-2,2c0,1.1,0.9,2,2,2h3.5l8.4,28.4
	c0.3,0.8,1,1.4,1.9,1.4h5.3c-1.7,0.4-3,1.9-3,3.7c0,2.1,1.7,3.8,3.8,3.8s3.8-1.7,3.8-3.8c0-1.8-1.3-3.3-3-3.7h13.1
	c-1.7,0.4-3,1.9-3,3.7c0,2.1,1.7,3.8,3.8,3.8s3.8-1.7,3.8-3.8c0-1.8-1.3-3.3-3-3.7h5c1.1,0,2-0.9,2-2s-0.9-2-2-2H17.7l-0.8-2.9h26.6
	c1.1,0,2.2-0.9,2.5-1.9L50.6,47C50.9,45.9,50.2,45,49.1,45L49.1,45z M25.8,57.8c0.4,0.4,0.4,1,0.1,1.4c-0.2,0.2-0.5,0.3-0.7,0.3
	c-0.2,0-0.5-0.1-0.7-0.3L21,56c-0.2-0.2-0.3-0.5-0.3-0.7s0.1-0.5,0.3-0.7l3.5-3.3c0.4-0.4,1-0.4,1.4,0.1c0.4,0.4,0.4,1-0.1,1.4
	l-2.7,2.5L25.8,57.8L25.8,57.8z M32,50.8l-2.8,9c-0.1,0.4-0.5,0.7-1,0.7h-0.3c-0.5-0.2-0.8-0.7-0.7-1.2l2.8-9
	c0.2-0.5,0.7-0.8,1.2-0.7C31.8,49.7,32.1,50.3,32,50.8L32,50.8z M38.3,56l-3.5,3.2c-0.2,0.2-0.4,0.3-0.7,0.3c-0.3,0-0.5-0.1-0.7-0.3
	c-0.4-0.4-0.4-1,0.1-1.4l2.7-2.5l-2.7-2.5c-0.4-0.4-0.4-1-0.1-1.4c0.4-0.4,1-0.4,1.4-0.1l3.5,3.3c0.2,0.2,0.3,0.5,0.3,0.7
	S38.5,55.8,38.3,56L38.3,56z"></path>
</svg>