<?xml version="1.0" encoding="UTF-8"?>
<svg width="204px" height="30px" viewBox="0 0 204 30" version="1.1" xmlns="http://www.w3.org/2000/svg" xmlns:xlink="http://www.w3.org/1999/xlink">
    <!-- Generator: Sketch 43.1 (39012) - http://www.bohemiancoding.com/sketch -->
    <title>logo</title>
    <desc>Created with Sketch.</desc>
    <g id="_Client" stroke="none" stroke-width="1" fill="none" fill-rule="evenodd">
        <g id="國會無雙" transform="translate(-38.000000, -65.000000)" fill="#000000">
            <g id="logo" transform="translate(38.000000, 65.000000)">
                <g id="en" transform="translate(63.315368, 0.000000)">
                    <polygon id="Shape" points="14.5252902 25.9355998 11.2071587 25.9355998 11.2071587 16.9292427 7.31343284 16.9292427 7.31343284 25.9355998 3.99530127 25.9355998 3.99530127 6.26381979 0.101575456 6.26381979 0.101575456 25.9355998 0.101575456 25.9355998 0.101575456 29.4907407 0.101575456 29.4907407 3.99530127 29.4907407 7.31343284 29.4907407 11.2071587 29.4907407 14.5252902 29.4907407 18.419016 29.4907407 18.419016 25.9355998 18.419016 10.0221117 14.5252902 10.0221117"></polygon>
                    <polygon id="Shape" points="139.835544 10.0221117 136.381979 10.0221117 136.381979 6.26381979 132.522112 6.26381979 132.522112 10.0221117 129.068546 10.0221117 129.068546 13.9158375 132.522112 13.9158375 132.522112 29.4907407 136.381979 29.4907407 136.381979 13.9158375 139.835544 13.9158375"></polygon>
                    <polygon id="Shape" points="55.2909066 10.0221117 52.8869541 29.4907407 53.4286899 29.4907407 56.7468214 29.4907407 68.0555556 29.4907407 68.0555556 25.9355998 57.1869818 25.9355998 58.6428966 13.9158375 68.0555556 13.9158375 68.0555556 10.0221117 59.1507739 10.0221117"></polygon>
                    <path d="M33.0458817,10.0221117 L32.5041459,10.0221117 L29.4568823,10.0221117 L28.0009674,10.0221117 L25.5970149,10.0221117 L23.1930625,29.4568823 L27.0867883,29.4568823 L27.7300995,23.9040907 L34.1970702,23.9040907 L34.8403814,29.4568823 L38.7002488,29.4568823 L36.3978718,10.0221117 L33.0458817,10.0221117 L33.0458817,10.0221117 Z M28.2379768,20.0780818 L28.9828635,13.9158375 L32.9443062,13.9158375 L33.6891929,20.0780818 L28.2379768,20.0780818 L28.2379768,20.0780818 Z" id="Shape"></path>
                    <polygon id="Shape" points="83.291874 10.0221117 76.8249033 10.0221117 76.8249033 0.203150912 72.9650359 0.203150912 72.9650359 10.0221117 72.9650359 13.9158375 72.9650359 29.4907407 76.8249033 29.4907407 76.8249033 13.9158375 83.291874 13.9158375 83.291874 29.4907407 87.1517413 29.4907407 87.1517413 10.0221117 84.5446379 10.0221117"></polygon>
                    <polygon id="Shape" points="47.4695965 6.26381979 43.5758706 6.26381979 43.5758706 10.0221117 40.1561636 10.0221117 40.1561636 13.9158375 43.5758706 13.9158375 43.5758706 29.4907407 47.4695965 29.4907407 47.4695965 13.9158375 50.8893035 13.9158375 50.8893035 10.0221117 47.4695965 10.0221117"></polygon>
                    <path d="M102.218767,10.0221117 L95.7517966,10.0221117 L91.8919292,10.0221117 L91.8919292,10.0221117 L91.8919292,13.881979 L91.8919292,13.881979 L91.8919292,25.9017413 L91.8919292,29.5584577 L95.7517966,29.5584577 L102.218767,29.5584577 L106.078635,29.5584577 L106.078635,25.9017413 L106.078635,10.0221117 L106.078635,10.0221117 L102.218767,10.0221117 L102.218767,10.0221117 Z M95.853372,25.9355998 L95.853372,13.9158375 L102.320343,13.9158375 L102.320343,25.9355998 L95.853372,25.9355998 L95.853372,25.9355998 Z" id="Shape"></path>
                    <polygon id="Shape" points="121.145661 25.9355998 114.644831 25.9355998 114.644831 14.0174129 110.784964 14.0174129 110.784964 25.9355998 110.784964 29.4907407 114.644831 29.4907407 121.145661 29.4907407 125.005528 29.4907407 125.005528 29.4907407 125.005528 10.1575456 121.145661 10.1575456"></polygon>
                </g>
                <g id="tw" transform="translate(0.000000, 2.031509)">
                    <path d="M54.5460199,20.6536761 L43.4742952,20.6536761 L43.4742952,19.0961857 L52.4467938,19.0961857 L52.4467938,18.1481481 L52.4467938,16.3875069 L52.4467938,14.7284411 L52.4467938,11.8166114 L52.4467938,10.1575456 L52.4467938,7.44886678 L52.4467938,7.34729132 L31.115948,7.34729132 L31.115948,7.44886678 L31.115948,10.1575456 L31.115948,11.7150359 L31.115948,14.6268657 L31.115948,16.3875069 L31.115948,18.2835821 L31.115948,19.2316197 L40.2238806,19.2316197 L40.2238806,20.78911 L28.8474295,20.78911 L28.8474295,23.7009397 L40.2238806,23.7009397 L40.2238806,27.4592316 L43.4742952,27.4592316 L43.4742952,23.7009397 L54.5460199,23.7009397 L54.5460199,20.6536761 L54.5460199,20.6536761 Z M34.2647872,10.0898286 L49.2979547,10.0898286 L49.2979547,11.647319 L34.2647872,11.647319 L34.2647872,10.0898286 L34.2647872,10.0898286 Z M34.2647872,14.5930072 L49.2979547,14.5930072 L49.2979547,16.3536484 L34.2647872,16.3536484 L34.2647872,14.5930072 L34.2647872,14.5930072 Z" id="Shape"></path>
                    <polygon id="Shape" points="5.95909342 6.33153676 3.65671642 1.82835821 0.203150912 1.82835821 2.50552792 6.33153676"></polygon>
                    <rect id="Rectangle-path" x="1.35433941" y="8.53233831" width="4.70632946" height="3.14883914"></rect>
                    <polygon id="Shape" points="0 27.3237977 3.25041459 27.3237977 5.75594251 13.8481205 2.50552792 13.8481205"></polygon>
                    <polygon id="Shape" points="24.8859867 13.0355169 24.8859867 9.98825318 17.9788557 9.98825318 17.9788557 4.97719735 22.8883361 4.97719735 22.8883361 1.82835821 9.7173853 1.82835821 9.7173853 4.97719735 14.7284411 4.97719735 14.7284411 9.98825318 7.82131012 9.98825318 7.82131012 13.0355169 14.4237148 13.0355169 7.41500829 27.3237977 10.8685738 27.3237977 16.2859315 16.252073 21.8387231 27.3237977 25.2922886 27.3237977 18.2835821 13.0355169"></polygon>
                    <polygon id="Shape" points="35.4159757 6.43311222 38.4632394 6.43311222 38.4632394 4.77404643 45.0317855 4.77404643 45.0317855 6.43311222 48.0790492 6.43311222 48.0790492 4.77404643 54.1397181 4.77404643 54.1397181 1.92993367 48.0790492 1.92993367 48.0790492 0.169292427 45.0317855 0.169292427 45.0317855 1.92993367 38.4632394 1.92993367 38.4632394 0.169292427 35.4159757 0.169292427 35.4159757 1.92993367 29.3553068 1.92993367 29.3553068 4.77404643 35.4159757 4.77404643"></polygon>
                </g>
            </g>
        </g>
    </g>
</svg>