<?xml version="1.0" encoding="UTF-8"?>
<svg width="133px" height="70px" viewBox="0 0 133 70" version="1.1" xmlns="http://www.w3.org/2000/svg" xmlns:xlink="http://www.w3.org/1999/xlink">
    <!-- Generator: Sketch 43.1 (39012) - http://www.bohemiancoding.com/sketch -->
    <title>studiodoe-logo</title>
    <desc>Created with Sketch.</desc>
    <g id="_Project" stroke="none" stroke-width="1" fill="none" fill-rule="evenodd">
        <g id="Project_G" transform="translate(-960.000000, -310.000000)" fill="#323232">
            <g id="Project-1" transform="translate(240.000000, 265.000000)">
                <g id="STUDIO-DOE" transform="translate(680.000000, 0.000000)">
                    <g id="studiodoe-logo" transform="translate(40.000000, 45.000000)">
                        <path d="M13.6781085,0.922474982 L13.6781085,8.45771952 L13.0818605,8.45771952 C12.8962481,7.00902607 12.5542636,5.85975476 12.0571783,5.00863143 C11.560093,4.15878224 10.8506977,3.48094151 9.92899225,2.97510923 C9.00728682,2.47055109 8.05634109,2.21699789 7.07488372,2.21699789 C5.97392248,2.21699789 5.05984496,2.55591825 4.33010853,3.23375899 C3.60037209,3.91159972 3.23677519,4.68245243 3.23677519,5.54631712 C3.23677519,6.21141649 3.46815504,6.81535729 3.93218605,7.36068781 C4.59581395,8.17103876 6.16716279,9.2413136 8.64623256,10.5702382 C10.6752558,11.6596251 12.0609922,12.4967329 12.8034419,13.0815617 C13.5458915,13.6663904 14.1167132,14.3544242 14.5146357,15.144389 C14.9125581,15.9356279 15.1108837,16.7625426 15.1108837,17.6264073 C15.1108837,19.2738661 14.4739535,20.6958027 13.2013643,21.8922171 C11.9287752,23.0886314 10.2900465,23.6862016 8.28772093,23.6862016 C7.65206202,23.6862016 7.05454264,23.6390585 6.49770543,23.5460465 C6.16589147,23.4925328 5.48065116,23.2963157 4.43944186,22.9573953 C3.39823256,22.618475 2.7384186,22.4490148 2.46,22.4490148 C2.19429457,22.4490148 1.98579845,22.5280113 1.83324031,22.6885525 C1.68068217,22.8478196 1.56499225,23.1803693 1.48489922,23.6862016 L0.90772093,23.6862016 L0.90772093,16.2325018 L1.48489922,16.2325018 C1.76331783,17.7882227 2.13708527,18.9540578 2.60874419,19.7312812 C3.07913178,20.5085046 3.79869767,21.1532178 4.76744186,21.6654207 C5.73491473,22.1776237 6.79646512,22.432451 7.95082171,22.432451 C9.2768062,22.432451 10.328186,22.0807893 11.1036899,21.3761917 C11.8791938,20.6715941 12.2669457,19.8344863 12.2669457,18.8648682 C12.2669457,18.3335532 12.1207442,17.7945934 11.8296124,17.250537 C11.5384806,16.7052065 11.0808062,16.2006483 10.4565891,15.7355884 C10.0459535,15.4170543 8.91193798,14.7353911 7.05581395,13.6918732 C5.1984186,12.6483552 3.87624806,11.8150698 3.08675969,11.1907428 C2.29727132,10.5664158 1.70102326,9.87838196 1.29674419,9.12791543 C0.892465116,8.37744891 0.690325581,7.55690486 0.690325581,6.6662833 C0.690325581,5.097821 1.28657364,3.74851022 2.48034109,2.61962509 C3.67410853,1.48946582 5.1984186,0.925023256 7.05581395,0.925023256 C8.20889922,0.925023256 9.42936434,1.21042988 10.715938,1.78251727 C11.312186,2.04881184 11.7368062,2.18132206 11.9885271,2.18132206 C12.2542326,2.18132206 12.4754419,2.09850317 12.6546977,1.93159126 C12.8339535,1.76595349 12.9763411,1.4295814 13.0818605,0.925023256 L13.6781085,0.925023256 L13.6781085,0.922474982 Z" id="Shape"></path>
                        <path d="M38.9112248,1.42066244 L39.1502326,6.52357999 L38.5336434,6.52357999 C38.4268527,5.63295842 38.267938,4.99589006 38.0556279,4.60982664 C37.723814,3.98549965 37.2826667,3.52681043 36.732186,3.23375899 C36.1817054,2.94198168 35.4621395,2.79545595 34.5734884,2.79545595 L31.5108837,2.79545595 L31.5108837,19.421666 C31.5108837,20.7505906 31.6570853,21.5813277 31.9482171,21.9138774 C32.3461395,22.3661959 32.9690853,22.5917181 33.8183256,22.5917181 L34.5734884,22.5917181 L34.5734884,23.1892882 L25.364062,23.1892882 L25.364062,22.5917181 L26.1395659,22.5917181 C27.0549147,22.5917181 27.7045581,22.3126822 28.0884961,21.7546103 C28.3135194,21.4220606 28.4266667,20.6448372 28.4266667,19.4229401 L28.4266667,2.79673009 L25.8217364,2.79673009 C24.8135814,2.79673009 24.0978295,2.87063002 23.6732093,3.01588161 C23.1163721,3.21464693 22.6396279,3.60453277 22.2404341,4.1817167 C21.8425116,4.76017477 21.6098605,5.54122058 21.5437519,6.52357999 L20.9271628,6.52357999 L21.1852403,1.42066244 L38.9112248,1.42066244 L38.9112248,1.42066244 Z" id="Shape"></path>
                        <path d="M58.6547907,2.01950669 L58.6547907,1.42193658 L66.3526202,1.42193658 L66.3526202,2.01950669 L65.5364341,2.01950669 C64.6744806,2.01950669 64.0184806,2.37881325 63.5671628,3.09615222 C63.3408682,3.4287019 63.2289922,4.19955462 63.2289922,5.40871036 L63.2289922,14.2397519 C63.2289922,16.4197999 63.0141395,18.1105793 62.5831628,19.3133643 C62.152186,20.5161494 61.3029457,21.5494743 60.0367132,22.413339 C58.7704806,23.2772037 57.0491163,23.709136 54.8751628,23.709136 C52.5016124,23.709136 50.7014264,23.2975899 49.4746047,22.4732234 C48.2477829,21.6488569 47.3756589,20.5390839 46.8595039,19.1439042 C46.5149767,18.1870275 46.3420775,16.3994137 46.3420775,13.7810627 L46.3420775,5.28894151 C46.3420775,3.94600141 46.1590078,3.06557294 45.7954109,2.6476561 C45.4305426,2.22846512 44.8368372,2.01950669 44.0155659,2.01950669 L43.2006512,2.01950669 L43.2006512,1.42193658 L52.5893333,1.42193658 L52.5893333,2.01950669 L51.7540775,2.01950669 C50.8514419,2.01950669 50.2094264,2.30618746 49.8242171,2.8770007 C49.5585116,3.26178999 49.4262946,4.0670444 49.4262946,5.28894151 L49.4262946,14.7583256 C49.4262946,15.6094489 49.5025736,16.5790669 49.6551318,17.6684538 C49.8076899,18.7578407 50.0899225,19.6089641 50.5005581,20.2205497 C50.9111938,20.8321353 51.4985426,21.3366934 52.2613333,21.7354982 C53.024124,22.134303 53.9547287,22.3330684 55.0556899,22.3330684 C56.4744806,22.3330684 57.7445271,22.0209049 58.8645581,21.3965779 C59.9845891,20.7722509 60.7511938,19.9746413 61.1618295,19.0037491 C61.5724651,18.0341311 61.7784186,16.3994137 61.7784186,14.0995969 L61.7784186,5.28766737 C61.7784186,3.91924454 61.6322171,3.06812121 61.3410853,2.73557153 C60.9304496,2.25649612 60.3138605,2.01823256 59.4913178,2.01823256 L58.6547907,2.01823256 L58.6547907,2.01950669 Z" id="Shape"></path>
                        <path d="M70.3229457,23.1905624 L70.3229457,22.5929922 L71.1378605,22.5929922 C72.0532093,22.5929922 72.7028527,22.3012149 73.0867907,21.7163862 C73.3257984,21.3570796 73.4453023,20.5671149 73.4453023,19.3439436 L73.4453023,5.29021564 C73.4453023,3.92179281 73.2991008,3.07066949 73.007969,2.7381198 C72.5833488,2.2590444 71.9604031,2.02078083 71.1378605,2.02078083 L70.3229457,2.02078083 L70.3229457,1.42321071 L79.1738605,1.42321071 C82.4093643,1.42321071 84.8731783,1.79525863 86.564031,2.53935447 C88.2548837,3.28345032 89.6164651,4.51681466 90.6513178,6.23689922 C91.6861705,7.95825793 92.2023256,9.94845948 92.2023256,12.2075039 C92.2023256,15.2246596 91.2806202,17.7487245 89.4384806,19.7822467 C87.3827597,22.0553066 84.2464186,23.1905624 80.0294574,23.1905624 L70.3229457,23.1905624 L70.3229457,23.1905624 Z M76.5295194,21.6157294 C77.8822016,21.9215222 79.0162171,22.0744186 79.9302946,22.0744186 C82.4106357,22.0744186 84.4650853,21.2003608 86.0974574,19.4535194 C87.7285581,17.7066779 88.5434729,15.3431543 88.5434729,12.366771 C88.5434729,9.34961522 87.7285581,6.97717266 86.0974574,5.24944327 C84.4663566,3.52171388 82.3712248,2.65784919 79.8107907,2.65784919 C78.8433178,2.65784919 77.7487132,2.8107456 76.5295194,3.11653841 L76.5295194,21.6157294 L76.5295194,21.6157294 Z" id="Shape"></path>
                        <path d="M106.636868,22.5917181 L106.636868,23.1892882 L97.3270078,23.1892882 L97.3270078,22.5917181 L98.1025116,22.5917181 C98.9898915,22.5917181 99.6408062,22.3330684 100.051442,21.8144947 C100.303163,21.4692037 100.430295,20.6448372 100.430295,19.3426695 L100.430295,5.28894151 C100.430295,4.18553911 100.362915,3.45545877 100.231969,3.09615222 C100.125178,2.82985765 99.9065116,2.60433545 99.575969,2.41831149 C99.0979535,2.15201691 98.6084961,2.01950669 98.1037829,2.01950669 L97.3282791,2.01950669 L97.3282791,1.42193658 L106.63814,1.42193658 L106.63814,2.01950669 L105.842295,2.01950669 C104.967628,2.01950669 104.324341,2.28580127 103.913705,2.81711628 C103.648,3.14966596 103.515783,3.97275828 103.515783,5.28894151 L103.515783,19.3426695 C103.515783,20.4460719 103.581891,21.1697815 103.714109,21.5150726 C103.820899,21.7813672 104.045922,22.01326 104.39045,22.2132995 C104.854481,22.4655786 105.338853,22.5917181 105.842295,22.5917181 L106.636868,22.5917181 L106.636868,22.5917181 Z" id="Shape"></path>
                        <path d="M122.482574,0.922474982 C125.293457,0.922474982 127.733116,1.9952981 129.802822,4.14221846 C131.872527,6.28913883 132.906109,8.96992248 132.906109,12.1858436 C132.906109,15.4947766 131.864899,18.2392671 129.782481,20.419315 C127.701333,22.5993629 125.181581,23.6887498 122.224496,23.6887498 C119.240713,23.6887498 116.731132,22.6261198 114.695752,20.4983115 C112.660372,18.3717773 111.643318,15.6145455 111.643318,12.2253418 C111.643318,8.76988302 112.816744,5.95276674 115.164868,3.77271882 C117.204062,1.87298097 119.643721,0.922474982 122.482574,0.922474982 L122.482574,0.922474982 Z M122.183814,2.09850317 C120.233612,2.09850317 118.676248,2.82348696 117.509178,4.27090627 C116.036992,6.06489077 115.300899,8.69598309 115.300899,12.1654574 C115.300899,15.7139281 116.06369,18.4456772 117.588,20.3594306 C118.741085,21.8208654 120.274295,22.5522199 122.183814,22.5522199 C124.22555,22.5522199 125.91386,21.7546103 127.246202,20.1606653 C128.578543,18.5654461 129.245984,16.0541226 129.245984,12.6254207 C129.245984,8.890926 128.509891,6.11330796 127.037705,4.2925666 C125.870636,2.82985765 124.252248,2.09850317 122.183814,2.09850317 L122.183814,2.09850317 Z" id="Shape"></path>
                        <path d="M0.689054264,68.7626103 L0.689054264,68.1650402 L1.50524031,68.1650402 C2.42058915,68.1650402 3.07023256,67.8719887 3.45417054,67.28716 C3.69317829,66.9278534 3.81268217,66.1378887 3.81268217,64.9147174 L3.81268217,50.8609894 C3.81268217,49.4925666 3.66648062,48.6414433 3.37534884,48.3088936 C2.95072868,47.8310923 2.32778295,47.5915546 1.50524031,47.5915546 L0.689054264,47.5915546 L0.689054264,46.9939845 L9.54124031,46.9939845 C12.7767442,46.9939845 15.2392868,47.3660324 16.9301395,48.1101283 C18.6209922,48.8542241 19.983845,50.0875884 21.0186977,51.807673 C22.0522791,53.5290317 22.5697054,55.5192333 22.5697054,57.7782777 C22.5697054,60.7954334 21.648,63.3207724 19.8045891,65.3530204 C17.7488682,67.6260803 14.6125271,68.7626103 10.3955659,68.7626103 L0.689054264,68.7626103 L0.689054264,68.7626103 Z M6.89435659,67.1877773 C8.24703876,67.4935701 9.38105426,67.6464665 10.2964031,67.6464665 C12.7754729,67.6464665 14.8311938,66.7724087 16.4622946,65.0242932 C18.0933953,63.2774517 18.9095814,60.9139281 18.9095814,57.9375447 C18.9095814,54.920389 18.0933953,52.5479464 16.4622946,50.8202171 C14.8311938,49.0937618 12.736062,48.228623 10.1768992,48.228623 C9.20815504,48.228623 8.11482171,48.3815194 6.89435659,48.6873122 L6.89435659,67.1877773 L6.89435659,67.1877773 Z" id="Shape"></path>
                        <path d="M38.871814,46.4945229 C41.6826977,46.4945229 44.1236279,47.5686202 46.192062,49.7142664 C48.2617674,51.8611868 49.2953488,54.5419704 49.2953488,57.7578915 C49.2953488,61.0668245 48.2541395,63.811315 46.1717209,65.9913629 C44.0905736,68.1714109 41.5695504,69.2607977 38.6124651,69.2607977 C35.6286822,69.2607977 33.1191008,68.1981677 31.0837209,66.0716335 C29.0483411,63.9450994 28.0300155,61.1865934 28.0300155,57.7986638 C28.0300155,54.3432051 29.2034419,51.5260888 31.5502946,49.3460409 C33.5933023,47.4450289 36.0342326,46.4945229 38.871814,46.4945229 L38.871814,46.4945229 Z M38.5743256,47.6705511 C36.6253953,47.6705511 35.0667597,48.3955349 33.8996899,49.8442283 C32.4275039,51.6382128 31.6914109,54.2693051 31.6914109,57.7387794 C31.6914109,61.2872502 32.4542016,64.0177252 33.9785116,65.9314785 C35.1328682,67.3941875 36.6635349,68.1242678 38.5730543,68.1242678 C40.6147907,68.1242678 42.3031008,67.3266582 43.6354419,65.7327132 C44.9677829,64.137494 45.6352248,61.6261705 45.6352248,58.1961945 C45.6352248,54.4616998 44.8991318,51.6840817 43.4269457,49.8633404 C42.259876,48.4019056 40.6427597,47.6705511 38.5743256,47.6705511 L38.5743256,47.6705511 Z" id="Shape"></path>
                        <path d="M60.4854884,48.1891247 L60.4854884,56.7819027 L65.2389457,56.7819027 C66.4861085,56.7819027 67.3137364,56.5958788 67.7256434,56.2238309 C68.2824806,55.7320141 68.5939535,54.8681494 68.660062,53.6322368 L69.2563101,53.6322368 L69.2563101,61.2069796 L68.660062,61.2069796 C68.5138605,60.1430754 68.3613023,59.4665088 68.2023876,59.1734574 C68.0167752,58.7886681 67.7053023,58.4892459 67.267969,58.2764651 C66.8306357,58.0636843 66.1542946,57.9579309 65.2389457,57.9579309 L60.4854884,57.9579309 L60.4854884,65.1338689 C60.4854884,66.1047611 60.5248992,66.6934123 60.6049922,66.8985483 C60.683814,67.1049584 60.8338295,67.2667738 61.0524961,67.3865426 C61.2711628,67.5063115 61.6792558,67.5661959 62.2755039,67.5661959 L65.955969,67.5661959 C67.1764341,67.5661959 68.0650853,67.483377 68.6206512,67.3164651 C69.1774884,67.1508273 69.7152558,66.8144553 70.2326822,66.3098971 C70.8950388,65.6460719 71.5726512,64.6420521 72.2617054,63.3003862 L72.8986357,63.3003862 L71.0285271,68.7626103 L54.3005271,68.7626103 L54.3005271,68.1650402 L55.0556899,68.1650402 C55.5731163,68.1650402 56.063845,68.0452713 56.527876,67.8057336 C56.8596899,67.6337252 57.0885271,67.3738013 57.2143876,67.0285102 C57.3402481,66.6832192 57.403814,65.9862664 57.403814,64.9351036 L57.403814,50.7807188 C57.403814,49.412296 57.263969,48.5611727 56.9868217,48.228623 C56.6016124,47.8030613 55.9583256,47.5902805 55.0569612,47.5902805 L54.3017984,47.5902805 L54.3017984,46.9927104 L71.0297984,46.9927104 L71.2688062,51.7770937 L70.6522171,51.7770937 C70.4259225,50.6214517 70.1780155,49.8302128 69.9072248,49.4046512 C69.6351628,48.9790895 69.2334264,48.6541846 68.7032868,48.4273883 C68.2659535,48.2681212 67.5095194,48.1878506 66.4352558,48.1878506 L60.4854884,48.1878506 L60.4854884,48.1891247 Z" id="Shape"></path>
                    </g>
                </g>
            </g>
        </g>
    </g>
</svg>