<?xml version="1.0" encoding="UTF-8"?>
<svg width="200px" height="33px" viewBox="0 0 200 33" version="1.1" xmlns="http://www.w3.org/2000/svg" xmlns:xlink="http://www.w3.org/1999/xlink">
    <!-- Generator: Sketch 43.1 (39012) - http://www.bohemiancoding.com/sketch -->
    <title>JRF</title>
    <desc>Created with Sketch.</desc>
    <defs>
        <linearGradient x1="50.2306313%" y1="100.175978%" x2="50.2306313%" y2="0.0839041996%" id="linearGradient-1">
            <stop stop-color="#E6E6E6" offset="0%"></stop>
            <stop stop-color="#CBCBCB" offset="3.040981%"></stop>
            <stop stop-color="#969696" offset="9.843355%"></stop>
            <stop stop-color="#686868" offset="16.73%"></stop>
            <stop stop-color="#424242" offset="23.57%"></stop>
            <stop stop-color="#252525" offset="30.35%"></stop>
            <stop stop-color="#111111" offset="37.05%"></stop>
            <stop stop-color="#040404" offset="43.64%"></stop>
            <stop stop-color="#000000" offset="50%"></stop>
        </linearGradient>
    </defs>
    <g id="_Client" stroke="none" stroke-width="1" fill="none" fill-rule="evenodd">
        <g id="司法陽光網" transform="translate(-40.000000, -64.000000)">
            <g id="JRF" transform="translate(40.000000, 64.000000)">
                <g id="圖層_1">
                    <g id="Group">
                        <g transform="translate(28.239203, 4.983389)" fill="#000000">
                            <path d="M3.05647841,9.76744186 C3.02325581,9.86710963 2.99003322,9.93355482 2.95681063,10 C2.59136213,10.7973422 2.02657807,11.5282392 1.32890365,12.2259136 L0.299003322,11.5282392 L0.664451827,11.1627907 C1.22923588,10.5647841 1.66112957,9.93355482 1.99335548,9.2358804 L3.05647841,9.76744186 L3.05647841,9.76744186 Z M5.84717608,8.97009967 L0.96345515,8.97009967 L0.96345515,0.531561462 L5.84717608,0.531561462 L5.84717608,8.97009967 L5.84717608,8.97009967 Z M4.71760797,1.59468439 L2.12624585,1.59468439 L2.12624585,2.92358804 L4.71760797,2.92358804 L4.71760797,1.59468439 L4.71760797,1.59468439 Z M2.09302326,5.34883721 L4.68438538,5.34883721 L4.68438538,3.95348837 L2.09302326,3.95348837 L2.09302326,5.34883721 L2.09302326,5.34883721 Z M2.09302326,7.90697674 L4.68438538,7.90697674 L4.68438538,6.37873754 L2.09302326,6.37873754 L2.09302326,7.90697674 L2.09302326,7.90697674 Z M5.18272425,12.2259136 C4.85049834,11.3621262 4.38538206,10.5315615 3.82059801,9.80066445 L4.81727575,9.2358804 C5.41528239,10 5.91362126,10.8305648 6.31229236,11.6611296 L5.18272425,12.2259136 L5.18272425,12.2259136 Z M10.1328904,5.61461794 C9.33554817,7.04318937 8.20598007,8.40531561 6.74418605,9.70099668 L5.91362126,8.57142857 C6.87707641,7.77408638 7.6744186,7.04318937 8.23920266,6.31229236 C8.8372093,5.58139535 9.40199336,4.71760797 10,3.65448505 L6.34551495,3.65448505 L6.34551495,2.52491694 L10.0996678,2.52491694 L10.0996678,0.0332225914 L11.3289037,0.0332225914 L11.3289037,2.52491694 L12.4584718,2.52491694 L12.4584718,3.65448505 L11.3289037,3.65448505 L11.3289037,10.5315615 L11.3289037,10.6976744 C11.3289037,11.1627907 11.2292359,11.5282392 11.0299003,11.7275748 C10.8305648,11.9269103 10.4318937,12.0598007 9.83388704,12.0598007 L8.20598007,12.0598007 L7.90697674,10.8637874 L9.66777409,10.9302326 C9.96677741,10.9302326 10.0996678,10.7973422 10.0996678,10.5315615 L10.0996678,5.61461794 L10.1328904,5.61461794 Z" id="Shape"></path>
                            <path d="M13.8870432,0.398671096 L25.3820598,0.398671096 L25.3820598,12.2591362 L24.2524917,12.2591362 L24.2524917,11.7275748 L15.0166113,11.7275748 L15.0166113,12.2591362 L13.8870432,12.2591362 L13.8870432,0.398671096 L13.8870432,0.398671096 Z M22.7242525,6.31229236 L23.1229236,6.77740864 L23.654485,7.40863787 L22.7906977,7.94019934 L22.4252492,7.47508306 L22.192691,7.47508306 L22.192691,8.0730897 L23.7873754,8.0730897 L23.7873754,8.90365449 L22.192691,8.90365449 L22.192691,9.2358804 L22.192691,9.36877076 C22.192691,9.70099668 22.1262458,9.93355482 21.9601329,10.0996678 C21.8272425,10.2657807 21.4950166,10.3322259 20.9966777,10.3322259 L19.5681063,10.3322259 L19.3023256,9.46843854 L20.6644518,9.53488372 C20.9634551,9.53488372 21.1295681,9.40199336 21.1295681,9.13621262 L21.1295681,8.87043189 L15.4817276,8.87043189 L15.4817276,8.03986711 L21.1295681,8.03986711 L21.1295681,7.50830565 L18.6710963,7.60797342 L15.7475083,7.6744186 L15.5481728,6.74418605 L17.2425249,6.77740864 L18.9368771,6.74418605 L18.9368771,6.31229236 L15.8139535,6.31229236 L15.8139535,3.15614618 L18.9368771,3.15614618 L18.9368771,2.72425249 L15.448505,2.72425249 L15.448505,1.86046512 L18.9368771,1.86046512 L18.9368771,1.36212625 L14.9501661,1.36212625 L14.9501661,10.730897 L24.1860465,10.730897 L24.1860465,1.36212625 L19.9667774,1.36212625 L19.9667774,1.86046512 L23.7541528,1.86046512 L23.7541528,2.72425249 L19.9335548,2.72425249 L19.9335548,3.15614618 L23.255814,3.15614618 L23.255814,6.31229236 L22.7242525,6.31229236 L22.7242525,6.31229236 Z M17.7740864,10.4318937 L17.3421927,9.86710963 C17.2425249,9.70099668 17.1096346,9.56810631 16.9435216,9.40199336 L16.8770764,9.33554817 L17.7408638,8.93687708 L18.1727575,9.33554817 C18.2724252,9.43521595 18.4053156,9.6013289 18.5714286,9.80066445 C18.6046512,9.83388704 18.6046512,9.86710963 18.6710963,9.93355482 L17.7740864,10.4318937 L17.7740864,10.4318937 Z M16.8770764,4.45182724 L18.9700997,4.45182724 L18.9700997,3.92026578 L16.8770764,3.92026578 L16.8770764,4.45182724 L16.8770764,4.45182724 Z M16.8770764,5.58139535 L18.9700997,5.58139535 L18.9700997,5.0166113 L16.8770764,5.0166113 L16.8770764,5.58139535 L16.8770764,5.58139535 Z M20,4.45182724 L22.2923588,4.45182724 L22.2923588,3.92026578 L20,3.92026578 L20,4.45182724 L20,4.45182724 Z M20,5.58139535 L22.2923588,5.58139535 L22.2923588,5.0166113 L20,5.0166113 L20,5.58139535 L20,5.58139535 Z M20,6.31229236 L20,6.77740864 L21.0963455,6.77740864 L21.9269103,6.74418605 L21.5946844,6.31229236 L20,6.31229236 L20,6.31229236 Z" id="Shape"></path>
                            <path d="M29.0697674,6.31229236 L27.9069767,5.51495017 C27.7740864,5.41528239 27.5083056,5.24916944 27.1760797,5.04983389 C27.076412,4.9833887 26.9435216,4.91694352 26.7774086,4.81727575 L27.5747508,3.78737542 L28.7043189,4.38538206 C29.0033223,4.55149502 29.4019934,4.81727575 29.9003322,5.14950166 L29.0697674,6.31229236 L29.0697674,6.31229236 Z M30.2657807,7.87375415 C30.0996678,8.20598007 30,8.4717608 29.9003322,8.67109635 C29.2358804,10.1328904 28.538206,11.2956811 27.8737542,12.1594684 L26.8770764,11.0631229 C27.5747508,10.1993355 28.2392027,9.10299003 28.9036545,7.7076412 C29.0033223,7.50830565 29.10299,7.27574751 29.269103,6.97674419 L30.2657807,7.87375415 L30.2657807,7.87375415 Z M29.7009967,2.79069767 L28.538206,1.96013289 C28.2392027,1.76079734 27.8405316,1.5282392 27.3754153,1.22923588 L28.1395349,0.166112957 L29.3023256,0.797342193 C29.5016611,0.897009967 29.8006645,1.09634551 30.2325581,1.36212625 C30.2990033,1.39534884 30.3986711,1.46179402 30.4983389,1.5282392 L29.7009967,2.79069767 L29.7009967,2.79069767 Z M30.2325581,6.51162791 L30.2325581,5.31561462 L33.654485,5.31561462 L33.654485,3.02325581 L30.9302326,3.02325581 L30.9302326,1.86046512 L33.654485,1.86046512 L33.654485,0.0664451827 L34.9501661,0.0664451827 L34.9501661,1.86046512 L38.372093,1.86046512 L38.372093,3.02325581 L34.9501661,3.02325581 L34.9501661,5.31561462 L38.8704319,5.31561462 L38.8704319,6.51162791 L34.8172757,6.51162791 C34.2857143,7.94019934 33.6877076,9.16943522 33.0564784,10.1993355 C33.3222591,10.166113 33.5215947,10.166113 33.6877076,10.1328904 C34.9833887,10.0332226 35.9468439,9.90033223 36.6445183,9.73421927 L36.1129568,8.77076412 L35.448505,7.6744186 L36.5448505,7.20930233 C37.2425249,8.17275748 38.0066445,9.46843854 38.8039867,11.0963455 C38.8704319,11.1960133 38.9368771,11.3621262 39.0033223,11.5282392 L37.7408638,12.1262458 L37.4750831,11.4950166 C37.3754153,11.2292359 37.2757475,10.9966777 37.1428571,10.8305648 C35.3156146,11.1627907 33.0564784,11.4285714 30.3322259,11.5946844 L30,10.1993355 L30.8637874,10.1993355 L31.3953488,10.166113 C32.192691,8.90365449 32.8571429,7.6744186 33.3554817,6.44518272 L30.2325581,6.44518272 L30.2325581,6.51162791 Z" id="Shape"></path>
                            <path d="M46.7774086,0.0996677741 L46.7774086,1.59468439 C46.7774086,2.22591362 47.0099668,3.22259136 47.4418605,4.55149502 C47.8737542,5.88039867 48.4053156,6.97674419 49.0697674,7.90697674 C49.6013289,8.63787375 50.2325581,9.36877076 50.9966777,10.0332226 C51.7607973,10.730897 52.1594684,11.0631229 52.2591362,11.0631229 L51.3289037,12.2591362 C51.1960133,12.2591362 50.6644518,11.7940199 49.7009967,10.8637874 C48.7375415,9.93355482 48.0398671,9.00332226 47.5415282,8.13953488 C47.0431894,7.24252492 46.6112957,6.21262458 46.2458472,4.9833887 C45.8471761,6.44518272 45.4152824,7.60797342 44.9169435,8.43853821 C44.4186047,9.30232558 43.6877076,10.1328904 42.6910299,10.9966777 C41.6943522,11.8604651 41.1295681,12.2923588 40.9302326,12.2923588 L40.0332226,11.0963455 C40.166113,11.0963455 40.5647841,10.7973422 41.2956811,10.2325581 C42.0265781,9.66777409 42.6578073,9.00332226 43.1893688,8.27242525 C43.8538206,7.37541528 44.3521595,6.37873754 44.7508306,5.18272425 C45.1162791,4.01993355 45.3156146,2.85714286 45.3156146,1.76079734 L45.3156146,0.0996677741 L46.7774086,0.0996677741 L46.7774086,0.0996677741 Z" id="Shape"></path>
                            <path d="M60.3322259,4.55149502 L60.4318937,5.31561462 C60.4651163,5.68106312 60.4983389,5.94684385 60.5647841,6.11295681 L65.3820598,6.11295681 L65.3820598,7.27574751 L60.8637874,7.27574751 L61.0963455,7.90697674 C61.461794,8.73754153 61.8604651,9.43521595 62.358804,9.96677741 C62.8571429,10.4983389 63.2225914,10.7641196 63.5215947,10.7641196 C63.7209302,10.7641196 63.8538206,10.6312292 63.9534884,10.3322259 C64.0531561,10.0332226 64.1528239,9.50166113 64.2857143,8.67109635 L65.4817276,9.33554817 C65.3156146,10.2657807 65.1162791,10.9634551 64.8837209,11.4285714 C64.6179402,11.9269103 64.2857143,12.1594684 63.820598,12.1594684 C63.1229236,12.1594684 62.4252492,11.7940199 61.6943522,11.0963455 C60.9966777,10.3654485 60.3986711,9.40199336 59.9667774,8.17275748 L59.6345515,7.24252492 L55.7807309,7.24252492 L55.7807309,10.4318937 L57.6079734,9.96677741 C58.4053156,9.76744186 59.10299,9.56810631 59.6345515,9.40199336 L59.6345515,10.6312292 C57.9734219,11.2292359 56.013289,11.7607973 53.7873754,12.2259136 L53.3554817,10.89701 L54.0863787,10.7973422 L54.551495,10.6976744 L54.551495,0.664451827 L64.7508306,0.664451827 L64.7508306,4.58471761 L60.3322259,4.58471761 L60.3322259,4.55149502 Z M63.3887043,1.79401993 L55.7475083,1.79401993 L55.7475083,3.42192691 L63.3887043,3.42192691 L63.3887043,1.79401993 L63.3887043,1.79401993 Z M55.7475083,4.55149502 L55.7475083,6.07973422 L59.3355482,6.07973422 C59.269103,5.71428571 59.2026578,5.48172757 59.2026578,5.28239203 L59.10299,4.51827243 L55.7475083,4.51827243 L55.7475083,4.55149502 Z" id="Shape"></path>
                            <path d="M72.0265781,5.3820598 L68.1727575,5.3820598 L68.1727575,12.2591362 L66.9435216,12.2591362 L66.9435216,0.49833887 L72.0265781,0.49833887 L72.0265781,5.3820598 L72.0265781,5.3820598 Z M70.7973422,1.5282392 L68.1395349,1.5282392 L68.1395349,2.42524917 L70.7973422,2.42524917 L70.7973422,1.5282392 L70.7973422,1.5282392 Z M68.1727575,4.35215947 L70.8305648,4.35215947 L70.8305648,3.35548173 L68.1727575,3.35548173 L68.1727575,4.35215947 L68.1727575,4.35215947 Z M69.833887,6.17940199 L75.282392,6.17940199 L75.282392,11.2292359 L69.833887,11.2292359 L69.833887,6.17940199 L69.833887,6.17940199 Z M74.1196013,7.17607973 L71.0299003,7.17607973 L71.0299003,8.10631229 L74.1196013,8.10631229 L74.1196013,7.17607973 L74.1196013,7.17607973 Z M74.1196013,9.06976744 L71.0299003,9.06976744 L71.0299003,10.166113 L74.1196013,10.166113 L74.1196013,9.06976744 L74.1196013,9.06976744 Z M76.5780731,10.8637874 C76.8770764,10.8637874 77.0431894,10.730897 77.0431894,10.4318937 L77.0431894,5.3820598 L73.0564784,5.3820598 L73.0564784,0.49833887 L78.2392027,0.49833887 L78.2392027,10.5647841 L78.2392027,10.730897 C78.2392027,11.1960133 78.1727575,11.5282392 78.0066445,11.7607973 C77.8405316,11.9601329 77.5083056,12.0930233 77.0099668,12.0930233 L75.7475083,12.0930233 L75.448505,10.8305648 L76.5780731,10.8637874 L76.5780731,10.8637874 Z M74.2524917,2.42524917 L77.0099668,2.42524917 L77.0099668,1.5282392 L74.2524917,1.5282392 L74.2524917,2.42524917 L74.2524917,2.42524917 Z M77.0099668,3.38870432 L74.2524917,3.38870432 L74.2524917,4.38538206 L77.0099668,4.38538206 L77.0099668,3.38870432 L77.0099668,3.38870432 Z" id="Shape"></path>
                            <path d="M91.4950166,0.664451827 L91.4950166,10.6312292 L91.4950166,10.7973422 C91.4950166,11.2956811 91.3953488,11.627907 91.1960133,11.8604651 C90.9966777,12.0598007 90.5980066,12.192691 89.9667774,12.192691 L87.8405316,12.192691 L87.5415282,10.89701 L89.6677741,10.9634551 C89.8671096,10.9634551 90,10.9302326 90.0332226,10.8637874 C90.0996678,10.7973422 90.1328904,10.6644518 90.1328904,10.4983389 L90.1328904,1.89368771 L80,1.89368771 L80,0.664451827 L91.4950166,0.664451827 L91.4950166,0.664451827 Z M89.0365449,4.28571429 L80.4318937,4.28571429 L80.4318937,3.089701 L89.0365449,3.089701 L89.0365449,4.28571429 L89.0365449,4.28571429 Z M80.9634551,5.51495017 L88.1727575,5.51495017 L88.1727575,9.83388704 L80.9634551,9.83388704 L80.9634551,5.51495017 L80.9634551,5.51495017 Z M86.8770764,6.64451827 L82.2259136,6.64451827 L82.2259136,8.67109635 L86.8770764,8.67109635 L86.8770764,6.64451827 L86.8770764,6.64451827 Z" id="Shape"></path>
                            <path d="M95.3156146,6.31229236 L94.1528239,5.51495017 C94.0199336,5.41528239 93.7541528,5.24916944 93.4219269,5.04983389 C93.3222591,4.9833887 93.1893688,4.91694352 93.0232558,4.81727575 L93.7873754,3.78737542 L94.9169435,4.38538206 C95.2159468,4.55149502 95.6146179,4.81727575 96.0797342,5.14950166 L95.3156146,6.31229236 L95.3156146,6.31229236 Z M96.4784053,7.87375415 C96.3122924,8.20598007 96.2126246,8.4717608 96.1129568,8.67109635 C95.448505,10.1328904 94.7508306,11.2956811 94.0863787,12.1594684 L93.089701,11.0631229 C93.7873754,10.1993355 94.4518272,9.10299003 95.1162791,7.7076412 C95.2159468,7.50830565 95.3156146,7.27574751 95.4817276,6.97674419 L96.4784053,7.87375415 L96.4784053,7.87375415 Z M95.9468439,2.79069767 L94.7840532,1.96013289 C94.4850498,1.76079734 94.0863787,1.5282392 93.6212625,1.22923588 L94.3853821,0.166112957 L95.5481728,0.797342193 C95.7475083,0.897009967 96.0465116,1.09634551 96.4784053,1.36212625 C96.5448505,1.39534884 96.6445183,1.46179402 96.744186,1.5282392 L95.9468439,2.79069767 L95.9468439,2.79069767 Z M96.4451827,6.51162791 L96.4451827,5.31561462 L99.8671096,5.31561462 L99.8671096,3.02325581 L97.1428571,3.02325581 L97.1428571,1.86046512 L99.8671096,1.86046512 L99.8671096,0.0664451827 L101.162791,0.0664451827 L101.162791,1.86046512 L104.584718,1.86046512 L104.584718,3.02325581 L101.162791,3.02325581 L101.162791,5.31561462 L105.083056,5.31561462 L105.083056,6.51162791 L100.996678,6.51162791 C100.465116,7.94019934 99.8671096,9.16943522 99.2358804,10.1993355 C99.5016611,10.166113 99.7009967,10.166113 99.8671096,10.1328904 C101.162791,10.0332226 102.126246,9.90033223 102.82392,9.73421927 L102.292359,8.77076412 L101.627907,7.6744186 L102.724252,7.20930233 C103.421927,8.17275748 104.186047,9.46843854 104.983389,11.0963455 C105.049834,11.1960133 105.116279,11.3621262 105.182724,11.5282392 L103.920266,12.1262458 L103.654485,11.4950166 C103.554817,11.2292359 103.45515,10.9966777 103.322259,10.8305648 C101.495017,11.1627907 99.2358804,11.4285714 96.5116279,11.5946844 L96.179402,10.1993355 L97.0431894,10.1993355 L97.5747508,10.166113 C98.372093,8.90365449 99.0365449,7.6744186 99.5348837,6.44518272 L96.4451827,6.44518272 L96.4451827,6.51162791 Z" id="Shape"></path>
                            <path d="M113.122924,0.0664451827 L114.352159,0.23255814 L114.152824,1.22923588 L113.953488,1.99335548 L118.405316,1.99335548 L118.405316,3.22259136 L117.375415,3.22259136 C117.242525,5.41528239 116.677741,7.3089701 115.747508,8.90365449 C116.112957,9.36877076 116.478405,9.73421927 116.777409,10.0332226 C117.076412,10.2990033 117.641196,10.6644518 118.405316,11.0963455 L117.641196,12.2259136 C116.677741,11.6611296 115.780731,10.89701 114.950166,9.93355482 C114.152824,10.7973422 113.289037,11.461794 112.325581,11.9601329 L111.79402,12.2259136 L110.996678,11.0963455 C112.425249,10.4318937 113.488372,9.73421927 114.186047,8.97009967 C113.554817,8.0730897 113.023256,6.81063123 112.591362,5.24916944 L112.325581,5.64784053 L111.960133,6.1461794 L111.129568,5.0166113 L111.129568,5.91362126 L108.305648,5.91362126 L108.305648,9.96677741 L109.634551,9.33554817 C110.199336,9.06976744 110.830565,8.70431894 111.594684,8.20598007 L111.594684,9.56810631 C110.232558,10.3986711 108.870432,11.0963455 107.475083,11.6611296 C107.242525,11.7607973 106.976744,11.8604651 106.611296,12.0265781 L106.312292,10.6976744 L106.777409,10.5315615 L107.142857,10.3654485 L107.142857,4.78405316 L110,4.78405316 L110,1.89368771 L106.578073,1.89368771 L106.578073,0.73089701 L111.196013,0.73089701 L111.196013,4.9833887 C112.059801,3.88704319 112.724252,2.22591362 113.122924,0.0664451827 L113.122924,0.0664451827 Z M113.521595,3.25581395 L113.45515,3.38870432 L113.388704,3.55481728 C113.754153,5.58139535 114.252492,7.07641196 114.883721,7.97342193 C115.182724,7.47508306 115.448505,6.87707641 115.647841,6.27906977 C115.847176,5.64784053 116.013289,4.65116279 116.179402,3.25581395 L113.521595,3.25581395 L113.521595,3.25581395 Z" id="Shape"></path>
                            <path d="M126.27907,10.3322259 L126.27907,12.2591362 L124.983389,12.2591362 L124.983389,10.3322259 L119.501661,10.3322259 L119.501661,9.20265781 L124.983389,9.20265781 L124.983389,8.27242525 L120.863787,8.27242525 L120.863787,4.75083056 L124.983389,4.75083056 L124.983389,3.98671096 L122.292359,3.98671096 L122.292359,2.12624585 L119.767442,2.12624585 L119.767442,1.02990033 L122.292359,1.02990033 L122.292359,0.0664451827 L123.58804,0.0664451827 L123.58804,1.02990033 L127.641196,1.02990033 L127.641196,0.0664451827 L128.936877,0.0664451827 L128.936877,1.02990033 L131.495017,1.02990033 L131.495017,2.12624585 L128.936877,2.12624585 L128.936877,3.98671096 L126.27907,3.98671096 L126.27907,4.78405316 L130.431894,4.78405316 L130.431894,8.30564784 L126.27907,8.30564784 L126.27907,9.2358804 L131.694352,9.2358804 L131.694352,10.3654485 L126.27907,10.3654485 L126.27907,10.3322259 Z M124.950166,5.84717608 L122.093023,5.84717608 L122.093023,7.20930233 L124.950166,7.20930233 L124.950166,5.84717608 L124.950166,5.84717608 Z M127.641196,2.12624585 L123.58804,2.12624585 L123.58804,2.99003322 L127.641196,2.99003322 L127.641196,2.12624585 L127.641196,2.12624585 Z M129.169435,5.84717608 L126.27907,5.84717608 L126.27907,7.20930233 L129.169435,7.20930233 L129.169435,5.84717608 L129.169435,5.84717608 Z" id="Shape"></path>
                            <path d="M135.348837,8.93687708 C135.315615,8.97009967 135.282392,8.97009967 135.249169,9.00332226 C134.551495,9.46843854 133.953488,9.76744186 133.488372,9.93355482 L132.790698,8.77076412 C134.086379,8.37209302 135.116279,7.80730897 135.946844,7.07641196 L132.757475,7.07641196 L132.757475,6.01328904 L134.916944,6.01328904 L134.916944,1.99335548 L132.990033,1.99335548 L132.990033,0.930232558 L134.916944,0.930232558 L134.916944,0.0664451827 L136.179402,0.0664451827 L136.179402,0.930232558 L141.528239,0.930232558 L141.528239,0.0664451827 L142.790698,0.0664451827 L142.790698,0.930232558 L144.817276,0.930232558 L144.817276,1.99335548 L142.790698,1.99335548 L142.790698,6.01328904 L144.950166,6.01328904 L144.950166,7.07641196 L141.760797,7.07641196 C142.724252,7.84053156 143.787375,8.37209302 144.983389,8.67109635 L144.418605,9.86710963 C143.887043,9.66777409 143.222591,9.36877076 142.491694,8.93687708 L142.491694,9.80066445 L139.534884,9.80066445 L139.534884,10.7973422 L144.385382,10.7973422 L144.385382,11.8604651 L133.488372,11.8604651 L133.488372,10.7973422 L138.272425,10.7973422 L138.272425,9.80066445 L135.348837,9.80066445 L135.348837,8.93687708 L135.348837,8.93687708 Z M138.272425,8.77076412 L138.272425,7.64119601 L139.534884,7.64119601 L139.534884,8.77076412 L142.159468,8.77076412 C141.495017,8.30564784 140.863787,7.77408638 140.265781,7.10963455 L137.44186,7.10963455 C137.009967,7.60797342 136.54485,8.10631229 135.980066,8.50498339 C135.880399,8.57142857 135.780731,8.63787375 135.647841,8.77076412 L138.272425,8.77076412 L138.272425,8.77076412 Z M136.179402,6.04651163 L141.528239,6.04651163 L141.528239,5.28239203 L136.179402,5.28239203 L136.179402,6.04651163 L136.179402,6.04651163 Z M136.179402,2.6910299 L141.528239,2.6910299 L141.528239,1.99335548 L136.179402,1.99335548 L136.179402,2.6910299 L136.179402,2.6910299 Z M136.179402,4.35215947 L141.528239,4.35215947 L141.528239,3.62126246 L136.179402,3.62126246 L136.179402,4.35215947 L136.179402,4.35215947 Z" id="Shape"></path>
                            <path d="M148.9701,10.6976744 C148.571429,9.53488372 148.239203,8.77076412 147.973422,8.33887043 L149.169435,7.87375415 C149.534884,8.60465116 149.86711,9.36877076 150.099668,10.1328904 L150.299003,10.6976744 L151.461794,10.6976744 L151.461794,7.3089701 L146.677741,7.3089701 L146.677741,6.1461794 L151.461794,6.1461794 L151.461794,4.65116279 L148.538206,4.65116279 L148.538206,4.05315615 L147.674419,4.51827243 L146.677741,4.9833887 L145.980066,3.78737542 C148.471761,2.72425249 150.265781,1.49501661 151.395349,0.0664451827 L152.55814,0.0664451827 C154.086379,1.5282392 155.980066,2.72425249 158.20598,3.72093023 L157.44186,4.88372093 L156.578073,4.45182724 C156.146179,4.2192691 155.847176,4.05315615 155.714286,3.98671096 L155.714286,4.65116279 L152.757475,4.65116279 L152.757475,6.11295681 L157.541528,6.11295681 L157.541528,7.27574751 L152.757475,7.27574751 L152.757475,10.6644518 L153.920266,10.6644518 C154.352159,9.73421927 154.717608,8.77076412 155.083056,7.77408638 L156.312292,8.27242525 C156.245847,8.40531561 156.212625,8.50498339 156.179402,8.60465116 C155.880399,9.40199336 155.614618,10.0996678 155.282392,10.6976744 L157.840532,10.6976744 L157.840532,11.8604651 L146.378738,11.8604651 L146.378738,10.6976744 L148.9701,10.6976744 L148.9701,10.6976744 Z M152.059801,1.26245847 C151.162791,2.19269103 150.299003,2.95681063 149.435216,3.48837209 L154.950166,3.48837209 C153.986711,2.89036545 153.023256,2.15946844 152.059801,1.26245847 L152.059801,1.26245847 Z" id="Shape"></path>
                            <path d="M159.800664,3.92026578 L159.269103,2.75747508 C161.627907,1.86046512 163.45515,0.996677741 164.717608,0.0996677741 L166.013289,0.0996677741 C167.607973,1.06312292 169.435216,1.89368771 171.461794,2.65780731 L170.963455,3.8538206 L170.564784,3.68770764 L170.564784,7.14285714 L160.299003,7.14285714 L160.299003,3.68770764 L159.800664,3.92026578 L159.800664,3.92026578 Z M160.531561,3.58803987 L170.299003,3.58803987 L169.003322,3.02325581 L167.707641,2.39202658 L167.707641,2.99003322 L163.056478,2.99003322 L163.056478,2.3255814 C162.425249,2.75747508 161.561462,3.18936877 160.531561,3.58803987 L160.531561,3.58803987 Z M160.830565,7.77408638 L169.966777,7.77408638 L169.966777,12.2923588 L168.737542,12.2923588 L168.737542,11.8604651 L162.059801,11.8604651 L162.059801,12.2923588 L160.830565,12.2923588 L160.830565,7.77408638 L160.830565,7.77408638 Z M164.750831,4.48504983 L161.395349,4.48504983 L161.395349,6.24584718 L164.750831,6.24584718 L164.750831,4.48504983 L164.750831,4.48504983 Z M162.059801,9.40199336 L168.737542,9.40199336 L168.737542,8.67109635 L162.059801,8.67109635 L162.059801,9.40199336 L162.059801,9.40199336 Z M162.059801,10.9634551 L168.737542,10.9634551 L168.737542,10.166113 L162.059801,10.166113 L162.059801,10.9634551 L162.059801,10.9634551 Z M163.056478,6.21262458 L162.657807,5.51495017 C162.491694,5.24916944 162.358804,5.04983389 162.259136,4.91694352 L163.023256,4.51827243 C163.189369,4.68438538 163.355482,4.88372093 163.521595,5.11627907 L163.953488,5.71428571 L163.056478,6.21262458 L163.056478,6.21262458 Z M165.38206,1.02990033 C164.850498,1.39534884 164.352159,1.69435216 163.853821,1.96013289 C163.787375,1.99335548 163.654485,2.05980066 163.521595,2.12624585 L167.242525,2.12624585 C166.578073,1.76079734 165.946844,1.42857143 165.38206,1.02990033 L165.38206,1.02990033 Z M169.401993,4.48504983 L165.913621,4.48504983 L165.913621,6.24584718 L169.401993,6.24584718 L169.401993,4.48504983 L169.401993,4.48504983 Z M166.843854,5.64784053 C166.910299,5.58139535 167.043189,5.41528239 167.242525,5.11627907 L167.674419,4.51827243 L168.538206,4.95016611 L168.106312,5.64784053 C167.940199,5.91362126 167.807309,6.07973422 167.740864,6.21262458 L166.843854,5.64784053 L166.843854,5.64784053 Z" id="Shape"></path>
                            <path d="M5.04983389,20.730897 C4.9833887,20.9966777 4.85049834,21.2292359 4.65116279,21.4285714 C4.48504983,21.627907 4.2192691,21.7940199 3.95348837,21.9269103 C3.65448505,22.0598007 3.28903654,22.0930233 2.85714286,22.0930233 C2.12624585,22.0930233 1.56146179,21.8936877 1.1627907,21.5282392 C0.764119601,21.1295681 0.564784053,20.5647841 0.564784053,19.833887 L0.564784053,19.3687708 L1.59468439,19.3687708 L1.59468439,19.7009967 C1.59468439,19.9335548 1.62790698,20.1328904 1.66112957,20.3322259 C1.69435216,20.5315615 1.76079734,20.6976744 1.86046512,20.8305648 C1.96013289,20.9634551 2.09302326,21.0631229 2.25913621,21.1627907 C2.42524917,21.2292359 2.62458472,21.2624585 2.89036545,21.2624585 C3.35548173,21.2624585 3.68770764,21.1295681 3.88704319,20.8637874 C4.05315615,20.5980066 4.15282392,20.2657807 4.15282392,19.833887 L4.15282392,14.1196013 L5.18272425,14.1196013 L5.18272425,19.9335548 C5.18272425,20.1993355 5.14950166,20.4651163 5.04983389,20.730897" id="Shape"></path>
                            <path d="M12.3255814,21.3289037 C11.7940199,21.8272425 11.0299003,22.0930233 10.0332226,22.0930233 C9.03654485,22.0930233 8.23920266,21.8604651 7.6744186,21.3621262 C7.10963455,20.89701 6.81063123,20.1328904 6.81063123,19.0697674 L6.81063123,14.0531561 L7.84053156,14.0531561 L7.84053156,19.0697674 C7.84053156,19.7674419 8.03986711,20.2990033 8.40531561,20.6644518 C8.77076412,21.0299003 9.30232558,21.1960133 10,21.1960133 C10.6644518,21.1960133 11.1627907,21.0299003 11.5282392,20.6644518 C11.8604651,20.2990033 12.0598007,19.7674419 12.0598007,19.0697674 L12.0598007,14.0531561 L13.089701,14.0531561 L13.089701,19.0697674 C13.1229236,20.0664452 12.8571429,20.8305648 12.3255814,21.3289037" id="Shape"></path>
                            <path d="M17.4750831,14.0863787 C18.6710963,14.0863787 19.6013289,14.3853821 20.2657807,15.0166113 C20.9302326,15.6478405 21.2292359,16.5780731 21.2292359,17.8405316 C21.2292359,18.5049834 21.1627907,19.0697674 20.9966777,19.6013289 C20.8637874,20.0996678 20.6312292,20.5315615 20.3322259,20.89701 C20.0332226,21.2292359 19.6345515,21.4950166 19.1694352,21.6943522 C18.7043189,21.8936877 18.1395349,21.9601329 17.4750831,21.9601329 L14.7840532,21.9601329 L14.7840532,14.1196013 L17.4750831,14.1196013 L17.4750831,14.0863787 Z M17.5747508,21.0299003 C17.7076412,21.0299003 17.8405316,21.0299003 18.0066445,20.9966777 C18.1727575,20.9634551 18.372093,20.9302326 18.5714286,20.8637874 C18.7707641,20.7973422 18.9700997,20.6976744 19.1694352,20.5647841 C19.3687708,20.4318937 19.5348837,20.2657807 19.7009967,20.0332226 C19.8671096,19.8006645 19.9667774,19.5348837 20.0664452,19.1694352 C20.166113,18.8372093 20.1993355,18.4053156 20.1993355,17.9401993 C20.1993355,17.4750831 20.166113,17.0431894 20.0664452,16.6777409 C19.9667774,16.3122924 19.833887,15.9800664 19.6013289,15.7475083 C19.4019934,15.4817276 19.1362126,15.282392 18.8039867,15.1495017 C18.4717608,15.0166113 18.0730897,14.9501661 17.5747508,14.9501661 L15.8139535,14.9501661 L15.8139535,21.0299003 L17.5747508,21.0299003 L17.5747508,21.0299003 Z" id="Shape"></path>
                            <rect id="Rectangle-path" x="22.5581395" y="14.0863787" width="1.02990033" height="7.84053156"></rect>
                            <path d="M30.0996678,15.1827243 C29.7009967,14.9169435 29.2358804,14.7508306 28.6710963,14.7508306 C28.2059801,14.7508306 27.807309,14.8504983 27.4750831,15.0166113 C27.1428571,15.1827243 26.8770764,15.4152824 26.6445183,15.7142857 C26.4119601,16.013289 26.2790698,16.345515 26.179402,16.744186 C26.0797342,17.1096346 26.013289,17.5083056 26.013289,17.9401993 C26.013289,18.372093 26.0797342,18.8039867 26.179402,19.2026578 C26.2790698,19.6013289 26.4451827,19.9335548 26.6445183,20.2325581 C26.8770764,20.5315615 27.1428571,20.7641196 27.4750831,20.9302326 C27.807309,21.0963455 28.2059801,21.1960133 28.6710963,21.1960133 C29.0033223,21.1960133 29.3355482,21.1295681 29.6013289,21.0299003 C29.8671096,20.9302326 30.0996678,20.7641196 30.2990033,20.5647841 C30.4983389,20.3654485 30.6312292,20.1328904 30.7641196,19.833887 C30.8637874,19.5681063 30.9302326,19.269103 30.9634551,18.9368771 L31.9933555,18.9368771 C31.8936877,19.9335548 31.5614618,20.6976744 30.9634551,21.2292359 C30.3986711,21.7607973 29.6013289,22.0598007 28.6046512,22.0598007 C28.0066445,22.0598007 27.4750831,21.9601329 27.0099668,21.7607973 C26.5448505,21.5614618 26.179402,21.2624585 25.8803987,20.89701 C25.5813953,20.5315615 25.3488372,20.0996678 25.2159468,19.6013289 C25.0498339,19.10299 24.9833887,18.5714286 24.9833887,18.0066445 C24.9833887,17.4418605 25.0498339,16.910299 25.2159468,16.4119601 C25.3820598,15.9136213 25.6146179,15.4817276 25.9136213,15.1162791 C26.2126246,14.7508306 26.6112957,14.4518272 27.076412,14.2192691 C27.5415282,14.0199336 28.0730897,13.8870432 28.6710963,13.8870432 C29.0697674,13.8870432 29.4684385,13.9534884 29.833887,14.0531561 C30.1993355,14.1528239 30.5315615,14.3189369 30.7973422,14.5182724 C31.0963455,14.717608 31.3289037,14.9833887 31.4950166,15.3156146 C31.6943522,15.6478405 31.7940199,16.013289 31.8604651,16.4119601 L30.8305648,16.4119601 C30.730897,15.8803987 30.4983389,15.448505 30.0996678,15.1827243" id="Shape"></path>
                            <rect id="Rectangle-path" x="33.3222591" y="14.0863787" width="1.02990033" height="7.84053156"></rect>
                            <path d="M39.4019934,14.0863787 L42.4584718,21.9269103 L41.2956811,21.9269103 L40.4318937,19.5681063 L37.1096346,19.5681063 L36.2458472,21.9269103 L35.1827243,21.9269103 L38.2392027,14.0863787 L39.4019934,14.0863787 L39.4019934,14.0863787 Z M40.0996678,18.6710963 L38.8039867,15.0166113 L38.7707641,15.0166113 L37.4418605,18.6710963 L40.0996678,18.6710963 L40.0996678,18.6710963 Z" id="Shape"></path>
                            <polygon id="Shape" points="44.2524917 14.0863787 44.2524917 21.0299003 48.4053156 21.0299003 48.4053156 21.8936877 43.2225914 21.8936877 43.2225914 14.0863787"></polygon>
                            <path d="M56.0465116,14.0863787 C56.7774086,14.0863787 57.3754153,14.2524917 57.807309,14.6179402 C58.2392027,14.9833887 58.4385382,15.4817276 58.4385382,16.1129568 C58.4385382,16.5780731 58.3388704,17.0099668 58.1063123,17.3754153 C57.9069767,17.7408638 57.5415282,17.9734219 57.076412,18.1063123 L57.076412,18.1395349 C57.3089701,18.1727575 57.4750831,18.2724252 57.641196,18.372093 C57.7740864,18.4717608 57.9069767,18.6046512 57.9734219,18.7375415 C58.0730897,18.8704319 58.1063123,19.0365449 58.1727575,19.2026578 C58.2059801,19.3687708 58.2392027,19.5681063 58.2724252,19.7342193 C58.2724252,19.9335548 58.3056478,20.1328904 58.3056478,20.3322259 C58.3056478,20.5315615 58.3388704,20.730897 58.372093,20.9302326 C58.4053156,21.1295681 58.4385382,21.2956811 58.5049834,21.461794 C58.5714286,21.627907 58.6378738,21.7940199 58.7375415,21.9269103 L57.5747508,21.9269103 C57.5083056,21.8604651 57.4418605,21.7275748 57.4418605,21.5946844 C57.4086379,21.461794 57.4086379,21.2956811 57.4086379,21.1295681 C57.4086379,20.9634551 57.4086379,20.7641196 57.3754153,20.5647841 C57.3754153,20.3654485 57.3421927,20.166113 57.3089701,20 C57.2757475,19.8006645 57.2425249,19.6345515 57.2093023,19.4684385 C57.1760797,19.3023256 57.1096346,19.1362126 57.0099668,19.0033223 C56.910299,18.8704319 56.7774086,18.7707641 56.6445183,18.7043189 C56.4784053,18.6378738 56.2790698,18.6046512 56.0465116,18.6046512 L53.4883721,18.6046512 L53.4883721,21.9601329 L52.4584718,21.9601329 L52.4584718,14.1196013 L56.0465116,14.1196013 L56.0465116,14.0863787 Z M56.2458472,17.641196 C56.4784053,17.6079734 56.6445183,17.5415282 56.8106312,17.4418605 C56.9767442,17.3421927 57.1096346,17.1760797 57.2093023,17.0099668 C57.3089701,16.8438538 57.3421927,16.6112957 57.3421927,16.3122924 C57.3421927,15.9136213 57.2425249,15.5813953 57.0099668,15.3488372 C56.7774086,15.1162791 56.4451827,14.9833887 55.9468439,14.9833887 L53.3554817,14.9833887 L53.3554817,17.7076412 L55.5149502,17.7076412 C55.8139535,17.6744186 56.0465116,17.6744186 56.2458472,17.641196 L56.2458472,17.641196 Z" id="Shape"></path>
                            <polygon id="Shape" points="65.282392 14.0863787 65.282392 14.9501661 60.89701 14.9501661 60.89701 17.4418605 64.9833887 17.4418605 64.9833887 18.3056478 60.89701 18.3056478 60.89701 21.0299003 65.3156146 21.0299003 65.3156146 21.8936877 59.8671096 21.8936877 59.8671096 14.0863787"></polygon>
                            <polygon id="Shape" points="71.6943522 14.0863787 71.6943522 14.9501661 67.6079734 14.9501661 67.6079734 17.4418605 71.1960133 17.4418605 71.1960133 18.3056478 67.6079734 18.3056478 67.6079734 21.8936877 66.5780731 21.8936877 66.5780731 14.0863787"></polygon>
                            <path d="M72.6578073,16.4451827 C72.8239203,15.9468439 73.0564784,15.5149502 73.3554817,15.1495017 C73.654485,14.7840532 74.0531561,14.4518272 74.5182724,14.2524917 C74.9833887,14.0199336 75.5149502,13.9202658 76.1461794,13.9202658 C76.7774086,13.9202658 77.3089701,14.0199336 77.7740864,14.2524917 C78.2392027,14.4850498 78.6378738,14.7840532 78.9368771,15.1495017 C79.2358804,15.5149502 79.5016611,15.9800664 79.6345515,16.4451827 C79.8006645,16.9435216 79.8671096,17.4418605 79.8671096,17.9734219 C79.8671096,18.5049834 79.8006645,19.0365449 79.6345515,19.5016611 C79.4684385,20 79.2358804,20.4318937 78.9368771,20.7973422 C78.6378738,21.1627907 78.2392027,21.4950166 77.7740864,21.6943522 C77.3089701,21.9269103 76.744186,22.0265781 76.1461794,22.0265781 C75.5149502,22.0265781 74.9833887,21.9269103 74.5182724,21.6943522 C74.0531561,21.461794 73.654485,21.1627907 73.3554817,20.7973422 C73.0564784,20.4318937 72.7906977,19.9667774 72.6578073,19.5016611 C72.4916944,19.0033223 72.4252492,18.5049834 72.4252492,17.9734219 C72.4252492,17.4418605 72.4916944,16.9435216 72.6578073,16.4451827 M73.6212625,19.1694352 C73.7209302,19.5681063 73.8870432,19.9003322 74.0863787,20.1993355 C74.3189369,20.4983389 74.5847176,20.7641196 74.9169435,20.9302326 C75.2491694,21.1295681 75.6810631,21.1960133 76.1461794,21.1960133 C76.6112957,21.1960133 77.0431894,21.0963455 77.3754153,20.9302326 C77.7076412,20.730897 78.0066445,20.4983389 78.2059801,20.1993355 C78.4385382,19.9003322 78.5714286,19.5348837 78.7043189,19.1694352 C78.8039867,18.7707641 78.8704319,18.4053156 78.8704319,18.0066445 C78.8704319,17.6079734 78.8372093,17.2093023 78.7043189,16.8438538 C78.6046512,16.4451827 78.4385382,16.1129568 78.2059801,15.8139535 C77.9734219,15.5149502 77.7076412,15.2491694 77.3754153,15.0830565 C77.0431894,14.8837209 76.6112957,14.8172757 76.1461794,14.8172757 C75.6810631,14.8172757 75.2491694,14.9169435 74.9169435,15.0830565 C74.5847176,15.282392 74.2857143,15.5149502 74.0863787,15.8139535 C73.8538206,16.1129568 73.7209302,16.4784053 73.6212625,16.8438538 C73.5215947,17.2425249 73.4551495,17.6079734 73.4551495,18.0066445 C73.4551495,18.372093 73.5215947,18.7707641 73.6212625,19.1694352" id="Shape"></path>
                            <path d="M84.8837209,14.0863787 C85.6478405,14.0863787 86.2126246,14.2524917 86.6445183,14.6179402 C87.076412,14.9833887 87.2757475,15.4817276 87.2757475,16.1129568 C87.2757475,16.5780731 87.1760797,17.0099668 86.9435216,17.3754153 C86.744186,17.7408638 86.3787375,17.9734219 85.9136213,18.1063123 L85.9136213,18.1395349 C86.1461794,18.1727575 86.3122924,18.2724252 86.4784053,18.372093 C86.6112957,18.4717608 86.744186,18.6046512 86.8106312,18.7375415 C86.910299,18.8704319 86.9435216,19.0365449 87.0099668,19.2026578 C87.0431894,19.3687708 87.076412,19.5681063 87.1096346,19.7342193 C87.1096346,19.9335548 87.1428571,20.1328904 87.1428571,20.3322259 C87.1428571,20.5315615 87.1760797,20.730897 87.2093023,20.9302326 C87.2425249,21.1295681 87.2757475,21.2956811 87.3421927,21.461794 C87.4086379,21.627907 87.4750831,21.7940199 87.5747508,21.9269103 L86.3787375,21.9269103 C86.3122924,21.8604651 86.2458472,21.7275748 86.2458472,21.5946844 C86.2126246,21.461794 86.2126246,21.2956811 86.2126246,21.1295681 C86.2126246,20.9634551 86.2126246,20.7641196 86.179402,20.5647841 C86.179402,20.3654485 86.1461794,20.166113 86.1129568,20 C86.0797342,19.8006645 86.0465116,19.6345515 86.013289,19.4684385 C85.9800664,19.3023256 85.9136213,19.1362126 85.8139535,19.0033223 C85.7142857,18.8704319 85.5813953,18.7707641 85.448505,18.7043189 C85.282392,18.6378738 85.0830565,18.6046512 84.8504983,18.6046512 L82.2923588,18.6046512 L82.2923588,21.9601329 L81.2624585,21.9601329 L81.2624585,14.1196013 L84.8837209,14.1196013 L84.8837209,14.0863787 Z M85.0830565,17.641196 C85.3156146,17.6079734 85.4817276,17.5415282 85.6478405,17.4418605 C85.8139535,17.3421927 85.9468439,17.1760797 86.0465116,17.0099668 C86.1461794,16.8438538 86.179402,16.6112957 86.179402,16.3122924 C86.179402,15.9136213 86.0797342,15.5813953 85.8471761,15.3488372 C85.6146179,15.1162791 85.282392,14.9833887 84.7840532,14.9833887 L82.192691,14.9833887 L82.192691,17.7076412 L84.3521595,17.7076412 C84.6511628,17.6744186 84.8837209,17.6744186 85.0830565,17.641196 L85.0830565,17.641196 Z" id="Shape"></path>
                            <polygon id="Shape" points="90.1328904 14.0863787 92.6245847 20.6644518 95.0830565 14.0863787 96.5116279 14.0863787 96.5116279 21.8936877 95.5149502 21.8936877 95.5149502 15.3820598 95.5149502 15.3820598 93.0564784 21.8936877 92.192691 21.8936877 89.7342193 15.3820598 89.7009967 15.3820598 89.7009967 21.8936877 88.7375415 21.8936877 88.7375415 14.0863787"></polygon>
                            <polygon id="Shape" points="106.445183 14.0863787 106.445183 14.9501661 102.325581 14.9501661 102.325581 17.4418605 105.946844 17.4418605 105.946844 18.3056478 102.325581 18.3056478 102.325581 21.8936877 101.295681 21.8936877 101.295681 14.0863787"></polygon>
                            <path d="M107.375415,16.4451827 C107.541528,15.9468439 107.774086,15.5149502 108.07309,15.1495017 C108.405316,14.7840532 108.770764,14.4518272 109.23588,14.2524917 C109.700997,14.0199336 110.265781,13.9202658 110.863787,13.9202658 C111.495017,13.9202658 112.026578,14.0199336 112.491694,14.2524917 C112.956811,14.4850498 113.355482,14.7840532 113.654485,15.1495017 C113.953488,15.5149502 114.219269,15.9800664 114.352159,16.4451827 C114.518272,16.9435216 114.584718,17.4418605 114.584718,17.9734219 C114.584718,18.5049834 114.518272,19.0365449 114.352159,19.5016611 C114.186047,20 113.953488,20.4318937 113.654485,20.7973422 C113.355482,21.1627907 112.956811,21.4950166 112.491694,21.6943522 C112.026578,21.9269103 111.495017,22.0265781 110.863787,22.0265781 C110.232558,22.0265781 109.700997,21.9269103 109.23588,21.6943522 C108.770764,21.461794 108.372093,21.1627907 108.07309,20.7973422 C107.774086,20.4318937 107.508306,19.9667774 107.375415,19.5016611 C107.209302,19.0033223 107.142857,18.5049834 107.142857,17.9734219 C107.142857,17.4418605 107.242525,16.9435216 107.375415,16.4451827 M108.33887,19.1694352 C108.438538,19.5681063 108.604651,19.9003322 108.837209,20.1993355 C109.069767,20.4983389 109.335548,20.7641196 109.667774,20.9302326 C110,21.1295681 110.431894,21.1960133 110.89701,21.1960133 C111.362126,21.1960133 111.79402,21.0963455 112.126246,20.9302326 C112.458472,20.730897 112.757475,20.4983389 112.956811,20.1993355 C113.189369,19.9003322 113.322259,19.5348837 113.45515,19.1694352 C113.554817,18.7707641 113.621262,18.4053156 113.621262,18.0066445 C113.621262,17.6079734 113.554817,17.2093023 113.45515,16.8438538 C113.355482,16.4451827 113.189369,16.1129568 112.956811,15.8139535 C112.724252,15.5149502 112.458472,15.2491694 112.126246,15.0830565 C111.79402,14.8837209 111.362126,14.8172757 110.89701,14.8172757 C110.431894,14.8172757 110,14.9169435 109.667774,15.0830565 C109.335548,15.282392 109.036545,15.5149502 108.837209,15.8139535 C108.604651,16.1129568 108.471761,16.4784053 108.33887,16.8438538 C108.239203,17.2425249 108.172757,17.6079734 108.172757,18.0066445 C108.20598,18.372093 108.239203,18.7707641 108.33887,19.1694352" id="Shape"></path>
                            <path d="M121.362126,21.3289037 C120.830565,21.8272425 120.066445,22.0930233 119.069767,22.0930233 C118.07309,22.0930233 117.275748,21.8604651 116.710963,21.3621262 C116.146179,20.89701 115.847176,20.1328904 115.847176,19.0697674 L115.847176,14.0531561 L116.877076,14.0531561 L116.877076,19.0697674 C116.877076,19.7674419 117.076412,20.2990033 117.44186,20.6644518 C117.807309,21.0299003 118.33887,21.1960133 119.036545,21.1960133 C119.700997,21.1960133 120.199336,21.0299003 120.564784,20.6644518 C120.89701,20.2990033 121.096346,19.7674419 121.096346,19.0697674 L121.096346,14.0531561 L122.126246,14.0531561 L122.126246,19.0697674 C122.159468,20.0664452 121.893688,20.8305648 121.362126,21.3289037" id="Shape"></path>
                            <polygon id="Shape" points="124.916944 14.0863787 129.069767 20.4318937 129.069767 20.4318937 129.069767 14.0863787 130.066445 14.0863787 130.066445 21.8936877 128.936877 21.8936877 124.850498 15.6146179 124.817276 15.6146179 124.817276 21.8936877 123.820598 21.8936877 123.820598 14.0863787"></polygon>
                            <path d="M134.451827,14.0863787 C135.647841,14.0863787 136.578073,14.3853821 137.242525,15.0166113 C137.906977,15.6478405 138.20598,16.5780731 138.20598,17.8405316 C138.20598,18.5049834 138.139535,19.0697674 137.973422,19.6013289 C137.840532,20.0996678 137.607973,20.5315615 137.30897,20.89701 C137.009967,21.2292359 136.611296,21.4950166 136.146179,21.6943522 C135.681063,21.8936877 135.116279,21.9601329 134.451827,21.9601329 L131.760797,21.9601329 L131.760797,14.1196013 L134.451827,14.1196013 L134.451827,14.0863787 Z M134.518272,21.0299003 C134.651163,21.0299003 134.784053,21.0299003 134.950166,20.9966777 C135.116279,20.9634551 135.315615,20.9302326 135.51495,20.8637874 C135.714286,20.7973422 135.913621,20.6976744 136.112957,20.5647841 C136.312292,20.4318937 136.478405,20.2657807 136.644518,20.0332226 C136.810631,19.8006645 136.910299,19.5348837 137.009967,19.1694352 C137.109635,18.8372093 137.142857,18.4053156 137.142857,17.9401993 C137.142857,17.4750831 137.109635,17.0431894 137.009967,16.6777409 C136.910299,16.3122924 136.777409,15.9800664 136.54485,15.7475083 C136.345515,15.4817276 136.079734,15.282392 135.747508,15.1495017 C135.415282,15.0166113 135.016611,14.9501661 134.518272,14.9501661 L132.757475,14.9501661 L132.757475,21.0299003 L134.518272,21.0299003 L134.518272,21.0299003 Z" id="Shape"></path>
                            <path d="M142.757475,14.0863787 L145.813953,21.9269103 L144.651163,21.9269103 L143.787375,19.5681063 L140.465116,19.5681063 L139.601329,21.9269103 L138.538206,21.9269103 L141.594684,14.0863787 L142.757475,14.0863787 L142.757475,14.0863787 Z M143.488372,18.6710963 L142.192691,15.0166113 L142.159468,15.0166113 L140.830565,18.6710963 L143.488372,18.6710963 L143.488372,18.6710963 Z" id="Shape"></path>
                            <polygon id="Shape" points="145.747508 14.9501661 145.747508 14.0863787 151.993355 14.0863787 151.993355 14.9501661 149.401993 14.9501661 149.401993 21.8936877 148.33887 21.8936877 148.33887 14.9501661"></polygon>
                            <rect id="Rectangle-path" x="152.890365" y="14.0863787" width="1.02990033" height="7.84053156"></rect>
                            <path d="M155.51495,16.4451827 C155.681063,15.9468439 155.913621,15.5149502 156.212625,15.1495017 C156.511628,14.7840532 156.910299,14.4518272 157.375415,14.2524917 C157.840532,14.0199336 158.372093,13.9202658 159.003322,13.9202658 C159.634551,13.9202658 160.166113,14.0199336 160.631229,14.2524917 C161.096346,14.4850498 161.495017,14.7840532 161.79402,15.1495017 C162.126246,15.5149502 162.358804,15.9800664 162.491694,16.4451827 C162.657807,16.9435216 162.724252,17.4418605 162.724252,17.9734219 C162.724252,18.5049834 162.657807,19.0365449 162.491694,19.5016611 C162.325581,20 162.093023,20.4318937 161.79402,20.7973422 C161.495017,21.1627907 161.096346,21.4950166 160.631229,21.6943522 C160.166113,21.9269103 159.634551,22.0265781 159.003322,22.0265781 C158.372093,22.0265781 157.840532,21.9269103 157.375415,21.6943522 C156.910299,21.461794 156.511628,21.1627907 156.212625,20.7973422 C155.913621,20.4318937 155.647841,19.9667774 155.51495,19.5016611 C155.348837,19.0033223 155.282392,18.5049834 155.282392,17.9734219 C155.282392,17.4418605 155.348837,16.9435216 155.51495,16.4451827 M156.478405,19.1694352 C156.578073,19.5681063 156.744186,19.9003322 156.976744,20.1993355 C157.209302,20.4983389 157.475083,20.7641196 157.807309,20.9302326 C158.139535,21.1295681 158.571429,21.1960133 159.036545,21.1960133 C159.501661,21.1960133 159.933555,21.0963455 160.265781,20.9302326 C160.598007,20.730897 160.89701,20.4983389 161.096346,20.1993355 C161.328904,19.9003322 161.461794,19.5348837 161.561462,19.1694352 C161.66113,18.7707641 161.727575,18.4053156 161.727575,18.0066445 C161.727575,17.6079734 161.66113,17.2093023 161.561462,16.8438538 C161.461794,16.4451827 161.295681,16.1129568 161.096346,15.8139535 C160.863787,15.5149502 160.598007,15.2491694 160.265781,15.0830565 C159.933555,14.8837209 159.501661,14.8172757 159.036545,14.8172757 C158.571429,14.8172757 158.139535,14.9169435 157.807309,15.0830565 C157.475083,15.282392 157.17608,15.5149502 156.976744,15.8139535 C156.744186,16.1129568 156.611296,16.4784053 156.478405,16.8438538 C156.378738,17.2425249 156.312292,17.6079734 156.312292,18.0066445 C156.312292,18.372093 156.378738,18.7707641 156.478405,19.1694352" id="Shape"></path>
                            <polygon id="Shape" points="165.149502 14.0863787 169.269103 20.4318937 169.269103 20.4318937 169.269103 14.0863787 170.265781 14.0863787 170.265781 21.8936877 169.136213 21.8936877 165.049834 15.6146179 165.016611 15.6146179 165.016611 21.8936877 164.019934 21.8936877 164.019934 14.0863787"></polygon>
                        </g>
                        <g id="Shape">
                            <path d="M25.7807309,13.1561462 C25.6146179,13.1561462 25.448505,13.0564784 25.3820598,12.923588 C22.923588,8.4717608 18.4385382,5.7807309 13.3887043,5.7807309 C8.30564784,5.7807309 3.72093023,8.43853821 1.19601329,12.923588 C1.06312292,13.1561462 0.797342193,13.2225914 0.564784053,13.089701 C0.332225914,12.9568106 0.265780731,12.6910299 0.398671096,12.4584718 C3.089701,7.6744186 7.90697674,4.85049834 13.3222591,4.85049834 L13.3887043,4.85049834 C18.7707641,4.88372093 23.5548173,7.7076412 26.179402,12.4916944 C26.3122924,12.7242525 26.2126246,12.9900332 26.013289,13.1229236 C25.9136213,13.1229236 25.8471761,13.1561462 25.7807309,13.1561462 L25.7807309,13.1561462 Z" fill="#000000"></path>
                            <polygon fill="url(#linearGradient-1)" points="13.3222591 30.166113 15.9468439 32.2591362 13.3554817 0.299003322 10.730897 32.2591362"></polygon>
                            <g transform="translate(14.950166, 7.308970)" fill="#AD1C3D">
                                <path d="M1.46179402,12.2591362 L2.42524917,20.7973422 C6.51162791,20.89701 9.46843854,17.2093023 9.53488372,12.2591362 L1.46179402,12.2591362 L1.46179402,12.2591362 Z"></path>
                                <path d="M1.29568106,10.5980066 L9.50166113,10.5980066 L9.50166113,10.5980066 C9.46843854,10.3322259 9.43521595,10.0664452 9.36877076,9.83388704 L1.19601329,9.83388704 L1.29568106,10.5980066 L1.29568106,10.5980066 Z"></path>
                                <path d="M9.50166113,11.0299003 L1.32890365,11.0299003 L1.42857143,11.8272425 L9.56810631,11.8272425 C9.56810631,11.5614618 9.53488372,11.2956811 9.50166113,11.0299003 L9.50166113,11.0299003 Z"></path>
                                <path d="M9.30232558,9.36877076 C8.23920266,4.18604651 4.31893688,0.0996677741 0.0996677741,0 L1.1627907,9.36877076 L9.30232558,9.36877076 L9.30232558,9.36877076 Z"></path>
                            </g>
                            <g transform="translate(1.993355, 7.308970)" fill="#AD1C3D">
                                <path d="M0.299003322,10.5980066 L8.50498339,10.5980066 L8.60465116,9.80066445 L0.431893688,9.80066445 C0.365448505,10.0664452 0.332225914,10.3322259 0.299003322,10.5980066 L0.299003322,10.5980066 Z"></path>
                                <path d="M8.63787375,9.36877076 L9.70099668,0 C5.48172757,0.0996677741 1.56146179,4.18604651 0.49833887,9.36877076 L8.63787375,9.36877076 L8.63787375,9.36877076 Z"></path>
                                <path d="M0.23255814,12.2591362 C0.299003322,17.2093023 3.25581395,20.89701 7.37541528,20.7973422 L8.33887043,12.2591362 L0.23255814,12.2591362 L0.23255814,12.2591362 Z"></path>
                                <path d="M8.43853821,11.0299003 L0.265780731,11.0299003 C0.23255814,11.2956811 0.23255814,11.5614618 0.23255814,11.8272425 L8.37209302,11.8272425 L8.43853821,11.0299003 L8.43853821,11.0299003 Z"></path>
                            </g>
                        </g>
                    </g>
                </g>
            </g>
        </g>
    </g>
</svg>