<?xml version="1.0" encoding="UTF-8"?>
<svg width="200px" height="27px" viewBox="0 0 200 27" version="1.1" xmlns="http://www.w3.org/2000/svg" xmlns:xlink="http://www.w3.org/1999/xlink">
    <!-- Generator: Sketch 43.1 (39012) - http://www.bohemiancoding.com/sketch -->
    <title>logo</title>
    <desc>Created with Sketch.</desc>
    <g id="_Client" stroke="none" stroke-width="1" fill="none" fill-rule="evenodd">
        <g id="TripMoment" transform="translate(-40.000000, -66.000000)" fill="#2E7693">
            <g id="logo" transform="translate(40.000000, 66.000000)">
                <path d="M44.8252912,7.75374376 L44.8252912,21.7304493 L41.9966722,21.7304493 L41.9966722,7.75374376 L36.9051581,7.75374376 L36.9051581,5.52412646 L49.9168053,5.52412646 L49.9168053,7.75374376 L44.8252912,7.75374376 L44.8252912,7.75374376 Z" id="Shape"></path>
                <path d="M61.4642263,12.9118136 C61.1980033,12.6788686 60.8985025,12.5124792 60.5657238,12.3460899 C60.2329451,12.1797005 59.8336106,12.1131448 59.4675541,12.1131448 C58.8019967,12.046589 58.1364393,12.3460899 57.5707155,12.7787022 C57.0715474,13.2778702 56.7387687,13.9434276 56.8053245,14.6755408 L56.8053245,21.7304493 L54.1430948,21.7304493 L54.1430948,10.1830283 L56.7387687,10.1830283 L56.7387687,11.4475874 C57.1381032,11.014975 57.6372712,10.6821963 58.1697171,10.4492512 C58.8352745,10.1830283 59.5673877,10.0499168 60.2329451,10.0499168 C60.8319468,10.0499168 61.3976705,10.1164725 61.9633943,10.3161398 C62.5291181,10.4825291 62.9617304,10.7487521 63.3943428,11.1480865 L61.4642263,12.9118136 L61.4642263,12.9118136 L61.4642263,12.9118136 Z" id="Shape"></path>
                <path d="M70.6489185,7.4875208 C69.9168053,8.08652246 68.9184692,8.08652246 68.2196339,7.4875208 C67.6206323,7.05490849 67.5540765,6.15640599 67.9866889,5.5906822 C68.0532446,5.52412646 68.0865225,5.42429285 68.2196339,5.3577371 C68.9517471,4.75873544 69.9500832,4.75873544 70.6489185,5.3577371 C71.2479201,5.79034942 71.3144759,6.68885191 70.8818636,7.25457571 C70.8153078,7.38768719 70.7154742,7.42096506 70.6489185,7.4875208 L70.6489185,7.4875208 Z M68.1198003,21.7304493 L68.1198003,10.1830283 L70.78203,10.1830283 L70.78203,21.7304493 L68.1198003,21.7304493 L68.1198003,21.7304493 Z" id="Shape"></path>
                <path d="M88.2861897,17.3044925 C88.2861897,17.7371048 88.1863561,18.202995 88.0532446,18.6356073 C87.953411,19.0682196 87.7870216,19.4675541 87.6206323,19.8668885 C87.3876872,20.266223 87.1214642,20.5990017 86.8552413,20.8652246 C86.4559068,21.1980033 85.9567388,21.4642263 85.4575707,21.5973378 C84.2262895,21.9966722 82.8951747,21.9966722 81.6971714,21.5973378 C81.0981697,21.3643927 80.5324459,21.031614 80.1331115,20.5990017 L80.1331115,26.422629 L77.4708819,26.422629 L77.4708819,10.2163062 L80.0665557,10.2163062 L80.0665557,11.4475874 C80.4991681,10.9484193 81.0648918,10.6156406 81.6638935,10.3494176 C82.2628952,10.1164725 82.9284526,10.0831947 83.59401,10.0831947 C84.1930116,10.0831947 84.8585691,10.1830283 85.4242928,10.3494176 C85.9234609,10.515807 86.422629,10.7487521 86.8219634,11.1148087 C87.1547421,11.3810316 87.4209651,11.7138103 87.5873544,12.1131448 C87.8202995,12.5124792 87.9201331,12.8785358 88.0199667,13.344426 C88.1198003,13.7770383 88.1863561,14.2429285 88.2529118,14.6755408 C88.2529118,15.1081531 88.3194676,15.5740433 88.3194676,16.0066556 C88.3527454,16.40599 88.3527454,16.8718802 88.2861897,17.3044925 L88.2861897,17.3044925 L88.2861897,17.3044925 Z M85.5906822,14.4758735 C85.5241265,14.0432612 85.4242928,13.6439268 85.1913478,13.2445923 C85.0249584,12.9118136 84.6921797,12.5790349 84.359401,12.4126456 C83.4276206,12.0133111 82.3627288,12.0133111 81.4642263,12.4126456 C81.1314476,12.6455907 80.7986689,12.9118136 80.6322795,13.2445923 C80.3993344,13.6439268 80.2995008,14.0099834 80.2329451,14.4758735 C80.1331115,15.4742097 80.1331115,16.40599 80.2329451,17.4043261 C80.2995008,17.8369384 80.3993344,18.2362729 80.6322795,18.6356073 C80.8652246,18.968386 81.1314476,19.3011647 81.4642263,19.4675541 C82.3960067,19.8668885 83.4608985,19.8668885 84.359401,19.4675541 C84.6921797,19.3011647 85.0249584,18.968386 85.1913478,18.6356073 C85.4242928,18.2362729 85.5241265,17.8702163 85.5906822,17.4043261 C85.6905158,16.40599 85.6905158,15.4742097 85.5906822,14.4758735 L85.5906822,14.4758735 Z" id="Shape"></path>
                <polygon id="Shape" points="108.386023 21.7304493 108.386023 10.9151414 104.126456 18.8019967 102.02995 18.8019967 97.6372712 10.9151414 97.6372712 21.7304493 94.8086522 21.7304493 94.8086522 5.52412646 97.6372712 5.52412646 103.061564 15.6073211 108.386023 5.52412646 111.214642 5.52412646 111.214642 21.7304493 108.386023 21.7304493"></polygon>
                <path d="M128.352745,18.5357737 C128.1198,19.3011647 127.687188,19.9667221 127.088186,20.4658902 C126.589018,20.8985025 126.023295,21.2312812 125.490849,21.4642263 C124.725458,21.7304493 123.926789,21.8635607 123.161398,21.8635607 C122.396007,21.8635607 121.56406,21.7637271 120.831947,21.4642263 C120.232945,21.2312812 119.667221,20.8985025 119.234609,20.4658902 C118.635607,19.9667221 118.169717,19.234609 117.97005,18.5357737 C117.737105,17.703827 117.637271,16.8053245 117.637271,15.9400998 C117.637271,15.0748752 117.737105,14.2096506 117.97005,13.3777038 C118.202995,12.6123128 118.635607,11.9467554 119.234609,11.4475874 C119.733777,11.014975 120.232945,10.6821963 120.831947,10.4492512 C121.597338,10.1830283 122.396007,10.0166389 123.161398,10.0499168 C123.926789,10.0499168 124.758735,10.1497504 125.490849,10.4492512 C126.08985,10.6821963 126.655574,11.014975 127.088186,11.4475874 C127.687188,11.9467554 128.153078,12.6788686 128.352745,13.3777038 C128.585691,14.2096506 128.685524,15.1081531 128.685524,15.9400998 C128.685524,16.8053245 128.552413,17.703827 128.352745,18.5357737 L128.352745,18.5357737 Z M125.856905,14.1430948 C125.757072,13.6439268 125.524126,13.1447587 125.091514,12.81198 C124.52579,12.3793677 123.860233,12.0798669 123.161398,12.1464226 C122.429285,12.0798669 121.730449,12.3793677 121.231281,12.81198 C120.831947,13.1447587 120.565724,13.6439268 120.46589,14.2096506 C120.232945,15.374376 120.232945,16.6056572 120.46589,17.8036606 C120.565724,18.3693844 120.798669,18.8019967 121.231281,19.2013311 C121.797005,19.6339434 122.462562,19.9334443 123.161398,19.8668885 C123.893511,19.8668885 124.592346,19.6339434 125.091514,19.2013311 C125.490849,18.8685524 125.757072,18.3693844 125.856905,17.8036606 C126.056572,16.5723794 126.056572,15.374376 125.856905,14.1430948 L125.856905,14.1430948 Z" id="Shape"></path>
                <path d="M150.915141,21.7304493 L150.915141,14.6755408 C150.981697,13.9434276 150.682196,13.2445923 150.14975,12.7454243 C149.584027,12.312812 148.918469,12.1464226 148.252912,12.1464226 C147.920133,12.1464226 147.520799,12.2129784 147.18802,12.312812 C146.855241,12.4126456 146.589018,12.5457571 146.289517,12.7454243 C145.990017,12.9450915 145.856905,13.2445923 145.690516,13.5108153 C145.524126,13.843594 145.457571,14.2429285 145.457571,14.608985 L145.457571,21.7637271 L142.795341,21.7637271 L142.795341,14.6755408 C142.861897,13.9434276 142.562396,13.2445923 142.02995,12.7454243 C141.464226,12.312812 140.798669,12.1464226 140.133111,12.1464226 C139.400998,12.1464226 138.735441,12.3793677 138.202995,12.7454243 C137.637271,13.2445923 137.304493,13.9767055 137.371048,14.6755408 L137.371048,21.7304493 L134.775374,21.7304493 L134.775374,10.1830283 L137.371048,10.1830283 L137.371048,11.3477537 C137.803661,10.9151414 138.369384,10.5823627 138.968386,10.4159734 C139.567388,10.1830283 140.232945,10.0831947 140.865225,10.0831947 C142.529118,10.0831947 143.793677,10.6489185 144.625624,11.7470882 C145.723794,10.6489185 147.221298,10.0166389 148.785358,10.0831947 C149.450915,10.0831947 150.049917,10.1830283 150.682196,10.3494176 C151.24792,10.515807 151.747088,10.78203 152.113145,11.1148087 C152.612313,11.5141431 153.011647,12.0133111 153.211314,12.5457571 C153.44426,13.1114809 153.544093,13.7104825 153.544093,14.3094842 L153.544093,21.6971714 L150.915141,21.6971714 L150.915141,21.7304493 L150.915141,21.7304493 Z" id="Shape"></path>
                <path d="M162.163062,16.6389351 C162.096506,17.5374376 162.429285,18.3693844 163.061564,19.0349418 C163.727121,19.6339434 164.658902,19.9667221 165.557404,19.9334443 C166.156406,19.9334443 166.788686,19.8668885 167.387687,19.6672213 C167.886855,19.4342762 168.386023,19.1680532 168.785358,18.7687188 L170.515807,20.1663894 C170.183028,20.4326123 169.85025,20.7321131 169.450915,20.9317804 C169.118136,21.1647255 168.718802,21.3311148 168.352745,21.4975042 C167.986689,21.6638935 167.520799,21.7637271 167.088186,21.8302829 C166.589018,21.8968386 166.023295,21.9301165 165.524126,21.9301165 C164.758735,21.9301165 163.960067,21.8302829 163.194676,21.6638935 C162.462562,21.4975042 161.863561,21.0981697 161.297837,20.6655574 C160.732113,20.1663894 160.299501,19.5673877 160.033278,18.8352745 C159.700499,17.936772 159.53411,17.0049917 159.53411,16.0732113 C159.53411,14.1763727 160.033278,12.7454243 161.09817,11.6805324 C162.196339,10.6156406 163.693844,10.0166389 165.191348,10.1164725 C166.023295,10.1164725 166.788686,10.2163062 167.587354,10.515807 C168.252912,10.7487521 168.851913,11.1148087 169.351082,11.6139767 C169.85025,12.1131448 170.249584,12.7121464 170.449251,13.3777038 C170.715474,14.109817 170.848586,14.875208 170.848586,15.640599 L170.848586,16.7054908 L162.196339,16.7054908 L162.163062,16.6389351 L162.163062,16.6389351 Z M168.053245,14.2096506 C167.986689,13.9434276 167.886855,13.7104825 167.787022,13.4775374 C167.554077,13.0449251 167.221298,12.6455907 166.788686,12.4126456 C166.289517,12.1464226 165.723794,12.0133111 165.191348,12.0133111 C164.625624,12.0133111 164.093178,12.1131448 163.527454,12.4126456 C163.094842,12.6455907 162.762063,13.0116473 162.529118,13.4775374 C162.429285,13.7104825 162.296173,13.9101498 162.262895,14.2096506 C162.229617,14.5091514 162.196339,14.7753744 162.196339,15.0415973 L168.186356,15.0415973 C168.1198,14.7420965 168.1198,14.4758735 168.053245,14.2096506 L168.053245,14.2096506 Z" id="Shape"></path>
                <path d="M184.858569,21.7304493 L184.858569,14.6755408 C184.925125,13.9434276 184.625624,13.2445923 184.093178,12.7454243 C183.527454,12.312812 182.861897,12.1464226 182.196339,12.1464226 C181.464226,12.1464226 180.798669,12.3793677 180.266223,12.7454243 C179.700499,13.2445923 179.36772,13.9767055 179.434276,14.6755408 L179.434276,21.7304493 L176.772047,21.7304493 L176.772047,10.1830283 L179.36772,10.1830283 L179.36772,11.3477537 C179.800333,10.9151414 180.366057,10.5823627 180.965058,10.3494176 C182.196339,9.95008319 183.527454,9.91680532 184.725458,10.2828619 C185.224626,10.4492512 185.723794,10.7154742 186.156406,11.0482529 C186.589018,11.4475874 186.988353,11.9467554 187.221298,12.4792013 C187.454243,13.0449251 187.487521,13.6439268 187.487521,14.2429285 L187.487521,21.6306156 L184.825291,21.6306156 L184.858569,21.7304493 L184.858569,21.7304493 Z" id="Shape"></path>
                <path d="M198.069884,21.7304493 C197.50416,21.7304493 196.971714,21.6638935 196.472546,21.4642263 C196.073211,21.2978369 195.707155,21.0648918 195.374376,20.7321131 C195.108153,20.4658902 194.875208,20.0665557 194.708819,19.733777 C194.542429,19.3344426 194.475874,18.968386 194.475874,18.5024958 L194.475874,12.1797005 L192.978369,12.1797005 L192.978369,10.4159734 L194.475874,10.4159734 L194.475874,6.921797 L197.138103,6.921797 L197.138103,10.4159734 L199.700499,10.4159734 L199.700499,12.1797005 L197.138103,12.1797005 L197.138103,18.4026622 C197.138103,18.8019967 197.237937,19.1347754 197.470882,19.4009983 C197.803661,19.6672213 198.202995,19.8003328 198.569052,19.733777 L199.667221,19.733777 L199.667221,21.7304493 L198.069884,21.7304493 L198.069884,21.7304493 Z" id="Shape"></path>
                <path d="M18.6356073,7.65391015 L8.41930116,14.5757072 C8.31946755,14.6422629 8.25291181,14.7420965 8.1530782,14.8419301 L1.2312812,24.9916805 C0.299500832,26.3227953 0.565723794,26.5890183 1.83028286,25.6572379 L12.046589,18.7354409 C12.1464226,18.6688852 12.2795341,18.5690516 12.312812,18.469218 L19.234609,8.25291181 C20.2329451,6.98835275 19.9001664,6.72212978 18.6356073,7.65391015 L18.6356073,7.65391015 Z M10.5490849,17.9034942 C9.81697171,18.0698835 9.15141431,17.6372712 8.98502496,16.9717138 C8.91846922,16.8053245 8.91846922,16.5723794 8.98502496,16.3727121 C9.15141431,15.640599 9.81697171,15.2745424 10.5490849,15.4409318 C11.281198,15.6073211 11.6472546,16.2728785 11.4808652,17.0049917 C11.3810316,17.4708819 11.0482529,17.8036606 10.5490849,17.9034942 L10.5490849,17.9034942 Z" id="Shape"></path>
                <path d="M26.6888519,26.3893511 L23.8602329,26.3893511 L23.8602329,5.25790349 C23.8602329,3.92678869 22.7953411,2.82861897 21.4309484,2.82861897 L0,2.82861897 L0,0.0665557404 L23.5607321,0.0665557404 C25.2911814,0.0665557404 26.655574,1.46422629 26.655574,3.16139767 C26.6888519,3.16139767 26.6888519,26.3893511 26.6888519,26.3893511 L26.6888519,26.3893511 Z" id="Shape"></path>
            </g>
        </g>
    </g>
</svg>