<?xml version="1.0" encoding="UTF-8"?>
<svg width="161px" height="46px" viewBox="0 0 161 46" version="1.1" xmlns="http://www.w3.org/2000/svg" xmlns:xlink="http://www.w3.org/1999/xlink">
    <!-- Generator: Sketch 43.1 (39012) - http://www.bohemiancoding.com/sketch -->
    <title>logo</title>
    <desc>Created with Sketch.</desc>
    <g id="_Client" stroke="none" stroke-width="1" fill="none" fill-rule="evenodd">
        <g id="nude" transform="translate(-55.000000, -49.000000)" fill="#040000">
            <g id="logo" transform="translate(55.000000, 49.000000)">
                <path d="M121.381944,0.133680556 L121.381944,34.7302083 C121.381944,39.8368056 117.745833,43.7135417 112.853125,43.7135417 C107.960417,43.7135417 104.083681,39.7298611 104.083681,34.7302083 C104.083681,29.7305556 107.960417,25.746875 112.853125,25.746875 C115.927778,25.746875 118.440972,27.2173611 120.018403,29.6236111 L120.018403,27.0034722 C118.200347,25.1854167 115.687153,24.1694444 112.853125,24.1694444 C107.051389,24.1694444 102.399306,28.8215278 102.399306,34.8638889 C102.399306,40.90625 106.944444,45.5583333 112.853125,45.5583333 C116.489236,45.5583333 119.670833,43.7402778 121.381944,40.90625 L121.381944,45.1840278 L123.093056,45.1840278 L123.093056,0.133680556 L121.381944,0.133680556 L121.381944,0.133680556 Z M157.903472,40.5052083 C156.192361,42.7777778 153.812847,44.034375 150.63125,44.034375 C145.390972,44.034375 141.647917,40.5052083 141.540972,35.5055556 L141.540972,34.5965278 C141.540972,34.2489583 141.647917,33.7944444 141.647917,33.7944444 C142.102431,29.35625 145.738542,26.0677083 150.283681,26.0677083 C154.935764,26.0677083 158.144097,29.0354167 158.705556,33.7944444 L143.118403,33.7944444 C143.118403,33.7944444 142.877778,34.5965278 143.011458,35.5055556 L160.416667,35.5055556 L160.416667,34.9440972 C160.176042,28.5809028 156.085417,24.4902778 150.176736,24.4902778 C144.375,24.4902778 139.722917,29.1423611 139.722917,35.1847222 C139.722917,41.3340278 144.268056,45.8791667 150.657986,45.8791667 C154.401042,45.8791667 157.36875,44.515625 159.427431,41.7885417 L159.775,41.3340278 L158.411458,40.3180556 L157.903472,40.5052083 L157.903472,40.5052083 L157.903472,40.5052083 Z M78.7378472,43.8204861 C75.6631944,43.8204861 72.0270833,42.6708333 72.0270833,37.0027778 L72.0270833,24.7041667 L70.3159722,24.7041667 L70.3159722,37.1097222 C70.3159722,42.4569444 73.390625,45.5315972 78.7378472,45.5315972 C80.4489583,45.5315972 82.3739583,44.9701389 83.978125,43.7135417 L83.978125,41.4409722 C82.4809028,43.1253472 80.3152778,43.8204861 78.7378472,43.8204861 L78.7378472,43.8204861 Z M85.4486111,24.7041667 L87.1597222,24.7041667 L87.1597222,45.0770833 L85.4486111,45.0770833 L85.4486111,24.7041667 L85.4486111,24.7041667 Z M44.7027778,24.1427083 C42.9916667,24.1427083 41.0666667,24.7041667 39.4625,25.9607639 L39.4625,28.3402778 C40.8260417,26.5222222 42.9916667,25.7201389 44.7027778,25.7201389 C47.7774306,25.7201389 51.4135417,26.8697917 51.4135417,32.5378472 L51.4135417,44.9434028 L53.1246528,44.9434028 L53.1246528,32.6447917 C53.1246528,27.190625 50.05,24.1427083 44.7027778,24.1427083 L44.7027778,24.1427083 Z M36.2809028,24.7041667 L37.9920139,24.7041667 L37.9920139,45.0770833 L36.2809028,45.0770833 L36.2809028,24.7041667 L36.2809028,24.7041667 Z M4.78576389,44.1413194 L6.60381944,44.1413194 L6.60381944,33.0993056 L4.78576389,33.0993056 L4.78576389,42.3232639 L4.78576389,44.1413194 L4.78576389,44.1413194 Z M4.78576389,24.5972222 L6.60381944,24.5972222 L6.60381944,28.4739583 L4.78576389,28.4739583 L4.78576389,24.5972222 L4.78576389,24.5972222 Z M11.9510417,35.5055556 L13.7690972,35.5055556 L13.7690972,24.5972222 L11.9510417,24.5972222 L11.9510417,35.0510417 L11.9510417,35.5055556 L11.9510417,35.5055556 Z M11.9510417,40.2913194 L13.7690972,40.2913194 L13.7690972,44.1680556 L11.9510417,44.1680556 L11.9510417,40.2913194 L11.9510417,40.2913194 Z M9.67847222,31.6288194 L10.4805556,31.6288194 L10.4805556,29.9444444 L0,29.9444444 L0,31.6555556 L9.67847222,31.6555556 L9.67847222,31.6288194 Z M15.1326389,29.8107639 L18.4211806,29.8107639 L18.4211806,31.6288194 L15.1326389,31.6288194 L15.1326389,29.8107639 L15.1326389,29.8107639 Z M0,36.9760417 L3.28854167,36.9760417 L3.28854167,38.7940972 L0,38.7940972 L0,36.9760417 L0,36.9760417 Z M8.07430556,36.9760417 L8.07430556,38.7940972 L18.528125,38.7940972 L18.528125,36.9760417 L9.09027778,36.9760417 L8.07430556,36.9760417 L8.07430556,36.9760417 Z" id="Shape"></path>
            </g>
        </g>
    </g>
</svg>